<svg width="583" height="316" viewBox="0 0 583 316" fill="none" xmlns="http://www.w3.org/2000/svg">
<g filter="url(#filter0_d_4364_28403)">
<rect x="28.02" y="23" width="530.52" height="254" rx="12" fill="#0D366F" shape-rendering="crispEdges"/>
<rect x="28.02" y="23" width="530.52" height="254" rx="12" fill="url(#paint0_linear_4364_28403)" shape-rendering="crispEdges"/>
<rect x="28.52" y="23.5" width="529.52" height="253" rx="11.5" stroke="#00A3E0" shape-rendering="crispEdges"/>
<path d="M45.332 51.192C44.436 51.192 43.636 51.016 42.9 50.696V49.208C43.572 49.56 44.372 49.768 45.156 49.768C46.484 49.768 47.636 49.192 47.636 47.928C47.636 45.32 42.772 46.216 42.772 42.744C42.772 40.76 44.34 39.64 46.356 39.64C47.124 39.64 47.972 39.8 48.74 40.072V41.512C47.956 41.24 47.108 41.048 46.42 41.048C45.444 41.048 44.436 41.432 44.436 42.6C44.436 45 49.268 44.056 49.268 47.832C49.268 50.072 47.572 51.192 45.332 51.192ZM55.38 42.84C57.412 42.84 58.9 44.488 58.9 46.968C58.9 49.48 57.412 51.16 55.364 51.16C54.276 51.16 53.364 50.68 52.772 49.848H52.74L52.74 54.2H51.3L51.3 43H52.804V44.056H52.836C53.444 43.288 54.324 42.84 55.38 42.84ZM54.98 49.88C56.388 49.88 57.332 48.712 57.332 46.968C57.332 45.256 56.404 44.12 54.996 44.12C53.588 44.12 52.66 45.256 52.66 46.968C52.66 48.712 53.588 49.88 54.98 49.88ZM64.461 51.16C61.661 51.16 60.365 49.208 60.365 46.872C60.365 44.504 61.645 42.856 64.061 42.856C66.621 42.856 67.613 44.76 67.581 47.336H61.965C61.965 48.92 63.037 49.88 64.525 49.88C65.261 49.88 66.157 49.64 67.149 49.16V50.504C66.301 50.952 65.373 51.16 64.461 51.16ZM61.965 46.152H65.981C65.933 44.92 65.181 44.12 64.013 44.12C62.845 44.12 62.141 44.92 61.965 46.152ZM73.7554 42.84C75.7554 42.84 76.8754 44.168 76.8754 46.68V51H75.3714V46.552C75.3714 44.92 74.6834 44.104 73.4514 44.104C72.1874 44.104 71.2434 44.984 71.1634 46.84V51H69.6594V43H71.1154V44.168H71.1634C71.7074 43.288 72.6034 42.84 73.7554 42.84ZM85.0086 44.056V39H86.5126V51H85.0726V49.848H85.0246C84.4326 50.68 83.5206 51.16 82.4326 51.16C80.3846 51.16 78.8966 49.48 78.8966 46.968C78.8966 44.488 80.3846 42.84 82.4166 42.84C83.4726 42.84 84.3526 43.288 84.9606 44.056H85.0086ZM82.8166 49.88C84.2086 49.88 85.1366 48.712 85.1366 46.968C85.1366 45.256 84.2086 44.12 82.8006 44.12C81.3926 44.12 80.4646 45.256 80.4646 46.968C80.4646 48.712 81.4086 49.88 82.8166 49.88ZM92.3523 41.208V39.8H100.896V41.208H97.4243V51H95.8243V41.208H92.3523ZM102.615 44.248H102.663C103.271 43.16 104.279 42.68 105.703 42.872V44.136C103.719 43.864 102.743 44.792 102.663 47.064V51H101.159V43H102.615V44.248ZM110.633 51.16C107.833 51.16 106.537 49.208 106.537 46.872C106.537 44.504 107.817 42.856 110.233 42.856C112.793 42.856 113.785 44.76 113.753 47.336H108.137C108.137 48.92 109.209 49.88 110.697 49.88C111.433 49.88 112.329 49.64 113.321 49.16V50.504C112.473 50.952 111.545 51.16 110.633 51.16ZM108.137 46.152H112.153C112.105 44.92 111.353 44.12 110.185 44.12C109.017 44.12 108.313 44.92 108.137 46.152ZM119.927 42.84C121.927 42.84 123.047 44.168 123.047 46.68V51H121.543V46.552C121.543 44.92 120.855 44.104 119.623 44.104C118.359 44.104 117.415 44.984 117.335 46.84V51H115.831V43L117.287 43V44.168H117.335C117.879 43.288 118.775 42.84 119.927 42.84ZM131.181 44.056V39H132.685V51H131.245V49.848H131.197C130.605 50.68 129.693 51.16 128.605 51.16C126.557 51.16 125.069 49.48 125.069 46.968C125.069 44.488 126.557 42.84 128.589 42.84C129.645 42.84 130.525 43.288 131.133 44.056H131.181ZM128.989 49.88C130.381 49.88 131.309 48.712 131.309 46.968C131.309 45.256 130.381 44.12 128.973 44.12C127.565 44.12 126.637 45.256 126.637 46.968C126.637 48.712 127.581 49.88 128.989 49.88ZM136.886 51.16C136.278 51.16 135.27 51.032 134.55 50.728V49.48C135.238 49.8 135.99 49.944 136.582 49.944C137.334 49.944 138.422 49.704 138.422 48.84C138.422 47.128 134.502 47.64 134.502 45.144C134.502 43.48 135.814 42.856 137.494 42.856C138.214 42.856 138.822 42.968 139.446 43.16V44.408C138.95 44.2 138.23 44.024 137.638 44.024C136.838 44.024 135.974 44.344 135.974 45C135.974 46.648 139.862 46.136 139.862 48.68C139.862 50.376 138.406 51.16 136.886 51.16Z" fill="white"/>
<g filter="url(#filter1_d_4364_28403)">
<circle cx="430.52" cy="50.5" r="4.5" fill="#FFC846"/>
</g>
<path d="M446.642 53.838L450.086 45.2H451.948V55H450.828V46.362H450.8L447.342 55H445.928L442.47 46.362H442.442V55H441.322V45.2H443.184L446.642 53.838ZM456.922 47.86C459.064 47.86 459.792 48.98 459.792 50.884V55H458.84V54.02H458.812C458.434 54.566 457.818 55.14 456.502 55.14C455.116 55.14 453.926 54.524 453.926 52.97C453.926 51.164 455.578 50.744 457.104 50.716C457.622 50.702 458.168 50.716 458.742 50.744C458.742 49.344 458.224 48.756 456.768 48.756C455.844 48.756 455.228 49.022 454.668 49.344V48.448C455.27 48.112 455.914 47.86 456.922 47.86ZM456.586 54.272C457.818 54.272 458.714 53.572 458.756 52.368L458.742 51.556C458.336 51.528 457.888 51.514 457.426 51.514C455.9 51.528 455.046 51.99 455.046 52.97C455.046 53.866 455.648 54.272 456.586 54.272ZM463.319 48H465.167V48.924H463.319V53.138C463.319 53.852 463.501 54.146 464.131 54.174C464.369 54.188 464.691 54.146 464.957 54.104V54.972C464.663 55.042 464.327 55.084 464.005 55.084C462.787 55.084 462.255 54.44 462.255 53.124V48.924H461.009V48H462.255V46.348L463.319 45.97V48ZM469.827 55.14C467.461 55.14 466.285 53.488 466.285 51.388C466.285 49.302 467.405 47.874 469.477 47.874C471.633 47.874 472.543 49.442 472.529 51.696H467.405C467.405 53.222 468.357 54.23 469.869 54.23C470.527 54.23 471.325 54.034 472.151 53.628V54.58C471.423 54.958 470.611 55.14 469.827 55.14ZM467.405 50.842H471.409C471.367 49.596 470.653 48.77 469.449 48.77C468.259 48.77 467.545 49.568 467.405 50.842ZM475.51 49.4C476.028 48.238 476.952 47.706 478.31 47.888V48.784C476.504 48.532 475.594 49.54 475.552 51.738V55H474.488V48H475.51V49.4ZM481.148 45.2V46.544H480.028V45.2H481.148ZM481.12 48V55H480.056V48H481.12ZM486.18 47.86C488.322 47.86 489.05 48.98 489.05 50.884V55H488.098V54.02H488.07C487.692 54.566 487.076 55.14 485.76 55.14C484.374 55.14 483.184 54.524 483.184 52.97C483.184 51.164 484.836 50.744 486.362 50.716C486.88 50.702 487.426 50.716 488 50.744C488 49.344 487.482 48.756 486.026 48.756C485.102 48.756 484.486 49.022 483.926 49.344V48.448C484.528 48.112 485.172 47.86 486.18 47.86ZM485.844 54.272C487.076 54.272 487.972 53.572 488.014 52.368L488 51.556C487.594 51.528 487.146 51.514 486.684 51.514C485.158 51.528 484.304 51.99 484.304 52.97C484.304 53.866 484.906 54.272 485.844 54.272ZM493.207 55.07C492.171 55.07 491.541 54.482 491.541 53.012V44.5H492.605V53.082C492.605 53.88 492.815 54.09 493.305 54.132C493.487 54.146 493.655 54.132 493.809 54.118V54.986C493.557 55.056 493.333 55.07 493.207 55.07ZM500.955 55.168C500.143 55.168 499.471 55 498.869 54.734V53.698C499.429 53.978 500.115 54.16 500.843 54.16C502.201 54.16 503.223 53.544 503.223 52.354C503.223 49.876 498.757 50.73 498.757 47.706C498.757 46.054 500.045 45.06 501.851 45.06C502.509 45.06 503.223 45.186 503.909 45.424V46.432C503.223 46.208 502.495 46.054 501.893 46.054C500.815 46.054 499.919 46.544 499.919 47.608C499.919 49.862 504.371 48.98 504.371 52.298C504.371 54.16 502.957 55.168 500.955 55.168ZM509.747 47.86C511.553 47.86 512.799 49.274 512.799 51.472C512.799 53.698 511.553 55.14 509.733 55.14C508.683 55.14 507.843 54.65 507.325 53.81V57.8H506.303V48H507.367V49.106C507.899 48.308 508.725 47.86 509.747 47.86ZM509.481 54.23C510.839 54.23 511.693 53.152 511.693 51.472C511.693 49.82 510.839 48.77 509.495 48.77C508.151 48.77 507.269 49.82 507.269 51.472C507.269 53.152 508.151 54.23 509.481 54.23ZM517.72 55.14C515.354 55.14 514.178 53.488 514.178 51.388C514.178 49.302 515.298 47.874 517.37 47.874C519.526 47.874 520.436 49.442 520.422 51.696L515.298 51.696C515.298 53.222 516.25 54.23 517.762 54.23C518.42 54.23 519.218 54.034 520.044 53.628V54.58C519.316 54.958 518.504 55.14 517.72 55.14ZM515.298 50.842L519.302 50.842C519.26 49.596 518.546 48.77 517.342 48.77C516.152 48.77 515.438 49.568 515.298 50.842ZM525.839 47.86C527.561 47.86 528.541 49.036 528.541 51.22V55H527.477V51.136C527.477 49.568 526.819 48.756 525.629 48.756C524.425 48.756 523.515 49.61 523.445 51.332V55H522.381V48H523.417V49.26C523.893 48.336 524.733 47.86 525.839 47.86ZM535.811 49.12V44.5H536.875V55H535.853V53.796C535.335 54.65 534.495 55.14 533.431 55.14C531.625 55.14 530.379 53.698 530.379 51.472C530.379 49.274 531.625 47.86 533.431 47.86C534.453 47.86 535.293 48.322 535.811 49.12ZM533.683 54.23C535.027 54.23 535.909 53.152 535.909 51.472C535.909 49.82 535.027 48.77 533.683 48.77C532.325 48.77 531.471 49.82 531.471 51.472C531.471 53.152 532.339 54.23 533.683 54.23Z" fill="white"/>
<g filter="url(#filter2_d_4364_28403)">
<circle cx="303.52" cy="50.5" r="4.5" fill="#00A3E0"/>
</g>
<path d="M318.774 55.14C315.722 55.14 313.804 53.138 313.804 50.114C313.804 47.062 315.736 45.06 318.788 45.06C319.642 45.06 320.398 45.214 321.07 45.466V46.474C320.412 46.236 319.614 46.054 318.816 46.054C316.422 46.054 314.952 47.664 314.952 50.114C314.952 52.55 316.45 54.132 318.83 54.132C319.446 54.132 320.3 54.034 321.112 53.754V54.79C320.37 55.014 319.544 55.14 318.774 55.14ZM325.68 55.14C323.65 55.14 322.264 53.656 322.264 51.5C322.264 49.344 323.65 47.86 325.68 47.86C327.71 47.86 329.096 49.344 329.096 51.5C329.096 53.656 327.71 55.14 325.68 55.14ZM325.68 54.244C327.066 54.244 327.962 53.152 327.962 51.5C327.962 49.848 327.066 48.756 325.68 48.756C324.294 48.756 323.384 49.848 323.384 51.5C323.384 53.152 324.294 54.244 325.68 54.244ZM334.472 47.86C336.194 47.86 337.174 49.036 337.174 51.22V55H336.11V51.136C336.11 49.568 335.452 48.756 334.262 48.756C333.058 48.756 332.148 49.61 332.078 51.332V55L331.014 55V48H332.05V49.26C332.526 48.336 333.366 47.86 334.472 47.86ZM340.776 48H342.624V48.924H340.776V53.138C340.776 53.852 340.958 54.146 341.588 54.174C341.826 54.188 342.148 54.146 342.414 54.104V54.972C342.12 55.042 341.784 55.084 341.462 55.084C340.244 55.084 339.712 54.44 339.712 53.124V48.924H338.466V48H339.712V46.348L340.776 45.97V48ZM345.338 49.4C345.856 48.238 346.78 47.706 348.138 47.888V48.784C346.332 48.532 345.422 49.54 345.38 51.738V55H344.316V48H345.338V49.4ZM352.194 47.86C354.336 47.86 355.064 48.98 355.064 50.884V55H354.112V54.02H354.084C353.706 54.566 353.09 55.14 351.774 55.14C350.388 55.14 349.198 54.524 349.198 52.97C349.198 51.164 350.85 50.744 352.376 50.716C352.894 50.702 353.44 50.716 354.014 50.744C354.014 49.344 353.496 48.756 352.04 48.756C351.116 48.756 350.5 49.022 349.94 49.344V48.448C350.542 48.112 351.186 47.86 352.194 47.86ZM351.858 54.272C353.09 54.272 353.986 53.572 354.028 52.368L354.014 51.556C353.608 51.528 353.16 51.514 352.698 51.514C351.172 51.528 350.318 51.99 350.318 52.97C350.318 53.866 350.92 54.272 351.858 54.272ZM366.795 48V48.924H364.947V53.138C364.947 53.852 365.129 54.146 365.759 54.174C365.997 54.188 366.319 54.146 366.585 54.104V54.972C366.291 55.042 365.955 55.084 365.633 55.084C364.415 55.084 363.883 54.44 363.883 53.124V48.924H363.575C362.553 48.924 362.917 49.442 361.811 49.05C361.321 48.882 360.761 48.784 360.243 48.812C358.815 48.91 357.793 49.946 357.793 51.5C357.793 53.054 358.815 54.104 360.257 54.174C360.845 54.202 361.489 54.09 362.133 53.824V54.776C361.545 55.028 360.915 55.14 360.313 55.14C358.171 55.14 356.673 53.642 356.673 51.5C356.673 49.358 358.171 47.86 360.313 47.86C360.845 47.86 361.335 47.986 361.769 48.126C362.973 48.504 362.693 48 363.575 48H363.883V46.348L364.947 45.97V48H366.795ZM373.982 55.168C373.17 55.168 372.498 55 371.896 54.734V53.698C372.456 53.978 373.142 54.16 373.87 54.16C375.228 54.16 376.25 53.544 376.25 52.354C376.25 49.876 371.784 50.73 371.784 47.706C371.784 46.054 373.072 45.06 374.878 45.06C375.536 45.06 376.25 45.186 376.936 45.424V46.432C376.25 46.208 375.522 46.054 374.92 46.054C373.842 46.054 372.946 46.544 372.946 47.608C372.946 49.862 377.398 48.98 377.398 52.298C377.398 54.16 375.984 55.168 373.982 55.168ZM382.774 47.86C384.58 47.86 385.826 49.274 385.826 51.472C385.826 53.698 384.58 55.14 382.76 55.14C381.71 55.14 380.87 54.65 380.352 53.81V57.8H379.33V48H380.394V49.106C380.926 48.308 381.752 47.86 382.774 47.86ZM382.508 54.23C383.866 54.23 384.72 53.152 384.72 51.472C384.72 49.82 383.866 48.77 382.522 48.77C381.178 48.77 380.296 49.82 380.296 51.472C380.296 53.152 381.178 54.23 382.508 54.23ZM390.747 55.14C388.381 55.14 387.205 53.488 387.205 51.388C387.205 49.302 388.325 47.874 390.397 47.874C392.553 47.874 393.463 49.442 393.449 51.696L388.325 51.696C388.325 53.222 389.277 54.23 390.789 54.23C391.447 54.23 392.245 54.034 393.071 53.628V54.58C392.343 54.958 391.531 55.14 390.747 55.14ZM388.325 50.842L392.329 50.842C392.287 49.596 391.573 48.77 390.369 48.77C389.179 48.77 388.465 49.568 388.325 50.842ZM398.866 47.86C400.588 47.86 401.568 49.036 401.568 51.22V55H400.504V51.136C400.504 49.568 399.846 48.756 398.656 48.756C397.452 48.756 396.542 49.61 396.472 51.332V55H395.408V48H396.444V49.26C396.92 48.336 397.76 47.86 398.866 47.86ZM408.839 49.12V44.5H409.903V55H408.881V53.796C408.363 54.65 407.523 55.14 406.459 55.14C404.653 55.14 403.407 53.698 403.407 51.472C403.407 49.274 404.653 47.86 406.459 47.86C407.481 47.86 408.321 48.322 408.839 49.12ZM406.711 54.23C408.055 54.23 408.937 53.152 408.937 51.472C408.937 49.82 408.055 48.77 406.711 48.77C405.353 48.77 404.499 49.82 404.499 51.472C404.499 53.152 405.367 54.23 406.711 54.23Z" fill="white"/>
<path d="M47.7045 101.818H48.7784C48.8097 102.114 48.9105 102.364 49.081 102.568C49.2543 102.77 49.4787 102.923 49.7543 103.028C50.0298 103.131 50.3352 103.182 50.6705 103.182C51.0341 103.182 51.3608 103.121 51.6506 102.999C51.9403 102.876 52.1705 102.695 52.3409 102.453C52.5114 102.209 52.5966 101.906 52.5966 101.545C52.5966 101.23 52.5227 100.937 52.375 100.668C52.2273 100.395 51.9901 100.175 51.6634 100.007C51.3366 99.8395 50.9034 99.7557 50.3636 99.7557H49.6648V98.9034L51.8466 96.2784V96.2102H48.1307V95.2727H53.2955V96.0398L50.9602 98.8693V98.9375C51.3352 98.9545 51.6847 99.0312 52.0085 99.1676C52.3352 99.304 52.6193 99.4886 52.8608 99.7216C53.1051 99.9545 53.2955 100.226 53.4318 100.536C53.5682 100.845 53.6364 101.182 53.6364 101.545C53.6364 102.043 53.5085 102.486 53.2528 102.875C53 103.261 52.6491 103.565 52.2003 103.787C51.7543 104.009 51.2386 104.119 50.6534 104.119C50.1364 104.119 49.6605 104.028 49.2259 103.847C48.7912 103.665 48.4375 103.402 48.1648 103.058C47.892 102.714 47.7386 102.301 47.7045 101.818ZM58.2227 104.119C57.5806 104.119 57.0337 103.945 56.582 103.595C56.1303 103.243 55.7852 102.733 55.5465 102.065C55.3079 101.395 55.1886 100.585 55.1886 99.6364C55.1886 98.6932 55.3079 97.8878 55.5465 97.2202C55.788 96.5497 56.1346 96.0384 56.5863 95.6861C57.0408 95.331 57.5863 95.1534 58.2227 95.1534C58.859 95.1534 59.4031 95.331 59.8548 95.6861C60.3093 96.0384 60.6559 96.5497 60.8945 97.2202C61.136 97.8878 61.2567 98.6932 61.2567 99.6364C61.2567 100.585 61.1374 101.395 60.8988 102.065C60.6602 102.733 60.315 103.243 59.8633 103.595C59.4116 103.945 58.8647 104.119 58.2227 104.119ZM58.2227 103.182C58.859 103.182 59.3533 102.875 59.7056 102.261C60.0579 101.648 60.234 100.773 60.234 99.6364C60.234 98.8807 60.1531 98.2372 59.9911 97.706C59.832 97.1747 59.6019 96.7699 59.3008 96.4915C59.0025 96.2131 58.6431 96.0739 58.2227 96.0739C57.592 96.0739 57.0991 96.3849 56.744 97.0071C56.3888 97.6264 56.2113 98.5028 56.2113 99.6364C56.2113 100.392 56.2908 101.034 56.4499 101.562C56.609 102.091 56.8377 102.493 57.136 102.768C57.4371 103.044 57.7994 103.182 58.2227 103.182ZM63.8306 101.614L63.8136 100.369H64.0181L66.8817 97.4545H68.1261L65.0749 100.54H64.9897L63.8306 101.614ZM62.8931 104V95.2727H63.8988V104H62.8931ZM67.0522 104L64.4954 100.761L65.2113 100.062L68.3306 104H67.0522Z" fill="white"/>
<path d="M48.1104 150.25V149.483L50.9911 146.33C51.3292 145.96 51.6076 145.639 51.8263 145.366C52.0451 145.091 52.207 144.832 52.3121 144.591C52.4201 144.347 52.4741 144.091 52.4741 143.824C52.4741 143.517 52.4002 143.251 52.2525 143.027C52.1076 142.803 51.9087 142.629 51.6559 142.507C51.4031 142.385 51.119 142.324 50.8036 142.324C50.4684 142.324 50.1758 142.393 49.9258 142.533C49.6786 142.669 49.4869 142.861 49.3505 143.108C49.217 143.355 49.1502 143.645 49.1502 143.977H48.1445C48.1445 143.466 48.2624 143.017 48.4982 142.631C48.734 142.244 49.055 141.943 49.4613 141.727C49.8704 141.511 50.3292 141.403 50.8377 141.403C51.3491 141.403 51.8022 141.511 52.1971 141.727C52.592 141.943 52.9016 142.234 53.1261 142.601C53.3505 142.967 53.4627 143.375 53.4627 143.824C53.4627 144.145 53.4045 144.459 53.288 144.766C53.1744 145.07 52.9755 145.409 52.6914 145.784C52.4102 146.156 52.0195 146.611 51.5195 147.148L49.5593 149.244V149.312H53.6161V150.25H48.1104ZM58.2227 150.369C57.5806 150.369 57.0337 150.195 56.582 149.845C56.1303 149.493 55.7852 148.983 55.5465 148.315C55.3079 147.645 55.1886 146.835 55.1886 145.886C55.1886 144.943 55.3079 144.138 55.5465 143.47C55.788 142.8 56.1346 142.288 56.5863 141.936C57.0408 141.581 57.5863 141.403 58.2227 141.403C58.859 141.403 59.4031 141.581 59.8548 141.936C60.3093 142.288 60.6559 142.8 60.8945 143.47C61.136 144.138 61.2567 144.943 61.2567 145.886C61.2567 146.835 61.1374 147.645 60.8988 148.315C60.6602 148.983 60.315 149.493 59.8633 149.845C59.4116 150.195 58.8647 150.369 58.2227 150.369ZM58.2227 149.432C58.859 149.432 59.3533 149.125 59.7056 148.511C60.0579 147.898 60.234 147.023 60.234 145.886C60.234 145.131 60.1531 144.487 59.9911 143.956C59.832 143.425 59.6019 143.02 59.3008 142.741C59.0025 142.463 58.6431 142.324 58.2227 142.324C57.592 142.324 57.0991 142.635 56.744 143.257C56.3888 143.876 56.2113 144.753 56.2113 145.886C56.2113 146.642 56.2908 147.284 56.4499 147.812C56.609 148.341 56.8377 148.743 57.136 149.018C57.4371 149.294 57.7994 149.432 58.2227 149.432ZM63.8306 147.864L63.8136 146.619H64.0181L66.8817 143.705H68.1261L65.0749 146.79H64.9897L63.8306 147.864ZM62.8931 150.25V141.523H63.8988V150.25H62.8931ZM67.0522 150.25L64.4954 147.011L65.2113 146.312L68.3306 150.25H67.0522Z" fill="white"/>
<path d="M52.8746 187.773V196.5H51.8178V189.307H51.7496C51.7099 189.386 51.6076 189.477 51.4428 189.58C51.2781 189.679 51.065 189.767 50.8036 189.844C50.5423 189.918 50.244 189.955 49.9087 189.955V189.068C50.2468 189.068 50.5394 189.007 50.7866 188.885C51.0337 188.763 51.2397 188.619 51.4045 188.455C51.5721 188.29 51.6985 188.141 51.7837 188.007C51.8718 187.874 51.9229 187.795 51.9371 187.773H52.8746ZM58.2227 196.619C57.5806 196.619 57.0337 196.445 56.582 196.095C56.1303 195.743 55.7852 195.233 55.5465 194.565C55.3079 193.895 55.1886 193.085 55.1886 192.136C55.1886 191.193 55.3079 190.388 55.5465 189.72C55.788 189.05 56.1346 188.538 56.5863 188.186C57.0408 187.831 57.5863 187.653 58.2227 187.653C58.859 187.653 59.4031 187.831 59.8548 188.186C60.3093 188.538 60.6559 189.05 60.8945 189.72C61.136 190.388 61.2567 191.193 61.2567 192.136C61.2567 193.085 61.1374 193.895 60.8988 194.565C60.6602 195.233 60.315 195.743 59.8633 196.095C59.4116 196.445 58.8647 196.619 58.2227 196.619ZM58.2227 195.682C58.859 195.682 59.3533 195.375 59.7056 194.761C60.0579 194.148 60.234 193.273 60.234 192.136C60.234 191.381 60.1531 190.737 59.9911 190.206C59.832 189.675 59.6019 189.27 59.3008 188.991C59.0025 188.713 58.6431 188.574 58.2227 188.574C57.592 188.574 57.0991 188.885 56.744 189.507C56.3888 190.126 56.2113 191.003 56.2113 192.136C56.2113 192.892 56.2908 193.534 56.4499 194.062C56.609 194.591 56.8377 194.993 57.136 195.268C57.4371 195.544 57.7994 195.682 58.2227 195.682ZM63.8306 194.114L63.8136 192.869H64.0181L66.8817 189.955H68.1261L65.0749 193.04H64.9897L63.8306 194.114ZM62.8931 196.5V187.773H63.8988V196.5H62.8931ZM67.0522 196.5L64.4954 193.261L65.2113 192.562L68.3306 196.5H67.0522Z" fill="white"/>
<path d="M64.75 242.869C64.108 242.869 63.5611 242.695 63.1094 242.345C62.6577 241.993 62.3125 241.483 62.0739 240.815C61.8352 240.145 61.7159 239.335 61.7159 238.386C61.7159 237.443 61.8352 236.638 62.0739 235.97C62.3153 235.3 62.6619 234.788 63.1136 234.436C63.5682 234.081 64.1136 233.903 64.75 233.903C65.3864 233.903 65.9304 234.081 66.3821 234.436C66.8366 234.788 67.1832 235.3 67.4219 235.97C67.6634 236.638 67.7841 237.443 67.7841 238.386C67.7841 239.335 67.6648 240.145 67.4261 240.815C67.1875 241.483 66.8423 241.993 66.3906 242.345C65.9389 242.695 65.392 242.869 64.75 242.869ZM64.75 241.932C65.3864 241.932 65.8807 241.625 66.233 241.011C66.5852 240.398 66.7614 239.523 66.7614 238.386C66.7614 237.631 66.6804 236.987 66.5185 236.456C66.3594 235.925 66.1293 235.52 65.8281 235.241C65.5298 234.963 65.1705 234.824 64.75 234.824C64.1193 234.824 63.6264 235.135 63.2713 235.757C62.9162 236.376 62.7386 237.253 62.7386 238.386C62.7386 239.142 62.8182 239.784 62.9773 240.312C63.1364 240.841 63.3651 241.243 63.6634 241.518C63.9645 241.794 64.3267 241.932 64.75 241.932Z" fill="white"/>
<line x1="84.75" y1="92.75" x2="538.25" y2="92.75" stroke="black" stroke-opacity="0.05" stroke-width="0.5" stroke-linecap="round"/>
<line x1="84.75" y1="139.75" x2="538.25" y2="139.75" stroke="black" stroke-opacity="0.05" stroke-width="0.5" stroke-linecap="round"/>
<line x1="84.75" y1="186.75" x2="538.25" y2="186.75" stroke="black" stroke-opacity="0.05" stroke-width="0.5" stroke-linecap="round"/>
<line x1="84.75" y1="233.75" x2="538.25" y2="233.75" stroke="#DADADA" stroke-width="0.5" stroke-linecap="round"/>
<path d="M119.476 256.036V255.22C119.824 255.268 120.136 255.304 120.424 255.268C121.228 255.184 121.552 254.62 121.552 253.612V247.6H122.512V253.684C122.512 255.412 121.576 256.06 120.556 256.132C120.232 256.156 119.884 256.12 119.476 256.036ZM126.797 249.88C128.633 249.88 129.257 250.84 129.257 252.472V256H128.441V255.16H128.417C128.093 255.628 127.565 256.12 126.437 256.12C125.249 256.12 124.229 255.592 124.229 254.26C124.229 252.712 125.645 252.352 126.953 252.328C127.397 252.316 127.865 252.328 128.357 252.352C128.357 251.152 127.913 250.648 126.665 250.648C125.873 250.648 125.345 250.876 124.865 251.152V250.384C125.381 250.096 125.933 249.88 126.797 249.88ZM126.509 255.376C127.565 255.376 128.333 254.776 128.369 253.744L128.357 253.048C128.009 253.024 127.625 253.012 127.229 253.012C125.921 253.024 125.189 253.42 125.189 254.26C125.189 255.028 125.705 255.376 126.509 255.376ZM134.212 249.88C135.688 249.88 136.528 250.888 136.528 252.76V256H135.616V252.688C135.616 251.344 135.052 250.648 134.032 250.648C133 250.648 132.22 251.38 132.16 252.856V256H131.248V250H132.136V251.08C132.544 250.288 133.264 249.88 134.212 249.88ZM146.689 256H141.445V255.124C143.833 252.76 145.573 251.296 145.573 249.892C145.573 248.836 144.721 248.32 143.725 248.32C142.969 248.32 142.225 248.608 141.709 248.932V248.02C142.345 247.696 143.161 247.468 143.941 247.468C145.429 247.468 146.569 248.32 146.569 249.88C146.569 251.488 145.189 252.724 142.789 255.088H146.689V256ZM151.821 256V253.996H147.741V253.204L151.413 247.6H152.781V253.144H153.837V253.996H152.781V256H151.821ZM151.821 253.144V248.452H151.797L148.725 253.144H151.821Z" fill="white"/>
<path d="M200.353 247.6V248.452H196.681V251.224H200.041V252.076H196.681V256H195.721V247.6H200.353ZM204.536 256.12C202.508 256.12 201.5 254.704 201.5 252.904C201.5 251.116 202.46 249.892 204.236 249.892C206.084 249.892 206.864 251.236 206.852 253.168H202.46C202.46 254.476 203.276 255.34 204.572 255.34C205.136 255.34 205.82 255.172 206.528 254.824V255.64C205.904 255.964 205.208 256.12 204.536 256.12ZM202.46 252.436H205.892C205.856 251.368 205.244 250.66 204.212 250.66C203.192 250.66 202.58 251.344 202.46 252.436ZM211.495 249.88C213.031 249.88 214.111 251.092 214.111 252.976C214.111 254.884 213.031 256.12 211.483 256.12C210.583 256.12 209.851 255.7 209.407 254.968V256H208.531V247H209.443V250.96C209.887 250.276 210.607 249.88 211.495 249.88ZM211.267 255.34C212.419 255.34 213.163 254.416 213.163 252.976C213.163 251.56 212.431 250.66 211.279 250.66C210.115 250.66 209.371 251.56 209.371 252.976C209.371 254.416 210.115 255.34 211.267 255.34ZM223.855 256H218.611V255.124C220.999 252.76 222.739 251.296 222.739 249.892C222.739 248.836 221.887 248.32 220.891 248.32C220.135 248.32 219.391 248.608 218.875 248.932V248.02C219.511 247.696 220.327 247.468 221.107 247.468C222.595 247.468 223.735 248.32 223.735 249.88C223.735 251.488 222.355 252.724 219.955 255.088H223.855V256ZM228.987 256V253.996H224.907V253.204L228.579 247.6H229.947V253.144H231.003V253.996H229.947V256H228.987ZM228.987 253.144V248.452H228.963L225.891 253.144H228.987Z" fill="white"/>
<path d="M275.427 255.004L278.379 247.6H279.975V256H279.015V248.596H278.991L276.027 256H274.815L271.851 248.596H271.827V256H270.867V247.6H272.463L275.427 255.004ZM284.239 249.88C286.075 249.88 286.699 250.84 286.699 252.472V256H285.883V255.16H285.859C285.535 255.628 285.007 256.12 283.879 256.12C282.691 256.12 281.671 255.592 281.671 254.26C281.671 252.712 283.087 252.352 284.395 252.328C284.839 252.316 285.307 252.328 285.799 252.352C285.799 251.152 285.355 250.648 284.107 250.648C283.315 250.648 282.787 250.876 282.307 251.152V250.384C282.823 250.096 283.375 249.88 284.239 249.88ZM283.951 255.376C285.007 255.376 285.775 254.776 285.811 253.744L285.799 253.048C285.451 253.024 285.067 253.012 284.671 253.012C283.363 253.024 282.631 253.42 282.631 254.26C282.631 255.028 283.147 255.376 283.951 255.376ZM289.566 251.2C290.01 250.204 290.802 249.748 291.966 249.904V250.672C290.418 250.456 289.638 251.32 289.602 253.204V256H288.69V250H289.566V251.2ZM301.459 256H296.215V255.124C298.603 252.76 300.343 251.296 300.343 249.892C300.343 248.836 299.491 248.32 298.495 248.32C297.739 248.32 296.995 248.608 296.479 248.932V248.02C297.115 247.696 297.931 247.468 298.711 247.468C300.199 247.468 301.339 248.32 301.339 249.88C301.339 251.488 299.959 252.724 297.559 255.088H301.459V256ZM306.591 256V253.996H302.511V253.204L306.183 247.6H307.551V253.144H308.607V253.996H307.551V256H306.591ZM306.591 253.144V248.452H306.567L303.495 253.144H306.591Z" fill="white"/>
<path d="M347.249 256L350.909 247.6H351.917L355.565 256H354.509L353.597 253.792H349.169L348.257 256H347.249ZM351.389 248.512L349.505 253H353.261L351.389 248.512ZM359.749 249.88C361.297 249.88 362.365 251.092 362.365 252.976C362.365 254.884 361.297 256.12 359.737 256.12C358.837 256.12 358.117 255.7 357.673 254.98V258.4H356.797V250H357.709V250.948C358.165 250.264 358.873 249.88 359.749 249.88ZM359.521 255.34C360.685 255.34 361.417 254.416 361.417 252.976C361.417 251.56 360.685 250.66 359.533 250.66C358.381 250.66 357.625 251.56 357.625 252.976C357.625 254.416 358.381 255.34 359.521 255.34ZM364.915 251.2C365.359 250.204 366.151 249.748 367.315 249.904V250.672C365.767 250.456 364.987 251.32 364.951 253.204V256H364.039V250H364.915V251.2ZM376.808 256H371.564V255.124C373.952 252.76 375.692 251.296 375.692 249.892C375.692 248.836 374.84 248.32 373.844 248.32C373.088 248.32 372.344 248.608 371.828 248.932V248.02C372.464 247.696 373.28 247.468 374.06 247.468C375.548 247.468 376.688 248.32 376.688 249.88C376.688 251.488 375.308 252.724 372.908 255.088H376.808V256ZM381.94 256V253.996H377.86V253.204L381.532 247.6H382.9V253.144H383.956V253.996H382.9V256H381.94ZM381.94 253.144V248.452H381.916L378.844 253.144H381.94Z" fill="white"/>
<path d="M427.338 255.004L430.29 247.6H431.886V256H430.926V248.596H430.902L427.938 256H426.726L423.762 248.596H423.738V256H422.778V247.6H424.374L427.338 255.004ZM436.15 249.88C437.986 249.88 438.61 250.84 438.61 252.472V256H437.794V255.16H437.77C437.446 255.628 436.918 256.12 435.79 256.12C434.602 256.12 433.582 255.592 433.582 254.26C433.582 252.712 434.998 252.352 436.306 252.328C436.75 252.316 437.218 252.328 437.71 252.352C437.71 251.152 437.266 250.648 436.018 250.648C435.226 250.648 434.698 250.876 434.218 251.152V250.384C434.734 250.096 435.286 249.88 436.15 249.88ZM435.862 255.376C436.918 255.376 437.686 254.776 437.722 253.744L437.71 253.048C437.362 253.024 436.978 253.012 436.582 253.012C435.274 253.024 434.542 253.42 434.542 254.26C434.542 255.028 435.058 255.376 435.862 255.376ZM442.521 255.34L444.549 250H445.473L442.929 256.696C442.545 257.716 442.065 258.604 441.021 258.616C440.793 258.616 440.457 258.58 440.157 258.52V257.74C440.409 257.788 440.745 257.836 440.985 257.824C441.669 257.74 441.945 256.888 442.233 256.108L442.269 256.012H441.873L439.629 250H440.553L442.521 255.34ZM454.882 256H449.638V255.124C452.026 252.76 453.766 251.296 453.766 249.892C453.766 248.836 452.914 248.32 451.918 248.32C451.162 248.32 450.418 248.608 449.902 248.932V248.02C450.538 247.696 451.354 247.468 452.134 247.468C453.622 247.468 454.762 248.32 454.762 249.88C454.762 251.488 453.382 252.724 450.982 255.088H454.882V256ZM460.014 256V253.996H455.934V253.204L459.606 247.6H460.974V253.144H462.03V253.996H460.974V256H460.014ZM460.014 253.144V248.452H459.99L456.918 253.144H460.014Z" fill="white"/>
<path d="M500.744 256.036V255.22C501.092 255.268 501.404 255.304 501.692 255.268C502.496 255.184 502.82 254.62 502.82 253.612V247.6H503.78V253.684C503.78 255.412 502.844 256.06 501.824 256.132C501.5 256.156 501.152 256.12 500.744 256.036ZM508.209 256.12C506.733 256.12 505.905 255.112 505.905 253.24V250H506.805V253.312C506.805 254.644 507.369 255.352 508.389 255.352C509.421 255.352 510.201 254.62 510.261 253.144V250H511.173V256H510.297V254.92C509.877 255.712 509.157 256.12 508.209 256.12ZM516.277 249.88C517.753 249.88 518.593 250.888 518.593 252.76V256H517.681V252.688C517.681 251.344 517.117 250.648 516.097 250.648C515.065 250.648 514.285 251.38 514.225 252.856V256H513.313V250H514.201V251.08C514.609 250.288 515.329 249.88 516.277 249.88ZM528.754 256H523.51V255.124C525.898 252.76 527.638 251.296 527.638 249.892C527.638 248.836 526.786 248.32 525.79 248.32C525.034 248.32 524.29 248.608 523.774 248.932V248.02C524.41 247.696 525.226 247.468 526.006 247.468C527.494 247.468 528.634 248.32 528.634 249.88C528.634 251.488 527.254 252.724 524.854 255.088H528.754V256ZM533.886 256V253.996H529.806V253.204L533.478 247.6H534.846V253.144H535.902V253.996H534.846V256H533.886ZM533.886 253.144V248.452H533.862L530.79 253.144H533.886Z" fill="white"/>
<path d="M89.6592 212.442C141.357 186.021 152.529 189.805 235.558 176.19C349.677 157.478 395.605 79.7246 534.373 79.7246" stroke="#83BD01" stroke-width="2" stroke-linecap="round"/>
<path d="M89.6592 172.224C141.245 165.596 260.885 156.333 330.882 172.242C444.636 198.095 493.609 143.426 534.373 112.568" stroke="#FFC846" stroke-width="2" stroke-linecap="round"/>
<g filter="url(#filter3_d_4364_28403)">
<path d="M444.705 169.922C442.864 169.922 441.151 168.522 441.151 166.534C441.151 164.546 442.864 163.146 444.705 163.146C446.547 163.146 448.26 164.546 448.26 166.534C448.26 168.522 446.547 169.922 444.705 169.922Z" fill="#5899DA" stroke="white" stroke-width="3"/>
</g>
<g filter="url(#filter4_d_4364_28403)">
<path d="M504.965 140.977C503.124 140.977 501.411 139.577 501.411 137.589C501.411 135.601 503.124 134.201 504.965 134.201C506.806 134.201 508.52 135.601 508.52 137.589C508.52 139.577 506.806 140.977 504.965 140.977Z" fill="#5899DA" stroke="white" stroke-width="3"/>
</g>
<g filter="url(#filter5_d_4364_28403)">
<path d="M408.786 109.5C406.329 109.5 404.726 107.253 404.726 105C404.726 102.747 406.329 100.5 408.786 100.5C411.243 100.5 412.846 102.747 412.846 105C412.846 107.253 411.243 109.5 408.786 109.5Z" fill="#83BD01" stroke="white" stroke-width="3"/>
</g>
<g filter="url(#filter6_d_4364_28403)">
<path d="M505.071 141.5C502.602 141.5 500.792 139.375 500.792 137C500.792 134.625 502.602 132.5 505.071 132.5C507.541 132.5 509.351 134.625 509.351 137C509.351 139.375 507.541 141.5 505.071 141.5Z" fill="#5899DA" stroke="white" stroke-width="3"/>
</g>
<g filter="url(#filter7_d_4364_28403)">
<circle cx="3" cy="3" r="4.5" transform="matrix(-1 0 0 1 126.5 189)" fill="#83BD01" stroke="white" stroke-width="3"/>
</g>
<g filter="url(#filter8_d_4364_28403)">
<circle cx="3" cy="3" r="4.5" transform="matrix(-1 0 0 1 199.5 175)" fill="#83BD01" stroke="white" stroke-width="3"/>
</g>
<g filter="url(#filter9_d_4364_28403)">
<circle cx="3" cy="3" r="4.5" transform="matrix(-1 0 0 1 279.5 161)" fill="#5899DA" stroke="white" stroke-width="3"/>
</g>
<g filter="url(#filter10_d_4364_28403)">
<circle cx="3" cy="3" r="4.5" transform="matrix(-1 0 0 1 362.5 172)" fill="#5899DA" stroke="white" stroke-width="3"/>
</g>
<g filter="url(#filter11_d_4364_28403)">
<circle cx="3" cy="3" r="4.5" transform="matrix(-1 0 0 1 448.5 164)" fill="#5899DA" stroke="white" stroke-width="3"/>
</g>
<g filter="url(#filter12_d_4364_28403)">
<circle cx="3" cy="3" r="4.5" transform="matrix(-1 0 0 1 524.5 77)" fill="#83BD01" stroke="white" stroke-width="3"/>
</g>
<g filter="url(#filter13_d_4364_28403)">
<circle cx="3" cy="3" r="4.5" transform="matrix(-1 0 0 1 359.5 129)" fill="#83BD01" stroke="white" stroke-width="3"/>
</g>
<g filter="url(#filter14_d_4364_28403)">
<circle cx="3" cy="3" r="4.5" transform="matrix(-1 0 0 1 199.5 158)" fill="#5899DA" stroke="white" stroke-width="3"/>
</g>
<g filter="url(#filter15_d_4364_28403)">
<circle cx="3" cy="3" r="4.5" transform="matrix(-1 0 0 1 126.5 164)" fill="#5899DA" stroke="white" stroke-width="3"/>
</g>
</g>
<defs>
<filter id="filter0_d_4364_28403" x="0.0200195" y="0" width="592.52" height="316" filterUnits="userSpaceOnUse" color-interpolation-filters="sRGB">
<feFlood flood-opacity="0" result="BackgroundImageFix"/>
<feColorMatrix in="SourceAlpha" type="matrix" values="0 0 0 0 0 0 0 0 0 0 0 0 0 0 0 0 0 0 127 0" result="hardAlpha"/>
<feMorphology radius="1" operator="dilate" in="SourceAlpha" result="effect1_dropShadow_4364_28403"/>
<feOffset dx="3" dy="8"/>
<feGaussianBlur stdDeviation="15"/>
<feComposite in2="hardAlpha" operator="out"/>
<feColorMatrix type="matrix" values="0 0 0 0 0.658824 0 0 0 0 0.686275 0 0 0 0 0.721569 0 0 0 0.3 0"/>
<feBlend mode="normal" in2="BackgroundImageFix" result="effect1_dropShadow_4364_28403"/>
<feBlend mode="normal" in="SourceGraphic" in2="effect1_dropShadow_4364_28403" result="shape"/>
</filter>
<filter id="filter1_d_4364_28403" x="414.02" y="39" width="33" height="33" filterUnits="userSpaceOnUse" color-interpolation-filters="sRGB">
<feFlood flood-opacity="0" result="BackgroundImageFix"/>
<feColorMatrix in="SourceAlpha" type="matrix" values="0 0 0 0 0 0 0 0 0 0 0 0 0 0 0 0 0 0 127 0" result="hardAlpha"/>
<feOffset dy="5"/>
<feGaussianBlur stdDeviation="6"/>
<feColorMatrix type="matrix" values="0 0 0 0 0.611765 0 0 0 0 0.533333 0 0 0 0 0.984314 0 0 0 0.16 0"/>
<feBlend mode="normal" in2="BackgroundImageFix" result="effect1_dropShadow_4364_28403"/>
<feBlend mode="normal" in="SourceGraphic" in2="effect1_dropShadow_4364_28403" result="shape"/>
</filter>
<filter id="filter2_d_4364_28403" x="287.02" y="39" width="33" height="33" filterUnits="userSpaceOnUse" color-interpolation-filters="sRGB">
<feFlood flood-opacity="0" result="BackgroundImageFix"/>
<feColorMatrix in="SourceAlpha" type="matrix" values="0 0 0 0 0 0 0 0 0 0 0 0 0 0 0 0 0 0 127 0" result="hardAlpha"/>
<feOffset dy="5"/>
<feGaussianBlur stdDeviation="6"/>
<feColorMatrix type="matrix" values="0 0 0 0 0.611765 0 0 0 0 0.533333 0 0 0 0 0.984314 0 0 0 0.16 0"/>
<feBlend mode="normal" in2="BackgroundImageFix" result="effect1_dropShadow_4364_28403"/>
<feBlend mode="normal" in="SourceGraphic" in2="effect1_dropShadow_4364_28403" result="shape"/>
</filter>
<filter id="filter3_d_4364_28403" x="437.651" y="161.646" width="14.1084" height="13.7754" filterUnits="userSpaceOnUse" color-interpolation-filters="sRGB">
<feFlood flood-opacity="0" result="BackgroundImageFix"/>
<feColorMatrix in="SourceAlpha" type="matrix" values="0 0 0 0 0 0 0 0 0 0 0 0 0 0 0 0 0 0 127 0" result="hardAlpha"/>
<feOffset dy="2"/>
<feGaussianBlur stdDeviation="1"/>
<feComposite in2="hardAlpha" operator="out"/>
<feColorMatrix type="matrix" values="0 0 0 0 0 0 0 0 0 0 0 0 0 0 0 0 0 0 0.1 0"/>
<feBlend mode="normal" in2="BackgroundImageFix" result="effect1_dropShadow_4364_28403"/>
<feBlend mode="normal" in="SourceGraphic" in2="effect1_dropShadow_4364_28403" result="shape"/>
</filter>
<filter id="filter4_d_4364_28403" x="497.911" y="132.701" width="14.1084" height="13.7754" filterUnits="userSpaceOnUse" color-interpolation-filters="sRGB">
<feFlood flood-opacity="0" result="BackgroundImageFix"/>
<feColorMatrix in="SourceAlpha" type="matrix" values="0 0 0 0 0 0 0 0 0 0 0 0 0 0 0 0 0 0 127 0" result="hardAlpha"/>
<feOffset dy="2"/>
<feGaussianBlur stdDeviation="1"/>
<feComposite in2="hardAlpha" operator="out"/>
<feColorMatrix type="matrix" values="0 0 0 0 0 0 0 0 0 0 0 0 0 0 0 0 0 0 0.1 0"/>
<feBlend mode="normal" in2="BackgroundImageFix" result="effect1_dropShadow_4364_28403"/>
<feBlend mode="normal" in="SourceGraphic" in2="effect1_dropShadow_4364_28403" result="shape"/>
</filter>
<filter id="filter5_d_4364_28403" x="401.226" y="99" width="15.1201" height="16" filterUnits="userSpaceOnUse" color-interpolation-filters="sRGB">
<feFlood flood-opacity="0" result="BackgroundImageFix"/>
<feColorMatrix in="SourceAlpha" type="matrix" values="0 0 0 0 0 0 0 0 0 0 0 0 0 0 0 0 0 0 127 0" result="hardAlpha"/>
<feOffset dy="2"/>
<feGaussianBlur stdDeviation="1"/>
<feComposite in2="hardAlpha" operator="out"/>
<feColorMatrix type="matrix" values="0 0 0 0 0 0 0 0 0 0 0 0 0 0 0 0 0 0 0.1 0"/>
<feBlend mode="normal" in2="BackgroundImageFix" result="effect1_dropShadow_4364_28403"/>
<feBlend mode="normal" in="SourceGraphic" in2="effect1_dropShadow_4364_28403" result="shape"/>
</filter>
<filter id="filter6_d_4364_28403" x="497.292" y="131" width="15.5591" height="16" filterUnits="userSpaceOnUse" color-interpolation-filters="sRGB">
<feFlood flood-opacity="0" result="BackgroundImageFix"/>
<feColorMatrix in="SourceAlpha" type="matrix" values="0 0 0 0 0 0 0 0 0 0 0 0 0 0 0 0 0 0 127 0" result="hardAlpha"/>
<feOffset dy="2"/>
<feGaussianBlur stdDeviation="1"/>
<feComposite in2="hardAlpha" operator="out"/>
<feColorMatrix type="matrix" values="0 0 0 0 0 0 0 0 0 0 0 0 0 0 0 0 0 0 0.1 0"/>
<feBlend mode="normal" in2="BackgroundImageFix" result="effect1_dropShadow_4364_28403"/>
<feBlend mode="normal" in="SourceGraphic" in2="effect1_dropShadow_4364_28403" result="shape"/>
</filter>
<filter id="filter7_d_4364_28403" x="115.5" y="186" width="16" height="16" filterUnits="userSpaceOnUse" color-interpolation-filters="sRGB">
<feFlood flood-opacity="0" result="BackgroundImageFix"/>
<feColorMatrix in="SourceAlpha" type="matrix" values="0 0 0 0 0 0 0 0 0 0 0 0 0 0 0 0 0 0 127 0" result="hardAlpha"/>
<feOffset dy="2"/>
<feGaussianBlur stdDeviation="1"/>
<feComposite in2="hardAlpha" operator="out"/>
<feColorMatrix type="matrix" values="0 0 0 0 0 0 0 0 0 0 0 0 0 0 0 0 0 0 0.1 0"/>
<feBlend mode="normal" in2="BackgroundImageFix" result="effect1_dropShadow_4364_28403"/>
<feBlend mode="normal" in="SourceGraphic" in2="effect1_dropShadow_4364_28403" result="shape"/>
</filter>
<filter id="filter8_d_4364_28403" x="188.5" y="172" width="16" height="16" filterUnits="userSpaceOnUse" color-interpolation-filters="sRGB">
<feFlood flood-opacity="0" result="BackgroundImageFix"/>
<feColorMatrix in="SourceAlpha" type="matrix" values="0 0 0 0 0 0 0 0 0 0 0 0 0 0 0 0 0 0 127 0" result="hardAlpha"/>
<feOffset dy="2"/>
<feGaussianBlur stdDeviation="1"/>
<feComposite in2="hardAlpha" operator="out"/>
<feColorMatrix type="matrix" values="0 0 0 0 0 0 0 0 0 0 0 0 0 0 0 0 0 0 0.1 0"/>
<feBlend mode="normal" in2="BackgroundImageFix" result="effect1_dropShadow_4364_28403"/>
<feBlend mode="normal" in="SourceGraphic" in2="effect1_dropShadow_4364_28403" result="shape"/>
</filter>
<filter id="filter9_d_4364_28403" x="268.5" y="158" width="16" height="16" filterUnits="userSpaceOnUse" color-interpolation-filters="sRGB">
<feFlood flood-opacity="0" result="BackgroundImageFix"/>
<feColorMatrix in="SourceAlpha" type="matrix" values="0 0 0 0 0 0 0 0 0 0 0 0 0 0 0 0 0 0 127 0" result="hardAlpha"/>
<feOffset dy="2"/>
<feGaussianBlur stdDeviation="1"/>
<feComposite in2="hardAlpha" operator="out"/>
<feColorMatrix type="matrix" values="0 0 0 0 0 0 0 0 0 0 0 0 0 0 0 0 0 0 0.1 0"/>
<feBlend mode="normal" in2="BackgroundImageFix" result="effect1_dropShadow_4364_28403"/>
<feBlend mode="normal" in="SourceGraphic" in2="effect1_dropShadow_4364_28403" result="shape"/>
</filter>
<filter id="filter10_d_4364_28403" x="351.5" y="169" width="16" height="16" filterUnits="userSpaceOnUse" color-interpolation-filters="sRGB">
<feFlood flood-opacity="0" result="BackgroundImageFix"/>
<feColorMatrix in="SourceAlpha" type="matrix" values="0 0 0 0 0 0 0 0 0 0 0 0 0 0 0 0 0 0 127 0" result="hardAlpha"/>
<feOffset dy="2"/>
<feGaussianBlur stdDeviation="1"/>
<feComposite in2="hardAlpha" operator="out"/>
<feColorMatrix type="matrix" values="0 0 0 0 0 0 0 0 0 0 0 0 0 0 0 0 0 0 0.1 0"/>
<feBlend mode="normal" in2="BackgroundImageFix" result="effect1_dropShadow_4364_28403"/>
<feBlend mode="normal" in="SourceGraphic" in2="effect1_dropShadow_4364_28403" result="shape"/>
</filter>
<filter id="filter11_d_4364_28403" x="437.5" y="161" width="16" height="16" filterUnits="userSpaceOnUse" color-interpolation-filters="sRGB">
<feFlood flood-opacity="0" result="BackgroundImageFix"/>
<feColorMatrix in="SourceAlpha" type="matrix" values="0 0 0 0 0 0 0 0 0 0 0 0 0 0 0 0 0 0 127 0" result="hardAlpha"/>
<feOffset dy="2"/>
<feGaussianBlur stdDeviation="1"/>
<feComposite in2="hardAlpha" operator="out"/>
<feColorMatrix type="matrix" values="0 0 0 0 0 0 0 0 0 0 0 0 0 0 0 0 0 0 0.1 0"/>
<feBlend mode="normal" in2="BackgroundImageFix" result="effect1_dropShadow_4364_28403"/>
<feBlend mode="normal" in="SourceGraphic" in2="effect1_dropShadow_4364_28403" result="shape"/>
</filter>
<filter id="filter12_d_4364_28403" x="513.5" y="74" width="16" height="16" filterUnits="userSpaceOnUse" color-interpolation-filters="sRGB">
<feFlood flood-opacity="0" result="BackgroundImageFix"/>
<feColorMatrix in="SourceAlpha" type="matrix" values="0 0 0 0 0 0 0 0 0 0 0 0 0 0 0 0 0 0 127 0" result="hardAlpha"/>
<feOffset dy="2"/>
<feGaussianBlur stdDeviation="1"/>
<feComposite in2="hardAlpha" operator="out"/>
<feColorMatrix type="matrix" values="0 0 0 0 0 0 0 0 0 0 0 0 0 0 0 0 0 0 0.1 0"/>
<feBlend mode="normal" in2="BackgroundImageFix" result="effect1_dropShadow_4364_28403"/>
<feBlend mode="normal" in="SourceGraphic" in2="effect1_dropShadow_4364_28403" result="shape"/>
</filter>
<filter id="filter13_d_4364_28403" x="348.5" y="126" width="16" height="16" filterUnits="userSpaceOnUse" color-interpolation-filters="sRGB">
<feFlood flood-opacity="0" result="BackgroundImageFix"/>
<feColorMatrix in="SourceAlpha" type="matrix" values="0 0 0 0 0 0 0 0 0 0 0 0 0 0 0 0 0 0 127 0" result="hardAlpha"/>
<feOffset dy="2"/>
<feGaussianBlur stdDeviation="1"/>
<feComposite in2="hardAlpha" operator="out"/>
<feColorMatrix type="matrix" values="0 0 0 0 0 0 0 0 0 0 0 0 0 0 0 0 0 0 0.1 0"/>
<feBlend mode="normal" in2="BackgroundImageFix" result="effect1_dropShadow_4364_28403"/>
<feBlend mode="normal" in="SourceGraphic" in2="effect1_dropShadow_4364_28403" result="shape"/>
</filter>
<filter id="filter14_d_4364_28403" x="188.5" y="155" width="16" height="16" filterUnits="userSpaceOnUse" color-interpolation-filters="sRGB">
<feFlood flood-opacity="0" result="BackgroundImageFix"/>
<feColorMatrix in="SourceAlpha" type="matrix" values="0 0 0 0 0 0 0 0 0 0 0 0 0 0 0 0 0 0 127 0" result="hardAlpha"/>
<feOffset dy="2"/>
<feGaussianBlur stdDeviation="1"/>
<feComposite in2="hardAlpha" operator="out"/>
<feColorMatrix type="matrix" values="0 0 0 0 0 0 0 0 0 0 0 0 0 0 0 0 0 0 0.1 0"/>
<feBlend mode="normal" in2="BackgroundImageFix" result="effect1_dropShadow_4364_28403"/>
<feBlend mode="normal" in="SourceGraphic" in2="effect1_dropShadow_4364_28403" result="shape"/>
</filter>
<filter id="filter15_d_4364_28403" x="115.5" y="161" width="16" height="16" filterUnits="userSpaceOnUse" color-interpolation-filters="sRGB">
<feFlood flood-opacity="0" result="BackgroundImageFix"/>
<feColorMatrix in="SourceAlpha" type="matrix" values="0 0 0 0 0 0 0 0 0 0 0 0 0 0 0 0 0 0 127 0" result="hardAlpha"/>
<feOffset dy="2"/>
<feGaussianBlur stdDeviation="1"/>
<feComposite in2="hardAlpha" operator="out"/>
<feColorMatrix type="matrix" values="0 0 0 0 0 0 0 0 0 0 0 0 0 0 0 0 0 0 0.1 0"/>
<feBlend mode="normal" in2="BackgroundImageFix" result="effect1_dropShadow_4364_28403"/>
<feBlend mode="normal" in="SourceGraphic" in2="effect1_dropShadow_4364_28403" result="shape"/>
</filter>
<linearGradient id="paint0_linear_4364_28403" x1="293.28" y1="23" x2="293.28" y2="277" gradientUnits="userSpaceOnUse">
<stop offset="0.25" stop-color="#1E3A71"/>
<stop offset="1" stop-color="#0080BD"/>
</linearGradient>
</defs>
</svg>
