<svg width="1145" height="316" viewBox="0 0 1145 316" fill="none" xmlns="http://www.w3.org/2000/svg">
<g filter="url(#filter0_d_5618_36369)">
<rect x="28.5" y="23" width="1081.52" height="254" rx="12" fill="#0D366F" shape-rendering="crispEdges"/>
<rect x="28.5" y="23" width="1081.52" height="254" rx="12" fill="url(#paint0_linear_5618_36369)" shape-rendering="crispEdges"/>
<rect x="29" y="23.5" width="1080.52" height="253" rx="11.5" stroke="#00A3E0" shape-rendering="crispEdges"/>
<mask id="path-3-inside-1_5618_36369" fill="white">
<path d="M42.5 36H393.5V87H42.5V36Z"/>
</mask>
<path d="M393.5 86H42.5V88H393.5V86Z" fill="#F1F1F1" mask="url(#path-3-inside-1_5618_36369)"/>
<path d="M69.3334 50.6673C75.3166 50.6673 80.1667 55.5174 80.1667 61.5006C80.1667 67.4839 75.3166 72.334 69.3334 72.334C63.3501 72.334 58.5 67.4839 58.5 61.5006C58.5 55.5174 63.3501 50.6673 69.3334 50.6673ZM69.3334 52.834C67.0348 52.834 64.8304 53.7471 63.2051 55.3724C61.5798 56.9977 60.6667 59.2021 60.6667 61.5006C60.6667 63.7992 61.5798 66.0036 63.2051 67.6289C64.8304 69.2542 67.0348 70.1673 69.3334 70.1673C71.6319 70.1673 73.8363 69.2542 75.4616 67.6289C77.0869 66.0036 78 63.7992 78 61.5006C78 59.2021 77.0869 56.9977 75.4616 55.3724C73.8363 53.7471 71.6319 52.834 69.3334 52.834ZM70.4167 66.9173L68.25 66.9173L68.25 64.7506L70.4167 64.7506L70.4167 66.9173ZM70.4167 62.584L68.25 62.584L68.25 56.084L70.4167 56.084L70.4167 62.584Z" fill="#449CA4"/>
<path d="M98.3907 67.692C95.1587 67.692 93.0147 65.388 93.0147 61.916C93.0147 58.444 95.1587 56.14 98.3907 56.14C101.623 56.14 103.767 58.444 103.767 61.916C103.767 65.388 101.623 67.692 98.3907 67.692ZM98.3907 66.284C100.727 66.284 102.119 64.668 102.119 61.916C102.119 59.148 100.727 57.532 98.3907 57.548C96.0547 57.564 94.6627 59.18 94.6627 61.916C94.6627 64.668 96.0547 66.284 98.3907 66.284ZM109.98 59.34C112.012 59.34 113.5 60.988 113.5 63.468C113.5 65.98 112.012 67.66 109.964 67.66C108.876 67.66 107.964 67.18 107.372 66.348H107.34V70.7H105.9V59.5H107.404V60.556H107.436C108.044 59.788 108.924 59.34 109.98 59.34ZM109.58 66.38C110.988 66.38 111.932 65.212 111.932 63.468C111.932 61.756 111.004 60.62 109.596 60.62C108.188 60.62 107.26 61.756 107.26 63.468C107.26 65.212 108.188 66.38 109.58 66.38ZM119.061 67.66C116.261 67.66 114.965 65.708 114.965 63.372C114.965 61.004 116.245 59.356 118.661 59.356C121.221 59.356 122.213 61.26 122.181 63.836H116.565C116.565 65.42 117.637 66.38 119.125 66.38C119.861 66.38 120.757 66.14 121.749 65.66V67.004C120.901 67.452 119.973 67.66 119.061 67.66ZM116.565 62.652H120.581C120.533 61.42 119.781 60.62 118.613 60.62C117.445 60.62 116.741 61.42 116.565 62.652ZM128.355 59.34C130.355 59.34 131.475 60.668 131.475 63.18V67.5H129.971V63.052C129.971 61.42 129.283 60.604 128.051 60.604C126.787 60.604 125.843 61.484 125.763 63.34V67.5H124.259V59.5H125.715V60.668H125.763C126.307 59.788 127.203 59.34 128.355 59.34ZM138.479 56.3H141.183C143.631 56.3 145.599 57.132 145.599 59.676C145.599 62.156 143.663 63.036 141.647 63.036H140.079V67.5H138.479V56.3ZM140.079 61.628H141.791C142.959 61.628 143.967 61.132 143.967 59.66C143.967 58.188 142.703 57.708 141.295 57.708H140.079V61.628ZM152.346 62.748L154.97 67.5H153.242L150.714 63.036H150.538H148.97V67.5H147.37V56.3H150.074C152.522 56.3 154.49 57.132 154.49 59.676C154.49 61.388 153.578 62.332 152.346 62.748ZM148.97 57.708V61.628H150.682C151.85 61.628 152.858 61.132 152.858 59.66C152.858 58.188 151.594 57.708 150.186 57.708H148.97Z" fill="white"/>
<rect x="349.5" y="47.5" width="28" height="28" rx="14" fill="#0033A0"/>
<path d="M360.866 56.5195V66.5H359.055V58.6318L356.655 59.4248V57.9619L360.661 56.5195H360.866ZM366.191 60.7236H367.21C367.57 60.7236 367.866 60.6621 368.099 60.5391C368.336 60.4115 368.511 60.2383 368.625 60.0195C368.743 59.7962 368.803 59.5387 368.803 59.2471C368.803 58.96 368.75 58.7116 368.646 58.502C368.541 58.2878 368.381 58.1237 368.167 58.0098C367.957 57.8913 367.688 57.832 367.36 57.832C367.096 57.832 366.852 57.8844 366.629 57.9893C366.41 58.0941 366.235 58.2445 366.103 58.4404C365.975 58.6318 365.911 58.862 365.911 59.1309H364.1C364.1 58.5931 364.241 58.1214 364.523 57.7158C364.811 57.3057 365.198 56.9844 365.686 56.752C366.173 56.5195 366.718 56.4033 367.319 56.4033C367.976 56.4033 368.55 56.5127 369.042 56.7314C369.539 56.9456 369.924 57.2624 370.197 57.6816C370.475 58.1009 370.614 58.6204 370.614 59.2402C370.614 59.5365 370.544 59.8327 370.402 60.1289C370.266 60.4206 370.063 60.6849 369.794 60.9219C369.53 61.1543 369.204 61.3434 368.816 61.4893C368.434 61.6305 367.994 61.7012 367.497 61.7012H366.191V60.7236ZM366.191 62.1182V61.1543H367.497C368.058 61.1543 368.543 61.2204 368.953 61.3525C369.368 61.4801 369.71 61.6624 369.979 61.8994C370.247 62.1318 370.446 62.403 370.573 62.7129C370.705 63.0228 370.771 63.3555 370.771 63.7109C370.771 64.1758 370.685 64.5905 370.512 64.9551C370.339 65.3151 370.095 65.6204 369.78 65.8711C369.47 66.1217 369.106 66.3132 368.687 66.4453C368.267 66.5729 367.814 66.6367 367.326 66.6367C366.902 66.6367 366.49 66.5798 366.089 66.4658C365.692 66.3473 365.335 66.1719 365.016 65.9395C364.697 65.7025 364.444 65.4062 364.257 65.0508C364.07 64.6908 363.977 64.2738 363.977 63.7998H365.788C365.788 64.0732 365.854 64.3171 365.986 64.5312C366.123 64.7454 366.31 64.9141 366.547 65.0371C366.788 65.1556 367.06 65.2148 367.36 65.2148C367.693 65.2148 367.978 65.1556 368.215 65.0371C368.456 64.9141 368.641 64.7409 368.769 64.5176C368.896 64.2897 368.96 64.0186 368.96 63.7041C368.96 63.3304 368.889 63.0273 368.748 62.7949C368.607 62.5625 368.404 62.3916 368.14 62.2822C367.88 62.1729 367.57 62.1182 367.21 62.1182H366.191Z" fill="white"/>
<mask id="path-9-inside-2_5618_36369" fill="white">
<path d="M42.5 92H393.5V143H42.5V92Z"/>
</mask>
<path d="M393.5 142H42.5V144H393.5V142Z" fill="#F1F1F1" mask="url(#path-9-inside-2_5618_36369)"/>
<path d="M69.3333 106.665C75.3166 106.665 80.1667 111.515 80.1667 117.499C80.1667 123.482 75.3166 128.332 69.3333 128.332C63.3501 128.332 58.5 123.482 58.5 117.499C58.5 111.515 63.3501 106.665 69.3333 106.665ZM69.3333 108.832C67.0348 108.832 64.8304 109.745 63.2051 111.37C61.5797 112.996 60.6667 115.2 60.6667 117.499C60.6667 119.797 61.5797 122.002 63.2051 123.627C64.8304 125.252 67.0348 126.165 69.3333 126.165C71.6319 126.165 73.8363 125.252 75.4616 123.627C77.0869 122.002 78 119.797 78 117.499C78 115.2 77.0869 112.996 75.4616 111.37C73.8363 109.745 71.6319 108.832 69.3333 108.832Z" fill="#398AE9"/>
<path d="M67.9996 119.49L73.2227 114.407C73.6448 113.996 74.3185 114 74.7354 114.416C75.1573 114.837 75.1573 115.52 74.7356 115.942L69.4126 121.255C68.6318 122.035 67.3673 122.035 66.5866 121.255L64.3254 118.998C63.8696 118.543 63.8696 117.805 64.3254 117.35C64.789 116.887 65.5431 116.897 65.9937 117.373L67.9996 119.49Z" fill="#398AE9"/>
<path d="M98.7427 123.66C95.2547 123.66 93.0147 121.356 93.0147 117.916C93.0147 114.444 95.2707 112.14 98.7587 112.14C99.7507 112.14 100.647 112.332 101.399 112.62V114.06C100.663 113.772 99.7187 113.548 98.7907 113.548C96.2627 113.548 94.6627 115.292 94.6627 117.916C94.6627 120.524 96.3107 122.236 98.8227 122.236C99.4627 122.236 100.471 122.124 101.447 121.788V123.244C100.583 123.516 99.6227 123.66 98.7427 123.66ZM106.636 123.66C104.316 123.66 102.684 121.948 102.684 119.5C102.684 117.052 104.316 115.34 106.636 115.34C108.956 115.34 110.572 117.052 110.572 119.5C110.572 121.948 108.956 123.66 106.636 123.66ZM106.636 122.396C108.044 122.396 108.972 121.244 108.972 119.5C108.972 117.756 108.044 116.604 106.636 116.604C105.228 116.604 104.284 117.756 104.284 119.5C104.284 121.244 105.228 122.396 106.636 122.396ZM116.683 115.34C118.683 115.34 119.803 116.668 119.803 119.18V123.5H118.299V119.052C118.299 117.42 117.611 116.604 116.379 116.604C115.115 116.604 114.171 117.484 114.091 119.34V123.5H112.587V115.5H114.043V116.668H114.091C114.635 115.788 115.531 115.34 116.683 115.34ZM124.033 115.5H126.033V116.812H124.033V121.292C124.033 121.98 124.161 122.284 124.865 122.316C125.185 122.332 125.521 122.284 125.793 122.236V123.452C125.457 123.548 125.073 123.596 124.673 123.596C123.137 123.596 122.529 122.796 122.529 121.276V116.812H121.201V115.5H122.529V113.66L124.033 113.132V115.5ZM129.246 116.748H129.294C129.902 115.66 130.91 115.18 132.334 115.372V116.636C130.35 116.364 129.374 117.292 129.294 119.564V123.5H127.79V115.5H129.246V116.748ZM136.937 115.34C139.433 115.34 140.249 116.7 140.249 118.732V123.5H138.905V122.444H138.873C138.521 122.94 137.993 123.66 136.457 123.66C134.953 123.66 133.465 122.972 133.465 121.148C133.465 118.972 135.577 118.54 137.145 118.508C137.593 118.492 138.153 118.508 138.777 118.54C138.777 117.164 138.233 116.604 136.697 116.604C135.593 116.604 134.905 116.956 134.313 117.292V116.028C134.969 115.66 135.705 115.34 136.937 115.34ZM136.585 122.444C137.801 122.444 138.729 121.708 138.777 120.332V119.66C138.409 119.644 137.993 119.628 137.625 119.628C135.993 119.628 135.065 120.172 135.065 121.148C135.065 122.044 135.689 122.444 136.585 122.444ZM153.656 115.5V116.812H151.656V121.292C151.656 121.98 151.784 122.284 152.488 122.316C152.808 122.332 153.144 122.284 153.416 122.236V123.452C153.08 123.548 152.696 123.596 152.296 123.596C150.76 123.596 150.152 122.796 150.152 121.276V116.812H149.784C148.6 116.812 149.272 117.42 147.816 116.908C147.272 116.732 146.648 116.636 146.104 116.684C144.68 116.828 143.656 117.884 143.656 119.5C143.656 121.116 144.696 122.188 146.136 122.3C146.76 122.348 147.512 122.22 148.296 121.9V123.244C147.592 123.532 146.888 123.66 146.216 123.66C143.768 123.66 142.056 121.948 142.056 119.5C142.056 117.052 143.768 115.34 146.216 115.34C146.76 115.34 147.272 115.452 147.752 115.596C149.352 116.092 148.808 115.5 149.784 115.5H150.152V113.66L151.656 113.132V115.5H153.656ZM160.03 123.5V112.3H166.286V113.708H161.63V117.004H165.87V118.412H161.63V122.092H166.286V123.5H160.03ZM172.729 119.324L175.737 123.5H173.993L171.657 120.316L169.321 123.5H167.577L170.585 119.324L167.849 115.5H169.641L171.657 118.3L173.673 115.5H175.465L172.729 119.324ZM181.261 115.34C183.293 115.34 184.781 116.988 184.781 119.468C184.781 121.98 183.293 123.66 181.245 123.66C180.157 123.66 179.245 123.18 178.653 122.348H178.621V126.7H177.181V115.5H178.685V116.556H178.717C179.325 115.788 180.205 115.34 181.261 115.34ZM180.861 122.38C182.269 122.38 183.213 121.212 183.213 119.468C183.213 117.756 182.285 116.62 180.877 116.62C179.469 116.62 178.541 117.756 178.541 119.468C178.541 121.212 179.469 122.38 180.861 122.38ZM188.502 112.3V113.996H186.902V112.3H188.502ZM188.454 115.5V123.5H186.95V115.5H188.454ZM192.621 116.748H192.669C193.277 115.66 194.285 115.18 195.709 115.372V116.636C193.725 116.364 192.749 117.292 192.669 119.564V123.5H191.165V115.5H192.621V116.748ZM199.08 112.3V113.996H197.48V112.3H199.08ZM199.032 115.5V123.5H197.528V115.5H199.032ZM205.84 115.34C207.84 115.34 208.96 116.668 208.96 119.18V123.5H207.456V119.052C207.456 117.42 206.768 116.604 205.536 116.604C204.272 116.604 203.328 117.484 203.248 119.34V123.5H201.744V115.5H203.2V116.668H203.248C203.792 115.788 204.688 115.34 205.84 115.34ZM217.077 116.556V115.5H218.581V122.828C218.581 125.308 217.269 127.052 214.453 127.052C213.493 127.052 212.453 126.844 211.605 126.46V125.052C212.245 125.324 213.237 125.628 214.245 125.628C215.605 125.628 217.077 125.084 217.077 123.148V122.46H217.029C216.421 123.228 215.557 123.66 214.517 123.66C212.469 123.66 210.981 121.98 210.981 119.468C210.981 116.988 212.469 115.34 214.501 115.34C215.557 115.34 216.437 115.788 217.045 116.556H217.077ZM214.901 122.38C216.293 122.38 217.221 121.212 217.221 119.468C217.221 117.756 216.293 116.62 214.885 116.62C213.477 116.62 212.549 117.756 212.549 119.468C212.549 121.212 213.493 122.38 214.901 122.38Z" fill="white"/>
<rect x="349.5" y="103.5" width="28" height="28" rx="14" fill="#0033A0"/>
<path d="M362.821 119.779C362.821 120.399 362.675 120.923 362.384 121.352C362.097 121.775 361.702 122.097 361.201 122.315C360.704 122.53 360.139 122.637 359.506 122.637C358.877 122.637 358.31 122.53 357.804 122.315C357.302 122.097 356.904 121.775 356.607 121.352C356.316 120.923 356.17 120.399 356.17 119.779C356.17 119.365 356.252 118.989 356.416 118.651C356.585 118.314 356.817 118.025 357.113 117.783C357.41 117.537 357.76 117.35 358.166 117.223C358.572 117.09 359.014 117.024 359.492 117.024C360.13 117.024 360.7 117.141 361.201 117.373C361.707 117.601 362.104 117.922 362.391 118.337C362.678 118.747 362.821 119.228 362.821 119.779ZM361.003 119.67C361.003 119.351 360.939 119.075 360.812 118.843C360.688 118.606 360.513 118.424 360.285 118.296C360.057 118.168 359.793 118.104 359.492 118.104C359.187 118.104 358.92 118.168 358.692 118.296C358.469 118.424 358.294 118.606 358.166 118.843C358.043 119.075 357.981 119.351 357.981 119.67C357.981 119.993 358.043 120.271 358.166 120.504C358.294 120.732 358.471 120.907 358.699 121.03C358.927 121.153 359.196 121.215 359.506 121.215C359.816 121.215 360.082 121.153 360.306 121.03C360.529 120.907 360.7 120.732 360.818 120.504C360.941 120.271 361.003 119.993 361.003 119.67ZM362.603 115.172C362.603 115.673 362.47 116.12 362.206 116.512C361.942 116.899 361.575 117.202 361.105 117.421C360.641 117.64 360.107 117.749 359.506 117.749C358.904 117.749 358.367 117.64 357.893 117.421C357.423 117.202 357.054 116.899 356.785 116.512C356.521 116.12 356.389 115.673 356.389 115.172C356.389 114.579 356.523 114.078 356.792 113.668C357.061 113.253 357.428 112.939 357.893 112.725C358.362 112.51 358.895 112.403 359.492 112.403C360.098 112.403 360.636 112.51 361.105 112.725C361.575 112.939 361.942 113.253 362.206 113.668C362.47 114.078 362.603 114.579 362.603 115.172ZM360.798 115.247C360.798 114.965 360.745 114.718 360.641 114.509C360.536 114.295 360.385 114.128 360.189 114.01C359.998 113.891 359.766 113.832 359.492 113.832C359.228 113.832 359 113.889 358.809 114.003C358.617 114.117 358.469 114.281 358.364 114.495C358.259 114.705 358.207 114.955 358.207 115.247C358.207 115.534 358.259 115.785 358.364 115.999C358.469 116.213 358.617 116.382 358.809 116.505C359.005 116.623 359.237 116.683 359.506 116.683C359.775 116.683 360.005 116.623 360.196 116.505C360.388 116.382 360.536 116.213 360.641 115.999C360.745 115.785 360.798 115.534 360.798 115.247ZM366.007 117.92L364.564 117.571L365.118 112.547H370.594V114.044H366.615L366.355 116.368C366.497 116.282 366.702 116.195 366.971 116.108C367.244 116.017 367.552 115.972 367.894 115.972C368.368 115.972 368.791 116.049 369.165 116.204C369.539 116.354 369.855 116.573 370.115 116.86C370.38 117.147 370.578 117.498 370.71 117.913C370.847 118.323 370.915 118.788 370.915 119.308C370.915 119.763 370.847 120.192 370.71 120.593C370.578 120.989 370.375 121.342 370.102 121.652C369.828 121.958 369.484 122.199 369.069 122.377C368.655 122.55 368.167 122.637 367.606 122.637C367.183 122.637 366.775 122.575 366.383 122.452C365.995 122.325 365.647 122.14 365.337 121.898C365.027 121.652 364.779 121.352 364.592 120.996C364.41 120.641 364.309 120.233 364.291 119.772H366.075C366.107 120.078 366.189 120.338 366.321 120.552C366.453 120.766 366.627 120.93 366.841 121.044C367.06 121.158 367.312 121.215 367.6 121.215C367.859 121.215 368.083 121.167 368.27 121.071C368.461 120.971 368.618 120.832 368.741 120.654C368.864 120.477 368.955 120.267 369.015 120.025C369.074 119.784 369.104 119.52 369.104 119.232C369.104 118.954 369.069 118.701 369.001 118.474C368.933 118.241 368.828 118.041 368.687 117.872C368.545 117.703 368.368 117.574 368.153 117.482C367.944 117.391 367.698 117.346 367.415 117.346C367.037 117.346 366.745 117.403 366.54 117.517C366.34 117.631 366.162 117.765 366.007 117.92Z" fill="white"/>
<mask id="path-16-inside-3_5618_36369" fill="white">
<path d="M42.5 148H393.5V199H42.5V148Z"/>
</mask>
<path d="M393.5 198H42.5V200H393.5V198Z" fill="#F1F1F1" mask="url(#path-16-inside-3_5618_36369)"/>
<path d="M69.3333 162.665C75.3166 162.665 80.1667 167.515 80.1667 173.499C80.1667 179.482 75.3166 184.332 69.3333 184.332C63.3501 184.332 58.5 179.482 58.5 173.499C58.5 167.515 63.3501 162.665 69.3333 162.665ZM69.3333 164.832C67.0348 164.832 64.8304 165.745 63.2051 167.37C61.5797 168.996 60.6667 171.2 60.6667 173.499C60.6667 175.797 61.5797 178.002 63.2051 179.627C64.8304 181.252 67.0348 182.165 69.3333 182.165C71.6319 182.165 73.8363 181.252 75.4616 179.627C77.0869 178.002 78 175.797 78 173.499C78 171.2 77.0869 168.996 75.4616 167.37C73.8363 165.745 71.6319 164.832 69.3333 164.832Z" fill="#FFAA04"/>
<path d="M70.1702 167.666V173.619L74.5 177.829L72.6108 179.666L67.5 174.694V167.666H70.1702Z" fill="#FFAA04"/>
<path d="M93.4947 168.3H96.1987C98.6467 168.3 100.615 169.132 100.615 171.676C100.615 174.156 98.6787 175.036 96.6627 175.036H95.0947V179.5H93.4947V168.3ZM95.0947 173.628H96.8067C97.9747 173.628 98.9827 173.132 98.9827 171.66C98.9827 170.188 97.7187 169.708 96.3107 169.708H95.0947V173.628ZM105.873 179.66C103.073 179.66 101.777 177.708 101.777 175.372C101.777 173.004 103.057 171.356 105.473 171.356C108.033 171.356 109.025 173.26 108.993 175.836H103.377C103.377 177.42 104.449 178.38 105.937 178.38C106.673 178.38 107.569 178.14 108.561 177.66V179.004C107.713 179.452 106.785 179.66 105.873 179.66ZM103.377 174.652H107.393C107.345 173.42 106.593 172.62 105.425 172.62C104.257 172.62 103.553 173.42 103.377 174.652ZM115.168 171.34C117.168 171.34 118.288 172.668 118.288 175.18V179.5H116.784V175.052C116.784 173.42 116.096 172.604 114.864 172.604C113.6 172.604 112.656 173.484 112.576 175.34V179.5H111.072V171.5H112.528V172.668H112.576C113.12 171.788 114.016 171.34 115.168 171.34ZM126.421 172.556V167.5H127.925V179.5H126.485V178.348H126.437C125.845 179.18 124.933 179.66 123.845 179.66C121.797 179.66 120.309 177.98 120.309 175.468C120.309 172.988 121.797 171.34 123.829 171.34C124.885 171.34 125.765 171.788 126.373 172.556H126.421ZM124.229 178.38C125.621 178.38 126.549 177.212 126.549 175.468C126.549 173.756 125.621 172.62 124.213 172.62C122.805 172.62 121.877 173.756 121.877 175.468C121.877 177.212 122.821 178.38 124.229 178.38ZM132.174 168.3V169.996H130.574V168.3H132.174ZM132.126 171.5V179.5H130.622V171.5H132.126ZM138.933 171.34C140.933 171.34 142.053 172.668 142.053 175.18V179.5H140.549V175.052C140.549 173.42 139.861 172.604 138.629 172.604C137.365 172.604 136.421 173.484 136.341 175.34V179.5H134.837V171.5H136.293V172.668H136.341C136.885 171.788 137.781 171.34 138.933 171.34ZM150.171 172.556V171.5H151.675V178.828C151.675 181.308 150.363 183.052 147.547 183.052C146.587 183.052 145.547 182.844 144.699 182.46V181.052C145.339 181.324 146.331 181.628 147.339 181.628C148.699 181.628 150.171 181.084 150.171 179.148V178.46H150.123C149.515 179.228 148.651 179.66 147.611 179.66C145.563 179.66 144.075 177.98 144.075 175.468C144.075 172.988 145.563 171.34 147.595 171.34C148.651 171.34 149.531 171.788 150.139 172.556H150.171ZM147.995 178.38C149.387 178.38 150.315 177.212 150.315 175.468C150.315 173.756 149.387 172.62 147.979 172.62C146.571 172.62 145.643 173.756 145.643 175.468C145.643 177.212 146.587 178.38 147.995 178.38ZM160.651 179.692C159.755 179.692 158.955 179.516 158.219 179.196V177.708C158.891 178.06 159.691 178.268 160.475 178.268C161.803 178.268 162.955 177.692 162.955 176.428C162.955 173.82 158.091 174.716 158.091 171.244C158.091 169.26 159.659 168.14 161.675 168.14C162.443 168.14 163.291 168.3 164.059 168.572V170.012C163.275 169.74 162.427 169.548 161.739 169.548C160.763 169.548 159.755 169.932 159.755 171.1C159.755 173.5 164.587 172.556 164.587 176.332C164.587 178.572 162.891 179.692 160.651 179.692ZM166.843 179.5V168.3H173.099V169.708H168.443V173.004H172.683V174.412H168.443V178.092H173.099V179.5H166.843ZM177.541 179.692C176.645 179.692 175.845 179.516 175.109 179.196V177.708C175.781 178.06 176.581 178.268 177.365 178.268C178.693 178.268 179.845 177.692 179.845 176.428C179.845 173.82 174.981 174.716 174.981 171.244C174.981 169.26 176.549 168.14 178.565 168.14C179.333 168.14 180.181 168.3 180.949 168.572V170.012C180.165 169.74 179.317 169.548 178.629 169.548C177.653 169.548 176.645 169.932 176.645 171.1C176.645 173.5 181.477 172.556 181.477 176.332C181.477 178.572 179.781 179.692 177.541 179.692Z" fill="white"/>
<rect x="349.5" y="159.5" width="28" height="28" rx="14" fill="#0033A0"/>
<path d="M358.193 172.724H359.212C359.572 172.724 359.868 172.662 360.101 172.539C360.338 172.411 360.513 172.238 360.627 172.02C360.745 171.796 360.805 171.539 360.805 171.247C360.805 170.96 360.752 170.712 360.647 170.502C360.543 170.288 360.383 170.124 360.169 170.01C359.959 169.891 359.69 169.832 359.362 169.832C359.098 169.832 358.854 169.884 358.631 169.989C358.412 170.094 358.237 170.244 358.104 170.44C357.977 170.632 357.913 170.862 357.913 171.131H356.102C356.102 170.593 356.243 170.121 356.525 169.716C356.812 169.306 357.2 168.984 357.688 168.752C358.175 168.52 358.72 168.403 359.321 168.403C359.978 168.403 360.552 168.513 361.044 168.731C361.541 168.946 361.926 169.262 362.199 169.682C362.477 170.101 362.616 170.62 362.616 171.24C362.616 171.536 362.546 171.833 362.404 172.129C362.268 172.421 362.065 172.685 361.796 172.922C361.532 173.154 361.206 173.343 360.818 173.489C360.436 173.631 359.996 173.701 359.499 173.701H358.193V172.724ZM358.193 174.118V173.154H359.499C360.06 173.154 360.545 173.22 360.955 173.353C361.37 173.48 361.712 173.662 361.98 173.899C362.249 174.132 362.448 174.403 362.575 174.713C362.707 175.023 362.773 175.355 362.773 175.711C362.773 176.176 362.687 176.59 362.514 176.955C362.34 177.315 362.097 177.62 361.782 177.871C361.472 178.122 361.108 178.313 360.688 178.445C360.269 178.573 359.816 178.637 359.328 178.637C358.904 178.637 358.492 178.58 358.091 178.466C357.694 178.347 357.337 178.172 357.018 177.939C356.699 177.702 356.446 177.406 356.259 177.051C356.072 176.691 355.979 176.274 355.979 175.8H357.79C357.79 176.073 357.856 176.317 357.988 176.531C358.125 176.745 358.312 176.914 358.549 177.037C358.79 177.156 359.062 177.215 359.362 177.215C359.695 177.215 359.98 177.156 360.217 177.037C360.458 176.914 360.643 176.741 360.771 176.518C360.898 176.29 360.962 176.019 360.962 175.704C360.962 175.33 360.891 175.027 360.75 174.795C360.609 174.562 360.406 174.392 360.142 174.282C359.882 174.173 359.572 174.118 359.212 174.118H358.193ZM370.956 177.078V178.5H364.216V177.283L367.449 173.79C367.786 173.407 368.053 173.075 368.249 172.792C368.445 172.509 368.584 172.254 368.666 172.026C368.753 171.794 368.796 171.573 368.796 171.363C368.796 171.058 368.741 170.791 368.632 170.563C368.522 170.331 368.363 170.151 368.153 170.023C367.948 169.896 367.695 169.832 367.395 169.832C367.062 169.832 366.777 169.91 366.54 170.064C366.308 170.215 366.13 170.424 366.007 170.693C365.888 170.962 365.829 171.27 365.829 171.616H364.018C364.018 171.028 364.154 170.493 364.428 170.01C364.701 169.522 365.093 169.132 365.604 168.841C366.114 168.549 366.72 168.403 367.422 168.403C368.105 168.403 368.684 168.517 369.158 168.745C369.632 168.968 369.992 169.287 370.238 169.702C370.484 170.117 370.607 170.611 370.607 171.186C370.607 171.505 370.555 171.819 370.45 172.129C370.345 172.439 370.197 172.746 370.006 173.052C369.819 173.353 369.596 173.658 369.336 173.968C369.076 174.278 368.787 174.594 368.468 174.918L366.526 177.078H370.956Z" fill="white"/>
<mask id="path-23-inside-4_5618_36369" fill="white">
<path d="M42.5 204H393.5V255H42.5V204Z"/>
</mask>
<path d="M393.5 254H42.5V256H393.5V254Z" fill="#F1F1F1" mask="url(#path-23-inside-4_5618_36369)"/>
<path d="M69.5 240.5C63.4247 240.5 58.5 235.575 58.5 229.5C58.5 223.425 63.4247 218.5 69.5 218.5C75.5753 218.5 80.5 223.425 80.5 229.5C80.5 235.575 75.5753 240.5 69.5 240.5ZM69.5 238.3C71.8339 238.3 74.0722 237.373 75.7225 235.723C77.3729 234.072 78.3 231.834 78.3 229.5C78.3 227.166 77.3729 224.928 75.7225 223.277C74.0722 221.627 71.8339 220.7 69.5 220.7C67.1661 220.7 64.9278 221.627 63.2775 223.277C61.6271 224.928 60.7 227.166 60.7 229.5C60.7 231.834 61.6271 234.072 63.2775 235.723C64.9278 237.373 67.1661 238.3 69.5 238.3ZM69.5 227.945L72.6108 224.833L74.1673 226.389L71.0554 229.5L74.1673 232.611L72.6108 234.167L69.5 231.055L66.3892 234.167L64.8327 232.611L67.9446 229.5L64.8327 226.389L66.3892 224.833L69.5 227.945Z" fill="#FF0000"/>
<path d="M99.076 225.66C95.588 225.66 93.348 223.356 93.348 219.916C93.348 216.444 95.604 214.14 99.092 214.14C100.084 214.14 100.98 214.332 101.732 214.62V216.06C100.996 215.772 100.052 215.548 99.124 215.548C96.596 215.548 94.996 217.292 94.996 219.916C94.996 222.524 96.644 224.236 99.156 224.236C99.796 224.236 100.804 224.124 101.78 223.788V225.244C100.916 225.516 99.956 225.66 99.076 225.66ZM106.969 225.66C104.649 225.66 103.017 223.948 103.017 221.5C103.017 219.052 104.649 217.34 106.969 217.34C109.289 217.34 110.905 219.052 110.905 221.5C110.905 223.948 109.289 225.66 106.969 225.66ZM106.969 224.396C108.377 224.396 109.305 223.244 109.305 221.5C109.305 219.756 108.377 218.604 106.969 218.604C105.561 218.604 104.617 219.756 104.617 221.5C104.617 223.244 105.561 224.396 106.969 224.396ZM117.017 217.34C119.017 217.34 120.137 218.668 120.137 221.18V225.5H118.633V221.052C118.633 219.42 117.945 218.604 116.713 218.604C115.449 218.604 114.505 219.484 114.425 221.34V225.5H112.921V217.5H114.377V218.668H114.425C114.969 217.788 115.865 217.34 117.017 217.34ZM124.366 217.5H126.366V218.812H124.366V223.292C124.366 223.98 124.494 224.284 125.198 224.316C125.518 224.332 125.854 224.284 126.126 224.236V225.452C125.79 225.548 125.406 225.596 125.006 225.596C123.47 225.596 122.862 224.796 122.862 223.276V218.812H121.534V217.5H122.862V215.66L124.366 215.132V217.5ZM129.58 218.748H129.628C130.236 217.66 131.244 217.18 132.668 217.372V218.636C130.684 218.364 129.708 219.292 129.628 221.564V225.5H128.124V217.5H129.58V218.748ZM137.271 217.34C139.767 217.34 140.583 218.7 140.583 220.732V225.5H139.239V224.444H139.207C138.855 224.94 138.327 225.66 136.791 225.66C135.287 225.66 133.799 224.972 133.799 223.148C133.799 220.972 135.911 220.54 137.479 220.508C137.927 220.492 138.487 220.508 139.111 220.54C139.111 219.164 138.567 218.604 137.031 218.604C135.927 218.604 135.239 218.956 134.647 219.292V218.028C135.303 217.66 136.039 217.34 137.271 217.34ZM136.919 224.444C138.135 224.444 139.063 223.708 139.111 222.332V221.66C138.743 221.644 138.327 221.628 137.959 221.628C136.327 221.628 135.399 222.172 135.399 223.148C135.399 224.044 136.023 224.444 136.919 224.444ZM153.989 217.5V218.812H151.989V223.292C151.989 223.98 152.117 224.284 152.821 224.316C153.141 224.332 153.477 224.284 153.749 224.236V225.452C153.413 225.548 153.029 225.596 152.629 225.596C151.093 225.596 150.485 224.796 150.485 223.276V218.812H150.117C148.933 218.812 149.605 219.42 148.149 218.908C147.605 218.732 146.981 218.636 146.437 218.684C145.013 218.828 143.989 219.884 143.989 221.5C143.989 223.116 145.029 224.188 146.469 224.3C147.093 224.348 147.845 224.22 148.629 223.9V225.244C147.925 225.532 147.221 225.66 146.549 225.66C144.101 225.66 142.389 223.948 142.389 221.5C142.389 219.052 144.101 217.34 146.549 217.34C147.093 217.34 147.605 217.452 148.085 217.596C149.685 218.092 149.141 217.5 150.117 217.5H150.485V215.66L151.989 215.132V217.5H153.989ZM161.995 225.5L159.051 217.5H160.571L162.875 223.772H162.907L164.891 217.5H166.107L168.091 223.772H168.123L170.427 217.5H171.947L169.003 225.5H167.259L165.515 219.884H165.483L163.739 225.5H161.995ZM175.117 214.3V215.996H173.517V214.3H175.117ZM175.069 217.5V225.5H173.565V217.5H175.069ZM179.444 217.5H181.444V218.812H179.444V223.292C179.444 223.98 179.572 224.284 180.276 224.316C180.596 224.332 180.932 224.284 181.204 224.236V225.452C180.868 225.548 180.484 225.596 180.084 225.596C178.548 225.596 177.94 224.796 177.94 223.276V218.812H176.612V217.5H177.94V215.66L179.444 215.132V217.5ZM187.298 217.34C189.298 217.34 190.418 218.668 190.418 221.18V225.5H188.914V221.052C188.914 219.42 188.226 218.604 186.994 218.604C185.73 218.604 184.786 219.484 184.706 221.34V225.5H183.202V213.5H184.706V218.652C185.266 217.788 186.146 217.34 187.298 217.34ZM202.062 219.596C203.646 220.332 204.382 221.148 204.382 222.476C204.382 224.396 202.83 225.66 200.51 225.66C198.222 225.66 196.702 224.428 196.702 222.556C196.702 221.26 197.422 220.38 199.022 219.612C197.518 218.812 197.134 217.9 197.134 217.02C197.134 215.42 198.414 214.124 200.59 214.124C202.67 214.124 203.886 215.356 203.886 216.988C203.886 218.012 203.406 218.828 202.062 219.596ZM200.462 215.436C199.358 215.436 198.734 216.076 198.734 217.02C198.734 217.996 199.39 218.508 200.67 219.036C201.71 218.46 202.19 217.788 202.19 216.972C202.19 215.996 201.502 215.436 200.462 215.436ZM202.75 222.604C202.766 221.484 201.902 220.892 200.382 220.236C198.926 220.908 198.334 221.564 198.334 222.46C198.334 223.596 199.294 224.252 200.654 224.252C201.966 224.252 202.734 223.66 202.75 222.604ZM205.64 219.9C205.64 217.452 206.344 214.14 209.432 214.14C212.52 214.14 213.224 217.452 213.224 219.9C213.224 222.348 212.52 225.66 209.432 225.66C206.344 225.66 205.64 222.348 205.64 219.9ZM207.304 219.9C207.304 221.292 207.512 224.252 209.432 224.252C211.352 224.252 211.56 221.292 211.56 219.9C211.56 218.492 211.272 215.548 209.432 215.548C207.592 215.548 207.304 218.492 207.304 219.9ZM215.603 217.34C215.603 215.292 216.467 214.14 218.019 214.14C219.571 214.14 220.451 215.292 220.451 217.34C220.451 219.388 219.571 220.54 218.019 220.54C216.467 220.54 215.603 219.388 215.603 217.34ZM224.259 214.3H226.035L219.491 225.5H217.715L224.259 214.3ZM217.011 217.34C217.011 218.876 217.331 219.596 218.019 219.596C218.723 219.596 219.043 218.876 219.043 217.34C219.043 215.82 218.723 215.1 218.019 215.1C217.331 215.1 217.011 215.82 217.011 217.34ZM223.299 222.46C223.299 220.412 224.163 219.26 225.715 219.26C227.267 219.26 228.147 220.412 228.147 222.46C228.147 224.508 227.267 225.66 225.715 225.66C224.163 225.66 223.299 224.508 223.299 222.46ZM224.707 222.46C224.707 223.996 225.027 224.716 225.715 224.716C226.419 224.716 226.739 223.996 226.739 222.46C226.739 220.94 226.419 220.22 225.715 220.22C225.027 220.22 224.707 220.94 224.707 222.46ZM99.076 245.66C95.588 245.66 93.348 243.356 93.348 239.916C93.348 236.444 95.604 234.14 99.092 234.14C100.084 234.14 100.98 234.332 101.732 234.62V236.06C100.996 235.772 100.052 235.548 99.124 235.548C96.596 235.548 94.996 237.292 94.996 239.916C94.996 242.524 96.644 244.236 99.156 244.236C99.796 244.236 100.804 244.124 101.78 243.788V245.244C100.916 245.516 99.956 245.66 99.076 245.66ZM106.969 245.66C104.649 245.66 103.017 243.948 103.017 241.5C103.017 239.052 104.649 237.34 106.969 237.34C109.289 237.34 110.905 239.052 110.905 241.5C110.905 243.948 109.289 245.66 106.969 245.66ZM106.969 244.396C108.377 244.396 109.305 243.244 109.305 241.5C109.305 239.756 108.377 238.604 106.969 238.604C105.561 238.604 104.617 239.756 104.617 241.5C104.617 243.244 105.561 244.396 106.969 244.396ZM117.017 237.34C119.017 237.34 120.137 238.668 120.137 241.18V245.5H118.633V241.052C118.633 239.42 117.945 238.604 116.713 238.604C115.449 238.604 114.505 239.484 114.425 241.34V245.5H112.921V237.5H114.377V238.668H114.425C114.969 237.788 115.865 237.34 117.017 237.34ZM124.35 245.66C123.742 245.66 122.734 245.532 122.014 245.228V243.98C122.702 244.3 123.454 244.444 124.046 244.444C124.798 244.444 125.886 244.204 125.886 243.34C125.886 241.628 121.966 242.14 121.966 239.644C121.966 237.98 123.278 237.356 124.958 237.356C125.678 237.356 126.286 237.468 126.91 237.66V238.908C126.414 238.7 125.694 238.524 125.102 238.524C124.302 238.524 123.438 238.844 123.438 239.5C123.438 241.148 127.326 240.636 127.326 243.18C127.326 244.876 125.87 245.66 124.35 245.66ZM134.867 237.5H136.371V245.5H134.915V244.332H134.867C134.323 245.212 133.427 245.66 132.275 245.66C130.275 245.66 129.155 244.332 129.155 241.82V237.5H130.659V241.948C130.659 243.58 131.347 244.396 132.579 244.396C133.843 244.396 134.787 243.516 134.867 241.66V237.5ZM147.768 237.34C149.576 237.34 150.6 238.604 150.6 241.004V245.5H149.096V240.972C149.096 239.404 148.568 238.604 147.48 238.604C146.216 238.604 145.464 239.66 145.464 241.676V245.5H144.056V240.972C144.056 239.404 143.464 238.604 142.376 238.604C141.176 238.604 140.504 239.548 140.424 241.356V245.5H138.92V237.5H140.376V238.668H140.424C140.856 237.788 141.592 237.34 142.664 237.34C143.848 237.34 144.68 237.884 145.128 238.94C145.656 237.884 146.584 237.34 147.768 237.34ZM156.66 245.66C153.86 245.66 152.564 243.708 152.564 241.372C152.564 239.004 153.844 237.356 156.26 237.356C158.82 237.356 159.812 239.26 159.78 241.836H154.164C154.164 243.42 155.236 244.38 156.724 244.38C157.46 244.38 158.356 244.14 159.348 243.66V245.004C158.5 245.452 157.572 245.66 156.66 245.66ZM154.164 240.652H158.18C158.132 239.42 157.38 238.62 156.212 238.62C155.044 238.62 154.34 239.42 154.164 240.652ZM167.426 238.556V233.5H168.93V245.5H167.49V244.348H167.442C166.85 245.18 165.938 245.66 164.85 245.66C162.802 245.66 161.314 243.98 161.314 241.468C161.314 238.988 162.802 237.34 164.834 237.34C165.89 237.34 166.77 237.788 167.378 238.556H167.426ZM165.234 244.38C166.626 244.38 167.554 243.212 167.554 241.468C167.554 239.756 166.626 238.62 165.218 238.62C163.81 238.62 162.882 239.756 162.882 241.468C162.882 243.212 163.826 244.38 165.234 244.38ZM178.85 245.5L174.69 234.3H176.338L179.89 244.012H179.922L183.506 234.3H185.154L180.962 245.5H178.85ZM188.677 237.34C191.173 237.34 191.989 238.7 191.989 240.732V245.5H190.645V244.444H190.613C190.261 244.94 189.733 245.66 188.197 245.66C186.693 245.66 185.205 244.972 185.205 243.148C185.205 240.972 187.317 240.54 188.885 240.508C189.333 240.492 189.893 240.508 190.517 240.54C190.517 239.164 189.973 238.604 188.437 238.604C187.333 238.604 186.645 238.956 186.053 239.292V238.028C186.709 237.66 187.445 237.34 188.677 237.34ZM188.325 244.444C189.541 244.444 190.469 243.708 190.517 242.332V241.66C190.149 241.644 189.733 241.628 189.365 241.628C187.733 241.628 186.805 242.172 186.805 243.148C186.805 244.044 187.429 244.444 188.325 244.444ZM196.596 245.58C195.364 245.58 194.66 244.876 194.66 243.164V233.5H196.164V243.276C196.164 244.028 196.292 244.188 196.756 244.252C197.012 244.284 197.236 244.268 197.428 244.236V245.468C197.076 245.564 196.772 245.58 196.596 245.58ZM204.851 237.5H206.355V245.5H204.899V244.332H204.851C204.307 245.212 203.411 245.66 202.259 245.66C200.259 245.66 199.139 244.332 199.139 241.82V237.5H200.643V241.948C200.643 243.58 201.331 244.396 202.563 244.396C203.827 244.396 204.771 243.516 204.851 241.66V237.5ZM212.457 245.66C209.657 245.66 208.361 243.708 208.361 241.372C208.361 239.004 209.641 237.356 212.057 237.356C214.617 237.356 215.609 239.26 215.577 241.836H209.961C209.961 243.42 211.033 244.38 212.521 244.38C213.257 244.38 214.153 244.14 215.145 243.66V245.004C214.297 245.452 213.369 245.66 212.457 245.66ZM209.961 240.652H213.977C213.929 239.42 213.177 238.62 212.009 238.62C210.841 238.62 210.137 239.42 209.961 240.652ZM219.303 245.66C218.695 245.66 217.687 245.532 216.967 245.228V243.98C217.655 244.3 218.407 244.444 218.999 244.444C219.751 244.444 220.839 244.204 220.839 243.34C220.839 241.628 216.919 242.14 216.919 239.644C216.919 237.98 218.231 237.356 219.911 237.356C220.631 237.356 221.239 237.468 221.863 237.66V238.908C221.367 238.7 220.647 238.524 220.055 238.524C219.255 238.524 218.391 238.844 218.391 239.5C218.391 241.148 222.279 240.636 222.279 243.18C222.279 244.876 220.823 245.66 219.303 245.66Z" fill="white"/>
<rect x="349.5" y="215.5" width="28" height="28" rx="14" fill="#0033A0"/>
<path d="M362.958 233.078V234.5H356.218V233.283L359.451 229.79C359.788 229.407 360.055 229.075 360.251 228.792C360.447 228.509 360.586 228.254 360.668 228.026C360.755 227.794 360.798 227.573 360.798 227.363C360.798 227.058 360.743 226.791 360.634 226.563C360.524 226.331 360.365 226.151 360.155 226.023C359.95 225.896 359.697 225.832 359.396 225.832C359.064 225.832 358.779 225.91 358.542 226.064C358.31 226.215 358.132 226.424 358.009 226.693C357.89 226.962 357.831 227.27 357.831 227.616H356.02C356.02 227.028 356.156 226.493 356.43 226.01C356.703 225.522 357.095 225.132 357.605 224.841C358.116 224.549 358.722 224.403 359.424 224.403C360.107 224.403 360.686 224.517 361.16 224.745C361.634 224.968 361.994 225.287 362.24 225.702C362.486 226.117 362.609 226.611 362.609 227.186C362.609 227.505 362.557 227.819 362.452 228.129C362.347 228.439 362.199 228.746 362.008 229.052C361.821 229.353 361.598 229.658 361.338 229.968C361.078 230.278 360.789 230.594 360.47 230.918L358.528 233.078H362.958ZM371.127 230.87V232.292H363.956L363.881 231.198L368.099 224.547H369.541L367.982 227.192L365.72 230.87H371.127ZM369.944 224.547V234.5H368.133V224.547H369.944Z" fill="white"/>
<path d="M430.353 72V64.692L428.829 65.988L428.313 65.352L430.449 63.6H431.313V72H430.353ZM439.337 72H434.093V71.124C436.481 68.76 438.221 67.296 438.221 65.892C438.221 64.836 437.369 64.32 436.373 64.32C435.617 64.32 434.873 64.608 434.357 64.932V64.02C434.993 63.696 435.809 63.468 436.589 63.468C438.077 63.468 439.217 64.32 439.217 65.88C439.217 67.488 437.837 68.724 435.437 71.088H439.337V72ZM440.533 67.8C440.533 65.748 441.169 63.48 443.341 63.48C445.513 63.48 446.161 65.748 446.161 67.8C446.161 69.852 445.513 72.12 443.341 72.12C441.169 72.12 440.533 69.852 440.533 67.8ZM441.529 67.8C441.529 69.228 441.865 71.268 443.341 71.268C444.829 71.268 445.153 69.228 445.153 67.8C445.153 66.36 444.781 64.332 443.341 64.332C441.901 64.332 441.529 66.36 441.529 67.8Z" fill="white"/>
<line x1="460.909" y1="67.5" x2="1036" y2="67.5" stroke="#A6B6CA" stroke-dasharray="4 4"/>
<path d="M430.353 100V92.692L428.829 93.988L428.313 93.352L430.449 91.6H431.313V100H430.353ZM433.985 95.8C433.985 93.748 434.621 91.48 436.793 91.48C438.965 91.48 439.613 93.748 439.613 95.8C439.613 97.852 438.965 100.12 436.793 100.12C434.621 100.12 433.985 97.852 433.985 95.8ZM434.981 95.8C434.981 97.228 435.317 99.268 436.793 99.268C438.281 99.268 438.605 97.228 438.605 95.8C438.605 94.36 438.233 92.332 436.793 92.332C435.353 92.332 434.981 94.36 434.981 95.8ZM440.533 95.8C440.533 93.748 441.169 91.48 443.341 91.48C445.513 91.48 446.161 93.748 446.161 95.8C446.161 97.852 445.513 100.12 443.341 100.12C441.169 100.12 440.533 97.852 440.533 95.8ZM441.529 95.8C441.529 97.228 441.865 99.268 443.341 99.268C444.829 99.268 445.153 97.228 445.153 95.8C445.153 94.36 444.781 92.332 443.341 92.332C441.901 92.332 441.529 94.36 441.529 95.8Z" fill="white"/>
<line x1="460.909" y1="95.5" x2="1036" y2="95.5" stroke="#A6B6CA" stroke-dasharray="4 4"/>
<path d="M431.229 123.572C432.477 124.1 433.101 124.712 433.101 125.78C433.101 127.22 431.949 128.12 430.221 128.12C428.529 128.12 427.401 127.244 427.401 125.84C427.401 124.784 428.049 124.112 429.261 123.572C428.133 123.032 427.725 122.372 427.725 121.616C427.725 120.392 428.685 119.468 430.281 119.468C431.805 119.468 432.729 120.344 432.729 121.568C432.729 122.444 432.225 123.056 431.229 123.572ZM428.685 121.616C428.685 122.432 429.285 122.84 430.329 123.236C431.169 122.816 431.709 122.312 431.709 121.556C431.709 120.74 431.109 120.26 430.209 120.26C429.249 120.26 428.685 120.788 428.685 121.616ZM432.117 125.852C432.129 124.904 431.409 124.424 430.149 123.932C428.985 124.436 428.373 124.964 428.373 125.78C428.373 126.74 429.165 127.268 430.305 127.268C431.421 127.268 432.105 126.764 432.117 125.852ZM433.985 123.8C433.985 121.748 434.621 119.48 436.793 119.48C438.965 119.48 439.613 121.748 439.613 123.8C439.613 125.852 438.965 128.12 436.793 128.12C434.621 128.12 433.985 125.852 433.985 123.8ZM434.981 123.8C434.981 125.228 435.317 127.268 436.793 127.268C438.281 127.268 438.605 125.228 438.605 123.8C438.605 122.36 438.233 120.332 436.793 120.332C435.353 120.332 434.981 122.36 434.981 123.8Z" fill="white"/>
<line x1="454.909" y1="123.5" x2="1036" y2="123.5" stroke="#A6B6CA" stroke-dasharray="4 4"/>
<path d="M432.441 147.732V148.656C431.889 148.428 431.253 148.32 430.797 148.32C429.009 148.332 428.493 150.072 428.469 151.596V151.716C428.769 151.164 429.405 150.672 430.473 150.672C432.093 150.672 433.017 151.752 433.017 153.384C433.017 155.088 431.985 156.12 430.341 156.12C428.109 156.12 427.581 154.164 427.569 152.328C427.533 149.736 428.241 147.468 430.785 147.468C431.409 147.468 431.997 147.6 432.441 147.732ZM432.021 153.396C432.021 152.268 431.397 151.512 430.341 151.512C429.297 151.512 428.601 152.316 428.613 153.36C428.625 154.44 429.261 155.268 430.317 155.268C431.325 155.268 432.021 154.56 432.021 153.396ZM433.985 151.8C433.985 149.748 434.621 147.48 436.793 147.48C438.965 147.48 439.613 149.748 439.613 151.8C439.613 153.852 438.965 156.12 436.793 156.12C434.621 156.12 433.985 153.852 433.985 151.8ZM434.981 151.8C434.981 153.228 435.317 155.268 436.793 155.268C438.281 155.268 438.605 153.228 438.605 151.8C438.605 150.36 438.233 148.332 436.793 148.332C435.353 148.332 434.981 150.36 434.981 151.8Z" fill="white"/>
<line x1="454.909" y1="151.5" x2="1036" y2="151.5" stroke="#A6B6CA" stroke-dasharray="4 4"/>
<path d="M431.253 184V181.996H427.173V181.204L430.845 175.6H432.213V181.144H433.269V181.996H432.213V184H431.253ZM431.253 181.144V176.452H431.229L428.157 181.144H431.253ZM433.985 179.8C433.985 177.748 434.621 175.48 436.793 175.48C438.965 175.48 439.613 177.748 439.613 179.8C439.613 181.852 438.965 184.12 436.793 184.12C434.621 184.12 433.985 181.852 433.985 179.8ZM434.981 179.8C434.981 181.228 435.317 183.268 436.793 183.268C438.281 183.268 438.605 181.228 438.605 179.8C438.605 178.36 438.233 176.332 436.793 176.332C435.353 176.332 434.981 178.36 434.981 179.8Z" fill="white"/>
<line x1="454.909" y1="179.5" x2="1036" y2="179.5" stroke="#A6B6CA" stroke-dasharray="4 4"/>
<path d="M432.789 212H427.545V211.124C429.933 208.76 431.673 207.296 431.673 205.892C431.673 204.836 430.821 204.32 429.825 204.32C429.069 204.32 428.325 204.608 427.809 204.932V204.02C428.445 203.696 429.261 203.468 430.041 203.468C431.529 203.468 432.669 204.32 432.669 205.88C432.669 207.488 431.289 208.724 428.889 211.088H432.789V212ZM433.985 207.8C433.985 205.748 434.621 203.48 436.793 203.48C438.965 203.48 439.613 205.748 439.613 207.8C439.613 209.852 438.965 212.12 436.793 212.12C434.621 212.12 433.985 209.852 433.985 207.8ZM434.981 207.8C434.981 209.228 435.317 211.268 436.793 211.268C438.281 211.268 438.605 209.228 438.605 207.8C438.605 206.36 438.233 204.332 436.793 204.332C435.353 204.332 434.981 206.36 434.981 207.8Z" fill="white"/>
<line x1="454.909" y1="207.5" x2="1036" y2="207.5" stroke="#A6B6CA" stroke-dasharray="4 4"/>
<path d="M427.437 235.8C427.437 233.748 428.073 231.48 430.245 231.48C432.417 231.48 433.065 233.748 433.065 235.8C433.065 237.852 432.417 240.12 430.245 240.12C428.073 240.12 427.437 237.852 427.437 235.8ZM428.433 235.8C428.433 237.228 428.769 239.268 430.245 239.268C431.733 239.268 432.057 237.228 432.057 235.8C432.057 234.36 431.685 232.332 430.245 232.332C428.805 232.332 428.433 234.36 428.433 235.8Z" fill="white"/>
<line x1="447.909" y1="235.5" x2="1036" y2="235.5" stroke="#A6B6CA" stroke-dasharray="4 4"/>
<g clip-path="url(#clip0_5618_36369)">
<rect x="482" y="150.338" width="30" height="86" rx="15" fill="#449CA4"/>
</g>
<rect x="484.5" y="152.838" width="25" height="81" rx="12.5" stroke="#07518D" stroke-width="5"/>
<rect x="479.5" y="203.838" width="35" height="35" rx="17.5" fill="#5F6369"/>
<rect x="479.5" y="203.838" width="35" height="35" rx="17.5" stroke="#449CA4" stroke-width="5"/>
<path d="M501 223.481H502V224.433H492V223.481H493V220.147C493 219.137 493.421 218.168 494.172 217.454C494.922 216.739 495.939 216.338 497 216.338C498.061 216.338 499.078 216.739 499.828 217.454C500.579 218.168 501 219.137 501 220.147V223.481ZM495.5 225.386H498.5V226.338H495.5V225.386Z" fill="white"/>
<g clip-path="url(#clip1_5618_36369)">
<rect x="630" y="80.3379" width="30" height="156" rx="15" fill="#5899DA"/>
</g>
<rect x="632.5" y="82.8379" width="25" height="151" rx="12.5" stroke="#07518D" stroke-width="5"/>
<rect x="627.5" y="203.838" width="35" height="35" rx="17.5" fill="#5F6369"/>
<rect x="627.5" y="203.838" width="35" height="35" rx="17.5" stroke="#5899DA" stroke-width="5"/>
<path d="M649 223.481H650V224.433H640V223.481H641V220.147C641 219.137 641.421 218.168 642.172 217.454C642.922 216.739 643.939 216.338 645 216.338C646.061 216.338 647.078 216.739 647.828 217.454C648.579 218.168 649 219.137 649 220.147V223.481ZM643.5 225.386H646.5V226.338H643.5V225.386Z" fill="white"/>
<g clip-path="url(#clip2_5618_36369)">
<rect x="793" y="122.338" width="30" height="114" rx="15" fill="#FFAA04"/>
</g>
<rect x="795.5" y="124.838" width="25" height="109" rx="12.5" stroke="#07518D" stroke-width="5"/>
<rect x="790.5" y="203.838" width="35" height="35" rx="17.5" fill="#5F6369"/>
<rect x="790.5" y="203.838" width="35" height="35" rx="17.5" stroke="#FFAA04" stroke-width="5"/>
<path d="M812 223.481H813V224.433H803V223.481H804V220.147C804 219.137 804.421 218.168 805.172 217.454C805.922 216.739 806.939 216.338 808 216.338C809.061 216.338 810.078 216.739 810.828 217.454C811.579 218.168 812 219.137 812 220.147V223.481ZM806.5 225.386H809.5V226.338H806.5V225.386Z" fill="white"/>
<g clip-path="url(#clip3_5618_36369)">
<rect x="956" y="110.338" width="30" height="126" rx="15" fill="#FF0000"/>
</g>
<rect x="958.5" y="112.838" width="25" height="121" rx="12.5" stroke="#07518D" stroke-width="5"/>
<rect x="953.5" y="203.838" width="35" height="35" rx="17.5" fill="#5F6369"/>
<rect x="953.5" y="203.838" width="35" height="35" rx="17.5" stroke="#FF0000" stroke-width="5"/>
<path d="M975 223.481H976V224.433H966V223.481H967V220.147C967 219.137 967.421 218.168 968.172 217.454C968.922 216.739 969.939 216.338 971 216.338C972.061 216.338 973.078 216.739 973.828 217.454C974.579 218.168 975 219.137 975 220.147V223.481ZM969.5 225.386H972.5V226.338H969.5V225.386Z" fill="white"/>
</g>
<defs>
<filter id="filter0_d_5618_36369" x="0.5" y="0" width="1143.52" height="316" filterUnits="userSpaceOnUse" color-interpolation-filters="sRGB">
<feFlood flood-opacity="0" result="BackgroundImageFix"/>
<feColorMatrix in="SourceAlpha" type="matrix" values="0 0 0 0 0 0 0 0 0 0 0 0 0 0 0 0 0 0 127 0" result="hardAlpha"/>
<feMorphology radius="1" operator="dilate" in="SourceAlpha" result="effect1_dropShadow_5618_36369"/>
<feOffset dx="3" dy="8"/>
<feGaussianBlur stdDeviation="15"/>
<feComposite in2="hardAlpha" operator="out"/>
<feColorMatrix type="matrix" values="0 0 0 0 0.658824 0 0 0 0 0.686275 0 0 0 0 0.721569 0 0 0 0.3 0"/>
<feBlend mode="normal" in2="BackgroundImageFix" result="effect1_dropShadow_5618_36369"/>
<feBlend mode="normal" in="SourceGraphic" in2="effect1_dropShadow_5618_36369" result="shape"/>
</filter>
<linearGradient id="paint0_linear_5618_36369" x1="569.26" y1="23" x2="569.26" y2="277" gradientUnits="userSpaceOnUse">
<stop offset="0.25" stop-color="#1E3A71"/>
<stop offset="1" stop-color="#0080BD"/>
</linearGradient>
<clipPath id="clip0_5618_36369">
<rect x="482" y="150.338" width="30" height="86" rx="15" fill="white"/>
</clipPath>
<clipPath id="clip1_5618_36369">
<rect x="630" y="80.3379" width="30" height="156" rx="15" fill="white"/>
</clipPath>
<clipPath id="clip2_5618_36369">
<rect x="793" y="122.338" width="30" height="114" rx="15" fill="white"/>
</clipPath>
<clipPath id="clip3_5618_36369">
<rect x="956" y="110.338" width="30" height="126" rx="15" fill="white"/>
</clipPath>
</defs>
</svg>
