<svg width="237" height="179" viewBox="0 0 237 179" fill="none" xmlns="http://www.w3.org/2000/svg">
<g filter="url(#filter0_d_4364_28008)">
<rect x="25" y="23" width="177.523" height="117" rx="12" fill="#0D366F" shape-rendering="crispEdges"/>
<rect x="25" y="23" width="177.523" height="117" rx="12" fill="url(#paint0_linear_4364_28008)" shape-rendering="crispEdges"/>
<rect x="25.5" y="23.5" width="176.523" height="116" rx="11.5" stroke="#00A3E0" shape-rendering="crispEdges"/>
<path d="M58.528 79L58.528 60.275L55.763 62.62L53.313 59.645L59.613 54.5H63.428L63.428 79H58.528ZM83.4012 66.085C86.4812 67.695 87.7412 69.655 87.7412 72.28C87.7412 76.48 84.2062 79.35 78.9212 79.35C73.7062 79.35 70.2412 76.55 70.2412 72.455C70.2412 69.97 71.5012 67.765 74.7912 66.05C71.8162 64.23 71.2562 62.095 71.2562 60.555C71.2562 57.055 74.0912 54.115 79.0262 54.115C83.7862 54.115 86.6562 56.915 86.6562 60.485C86.6562 62.235 85.9562 64.23 83.4012 66.085ZM78.8862 58C77.0662 58 76.0162 59.19 76.0162 60.73C76.0162 62.375 77.2062 63.39 79.1662 64.3C80.9512 63.215 81.7562 61.99 81.7562 60.66C81.7562 59.085 80.6712 58 78.8862 58ZM82.7362 72.21C82.7712 70.355 81.3712 69.165 78.8512 67.975C76.8212 69.06 75.2462 70.25 75.2462 72.07C75.2462 73.925 76.7512 75.185 79.0962 75.185C81.3362 75.185 82.7362 74.065 82.7362 72.21Z" fill="white"/>
<path d="M102.258 72V64.369L100.867 65.565L100.178 64.72L102.401 62.9H103.558V72H102.258ZM108.858 72.13C108.052 72.13 107.246 71.974 106.596 71.753V70.479C107.285 70.765 107.987 70.947 108.715 70.947C110.054 70.947 110.951 70.362 110.951 69.439C110.951 68.503 110.041 67.853 108.663 67.853H107.87V66.709H108.598C109.963 66.709 110.873 66.215 110.873 65.253C110.873 64.447 110.236 63.901 108.975 63.901C108.208 63.901 107.597 64.109 107.012 64.382V63.199C107.571 62.952 108.234 62.757 109.079 62.757C111.068 62.757 112.225 63.81 112.225 65.123C112.225 66.163 111.51 67.034 110.431 67.255V67.281C111.549 67.476 112.303 68.412 112.303 69.556C112.303 71.103 110.925 72.13 108.858 72.13ZM113.962 69.075V67.931H117.303V69.075H113.962ZM122.088 62.9H123.453L127.288 72H125.871L124.961 69.712H120.489L119.579 72H118.214L122.088 62.9ZM120.918 68.646H124.532L122.725 64.135L120.918 68.646ZM133.121 65.5H134.343V72H133.16V71.051H133.121C132.679 71.766 131.951 72.13 131.015 72.13C129.39 72.13 128.48 71.051 128.48 69.01V65.5H129.702V69.114C129.702 70.44 130.261 71.103 131.262 71.103C132.289 71.103 133.056 70.388 133.121 68.88V65.5ZM140.938 66.358V65.5H142.16V71.454C142.16 73.469 141.094 74.886 138.806 74.886C138.026 74.886 137.181 74.717 136.492 74.405V73.261C137.012 73.482 137.818 73.729 138.637 73.729C139.742 73.729 140.938 73.287 140.938 71.714V71.155H140.899C140.405 71.779 139.703 72.13 138.858 72.13C137.194 72.13 135.985 70.765 135.985 68.724C135.985 66.709 137.194 65.37 138.845 65.37C139.703 65.37 140.418 65.734 140.912 66.358H140.938ZM139.17 71.09C140.301 71.09 141.055 70.141 141.055 68.724C141.055 67.333 140.301 66.41 139.157 66.41C138.013 66.41 137.259 67.333 137.259 68.724C137.259 70.141 138.026 71.09 139.17 71.09ZM143.949 69.075V67.931H147.29V69.075H143.949ZM154.44 72H148.694V70.83C151.06 68.49 152.958 66.826 152.958 65.357C152.958 64.33 152.035 63.901 151.125 63.901C150.306 63.901 149.539 64.239 148.98 64.603V63.368C149.708 63.004 150.592 62.757 151.437 62.757C152.997 62.757 154.31 63.641 154.31 65.344C154.31 67.086 152.919 68.412 150.514 70.778H154.44V72ZM155.801 67.45C155.801 65.461 156.373 62.77 158.882 62.77C161.391 62.77 161.963 65.461 161.963 67.45C161.963 69.439 161.391 72.13 158.882 72.13C156.373 72.13 155.801 69.439 155.801 67.45ZM157.153 67.45C157.153 68.581 157.322 70.986 158.882 70.986C160.442 70.986 160.611 68.581 160.611 67.45C160.611 66.306 160.377 63.914 158.882 63.914C157.387 63.914 157.153 66.306 157.153 67.45ZM168.888 72H163.142V70.83C165.508 68.49 167.406 66.826 167.406 65.357C167.406 64.33 166.483 63.901 165.573 63.901C164.754 63.901 163.987 64.239 163.428 64.603V63.368C164.156 63.004 165.04 62.757 165.885 62.757C167.445 62.757 168.758 63.641 168.758 65.344C168.758 67.086 167.367 68.412 164.962 70.778H168.888V72ZM174.187 72V69.933H169.962V68.867L173.602 62.9H175.487V68.789H176.631V69.933H175.487V72H174.187ZM174.187 68.789V63.992H174.161L171.275 68.789H174.187Z" fill="white"/>
<path d="M59.9151 113.192C56.6831 113.192 54.5391 110.888 54.5391 107.416C54.5391 103.944 56.6831 101.64 59.9151 101.64C63.1471 101.64 65.2911 103.944 65.2911 107.416C65.2911 110.888 63.1471 113.192 59.9151 113.192ZM59.9151 111.784C62.2511 111.784 63.6431 110.168 63.6431 107.416C63.6431 104.648 62.2511 103.032 59.9151 103.048C57.5791 103.064 56.1871 104.68 56.1871 107.416C56.1871 110.168 57.5791 111.784 59.9151 111.784ZM71.5042 104.84C73.5362 104.84 75.0242 106.488 75.0242 108.968C75.0242 111.48 73.5362 113.16 71.4882 113.16C70.4002 113.16 69.4882 112.68 68.8962 111.848H68.8642V116.2L67.4242 116.2V105H68.9282V106.056H68.9602C69.5682 105.288 70.4482 104.84 71.5042 104.84ZM71.1042 111.88C72.5122 111.88 73.4562 110.712 73.4562 108.968C73.4562 107.256 72.5282 106.12 71.1202 106.12C69.7122 106.12 68.7842 107.256 68.7842 108.968C68.7842 110.712 69.7122 111.88 71.1042 111.88ZM80.5852 113.16C77.7852 113.16 76.4892 111.208 76.4892 108.872C76.4892 106.504 77.7692 104.856 80.1852 104.856C82.7452 104.856 83.7372 106.76 83.7052 109.336H78.0892C78.0892 110.92 79.1612 111.88 80.6492 111.88C81.3852 111.88 82.2812 111.64 83.2732 111.16V112.504C82.4252 112.952 81.4972 113.16 80.5852 113.16ZM78.0892 108.152H82.1052C82.0572 106.92 81.3052 106.12 80.1372 106.12C78.9692 106.12 78.2652 106.92 78.0892 108.152ZM89.8796 104.84C91.8796 104.84 92.9996 106.168 92.9996 108.68V113H91.4956V108.552C91.4956 106.92 90.8076 106.104 89.5756 106.104C88.3116 106.104 87.3676 106.984 87.2876 108.84V113H85.7836V105H87.2396V106.168H87.2876C87.8316 105.288 88.7276 104.84 89.8796 104.84ZM100.003 101.8H102.707C105.155 101.8 107.123 102.632 107.123 105.176C107.123 107.656 105.187 108.536 103.171 108.536H101.603V113H100.003V101.8ZM101.603 107.128H103.315C104.483 107.128 105.491 106.632 105.491 105.16C105.491 103.688 104.227 103.208 102.819 103.208H101.603V107.128ZM113.79 113.192C110.558 113.192 108.414 110.888 108.414 107.416C108.414 103.944 110.558 101.64 113.79 101.64C117.022 101.64 119.166 103.944 119.166 107.416C119.166 110.888 117.022 113.192 113.79 113.192ZM113.79 111.784C116.126 111.784 117.518 110.168 117.518 107.416C117.518 104.648 116.126 103.032 113.79 103.048C111.454 103.064 110.062 104.68 110.062 107.416C110.062 110.168 111.454 111.784 113.79 111.784ZM130.634 113.192C127.402 113.192 125.258 110.888 125.258 107.416C125.258 103.944 127.402 101.64 130.634 101.64C133.866 101.64 136.01 103.944 136.01 107.416C136.01 110.888 133.866 113.192 130.634 113.192ZM130.634 111.784C132.97 111.784 134.362 110.168 134.362 107.416C134.362 104.648 132.97 103.032 130.634 103.048C128.298 103.064 126.906 104.68 126.906 107.416C126.906 110.168 128.298 111.784 130.634 111.784ZM139.599 106.248H139.647C140.255 105.16 141.263 104.68 142.687 104.872V106.136C140.703 105.864 139.727 106.792 139.647 109.064V113H138.143V105H139.599V106.248ZM149.648 106.056V101H151.152V113H149.712V111.848H149.664C149.072 112.68 148.16 113.16 147.072 113.16C145.024 113.16 143.536 111.48 143.536 108.968C143.536 106.488 145.024 104.84 147.056 104.84C148.112 104.84 148.992 105.288 149.6 106.056H149.648ZM147.456 111.88C148.848 111.88 149.776 110.712 149.776 108.968C149.776 107.256 148.848 106.12 147.44 106.12C146.032 106.12 145.104 107.256 145.104 108.968C145.104 110.712 146.048 111.88 147.456 111.88ZM157.241 113.16C154.441 113.16 153.145 111.208 153.145 108.872C153.145 106.504 154.425 104.856 156.841 104.856C159.401 104.856 160.393 106.76 160.361 109.336H154.745C154.745 110.92 155.817 111.88 157.305 111.88C158.041 111.88 158.937 111.64 159.929 111.16V112.504C159.081 112.952 158.153 113.16 157.241 113.16ZM154.745 108.152H158.761C158.713 106.92 157.961 106.12 156.793 106.12C155.625 106.12 154.921 106.92 154.745 108.152ZM163.896 106.248H163.944C164.552 105.16 165.56 104.68 166.984 104.872V106.136C165 105.864 164.024 106.792 163.944 109.064V113H162.44V105H163.896V106.248ZM170.307 113.16C169.699 113.16 168.691 113.032 167.971 112.728V111.48C168.659 111.8 169.411 111.944 170.003 111.944C170.755 111.944 171.843 111.704 171.843 110.84C171.843 109.128 167.923 109.64 167.923 107.144C167.923 105.48 169.235 104.856 170.915 104.856C171.635 104.856 172.243 104.968 172.867 105.16V106.408C172.371 106.2 171.651 106.024 171.059 106.024C170.259 106.024 169.395 106.344 169.395 107C169.395 108.648 173.283 108.136 173.283 110.68C173.283 112.376 171.827 113.16 170.307 113.16Z" fill="white"/>
</g>
<defs>
<filter id="filter0_d_4364_28008" x="-3" y="0" width="239.523" height="179" filterUnits="userSpaceOnUse" color-interpolation-filters="sRGB">
<feFlood flood-opacity="0" result="BackgroundImageFix"/>
<feColorMatrix in="SourceAlpha" type="matrix" values="0 0 0 0 0 0 0 0 0 0 0 0 0 0 0 0 0 0 127 0" result="hardAlpha"/>
<feMorphology radius="1" operator="dilate" in="SourceAlpha" result="effect1_dropShadow_4364_28008"/>
<feOffset dx="3" dy="8"/>
<feGaussianBlur stdDeviation="15"/>
<feComposite in2="hardAlpha" operator="out"/>
<feColorMatrix type="matrix" values="0 0 0 0 0.658824 0 0 0 0 0.686275 0 0 0 0 0.721569 0 0 0 0.3 0"/>
<feBlend mode="normal" in2="BackgroundImageFix" result="effect1_dropShadow_4364_28008"/>
<feBlend mode="normal" in="SourceGraphic" in2="effect1_dropShadow_4364_28008" result="shape"/>
</filter>
<linearGradient id="paint0_linear_4364_28008" x1="113.761" y1="23" x2="113.761" y2="140" gradientUnits="userSpaceOnUse">
<stop offset="0.25" stop-color="#1E3A71"/>
<stop offset="1" stop-color="#0080BD"/>
</linearGradient>
</defs>
</svg>
