<svg width="582" height="314" viewBox="0 0 582 314" fill="none" xmlns="http://www.w3.org/2000/svg">
<g filter="url(#filter0_d_4364_28061)">
<rect x="27.4839" y="22" width="530.516" height="254" rx="12" fill="white" shape-rendering="crispEdges"/>
<rect x="27.9839" y="22.5" width="529.516" height="253" rx="11.5" fill="#0D366F"/>
<rect x="27.9839" y="22.5" width="529.516" height="253" rx="11.5" fill="url(#paint0_linear_4364_28061)"/>
<rect x="27.9839" y="22.5" width="529.516" height="253" rx="11.5" stroke="#00A3E0"/>
<rect x="57.1839" y="79.2" width="469.6" height="183.6" stroke="#D1D1D1" stroke-width="0.6"/>
<g opacity="0.6">
<g clip-path="url(#clip0_4364_28061)">
<path d="M76.1489 99.656C75.3819 99.656 74.7059 99.513 74.0819 99.253V97.745C74.6929 98.031 75.3299 98.161 75.9279 98.161C76.8769 98.161 77.6569 97.823 77.6569 97.004C77.6569 95.236 73.9649 95.522 73.9649 92.857C73.9649 91.245 75.3039 90.27 77.0199 90.27C77.6829 90.27 78.3979 90.4 79.0609 90.621V92.103C78.3979 91.882 77.7219 91.752 77.2019 91.752C76.3699 91.752 75.8239 92.116 75.8239 92.818C75.8239 94.651 79.5029 93.923 79.5029 96.861C79.5029 98.681 78.0599 99.656 76.1489 99.656ZM86.5099 95.821L86.4969 90.4H88.3299V95.613C88.3299 98.187 87.0169 99.63 84.6769 99.63C82.3499 99.63 81.0239 98.187 81.0239 95.613V90.4H82.8439V95.821C82.8439 97.264 83.5069 98.083 84.6769 98.083C85.8469 98.083 86.5099 97.264 86.5099 95.821ZM90.3147 90.4H92.7197C94.9037 90.4 96.3597 91.297 96.3597 93.208C96.3597 95.041 94.9817 96.068 93.0967 96.068H92.1347V99.5H90.3147V90.4ZM92.1347 94.521H93.1617C93.8897 94.521 94.5137 94.105 94.5137 93.208C94.5137 92.35 93.8247 91.947 92.8497 91.947H92.1347V94.521ZM97.5384 90.4H99.9434C102.127 90.4 103.583 91.297 103.583 93.208C103.583 95.041 102.205 96.068 100.32 96.068H99.3584V99.5H97.5384V90.4ZM99.3584 94.521H100.385C101.113 94.521 101.737 94.105 101.737 93.208C101.737 92.35 101.048 91.947 100.073 91.947H99.3584V94.521ZM106.647 90.4V97.94H110.183V99.5H104.827V90.4H106.647ZM111.21 99.5V90.4H113.03V99.5H111.21ZM115.023 99.5V90.4H120.366V91.947H116.843V94.027H120.028V95.548H116.843V97.953H120.366V99.5H115.023ZM126.615 95.717L128.539 99.5H126.641L124.951 96.068H124.886H123.924V99.5H122.104V90.4H124.509C126.693 90.4 128.149 91.297 128.149 93.208C128.149 94.417 127.551 95.275 126.615 95.717ZM124.639 91.947H123.924V94.521H124.951C125.679 94.521 126.303 94.105 126.303 93.208C126.303 92.35 125.614 91.947 124.639 91.947ZM133.379 99.5V90.4H136.304L138.878 97.472H138.917V90.4H140.737V99.5H137.942L135.238 92.155H135.199V99.5H133.379ZM141.786 99.5L145.517 90.4H147.376L151.107 99.5H149.235L148.429 97.433H144.425L143.632 99.5H141.786ZM146.427 92.246L145.01 95.925H147.844L146.427 92.246ZM157.277 97.797L159.266 90.4H162.36V99.5H160.54V92.012H160.501L158.421 99.5H156.12L154.027 92.012H153.988V99.5H152.168V90.4H155.262L157.277 97.797ZM164.497 99.5V90.4H169.84V91.947H166.317V94.027H169.502V95.548H166.317V97.953H169.84V99.5H164.497Z" fill="#83BD01"/>
</g>
</g>
<g opacity="0.6">
<g clip-path="url(#clip1_4364_28061)">
<path d="M292.327 99.63C289.493 99.63 287.673 97.758 287.673 94.963C287.673 92.142 289.506 90.27 292.34 90.27C293.146 90.27 293.874 90.426 294.485 90.66V92.233C293.861 91.973 293.172 91.817 292.483 91.817C290.65 91.817 289.532 93.013 289.532 94.963C289.532 96.887 290.65 98.07 292.509 98.07C293.029 98.07 293.77 97.979 294.524 97.706V99.292C293.822 99.513 293.042 99.63 292.327 99.63ZM299.988 99.656C297.258 99.656 295.49 97.81 295.49 94.963C295.49 92.116 297.258 90.27 299.988 90.27C302.718 90.27 304.486 92.116 304.486 94.963C304.486 97.81 302.718 99.656 299.988 99.656ZM299.988 98.109C301.665 98.109 302.64 96.952 302.64 94.963C302.64 92.961 301.665 91.804 299.988 91.817C298.324 91.817 297.349 92.974 297.349 94.963C297.349 96.952 298.324 98.109 299.988 98.109ZM306.063 99.5V90.4H308.988L311.562 97.472H311.601V90.4H313.421V99.5H310.626L307.922 92.155H307.883V99.5H306.063ZM314.444 91.947V90.4H321.646V91.947H318.955V99.5H317.135V91.947H314.444ZM327.115 95.717L329.039 99.5H327.141L325.451 96.068H325.386H324.424V99.5H322.604V90.4H325.009C327.193 90.4 328.649 91.297 328.649 93.208C328.649 94.417 328.051 95.275 327.115 95.717ZM325.139 91.947H324.424V94.521H325.451C326.179 94.521 326.803 94.105 326.803 93.208C326.803 92.35 326.114 91.947 325.139 91.947ZM329.336 99.5L333.067 90.4H334.926L338.657 99.5H336.785L335.979 97.433H331.975L331.182 99.5H329.336ZM333.977 92.246L332.56 95.925H335.394L333.977 92.246ZM344.022 99.63C341.188 99.63 339.368 97.758 339.368 94.963C339.368 92.142 341.201 90.27 344.035 90.27C344.841 90.27 345.569 90.426 346.18 90.66V92.233C345.556 91.973 344.867 91.817 344.178 91.817C342.345 91.817 341.227 93.013 341.227 94.963C341.227 96.887 342.345 98.07 344.204 98.07C344.724 98.07 345.465 97.979 346.219 97.706V99.292C345.517 99.513 344.737 99.63 344.022 99.63ZM346.639 91.947V90.4H353.841V91.947H351.15V99.5H349.33V91.947H346.639ZM356.515 99.656C355.748 99.656 355.072 99.513 354.448 99.253V97.745C355.059 98.031 355.696 98.161 356.294 98.161C357.243 98.161 358.023 97.823 358.023 97.004C358.023 95.236 354.331 95.522 354.331 92.857C354.331 91.245 355.67 90.27 357.386 90.27C358.049 90.27 358.764 90.4 359.427 90.621V92.103C358.764 91.882 358.088 91.752 357.568 91.752C356.736 91.752 356.19 92.116 356.19 92.818C356.19 94.651 359.869 93.923 359.869 96.861C359.869 98.681 358.426 99.656 356.515 99.656Z" fill="#83BD01"/>
</g>
</g>
<g opacity="0.6">
<g clip-path="url(#clip2_4364_28061)">
<path d="M440.786 99.5L437.419 90.4H439.239L441.787 97.511H441.839L444.387 90.4H446.194L442.814 99.5H440.786ZM445.699 99.5L449.43 90.4H451.289L455.02 99.5H453.148L452.342 97.433H448.338L447.545 99.5H445.699ZM450.34 92.246L448.923 95.925H451.757L450.34 92.246ZM457.876 90.4V97.94H461.412V99.5H456.056V90.4H457.876ZM468.068 95.821L468.055 90.4H469.888V95.613C469.888 98.187 468.575 99.63 466.235 99.63C463.908 99.63 462.582 98.187 462.582 95.613V90.4H464.402V95.821C464.402 97.264 465.065 98.083 466.235 98.083C467.405 98.083 468.068 97.264 468.068 95.821ZM472.015 99.5V90.4H477.358V91.947H473.835V94.027H477.02V95.548H473.835V97.953H477.358V99.5H472.015Z" fill="#83BD01"/>
</g>
</g>
<mask id="path-7-inside-1_4364_28061" fill="white">
<path d="M57.4839 110.5H526.484V140.5H57.4839V110.5Z"/>
</mask>
<path d="M526.484 140H57.4839V141H526.484V140Z" fill="white" mask="url(#path-7-inside-1_4364_28061)"/>
<path d="M78.8739 126.398L81.1559 130.5H79.9379L77.7259 126.58C77.6279 126.594 77.5299 126.594 77.4319 126.594H75.8079V130.5H74.6879V120.7H77.0119C79.2099 120.7 80.8479 121.512 80.8479 123.654C80.8479 125.166 80.0219 126.034 78.8739 126.398ZM75.8079 121.694V125.6H77.5299C78.7619 125.6 79.6999 125.04 79.6999 123.64C79.6999 122.254 78.5519 121.694 77.0819 121.694H75.8079ZM85.9284 130.64C83.5624 130.64 82.3864 128.988 82.3864 126.888C82.3864 124.802 83.5064 123.374 85.5784 123.374C87.7344 123.374 88.6444 124.942 88.6304 127.196H83.5064C83.5064 128.722 84.4584 129.73 85.9704 129.73C86.6284 129.73 87.4264 129.534 88.2524 129.128V130.08C87.5244 130.458 86.7124 130.64 85.9284 130.64ZM83.5064 126.342H87.5104C87.4684 125.096 86.7544 124.27 85.5504 124.27C84.3604 124.27 83.6464 125.068 83.5064 126.342ZM92.4233 130.57C91.3873 130.57 90.7573 129.982 90.7573 128.512V120H91.8213V128.582C91.8213 129.38 92.0313 129.59 92.5213 129.632C92.7033 129.646 92.8713 129.632 93.0253 129.618V130.486C92.7733 130.556 92.5493 130.57 92.4233 130.57ZM95.8952 120.7V122.044H94.7752V120.7H95.8952ZM95.8672 123.5V130.5H94.8032V123.5H95.8672ZM100.928 123.36C103.07 123.36 103.798 124.48 103.798 126.384V130.5H102.846V129.52H102.818C102.44 130.066 101.824 130.64 100.508 130.64C99.1216 130.64 97.9316 130.024 97.9316 128.47C97.9316 126.664 99.5836 126.244 101.11 126.216C101.628 126.202 102.174 126.216 102.748 126.244C102.748 124.844 102.23 124.256 100.774 124.256C99.8496 124.256 99.2336 124.522 98.6736 124.844V123.948C99.2756 123.612 99.9196 123.36 100.928 123.36ZM100.592 129.772C101.824 129.772 102.72 129.072 102.762 127.868L102.748 127.056C102.342 127.028 101.894 127.014 101.432 127.014C99.9056 127.028 99.0516 127.49 99.0516 128.47C99.0516 129.366 99.6536 129.772 100.592 129.772ZM109.579 123.36C111.371 123.36 112.631 124.774 112.631 126.972C112.631 129.198 111.371 130.64 109.565 130.64C108.515 130.64 107.661 130.15 107.143 129.296V130.5H106.121V120H107.185V124.62C107.703 123.822 108.543 123.36 109.579 123.36ZM109.313 129.73C110.657 129.73 111.525 128.652 111.525 126.972C111.525 125.32 110.671 124.27 109.327 124.27C107.969 124.27 107.101 125.32 107.101 126.972C107.101 128.652 107.969 129.73 109.313 129.73ZM116.376 130.57C115.34 130.57 114.71 129.982 114.71 128.512V120H115.774V128.582C115.774 129.38 115.984 129.59 116.474 129.632C116.656 129.646 116.824 129.632 116.978 129.618V130.486C116.726 130.556 116.502 130.57 116.376 130.57ZM121.598 130.64C119.232 130.64 118.056 128.988 118.056 126.888C118.056 124.802 119.176 123.374 121.248 123.374C123.404 123.374 124.314 124.942 124.3 127.196H119.176C119.176 128.722 120.128 129.73 121.64 129.73C122.298 129.73 123.096 129.534 123.922 129.128V130.08C123.194 130.458 122.382 130.64 121.598 130.64ZM119.176 126.342H123.18C123.138 125.096 122.424 124.27 121.22 124.27C120.03 124.27 119.316 125.068 119.176 126.342ZM131.753 130.668C130.941 130.668 130.269 130.5 129.667 130.234V129.198C130.227 129.478 130.913 129.66 131.641 129.66C132.999 129.66 134.021 129.044 134.021 127.854C134.021 125.376 129.555 126.23 129.555 123.206C129.555 121.554 130.843 120.56 132.649 120.56C133.307 120.56 134.021 120.686 134.707 120.924V121.932C134.021 121.708 133.293 121.554 132.691 121.554C131.613 121.554 130.717 122.044 130.717 123.108C130.717 125.362 135.169 124.48 135.169 127.798C135.169 129.66 133.755 130.668 131.753 130.668ZM139.705 130.64C137.983 130.64 137.017 129.464 137.017 127.28V123.5H138.067V127.364C138.067 128.918 138.725 129.744 139.915 129.744C141.119 129.744 142.029 128.89 142.099 127.168V123.5H143.163V130.5H142.141V129.24C141.651 130.164 140.811 130.64 139.705 130.64ZM149.104 123.36C150.91 123.36 152.156 124.774 152.156 126.972C152.156 129.198 150.91 130.64 149.09 130.64C148.04 130.64 147.2 130.15 146.682 129.31V133.3H145.66V123.5H146.724V124.606C147.256 123.808 148.082 123.36 149.104 123.36ZM148.838 129.73C150.196 129.73 151.05 128.652 151.05 126.972C151.05 125.32 150.196 124.27 148.852 124.27C147.508 124.27 146.626 125.32 146.626 126.972C146.626 128.652 147.508 129.73 148.838 129.73ZM157.553 123.36C159.359 123.36 160.605 124.774 160.605 126.972C160.605 129.198 159.359 130.64 157.539 130.64C156.489 130.64 155.649 130.15 155.131 129.31V133.3H154.109V123.5H155.173V124.606C155.705 123.808 156.531 123.36 157.553 123.36ZM157.287 129.73C158.645 129.73 159.499 128.652 159.499 126.972C159.499 125.32 158.645 124.27 157.301 124.27C155.957 124.27 155.075 125.32 155.075 126.972C155.075 128.652 155.957 129.73 157.287 129.73ZM164.392 130.57C163.356 130.57 162.726 129.982 162.726 128.512V120H163.79V128.582C163.79 129.38 164 129.59 164.49 129.632C164.672 129.646 164.84 129.632 164.994 129.618V130.486C164.742 130.556 164.518 130.57 164.392 130.57ZM167.864 120.7V122.044H166.744V120.7H167.864ZM167.836 123.5V130.5H166.772V123.5H167.836ZM173.428 130.64C171.062 130.64 169.886 128.988 169.886 126.888C169.886 124.802 171.006 123.374 173.078 123.374C175.234 123.374 176.144 124.942 176.13 127.196H171.006C171.006 128.722 171.958 129.73 173.47 129.73C174.128 129.73 174.926 129.534 175.752 129.128V130.08C175.024 130.458 174.212 130.64 173.428 130.64ZM171.006 126.342H175.01C174.968 125.096 174.254 124.27 173.05 124.27C171.86 124.27 171.146 125.068 171.006 126.342ZM179.111 124.9C179.629 123.738 180.553 123.206 181.911 123.388V124.284C180.105 124.032 179.195 125.04 179.153 127.238V130.5H178.089V123.5H179.111V124.9ZM184.847 130.64C184.273 130.64 183.461 130.528 182.845 130.276V129.38C183.433 129.646 184.091 129.772 184.651 129.772C185.449 129.772 186.401 129.492 186.401 128.638C186.401 126.93 182.803 127.532 182.803 125.306C182.803 123.92 183.923 123.374 185.379 123.374C185.995 123.374 186.527 123.472 187.059 123.626V124.522C186.611 124.354 186.009 124.214 185.477 124.214C184.651 124.214 183.839 124.522 183.839 125.208C183.839 126.804 187.423 126.216 187.423 128.54C187.423 129.982 186.205 130.64 184.847 130.64Z" fill="white"/>
<path d="M313.968 120.7V121.876L310.356 130.5H308.956L312.54 121.932H307.78V120.7H313.968Z" fill="white"/>
<path d="M445.418 127.728C445.418 129.254 444.522 130.192 443.192 130.528V131.956H441.96V130.668C441.176 130.668 440.49 130.514 439.846 130.234V128.932C440.434 129.24 441.134 129.422 441.82 129.422C442.982 129.422 443.99 128.918 443.99 127.812C443.99 125.53 439.734 126.314 439.734 123.276C439.734 121.848 440.658 120.938 441.96 120.658V119.216H443.192V120.574C443.78 120.602 444.396 120.742 444.956 120.938V122.198C444.27 121.96 443.528 121.792 442.926 121.792C442.072 121.792 441.19 122.128 441.19 123.15C441.19 125.25 445.418 124.424 445.418 127.728ZM450.285 124.34C452.161 124.34 453.449 125.642 453.449 127.448C453.449 129.59 451.671 130.64 449.837 130.64C449.207 130.64 448.297 130.514 447.429 130.206V128.82C448.185 129.128 449.067 129.352 449.781 129.352C451.111 129.352 451.993 128.624 451.993 127.448C451.993 126.258 451.083 125.6 449.725 125.6C448.913 125.6 448.311 125.866 447.723 126.188V120.7H452.889V121.932H449.123L449.095 124.48C449.487 124.396 449.893 124.34 450.285 124.34ZM461.144 130.5H454.956V129.24C457.504 126.72 459.548 124.928 459.548 123.346C459.548 122.24 458.554 121.778 457.574 121.778C456.692 121.778 455.866 122.142 455.264 122.534V121.204C456.048 120.812 457 120.546 457.91 120.546C459.59 120.546 461.004 121.498 461.004 123.332C461.004 125.208 459.506 126.636 456.916 129.184H461.144V130.5ZM464.388 130.976L463.324 132.362H462.372L463.03 130.864C463.156 130.57 463.198 130.374 463.198 130.024V128.932H464.766V129.884C464.766 130.402 464.654 130.64 464.388 130.976ZM469.026 130.64C468.158 130.64 467.29 130.472 466.59 130.234V128.862C467.332 129.17 468.088 129.366 468.872 129.366C470.314 129.366 471.28 128.736 471.28 127.742C471.28 126.734 470.3 126.034 468.816 126.034H467.962V124.802H468.746C470.216 124.802 471.196 124.27 471.196 123.234C471.196 122.366 470.51 121.778 469.152 121.778C468.326 121.778 467.668 122.002 467.038 122.296V121.022C467.64 120.756 468.354 120.546 469.264 120.546C471.406 120.546 472.652 121.68 472.652 123.094C472.652 124.214 471.882 125.152 470.72 125.39V125.418C471.924 125.628 472.736 126.636 472.736 127.868C472.736 129.534 471.252 130.64 469.026 130.64ZM478.527 130.5V128.274H473.977V127.126L477.897 120.7H479.927V127.042H481.159V128.274H479.927V130.5H478.527ZM478.527 127.042V121.876H478.499L475.391 127.042H478.527ZM485.299 124.34C487.175 124.34 488.463 125.642 488.463 127.448C488.463 129.59 486.685 130.64 484.851 130.64C484.221 130.64 483.311 130.514 482.443 130.206V128.82C483.199 129.128 484.081 129.352 484.795 129.352C486.125 129.352 487.007 128.624 487.007 127.448C487.007 126.258 486.097 125.6 484.739 125.6C483.927 125.6 483.325 125.866 482.737 126.188V120.7H487.903V121.932H484.137L484.109 124.48C484.501 124.396 484.907 124.34 485.299 124.34Z" fill="white"/>
<mask id="path-12-inside-2_4364_28061" fill="white">
<path d="M57.4839 141.5H526.484V170.5H57.4839V141.5Z"/>
</mask>
<path d="M526.484 170H57.4839V171H526.484V170Z" fill="white" mask="url(#path-12-inside-2_4364_28061)"/>
<path d="M76.3819 161.168C75.5699 161.168 74.8979 161 74.2959 160.734V159.698C74.8559 159.978 75.5419 160.16 76.2699 160.16C77.6279 160.16 78.6499 159.544 78.6499 158.354C78.6499 155.876 74.1839 156.73 74.1839 153.706C74.1839 152.054 75.4719 151.06 77.2779 151.06C77.9359 151.06 78.6499 151.186 79.3359 151.424V152.432C78.6499 152.208 77.9219 152.054 77.3199 152.054C76.2419 152.054 75.3459 152.544 75.3459 153.608C75.3459 155.862 79.7979 154.98 79.7979 158.298C79.7979 160.16 78.3839 161.168 76.3819 161.168ZM84.3339 161.14C82.6119 161.14 81.6459 159.964 81.6459 157.78V154H82.6959V157.864C82.6959 159.418 83.3539 160.244 84.5439 160.244C85.7479 160.244 86.6579 159.39 86.7279 157.668V154H87.7919V161H86.7699V159.74C86.2799 160.664 85.4399 161.14 84.3339 161.14ZM93.7325 153.86C95.5385 153.86 96.7845 155.274 96.7845 157.472C96.7845 159.698 95.5385 161.14 93.7185 161.14C92.6685 161.14 91.8285 160.65 91.3105 159.81V163.8H90.2885V154H91.3525V155.106C91.8845 154.308 92.7105 153.86 93.7325 153.86ZM93.4665 160.23C94.8245 160.23 95.6785 159.152 95.6785 157.472C95.6785 155.82 94.8245 154.77 93.4805 154.77C92.1365 154.77 91.2545 155.82 91.2545 157.472C91.2545 159.152 92.1365 160.23 93.4665 160.23ZM102.182 153.86C103.988 153.86 105.234 155.274 105.234 157.472C105.234 159.698 103.988 161.14 102.168 161.14C101.118 161.14 100.278 160.65 99.7597 159.81V163.8H98.7377V154H99.8017V155.106C100.334 154.308 101.16 153.86 102.182 153.86ZM101.916 160.23C103.274 160.23 104.128 159.152 104.128 157.472C104.128 155.82 103.274 154.77 101.93 154.77C100.586 154.77 99.7037 155.82 99.7037 157.472C99.7037 159.152 100.586 160.23 101.916 160.23ZM109.021 161.07C107.985 161.07 107.355 160.482 107.355 159.012V150.5H108.419V159.082C108.419 159.88 108.629 160.09 109.119 160.132C109.301 160.146 109.469 160.132 109.623 160.118V160.986C109.371 161.056 109.147 161.07 109.021 161.07ZM113.515 160.23L115.881 154H116.959L113.991 161.812C113.543 163.002 112.983 164.038 111.765 164.052C111.499 164.052 111.107 164.01 110.757 163.94V163.03C111.051 163.086 111.443 163.142 111.723 163.128C112.521 163.03 112.843 162.036 113.179 161.126L113.221 161.014H112.759L110.141 154H111.219L113.515 160.23ZM123.974 161.168C123.162 161.168 122.49 161 121.888 160.734V159.698C122.448 159.978 123.134 160.16 123.862 160.16C125.22 160.16 126.242 159.544 126.242 158.354C126.242 155.876 121.776 156.73 121.776 153.706C121.776 152.054 123.064 151.06 124.87 151.06C125.528 151.06 126.242 151.186 126.928 151.424V152.432C126.242 152.208 125.514 152.054 124.912 152.054C123.834 152.054 122.938 152.544 122.938 153.608C122.938 155.862 127.39 154.98 127.39 158.298C127.39 160.16 125.976 161.168 123.974 161.168ZM132.178 161.14C130.148 161.14 128.762 159.656 128.762 157.5C128.762 155.344 130.148 153.86 132.178 153.86C134.208 153.86 135.594 155.344 135.594 157.5C135.594 159.656 134.208 161.14 132.178 161.14ZM132.178 160.244C133.564 160.244 134.46 159.152 134.46 157.5C134.46 155.848 133.564 154.756 132.178 154.756C130.792 154.756 129.882 155.848 129.882 157.5C129.882 159.152 130.792 160.244 132.178 160.244ZM139.345 161.07C138.309 161.07 137.679 160.482 137.679 159.012V150.5H138.743V159.082C138.743 159.88 138.953 160.09 139.443 160.132C139.625 160.146 139.793 160.132 139.947 160.118V160.986C139.695 161.056 139.471 161.07 139.345 161.07ZM144.203 161.14C142.481 161.14 141.515 159.964 141.515 157.78V154H142.565V157.864C142.565 159.418 143.223 160.244 144.413 160.244C145.617 160.244 146.527 159.39 146.597 157.668V154H147.661V161H146.639V159.74C146.149 160.664 145.309 161.14 144.203 161.14ZM155.002 152.544V151.2H156.122V152.544H155.002ZM156.094 154V161H155.03V154.924H151.362V159.138C151.362 159.852 151.544 160.146 152.174 160.174C152.412 160.188 152.734 160.146 153 160.104V160.972C152.706 161.042 152.37 161.084 152.048 161.084C150.83 161.084 150.298 160.44 150.298 159.124V154.924H149.052V154H150.298V152.348L151.362 151.97V154H156.094ZM161.572 161.14C159.542 161.14 158.156 159.656 158.156 157.5C158.156 155.344 159.542 153.86 161.572 153.86C163.602 153.86 164.988 155.344 164.988 157.5C164.988 159.656 163.602 161.14 161.572 161.14ZM161.572 160.244C162.958 160.244 163.854 159.152 163.854 157.5C163.854 155.848 162.958 154.756 161.572 154.756C160.186 154.756 159.276 155.848 159.276 157.5C159.276 159.152 160.186 160.244 161.572 160.244ZM170.364 153.86C172.086 153.86 173.066 155.036 173.066 157.22V161H172.002V157.136C172.002 155.568 171.344 154.756 170.154 154.756C168.95 154.756 168.04 155.61 167.97 157.332V161H166.906V154H167.942V155.26C168.418 154.336 169.258 153.86 170.364 153.86ZM176.78 161.14C176.206 161.14 175.394 161.028 174.778 160.776V159.88C175.366 160.146 176.024 160.272 176.584 160.272C177.382 160.272 178.334 159.992 178.334 159.138C178.334 157.43 174.736 158.032 174.736 155.806C174.736 154.42 175.856 153.874 177.312 153.874C177.928 153.874 178.46 153.972 178.992 154.126V155.022C178.544 154.854 177.942 154.714 177.41 154.714C176.584 154.714 175.772 155.022 175.772 155.708C175.772 157.304 179.356 156.716 179.356 159.04C179.356 160.482 178.138 161.14 176.78 161.14Z" fill="white"/>
<path d="M310.902 154.84C312.778 154.84 314.066 156.142 314.066 157.948C314.066 160.09 312.288 161.14 310.454 161.14C309.824 161.14 308.914 161.014 308.046 160.706V159.32C308.802 159.628 309.684 159.852 310.398 159.852C311.728 159.852 312.61 159.124 312.61 157.948C312.61 156.758 311.7 156.1 310.342 156.1C309.53 156.1 308.928 156.366 308.34 156.688V151.2H313.506V152.432H309.74L309.712 154.98C310.104 154.896 310.51 154.84 310.902 154.84Z" fill="white"/>
<path d="M445.418 158.228C445.418 159.754 444.522 160.692 443.192 161.028V162.456H441.96V161.168C441.176 161.168 440.49 161.014 439.846 160.734V159.432C440.434 159.74 441.134 159.922 441.82 159.922C442.982 159.922 443.99 159.418 443.99 158.312C443.99 156.03 439.734 156.814 439.734 153.776C439.734 152.348 440.658 151.438 441.96 151.158V149.716H443.192V151.074C443.78 151.102 444.396 151.242 444.956 151.438V152.698C444.27 152.46 443.528 152.292 442.926 152.292C442.072 152.292 441.19 152.628 441.19 153.65C441.19 155.75 445.418 154.924 445.418 158.228ZM451.293 161V158.774H446.743V157.626L450.663 151.2H452.693V157.542H453.925V158.774H452.693V161H451.293ZM451.293 157.542V152.376H451.265L448.157 157.542H451.293ZM461.144 161H454.956V159.74C457.504 157.22 459.548 155.428 459.548 153.846C459.548 152.74 458.554 152.278 457.574 152.278C456.692 152.278 455.866 152.642 455.264 153.034V151.704C456.048 151.312 457 151.046 457.91 151.046C459.59 151.046 461.004 151.998 461.004 153.832C461.004 155.708 459.506 157.136 456.916 159.684H461.144V161ZM464.388 161.476L463.324 162.862H462.372L463.03 161.364C463.156 161.07 463.198 160.874 463.198 160.524V159.432H464.766V160.384C464.766 160.902 464.654 161.14 464.388 161.476ZM469.026 161.14C468.158 161.14 467.29 160.972 466.59 160.734V159.362C467.332 159.67 468.088 159.866 468.872 159.866C470.314 159.866 471.28 159.236 471.28 158.242C471.28 157.234 470.3 156.534 468.816 156.534H467.962V155.302H468.746C470.216 155.302 471.196 154.77 471.196 153.734C471.196 152.866 470.51 152.278 469.152 152.278C468.326 152.278 467.668 152.502 467.038 152.796V151.522C467.64 151.256 468.354 151.046 469.264 151.046C471.406 151.046 472.652 152.18 472.652 153.594C472.652 154.714 471.882 155.652 470.72 155.89V155.918C471.924 156.128 472.736 157.136 472.736 158.368C472.736 160.034 471.252 161.14 469.026 161.14ZM478.527 161V158.774H473.977V157.626L477.897 151.2H479.927V157.542H481.159V158.774H479.927V161H478.527ZM478.527 157.542V152.376H478.499L475.391 157.542H478.527ZM485.299 154.84C487.175 154.84 488.463 156.142 488.463 157.948C488.463 160.09 486.685 161.14 484.851 161.14C484.221 161.14 483.311 161.014 482.443 160.706V159.32C483.199 159.628 484.081 159.852 484.795 159.852C486.125 159.852 487.007 159.124 487.007 157.948C487.007 156.758 486.097 156.1 484.739 156.1C483.927 156.1 483.325 156.366 482.737 156.688V151.2H487.903V152.432H484.137L484.109 154.98C484.501 154.896 484.907 154.84 485.299 154.84Z" fill="white"/>
<mask id="path-17-inside-3_4364_28061" fill="white">
<path d="M57.4839 171.5H526.484V201.5H57.4839V171.5Z"/>
</mask>
<path d="M526.484 201H57.4839V202H526.484V201Z" fill="white" mask="url(#path-17-inside-3_4364_28061)"/>
<path d="M76.6479 191.5L73.5539 181.7H74.6879L77.3619 190.156H77.3899L79.7279 181.7H81.2539L83.6059 190.156H83.6339L86.3079 181.7H87.4419L84.3479 191.5H82.8639L80.5119 183.016V182.988H80.4839V183.016L78.1179 191.5H76.6479ZM92.2016 184.36C93.9236 184.36 94.9036 185.536 94.9036 187.72V191.5H93.8396V187.636C93.8396 186.068 93.1816 185.256 91.9916 185.256C90.7876 185.256 89.8776 186.11 89.8076 187.832V191.5H88.7436V181H89.8076V185.704C90.2836 184.822 91.1236 184.36 92.2016 184.36ZM100.158 191.64C98.1282 191.64 96.7422 190.156 96.7422 188C96.7422 185.844 98.1282 184.36 100.158 184.36C102.188 184.36 103.574 185.844 103.574 188C103.574 190.156 102.188 191.64 100.158 191.64ZM100.158 190.744C101.544 190.744 102.44 189.652 102.44 188C102.44 186.348 101.544 185.256 100.158 185.256C98.7722 185.256 97.8622 186.348 97.8622 188C97.8622 189.652 98.7722 190.744 100.158 190.744ZM107.326 191.57C106.29 191.57 105.66 190.982 105.66 189.512V181H106.724V189.582C106.724 190.38 106.934 190.59 107.424 190.632C107.606 190.646 107.774 190.632 107.928 190.618V191.486C107.676 191.556 107.452 191.57 107.326 191.57ZM112.547 191.64C110.181 191.64 109.005 189.988 109.005 187.888C109.005 185.802 110.125 184.374 112.197 184.374C114.353 184.374 115.263 185.942 115.249 188.196H110.125C110.125 189.722 111.077 190.73 112.589 190.73C113.247 190.73 114.045 190.534 114.871 190.128V191.08C114.143 191.458 113.331 191.64 112.547 191.64ZM110.125 187.342H114.129C114.087 186.096 113.373 185.27 112.169 185.27C110.979 185.27 110.265 186.068 110.125 187.342ZM118.524 191.64C117.95 191.64 117.138 191.528 116.522 191.276V190.38C117.11 190.646 117.768 190.772 118.328 190.772C119.126 190.772 120.078 190.492 120.078 189.638C120.078 187.93 116.48 188.532 116.48 186.306C116.48 184.92 117.6 184.374 119.056 184.374C119.672 184.374 120.204 184.472 120.736 184.626V185.522C120.288 185.354 119.686 185.214 119.154 185.214C118.328 185.214 117.516 185.522 117.516 186.208C117.516 187.804 121.1 187.216 121.1 189.54C121.1 190.982 119.882 191.64 118.524 191.64ZM125.291 184.36C127.433 184.36 128.161 185.48 128.161 187.384V191.5H127.209V190.52H127.181C126.803 191.066 126.187 191.64 124.871 191.64C123.485 191.64 122.295 191.024 122.295 189.47C122.295 187.664 123.947 187.244 125.473 187.216C125.991 187.202 126.537 187.216 127.111 187.244C127.111 185.844 126.593 185.256 125.137 185.256C124.213 185.256 123.597 185.522 123.037 185.844V184.948C123.639 184.612 124.283 184.36 125.291 184.36ZM124.955 190.772C126.187 190.772 127.083 190.072 127.125 188.868L127.111 188.056C126.705 188.028 126.257 188.014 125.795 188.014C124.269 188.028 123.415 188.49 123.415 189.47C123.415 190.366 124.017 190.772 124.955 190.772ZM132.318 191.57C131.282 191.57 130.652 190.982 130.652 189.512V181H131.716V189.582C131.716 190.38 131.926 190.59 132.416 190.632C132.598 190.646 132.766 190.632 132.92 190.618V191.486C132.668 191.556 132.444 191.57 132.318 191.57ZM137.54 191.64C135.174 191.64 133.998 189.988 133.998 187.888C133.998 185.802 135.118 184.374 137.19 184.374C139.346 184.374 140.256 185.942 140.242 188.196H135.118C135.118 189.722 136.07 190.73 137.582 190.73C138.24 190.73 139.038 190.534 139.864 190.128V191.08C139.136 191.458 138.324 191.64 137.54 191.64ZM135.118 187.342H139.122C139.08 186.096 138.366 185.27 137.162 185.27C135.972 185.27 135.258 186.068 135.118 187.342ZM147.694 191.668C146.882 191.668 146.21 191.5 145.608 191.234V190.198C146.168 190.478 146.854 190.66 147.582 190.66C148.94 190.66 149.962 190.044 149.962 188.854C149.962 186.376 145.496 187.23 145.496 184.206C145.496 182.554 146.784 181.56 148.59 181.56C149.248 181.56 149.962 181.686 150.648 181.924V182.932C149.962 182.708 149.234 182.554 148.632 182.554C147.554 182.554 146.658 183.044 146.658 184.108C146.658 186.362 151.11 185.48 151.11 188.798C151.11 190.66 149.696 191.668 147.694 191.668ZM155.646 191.64C153.924 191.64 152.958 190.464 152.958 188.28V184.5H154.008V188.364C154.008 189.918 154.666 190.744 155.856 190.744C157.06 190.744 157.97 189.89 158.04 188.168V184.5H159.104V191.5H158.082V190.24C157.592 191.164 156.752 191.64 155.646 191.64ZM165.045 184.36C166.851 184.36 168.097 185.774 168.097 187.972C168.097 190.198 166.851 191.64 165.031 191.64C163.981 191.64 163.141 191.15 162.623 190.31V194.3H161.601V184.5H162.665V185.606C163.197 184.808 164.023 184.36 165.045 184.36ZM164.779 190.73C166.137 190.73 166.991 189.652 166.991 187.972C166.991 186.32 166.137 185.27 164.793 185.27C163.449 185.27 162.567 186.32 162.567 187.972C162.567 189.652 163.449 190.73 164.779 190.73ZM173.494 184.36C175.3 184.36 176.546 185.774 176.546 187.972C176.546 190.198 175.3 191.64 173.48 191.64C172.43 191.64 171.59 191.15 171.072 190.31V194.3H170.05V184.5H171.114V185.606C171.646 184.808 172.472 184.36 173.494 184.36ZM173.228 190.73C174.586 190.73 175.44 189.652 175.44 187.972C175.44 186.32 174.586 185.27 173.242 185.27C171.898 185.27 171.016 186.32 171.016 187.972C171.016 189.652 171.898 190.73 173.228 190.73ZM180.333 191.57C179.297 191.57 178.667 190.982 178.667 189.512V181H179.731V189.582C179.731 190.38 179.941 190.59 180.431 190.632C180.613 190.646 180.781 190.632 180.935 190.618V191.486C180.683 191.556 180.459 191.57 180.333 191.57ZM184.827 190.73L187.193 184.5H188.271L185.303 192.312C184.855 193.502 184.295 194.538 183.077 194.552C182.811 194.552 182.419 194.51 182.069 194.44V193.53C182.363 193.586 182.755 193.642 183.035 193.628C183.833 193.53 184.155 192.536 184.491 191.626L184.533 191.514H184.071L181.453 184.5H182.531L184.827 190.73Z" fill="white"/>
<path d="M313.968 181.7V182.876L310.356 191.5H308.956L312.54 182.932H307.78V181.7H313.968Z" fill="white"/>
<path d="M445.418 188.728C445.418 190.254 444.522 191.192 443.192 191.528V192.956H441.96V191.668C441.176 191.668 440.49 191.514 439.846 191.234V189.932C440.434 190.24 441.134 190.422 441.82 190.422C442.982 190.422 443.99 189.918 443.99 188.812C443.99 186.53 439.734 187.314 439.734 184.276C439.734 182.848 440.658 181.938 441.96 181.658V180.216H443.192V181.574C443.78 181.602 444.396 181.742 444.956 181.938V183.198C444.27 182.96 443.528 182.792 442.926 182.792C442.072 182.792 441.19 183.128 441.19 184.15C441.19 186.25 445.418 185.424 445.418 188.728ZM451.293 191.5V189.274H446.743V188.126L450.663 181.7H452.693V188.042H453.925V189.274H452.693V191.5H451.293ZM451.293 188.042V182.876H451.265L448.157 188.042H451.293ZM461.13 181.7V182.876L457.518 191.5H456.118L459.702 182.932H454.942V181.7H461.13ZM464.388 191.976L463.324 193.362H462.372L463.03 191.864C463.156 191.57 463.198 191.374 463.198 191.024V189.932H464.766V190.884C464.766 191.402 464.654 191.64 464.388 191.976ZM469.026 191.64C468.158 191.64 467.29 191.472 466.59 191.234V189.862C467.332 190.17 468.088 190.366 468.872 190.366C470.314 190.366 471.28 189.736 471.28 188.742C471.28 187.734 470.3 187.034 468.816 187.034H467.962V185.802H468.746C470.216 185.802 471.196 185.27 471.196 184.234C471.196 183.366 470.51 182.778 469.152 182.778C468.326 182.778 467.668 183.002 467.038 183.296V182.022C467.64 181.756 468.354 181.546 469.264 181.546C471.406 181.546 472.652 182.68 472.652 184.094C472.652 185.214 471.882 186.152 470.72 186.39V186.418C471.924 186.628 472.736 187.636 472.736 188.868C472.736 190.534 471.252 191.64 469.026 191.64ZM478.527 191.5V189.274H473.977V188.126L477.897 181.7H479.927V188.042H481.159V189.274H479.927V191.5H478.527ZM478.527 188.042V182.876H478.499L475.391 188.042H478.527ZM485.299 185.34C487.175 185.34 488.463 186.642 488.463 188.448C488.463 190.59 486.685 191.64 484.851 191.64C484.221 191.64 483.311 191.514 482.443 191.206V189.82C483.199 190.128 484.081 190.352 484.795 190.352C486.125 190.352 487.007 189.624 487.007 188.448C487.007 187.258 486.097 186.6 484.739 186.6C483.927 186.6 483.325 186.866 482.737 187.188V181.7H487.903V182.932H484.137L484.109 185.48C484.501 185.396 484.907 185.34 485.299 185.34Z" fill="white"/>
<mask id="path-22-inside-4_4364_28061" fill="white">
<path d="M57.4839 202.5H526.484V231.5H57.4839V202.5Z"/>
</mask>
<path d="M526.484 231H57.4839V232H526.484V231Z" fill="white" mask="url(#path-22-inside-4_4364_28061)"/>
<path d="M74.6879 212.2H77.0119C79.2099 212.2 80.8479 213.012 80.8479 215.154C80.8479 217.254 79.2799 218.094 77.4319 218.094H75.8079V222H74.6879V212.2ZM75.8079 217.1H77.5299C78.7619 217.1 79.6999 216.54 79.6999 215.14C79.6999 213.754 78.5519 213.194 77.0819 213.194H75.8079V217.1ZM83.5312 216.4C84.0492 215.238 84.9732 214.706 86.3312 214.888V215.784C84.5252 215.532 83.6152 216.54 83.5732 218.738V222H82.5092V215H83.5312V216.4ZM90.5605 222.14C88.5305 222.14 87.1445 220.656 87.1445 218.5C87.1445 216.344 88.5305 214.86 90.5605 214.86C92.5905 214.86 93.9765 216.344 93.9765 218.5C93.9765 220.656 92.5905 222.14 90.5605 222.14ZM90.5605 221.244C91.9465 221.244 92.8425 220.152 92.8425 218.5C92.8425 216.848 91.9465 215.756 90.5605 215.756C89.1745 215.756 88.2645 216.848 88.2645 218.5C88.2645 220.152 89.1745 221.244 90.5605 221.244ZM100.612 215.238V216.134C99.9679 215.854 99.3379 215.714 98.7499 215.756C97.3219 215.854 96.2999 216.946 96.2999 218.5C96.2999 220.054 97.3219 221.16 98.7639 221.244C99.3519 221.272 99.9959 221.146 100.64 220.88V221.776C100.052 222.028 99.4219 222.14 98.8199 222.14C96.6779 222.14 95.1799 220.642 95.1799 218.5C95.1799 216.358 96.6779 214.86 98.8199 214.86C99.4919 214.86 100.08 215 100.612 215.238ZM104.869 222.14C103.147 222.14 102.181 220.964 102.181 218.78V215H103.231V218.864C103.231 220.418 103.889 221.244 105.079 221.244C106.283 221.244 107.193 220.39 107.263 218.668V215H108.327V222H107.305V220.74C106.815 221.664 105.975 222.14 104.869 222.14ZM111.846 216.4C112.364 215.238 113.288 214.706 114.646 214.888V215.784C112.84 215.532 111.93 216.54 111.888 218.738V222H110.824V215H111.846V216.4ZM118.987 222.14C116.621 222.14 115.445 220.488 115.445 218.388C115.445 216.302 116.565 214.874 118.637 214.874C120.793 214.874 121.703 216.442 121.689 218.696H116.565C116.565 220.222 117.517 221.23 119.029 221.23C119.687 221.23 120.485 221.034 121.311 220.628V221.58C120.583 221.958 119.771 222.14 118.987 222.14ZM116.565 217.842H120.569C120.527 216.596 119.813 215.77 118.609 215.77C117.419 215.77 116.705 216.568 116.565 217.842ZM127.448 212.2H129.772C131.97 212.2 133.608 213.012 133.608 215.154C133.608 217.254 132.04 218.094 130.192 218.094H128.568V222H127.448V212.2ZM128.568 217.1H130.29C131.522 217.1 132.46 216.54 132.46 215.14C132.46 213.754 131.312 213.194 129.842 213.194H128.568V217.1ZM137.103 222.07C136.067 222.07 135.437 221.482 135.437 220.012V211.5H136.501V220.082C136.501 220.88 136.711 221.09 137.201 221.132C137.383 221.146 137.551 221.132 137.705 221.118V221.986C137.453 222.056 137.229 222.07 137.103 222.07ZM141.961 222.14C140.239 222.14 139.273 220.964 139.273 218.78V215H140.323V218.864C140.323 220.418 140.981 221.244 142.171 221.244C143.375 221.244 144.285 220.39 144.355 218.668V215H145.419V222H144.397V220.74C143.907 221.664 143.067 222.14 141.961 222.14ZM149.231 222.14C148.657 222.14 147.845 222.028 147.229 221.776V220.88C147.817 221.146 148.475 221.272 149.035 221.272C149.833 221.272 150.785 220.992 150.785 220.138C150.785 218.43 147.187 219.032 147.187 216.806C147.187 215.42 148.307 214.874 149.763 214.874C150.379 214.874 150.911 214.972 151.443 215.126V216.022C150.995 215.854 150.393 215.714 149.861 215.714C149.035 215.714 148.223 216.022 148.223 216.708C148.223 218.304 151.807 217.716 151.807 220.04C151.807 221.482 150.589 222.14 149.231 222.14Z" fill="white"/>
<path d="M310.902 215.84C312.778 215.84 314.066 217.142 314.066 218.948C314.066 221.09 312.288 222.14 310.454 222.14C309.824 222.14 308.914 222.014 308.046 221.706V220.32C308.802 220.628 309.684 220.852 310.398 220.852C311.728 220.852 312.61 220.124 312.61 218.948C312.61 217.758 311.7 217.1 310.342 217.1C309.53 217.1 308.928 217.366 308.34 217.688V212.2H313.506V213.432H309.74L309.712 215.98C310.104 215.896 310.51 215.84 310.902 215.84Z" fill="white"/>
<path d="M445.418 219.228C445.418 220.754 444.522 221.692 443.192 222.028V223.456H441.96V222.168C441.176 222.168 440.49 222.014 439.846 221.734V220.432C440.434 220.74 441.134 220.922 441.82 220.922C442.982 220.922 443.99 220.418 443.99 219.312C443.99 217.03 439.734 217.814 439.734 214.776C439.734 213.348 440.658 212.438 441.96 212.158V210.716H443.192V212.074C443.78 212.102 444.396 212.242 444.956 212.438V213.698C444.27 213.46 443.528 213.292 442.926 213.292C442.072 213.292 441.19 213.628 441.19 214.65C441.19 216.75 445.418 215.924 445.418 219.228ZM449.571 222.14C448.703 222.14 447.835 221.972 447.135 221.734V220.362C447.877 220.67 448.633 220.866 449.417 220.866C450.859 220.866 451.825 220.236 451.825 219.242C451.825 218.234 450.845 217.534 449.361 217.534H448.507V216.302H449.291C450.761 216.302 451.741 215.77 451.741 214.734C451.741 213.866 451.055 213.278 449.697 213.278C448.871 213.278 448.213 213.502 447.583 213.796V212.522C448.185 212.256 448.899 212.046 449.809 212.046C451.951 212.046 453.197 213.18 453.197 214.594C453.197 215.714 452.427 216.652 451.265 216.89V216.918C452.469 217.128 453.281 218.136 453.281 219.368C453.281 221.034 451.797 222.14 449.571 222.14ZM461.144 222H454.956V220.74C457.504 218.22 459.548 216.428 459.548 214.846C459.548 213.74 458.554 213.278 457.574 213.278C456.692 213.278 455.866 213.642 455.264 214.034V212.704C456.048 212.312 457 212.046 457.91 212.046C459.59 212.046 461.004 212.998 461.004 214.832C461.004 216.708 459.506 218.136 456.916 220.684H461.144V222ZM464.388 222.476L463.324 223.862H462.372L463.03 222.364C463.156 222.07 463.198 221.874 463.198 221.524V220.432H464.766V221.384C464.766 221.902 464.654 222.14 464.388 222.476ZM469.026 222.14C468.158 222.14 467.29 221.972 466.59 221.734V220.362C467.332 220.67 468.088 220.866 468.872 220.866C470.314 220.866 471.28 220.236 471.28 219.242C471.28 218.234 470.3 217.534 468.816 217.534H467.962V216.302H468.746C470.216 216.302 471.196 215.77 471.196 214.734C471.196 213.866 470.51 213.278 469.152 213.278C468.326 213.278 467.668 213.502 467.038 213.796V212.522C467.64 212.256 468.354 212.046 469.264 212.046C471.406 212.046 472.652 213.18 472.652 214.594C472.652 215.714 471.882 216.652 470.72 216.89V216.918C471.924 217.128 472.736 218.136 472.736 219.368C472.736 221.034 471.252 222.14 469.026 222.14ZM478.527 222V219.774H473.977V218.626L477.897 212.2H479.927V218.542H481.159V219.774H479.927V222H478.527ZM478.527 218.542V213.376H478.499L475.391 218.542H478.527ZM485.299 215.84C487.175 215.84 488.463 217.142 488.463 218.948C488.463 221.09 486.685 222.14 484.851 222.14C484.221 222.14 483.311 222.014 482.443 221.706V220.32C483.199 220.628 484.081 220.852 484.795 220.852C486.125 220.852 487.007 220.124 487.007 218.948C487.007 217.758 486.097 217.1 484.739 217.1C483.927 217.1 483.325 217.366 482.737 217.688V212.2H487.903V213.432H484.137L484.109 215.98C484.501 215.896 484.907 215.84 485.299 215.84Z" fill="white"/>
<mask id="path-27-inside-5_4364_28061" fill="white">
<path d="M57.4839 232.5H526.484V262.5H57.4839V232.5Z"/>
</mask>
<path d="M526.484 262H57.4839V263H526.484V262Z" fill="white" mask="url(#path-27-inside-5_4364_28061)"/>
<path d="M73.6799 243.694V242.7H81.0859V243.694H77.9359V252.5H76.8159V243.694H73.6799ZM85.9672 245.36C87.6892 245.36 88.6692 246.536 88.6692 248.72V252.5H87.6052V248.636C87.6052 247.068 86.9472 246.256 85.7572 246.256C84.5532 246.256 83.6432 247.11 83.5732 248.832V252.5H82.5092V242H83.5732V246.704C84.0492 245.822 84.8892 245.36 85.9672 245.36ZM94.0358 252.64C91.6698 252.64 90.4938 250.988 90.4938 248.888C90.4938 246.802 91.6138 245.374 93.6858 245.374C95.8418 245.374 96.7518 246.942 96.7378 249.196H91.6138C91.6138 250.722 92.5658 251.73 94.0778 251.73C94.7358 251.73 95.5338 251.534 96.3598 251.128V252.08C95.6318 252.458 94.8198 252.64 94.0358 252.64ZM91.6138 248.342H95.6178C95.5758 247.096 94.8618 246.27 93.6578 246.27C92.4678 246.27 91.7538 247.068 91.6138 248.342ZM104.19 252.668C103.378 252.668 102.706 252.5 102.104 252.234V251.198C102.664 251.478 103.35 251.66 104.078 251.66C105.436 251.66 106.458 251.044 106.458 249.854C106.458 247.376 101.992 248.23 101.992 245.206C101.992 243.554 103.28 242.56 105.086 242.56C105.744 242.56 106.458 242.686 107.144 242.924V243.932C106.458 243.708 105.73 243.554 105.128 243.554C104.05 243.554 103.154 244.044 103.154 245.108C103.154 247.362 107.606 246.48 107.606 249.798C107.606 251.66 106.192 252.668 104.19 252.668ZM112.142 252.64C110.42 252.64 109.454 251.464 109.454 249.28V245.5H110.504V249.364C110.504 250.918 111.162 251.744 112.352 251.744C113.556 251.744 114.466 250.89 114.536 249.168V245.5H115.6V252.5H114.578V251.24C114.088 252.164 113.248 252.64 112.142 252.64ZM121.541 245.36C123.347 245.36 124.593 246.774 124.593 248.972C124.593 251.198 123.347 252.64 121.527 252.64C120.477 252.64 119.637 252.15 119.119 251.31V255.3H118.097V245.5H119.161V246.606C119.693 245.808 120.519 245.36 121.541 245.36ZM121.275 251.73C122.633 251.73 123.487 250.652 123.487 248.972C123.487 247.32 122.633 246.27 121.289 246.27C119.945 246.27 119.063 247.32 119.063 248.972C119.063 250.652 119.945 251.73 121.275 251.73ZM129.99 245.36C131.796 245.36 133.042 246.774 133.042 248.972C133.042 251.198 131.796 252.64 129.976 252.64C128.926 252.64 128.086 252.15 127.568 251.31V255.3H126.546V245.5H127.61V246.606C128.142 245.808 128.968 245.36 129.99 245.36ZM129.724 251.73C131.082 251.73 131.936 250.652 131.936 248.972C131.936 247.32 131.082 246.27 129.738 246.27C128.394 246.27 127.512 247.32 127.512 248.972C127.512 250.652 128.394 251.73 129.724 251.73ZM136.83 252.57C135.794 252.57 135.164 251.982 135.164 250.512V242H136.228V250.582C136.228 251.38 136.438 251.59 136.928 251.632C137.11 251.646 137.278 251.632 137.432 251.618V252.486C137.18 252.556 136.956 252.57 136.83 252.57ZM141.323 251.73L143.689 245.5H144.767L141.799 253.312C141.351 254.502 140.791 255.538 139.573 255.552C139.307 255.552 138.915 255.51 138.565 255.44V254.53C138.859 254.586 139.251 254.642 139.531 254.628C140.329 254.53 140.651 253.536 140.987 252.626L141.029 252.514H140.567L137.949 245.5H139.027L141.323 251.73ZM154.638 252.64C151.586 252.64 149.668 250.638 149.668 247.614C149.668 244.562 151.6 242.56 154.652 242.56C155.506 242.56 156.262 242.714 156.934 242.966V243.974C156.276 243.736 155.478 243.554 154.68 243.554C152.286 243.554 150.816 245.164 150.816 247.614C150.816 250.05 152.314 251.632 154.694 251.632C155.31 251.632 156.164 251.534 156.976 251.254V252.29C156.234 252.514 155.408 252.64 154.638 252.64ZM161.545 252.64C159.515 252.64 158.129 251.156 158.129 249C158.129 246.844 159.515 245.36 161.545 245.36C163.575 245.36 164.961 246.844 164.961 249C164.961 251.156 163.575 252.64 161.545 252.64ZM161.545 251.744C162.931 251.744 163.827 250.652 163.827 249C163.827 247.348 162.931 246.256 161.545 246.256C160.159 246.256 159.249 247.348 159.249 249C159.249 250.652 160.159 251.744 161.545 251.744ZM166.486 249.224V248.23H170.014V249.224H166.486ZM174.957 252.64C172.927 252.64 171.541 251.156 171.541 249C171.541 246.844 172.927 245.36 174.957 245.36C176.987 245.36 178.373 246.844 178.373 249C178.373 251.156 176.987 252.64 174.957 252.64ZM174.957 251.744C176.343 251.744 177.239 250.652 177.239 249C177.239 247.348 176.343 246.256 174.957 246.256C173.571 246.256 172.661 247.348 172.661 249C172.661 250.652 173.571 251.744 174.957 251.744ZM183.734 245.36C185.54 245.36 186.786 246.774 186.786 248.972C186.786 251.198 185.54 252.64 183.72 252.64C182.67 252.64 181.83 252.15 181.312 251.31V255.3H180.29V245.5H181.354V246.606C181.886 245.808 182.712 245.36 183.734 245.36ZM183.468 251.73C184.826 251.73 185.68 250.652 185.68 248.972C185.68 247.32 184.826 246.27 183.482 246.27C182.138 246.27 181.256 247.32 181.256 248.972C181.256 250.652 182.138 251.73 183.468 251.73Z" fill="white"/>
<path d="M313.968 242.7V243.876L310.356 252.5H308.956L312.54 243.932H307.78V242.7H313.968Z" fill="white"/>
<path d="M445.418 249.728C445.418 251.254 444.522 252.192 443.192 252.528V253.956H441.96V252.668C441.176 252.668 440.49 252.514 439.846 252.234V250.932C440.434 251.24 441.134 251.422 441.82 251.422C442.982 251.422 443.99 250.918 443.99 249.812C443.99 247.53 439.734 248.314 439.734 245.276C439.734 243.848 440.658 242.938 441.96 242.658V241.216H443.192V242.574C443.78 242.602 444.396 242.742 444.956 242.938V244.198C444.27 243.96 443.528 243.792 442.926 243.792C442.072 243.792 441.19 244.128 441.19 245.15C441.19 247.25 445.418 246.424 445.418 249.728ZM453.365 252.5H447.177V251.24C449.725 248.72 451.769 246.928 451.769 245.346C451.769 244.24 450.775 243.778 449.795 243.778C448.913 243.778 448.087 244.142 447.485 244.534V243.204C448.269 242.812 449.221 242.546 450.131 242.546C451.811 242.546 453.225 243.498 453.225 245.332C453.225 247.208 451.727 248.636 449.137 251.184H453.365V252.5ZM461.144 252.5H454.956V251.24C457.504 248.72 459.548 246.928 459.548 245.346C459.548 244.24 458.554 243.778 457.574 243.778C456.692 243.778 455.866 244.142 455.264 244.534V243.204C456.048 242.812 457 242.546 457.91 242.546C459.59 242.546 461.004 243.498 461.004 245.332C461.004 247.208 459.506 248.636 456.916 251.184H461.144V252.5ZM464.388 252.976L463.324 254.362H462.372L463.03 252.864C463.156 252.57 463.198 252.374 463.198 252.024V250.932H464.766V251.884C464.766 252.402 464.654 252.64 464.388 252.976ZM469.026 252.64C468.158 252.64 467.29 252.472 466.59 252.234V250.862C467.332 251.17 468.088 251.366 468.872 251.366C470.314 251.366 471.28 250.736 471.28 249.742C471.28 248.734 470.3 248.034 468.816 248.034H467.962V246.802H468.746C470.216 246.802 471.196 246.27 471.196 245.234C471.196 244.366 470.51 243.778 469.152 243.778C468.326 243.778 467.668 244.002 467.038 244.296V243.022C467.64 242.756 468.354 242.546 469.264 242.546C471.406 242.546 472.652 243.68 472.652 245.094C472.652 246.214 471.882 247.152 470.72 247.39V247.418C471.924 247.628 472.736 248.636 472.736 249.868C472.736 251.534 471.252 252.64 469.026 252.64ZM478.527 252.5V250.274H473.977V249.126L477.897 242.7H479.927V249.042H481.159V250.274H479.927V252.5H478.527ZM478.527 249.042V243.876H478.499L475.391 249.042H478.527ZM485.299 246.34C487.175 246.34 488.463 247.642 488.463 249.448C488.463 251.59 486.685 252.64 484.851 252.64C484.221 252.64 483.311 252.514 482.443 252.206V250.82C483.199 251.128 484.081 251.352 484.795 251.352C486.125 251.352 487.007 250.624 487.007 249.448C487.007 248.258 486.097 247.6 484.739 247.6C483.927 247.6 483.325 247.866 482.737 248.188V242.7H487.903V243.932H484.137L484.109 246.48C484.501 246.396 484.907 246.34 485.299 246.34Z" fill="white"/>
<path d="M65.0519 49.288L68.4279 39.8H71.1479V51H69.5479V41.336H69.5159L66.0599 51H64.0119L60.5559 41.336H60.5239V51H58.9239V39.8H61.6439L65.0519 49.288ZM76.4493 49.912L78.8813 43H80.4173L77.3773 51.496C76.8333 53.032 76.0653 54.472 74.5133 54.488C74.2253 54.488 73.6973 54.44 73.2493 54.344V53.064C73.6173 53.128 74.1453 53.208 74.4493 53.176C75.2813 53.064 75.7133 52.024 76.0653 51.016H75.3613L72.5453 43H74.0813L76.4493 49.912ZM84.9143 41.208V39.8H93.4583V41.208H89.9863V51H88.3863V41.208H84.9143ZM96.9694 51.16C94.6494 51.16 93.0174 49.448 93.0174 47C93.0174 44.552 94.6494 42.84 96.9694 42.84C99.2894 42.84 100.905 44.552 100.905 47C100.905 49.448 99.2894 51.16 96.9694 51.16ZM96.9694 49.896C98.3774 49.896 99.3054 48.744 99.3054 47C99.3054 45.256 98.3774 44.104 96.9694 44.104C95.5614 44.104 94.6174 45.256 94.6174 47C94.6174 48.744 95.5614 49.896 96.9694 49.896ZM106.841 42.84C108.873 42.84 110.361 44.488 110.361 46.968C110.361 49.48 108.873 51.16 106.825 51.16C105.737 51.16 104.825 50.68 104.233 49.848H104.201V54.2H102.761V43H104.265V44.056H104.297C104.905 43.288 105.785 42.84 106.841 42.84ZM106.441 49.88C107.849 49.88 108.793 48.712 108.793 46.968C108.793 45.256 107.865 44.12 106.457 44.12C105.049 44.12 104.121 45.256 104.121 46.968C104.121 48.712 105.049 49.88 106.441 49.88ZM118.488 51.192C117.592 51.192 116.792 51.016 116.056 50.696V49.208C116.728 49.56 117.528 49.768 118.312 49.768C119.64 49.768 120.792 49.192 120.792 47.928C120.792 45.32 115.928 46.216 115.928 42.744C115.928 40.76 117.496 39.64 119.512 39.64C120.28 39.64 121.128 39.8 121.896 40.072V41.512C121.112 41.24 120.264 41.048 119.576 41.048C118.6 41.048 117.592 41.432 117.592 42.6C117.592 45 122.424 44.056 122.424 47.832C122.424 50.072 120.728 51.192 118.488 51.192ZM130.008 43H131.512V51H130.056V49.832H130.008C129.464 50.712 128.568 51.16 127.416 51.16C125.416 51.16 124.296 49.832 124.296 47.32V43H125.8V47.448C125.8 49.08 126.488 49.896 127.72 49.896C128.984 49.896 129.928 49.016 130.008 47.16V43ZM137.998 42.84C140.03 42.84 141.518 44.488 141.518 46.968C141.518 49.48 140.03 51.16 137.982 51.16C136.894 51.16 135.982 50.68 135.39 49.848H135.358V54.2H133.918V43H135.422V44.056H135.454C136.062 43.288 136.942 42.84 137.998 42.84ZM137.598 49.88C139.006 49.88 139.95 48.712 139.95 46.968C139.95 45.256 139.022 44.12 137.614 44.12C136.206 44.12 135.278 45.256 135.278 46.968C135.278 48.712 136.206 49.88 137.598 49.88ZM147.463 42.84C149.495 42.84 150.983 44.488 150.983 46.968C150.983 49.48 149.495 51.16 147.447 51.16C146.359 51.16 145.447 50.68 144.855 49.848H144.823V54.2H143.383V43H144.887V44.056H144.919C145.527 43.288 146.407 42.84 147.463 42.84ZM147.063 49.88C148.471 49.88 149.415 48.712 149.415 46.968C149.415 45.256 148.487 44.12 147.079 44.12C145.671 44.12 144.743 45.256 144.743 46.968C144.743 48.712 145.671 49.88 147.063 49.88ZM154.976 51.08C153.744 51.08 153.04 50.376 153.04 48.664V39H154.544V48.776C154.544 49.528 154.672 49.688 155.136 49.752C155.392 49.784 155.616 49.768 155.808 49.736V50.968C155.456 51.064 155.152 51.08 154.976 51.08ZM159.056 39.8V41.496H157.456V39.8H159.056ZM159.008 43V51H157.504V43H159.008ZM165.095 51.16C162.295 51.16 160.999 49.208 160.999 46.872C160.999 44.504 162.279 42.856 164.695 42.856C167.255 42.856 168.247 44.76 168.215 47.336H162.599C162.599 48.92 163.671 49.88 165.159 49.88C165.895 49.88 166.791 49.64 167.783 49.16V50.504C166.935 50.952 166.007 51.16 165.095 51.16ZM162.599 46.152H166.615C166.567 44.92 165.815 44.12 164.647 44.12C163.479 44.12 162.775 44.92 162.599 46.152ZM171.589 44.248H171.637C172.245 43.16 173.253 42.68 174.677 42.872V44.136C172.693 43.864 171.717 44.792 171.637 47.064V51H170.133V43H171.589V44.248ZM177.84 51.16C177.232 51.16 176.224 51.032 175.504 50.728V49.48C176.192 49.8 176.944 49.944 177.536 49.944C178.288 49.944 179.376 49.704 179.376 48.84C179.376 47.128 175.456 47.64 175.456 45.144C175.456 43.48 176.768 42.856 178.448 42.856C179.168 42.856 179.776 42.968 180.4 43.16V44.408C179.904 44.2 179.184 44.024 178.592 44.024C177.792 44.024 176.928 44.344 176.928 45C176.928 46.648 180.816 46.136 180.816 48.68C180.816 50.376 179.36 51.16 177.84 51.16Z" fill="white"/>
<path d="M390.669 47.779C390.669 49.984 389.388 51.391 387.477 51.958V54.184H385.146V52.252C384.033 52.231 383.025 52 382.101 51.601V49.417C383.046 49.858 384.096 50.11 385.083 50.11C386.721 50.11 388.107 49.459 388.107 47.968C388.107 44.839 381.933 45.658 381.933 41.206C381.933 39.148 383.256 37.783 385.146 37.279V35.074H387.477V37.132C388.296 37.195 389.157 37.384 389.955 37.657V39.799C388.926 39.442 387.813 39.211 386.952 39.211C385.629 39.211 384.537 39.757 384.537 41.101C384.537 44.146 390.669 42.949 390.669 47.779ZM397.592 52V40.219L395.639 41.899L394.358 40.303L398.033 37.3H400.112V52H397.592ZM409.534 42.634C412.474 42.634 414.385 44.587 414.385 47.359C414.385 50.53 411.865 52.21 408.862 52.21C407.833 52.21 406.426 52.021 405.145 51.559V49.27C406.363 49.732 407.686 50.026 408.673 50.026C410.584 50.026 411.802 48.955 411.802 47.359C411.802 45.742 410.542 44.797 408.589 44.797C407.497 44.797 406.51 45.133 405.586 45.637V37.3H413.545V39.463H408.064L408.001 42.781C408.526 42.697 409.051 42.634 409.534 42.634ZM419.061 52.756L417.486 54.793H415.953L416.898 52.546C417.087 52.105 417.15 51.811 417.15 51.286V49.543H419.691V51.076C419.691 51.853 419.481 52.252 419.061 52.756ZM431.772 52H422.28V49.963C426.123 46.246 428.958 43.663 428.958 41.416C428.958 40.009 427.782 39.232 426.186 39.232C424.905 39.232 423.708 39.736 422.763 40.366V38.077C423.876 37.51 425.304 37.069 426.816 37.069C429.399 37.069 431.562 38.455 431.562 41.248C431.562 43.894 429.588 46.141 425.871 49.732H431.772V52ZM443.441 52H433.949V49.963C437.792 46.246 440.627 43.663 440.627 41.416C440.627 40.009 439.451 39.232 437.855 39.232C436.574 39.232 435.377 39.736 434.432 40.366V38.077C435.545 37.51 436.973 37.069 438.485 37.069C441.068 37.069 443.231 38.455 443.231 41.248C443.231 43.894 441.257 46.141 437.54 49.732H443.441V52ZM449.293 52.21C447.907 52.21 446.668 51.958 445.555 51.58V49.207C446.668 49.69 447.781 49.984 448.957 49.984C451.036 49.984 452.401 49.081 452.401 47.716C452.401 46.33 451.057 45.406 448.978 45.406H447.655V43.348H448.873C450.931 43.348 452.254 42.571 452.254 41.185C452.254 40.009 451.288 39.19 449.377 39.19C448.201 39.19 447.214 39.505 446.248 39.967V37.783C447.172 37.384 448.243 37.069 449.65 37.069C452.905 37.069 454.858 38.665 454.858 40.891C454.858 42.571 453.724 43.978 451.939 44.335V44.377C453.787 44.692 454.984 46.183 454.984 48.052C454.984 50.635 452.716 52.21 449.293 52.21ZM459.912 52.756L458.337 54.793H456.804L457.749 52.546C457.938 52.105 458.001 51.811 458.001 51.286V49.543H460.542V51.076C460.542 51.853 460.332 52.252 459.912 52.756ZM462.964 44.65C462.964 41.038 464.182 37.09 468.025 37.09C471.91 37.09 473.086 41.101 473.086 44.65C473.086 48.262 471.868 52.21 468.025 52.21C464.14 52.21 462.964 48.199 462.964 44.65ZM465.484 44.65C465.484 46.813 465.82 50.026 468.025 50.026C470.23 50.026 470.566 46.813 470.566 44.65C470.566 42.487 470.146 39.274 468.025 39.274C465.883 39.274 465.484 42.487 465.484 44.65ZM479.568 42.634C482.508 42.634 484.419 44.587 484.419 47.359C484.419 50.53 481.899 52.21 478.896 52.21C477.867 52.21 476.46 52.021 475.179 51.559V49.27C476.397 49.732 477.72 50.026 478.707 50.026C480.618 50.026 481.836 48.955 481.836 47.359C481.836 45.742 480.576 44.797 478.623 44.797C477.531 44.797 476.544 45.133 475.62 45.637V37.3H483.579V39.463H478.098L478.035 42.781C478.56 42.697 479.085 42.634 479.568 42.634ZM486.302 44.65C486.302 41.038 487.52 37.09 491.363 37.09C495.248 37.09 496.424 41.101 496.424 44.65C496.424 48.262 495.206 52.21 491.363 52.21C487.478 52.21 486.302 48.199 486.302 44.65ZM488.822 44.65C488.822 46.813 489.158 50.026 491.363 50.026C493.568 50.026 493.904 46.813 493.904 44.65C493.904 42.487 493.484 39.274 491.363 39.274C489.221 39.274 488.822 42.487 488.822 44.65Z" fill="white"/>
<path d="M521.369 41H525.205V45H523.926V42.3333H521.369V41ZM512.417 41H516.253V42.3333H513.696V45H512.417V41ZM523.926 51.6667V49H525.205V53H521.369V51.6667H523.926ZM513.696 51.6667H516.253V53H512.417V49H513.696V51.6667Z" fill="white"/>
</g>
<defs>
<filter id="filter0_d_4364_28061" x="0.483887" y="0" width="590.516" height="314" filterUnits="userSpaceOnUse" color-interpolation-filters="sRGB">
<feFlood flood-opacity="0" result="BackgroundImageFix"/>
<feColorMatrix in="SourceAlpha" type="matrix" values="0 0 0 0 0 0 0 0 0 0 0 0 0 0 0 0 0 0 127 0" result="hardAlpha"/>
<feOffset dx="3" dy="8"/>
<feGaussianBlur stdDeviation="15"/>
<feComposite in2="hardAlpha" operator="out"/>
<feColorMatrix type="matrix" values="0 0 0 0 0.658824 0 0 0 0 0.686275 0 0 0 0 0.721569 0 0 0 0.3 0"/>
<feBlend mode="normal" in2="BackgroundImageFix" result="effect1_dropShadow_4364_28061"/>
<feBlend mode="normal" in="SourceGraphic" in2="effect1_dropShadow_4364_28061" result="shape"/>
</filter>
<linearGradient id="paint0_linear_4364_28061" x1="292.742" y1="22" x2="292.742" y2="276" gradientUnits="userSpaceOnUse">
<stop offset="0.25" stop-color="#1E3A71"/>
<stop offset="1" stop-color="#0080BD"/>
</linearGradient>
<clipPath id="clip0_4364_28061">
<rect width="98" height="20" fill="white" transform="translate(73.4839 84.5)"/>
</clipPath>
<clipPath id="clip1_4364_28061">
<rect width="74" height="20" fill="white" transform="translate(286.984 84.5)"/>
</clipPath>
<clipPath id="clip2_4364_28061">
<rect width="41" height="20" fill="white" transform="translate(437.484 84.5)"/>
</clipPath>
</defs>
</svg>
