<svg width="414" height="310" viewBox="0 0 414 310" fill="none" xmlns="http://www.w3.org/2000/svg">
<g filter="url(#filter0_d_4364_28352)">
<rect x="28.0801" y="23" width="350.94" height="248" rx="12" fill="#0D366F" shape-rendering="crispEdges"/>
<rect x="28.0801" y="23" width="350.94" height="248" rx="12" fill="url(#paint0_linear_4364_28352)" shape-rendering="crispEdges"/>
<rect x="28.5801" y="23.5" width="349.94" height="247" rx="11.5" stroke="#00A3E0" shape-rendering="crispEdges"/>
<path d="M45.3921 51.192C44.4961 51.192 43.6961 51.016 42.9601 50.696V49.208C43.6321 49.56 44.4321 49.768 45.2161 49.768C46.5441 49.768 47.6961 49.192 47.6961 47.928C47.6961 45.32 42.8321 46.216 42.8321 42.744C42.8321 40.76 44.4001 39.64 46.4161 39.64C47.1841 39.64 48.0321 39.8 48.8001 40.072V41.512C48.0161 41.24 47.1681 41.048 46.4801 41.048C45.5041 41.048 44.4961 41.432 44.4961 42.6C44.4961 45 49.3281 44.056 49.3281 47.832C49.3281 50.072 47.6321 51.192 45.3921 51.192ZM55.4401 42.84C57.4721 42.84 58.9601 44.488 58.9601 46.968C58.9601 49.48 57.4721 51.16 55.4241 51.16C54.3361 51.16 53.4241 50.68 52.8321 49.848H52.8001L52.8001 54.2H51.3601L51.3601 43H52.8641V44.056H52.8961C53.5041 43.288 54.3841 42.84 55.4401 42.84ZM55.0401 49.88C56.4481 49.88 57.3921 48.712 57.3921 46.968C57.3921 45.256 56.4641 44.12 55.0561 44.12C53.6481 44.12 52.7201 45.256 52.7201 46.968C52.7201 48.712 53.6481 49.88 55.0401 49.88ZM64.5211 51.16C61.7211 51.16 60.4251 49.208 60.4251 46.872C60.4251 44.504 61.7051 42.856 64.1211 42.856C66.6811 42.856 67.6731 44.76 67.6411 47.336H62.0251C62.0251 48.92 63.0971 49.88 64.5851 49.88C65.3211 49.88 66.2171 49.64 67.2091 49.16V50.504C66.3611 50.952 65.4331 51.16 64.5211 51.16ZM62.0251 46.152H66.0411C65.9931 44.92 65.2411 44.12 64.0731 44.12C62.9051 44.12 62.2011 44.92 62.0251 46.152ZM73.8155 42.84C75.8155 42.84 76.9355 44.168 76.9355 46.68V51H75.4315V46.552C75.4315 44.92 74.7435 44.104 73.5115 44.104C72.2475 44.104 71.3035 44.984 71.2235 46.84V51H69.7195V43H71.1755V44.168H71.2235C71.7675 43.288 72.6635 42.84 73.8155 42.84ZM85.0687 44.056V39H86.5727V51H85.1327V49.848H85.0847C84.4927 50.68 83.5807 51.16 82.4927 51.16C80.4447 51.16 78.9567 49.48 78.9567 46.968C78.9567 44.488 80.4447 42.84 82.4767 42.84C83.5327 42.84 84.4127 43.288 85.0207 44.056H85.0687ZM82.8767 49.88C84.2687 49.88 85.1967 48.712 85.1967 46.968C85.1967 45.256 84.2687 44.12 82.8607 44.12C81.4527 44.12 80.5247 45.256 80.5247 46.968C80.5247 48.712 81.4687 49.88 82.8767 49.88ZM98.8123 51.16C95.3243 51.16 93.0843 48.856 93.0843 45.416C93.0843 41.944 95.3403 39.64 98.8283 39.64C99.8203 39.64 100.716 39.832 101.468 40.12V41.56C100.732 41.272 99.7883 41.048 98.8603 41.048C96.3323 41.048 94.7323 42.792 94.7323 45.416C94.7323 48.024 96.3803 49.736 98.8923 49.736C99.5323 49.736 100.54 49.624 101.516 49.288V50.744C100.652 51.016 99.6923 51.16 98.8123 51.16ZM106.706 51.16C104.386 51.16 102.754 49.448 102.754 47C102.754 44.552 104.386 42.84 106.706 42.84C109.026 42.84 110.642 44.552 110.642 47C110.642 49.448 109.026 51.16 106.706 51.16ZM106.706 49.896C108.114 49.896 109.042 48.744 109.042 47C109.042 45.256 108.114 44.104 106.706 44.104C105.298 44.104 104.354 45.256 104.354 47C104.354 48.744 105.298 49.896 106.706 49.896ZM121.489 42.84C123.297 42.84 124.321 44.104 124.321 46.504V51H122.817V46.472C122.817 44.904 122.289 44.104 121.201 44.104C119.937 44.104 119.185 45.16 119.185 47.176V51L117.777 51V46.472C117.777 44.904 117.185 44.104 116.097 44.104C114.897 44.104 114.225 45.048 114.145 46.856V51H112.641V43H114.097V44.168H114.145C114.577 43.288 115.313 42.84 116.385 42.84C117.569 42.84 118.401 43.384 118.849 44.44C119.377 43.384 120.305 42.84 121.489 42.84ZM130.924 42.84C132.956 42.84 134.444 44.488 134.444 46.968C134.444 49.48 132.956 51.16 130.908 51.16C129.82 51.16 128.908 50.68 128.316 49.848H128.284V54.2H126.844V43H128.348V44.056H128.38C128.988 43.288 129.868 42.84 130.924 42.84ZM130.524 49.88C131.932 49.88 132.876 48.712 132.876 46.968C132.876 45.256 131.948 44.12 130.54 44.12C129.132 44.12 128.204 45.256 128.204 46.968C128.204 48.712 129.132 49.88 130.524 49.88ZM139.397 42.84C141.893 42.84 142.709 44.2 142.709 46.232V51H141.365V49.944H141.333C140.981 50.44 140.453 51.16 138.917 51.16C137.413 51.16 135.925 50.472 135.925 48.648C135.925 46.472 138.037 46.04 139.605 46.008C140.053 45.992 140.613 46.008 141.237 46.04C141.237 44.664 140.693 44.104 139.157 44.104C138.053 44.104 137.365 44.456 136.773 44.792V43.528C137.429 43.16 138.165 42.84 139.397 42.84ZM139.045 49.944C140.261 49.944 141.189 49.208 141.237 47.832V47.16C140.869 47.144 140.453 47.128 140.085 47.128C138.453 47.128 137.525 47.672 137.525 48.648C137.525 49.544 138.149 49.944 139.045 49.944ZM146.644 44.248H146.692C147.3 43.16 148.308 42.68 149.732 42.872V44.136C147.748 43.864 146.772 44.792 146.692 47.064V51H145.188V43H146.644V44.248ZM153.103 39.8V41.496H151.503V39.8H153.103ZM153.055 43V51H151.551V43H153.055ZM157.414 51.16C156.806 51.16 155.798 51.032 155.078 50.728V49.48C155.766 49.8 156.518 49.944 157.11 49.944C157.862 49.944 158.95 49.704 158.95 48.84C158.95 47.128 155.03 47.64 155.03 45.144C155.03 43.48 156.342 42.856 158.022 42.856C158.742 42.856 159.35 42.968 159.974 43.16V44.408C159.478 44.2 158.758 44.024 158.166 44.024C157.366 44.024 156.502 44.344 156.502 45C156.502 46.648 160.39 46.136 160.39 48.68C160.39 50.376 158.934 51.16 157.414 51.16ZM165.627 51.16C163.307 51.16 161.675 49.448 161.675 47C161.675 44.552 163.307 42.84 165.627 42.84C167.947 42.84 169.563 44.552 169.563 47C169.563 49.448 167.947 51.16 165.627 51.16ZM165.627 49.896C167.035 49.896 167.963 48.744 167.963 47C167.963 45.256 167.035 44.104 165.627 44.104C164.219 44.104 163.275 45.256 163.275 47C163.275 48.744 164.219 49.896 165.627 49.896ZM175.675 42.84C177.675 42.84 178.795 44.168 178.795 46.68V51H177.291V46.552C177.291 44.92 176.603 44.104 175.371 44.104C174.107 44.104 173.163 44.984 173.083 46.84V51H171.579V43H173.035V44.168H173.083C173.627 43.288 174.523 42.84 175.675 42.84Z" fill="white"/>
<path fill-rule="evenodd" clip-rule="evenodd" d="M198.535 43.1078L204.08 41.5L202.7 47.1061L200.978 45.4532L198.201 48.3463C198.106 48.4445 197.976 48.5 197.84 48.5C197.704 48.5 197.574 48.4445 197.479 48.3463L195.44 46.222L192.441 49.3463C192.25 49.5455 191.933 49.5519 191.734 49.3607C191.535 49.1695 191.528 48.8529 191.719 48.6537L195.079 45.1537C195.174 45.0555 195.304 45 195.44 45C195.576 45 195.706 45.0555 195.801 45.1537L197.84 47.278L200.257 44.7607L198.535 43.1078Z" fill="white"/>
<path d="M206.738 47.616V46.384H209.622V43.5H210.938V46.384H213.822V47.616H210.938V50.5H209.622V47.616H206.738ZM218.563 44.34C220.439 44.34 221.727 45.642 221.727 47.448C221.727 49.59 219.949 50.64 218.115 50.64C217.485 50.64 216.575 50.514 215.707 50.206V48.82C216.463 49.128 217.345 49.352 218.059 49.352C219.389 49.352 220.271 48.624 220.271 47.448C220.271 46.258 219.361 45.6 218.003 45.6C217.191 45.6 216.589 45.866 216.001 46.188V40.7H221.167V41.932H217.401L217.373 44.48C217.765 44.396 218.171 44.34 218.563 44.34ZM225.544 50.5H223.976V48.932H225.544V50.5ZM231.806 50.5V48.274H227.256V47.126L231.176 40.7H233.206V47.042H234.438V48.274H233.206V50.5H231.806ZM231.806 47.042V41.876H231.778L228.67 47.042H231.806ZM235.624 45.6C235.624 43.458 236.24 40.56 238.942 40.56C241.644 40.56 242.26 43.458 242.26 45.6C242.26 47.742 241.644 50.64 238.942 50.64C236.24 50.64 235.624 47.742 235.624 45.6ZM237.08 45.6C237.08 46.818 237.262 49.408 238.942 49.408C240.622 49.408 240.804 46.818 240.804 45.6C240.804 44.368 240.552 41.792 238.942 41.792C237.332 41.792 237.08 44.368 237.08 45.6ZM244.621 43.36C244.621 41.568 245.377 40.56 246.735 40.56C248.093 40.56 248.863 41.568 248.863 43.36C248.863 45.152 248.093 46.16 246.735 46.16C245.377 46.16 244.621 45.152 244.621 43.36ZM252.195 40.7H253.749L248.023 50.5H246.469L252.195 40.7ZM245.853 43.36C245.853 44.704 246.133 45.334 246.735 45.334C247.351 45.334 247.631 44.704 247.631 43.36C247.631 42.03 247.351 41.4 246.735 41.4C246.133 41.4 245.853 42.03 245.853 43.36ZM251.355 47.84C251.355 46.048 252.111 45.04 253.469 45.04C254.827 45.04 255.597 46.048 255.597 47.84C255.597 49.632 254.827 50.64 253.469 50.64C252.111 50.64 251.355 49.632 251.355 47.84ZM252.587 47.84C252.587 49.184 252.867 49.814 253.469 49.814C254.085 49.814 254.365 49.184 254.365 47.84C254.365 46.51 254.085 45.88 253.469 45.88C252.867 45.88 252.587 46.51 252.587 47.84Z" fill="white"/>
<path d="M77.4303 84H72.1863V83.124C74.5743 80.76 76.3143 79.296 76.3143 77.892C76.3143 76.836 75.4623 76.32 74.4663 76.32C73.7103 76.32 72.9663 76.608 72.4503 76.932V76.02C73.0863 75.696 73.9023 75.468 74.6823 75.468C76.1703 75.468 77.3103 76.32 77.3103 77.88C77.3103 79.488 75.9303 80.724 73.5303 83.088H77.4303V84ZM78.7463 79.8C78.7463 77.748 79.3823 75.48 81.5543 75.48C83.7263 75.48 84.3743 77.748 84.3743 79.8C84.3743 81.852 83.7263 84.12 81.5543 84.12C79.3823 84.12 78.7463 81.852 78.7463 79.8ZM79.7423 79.8C79.7423 81.228 80.0783 83.268 81.5543 83.268C83.0423 83.268 83.3663 81.228 83.3663 79.8C83.3663 78.36 82.9943 76.332 81.5543 76.332C80.1143 76.332 79.7423 78.36 79.7423 79.8ZM85.4142 79.8C85.4142 77.748 86.0502 75.48 88.2222 75.48C90.3942 75.48 91.0422 77.748 91.0422 79.8C91.0422 81.852 90.3942 84.12 88.2222 84.12C86.0502 84.12 85.4142 81.852 85.4142 79.8ZM86.4102 79.8C86.4102 81.228 86.7462 83.268 88.2222 83.268C89.7102 83.268 90.0342 81.228 90.0342 79.8C90.0342 78.36 89.6622 76.332 88.2222 76.332C86.7822 76.332 86.4102 78.36 86.4102 79.8ZM94.4942 80.592L97.9382 84H96.6182L93.5342 80.772V84H92.6222V75H93.5342V80.436L96.1982 78H97.4582L94.4942 80.592Z" fill="white"/>
<path d="M74.9943 123V115.692L73.4703 116.988L72.9543 116.352L75.0903 114.6H75.9543V123H74.9943ZM81.4583 117.804C83.0903 117.804 84.1703 118.872 84.1703 120.432C84.1703 122.208 82.7543 123.12 81.0983 123.12C80.5463 123.12 79.7783 123.012 79.0703 122.76V121.8C79.7063 122.052 80.4503 122.232 81.0623 122.232C82.3583 122.232 83.1743 121.56 83.1743 120.432C83.1743 119.304 82.3703 118.68 81.0983 118.68C80.4143 118.68 79.8503 118.884 79.3223 119.148V114.6H83.6903V115.452H80.2823L80.2583 117.96C80.6543 117.864 81.0623 117.804 81.4583 117.804ZM85.4142 118.8C85.4142 116.748 86.0502 114.48 88.2222 114.48C90.3942 114.48 91.0422 116.748 91.0422 118.8C91.0422 120.852 90.3942 123.12 88.2222 123.12C86.0502 123.12 85.4142 120.852 85.4142 118.8ZM86.4102 118.8C86.4102 120.228 86.7462 122.268 88.2222 122.268C89.7102 122.268 90.0342 120.228 90.0342 118.8C90.0342 117.36 89.6622 115.332 88.2222 115.332C86.7822 115.332 86.4102 117.36 86.4102 118.8ZM94.4942 119.592L97.9382 123H96.6182L93.5342 119.772V123H92.6222V114H93.5342V119.436L96.1982 117H97.4582L94.4942 119.592Z" fill="white"/>
<path d="M74.9943 162V154.692L73.4703 155.988L72.9543 155.352L75.0903 153.6H75.9543V162H74.9943ZM78.7463 157.8C78.7463 155.748 79.3823 153.48 81.5543 153.48C83.7263 153.48 84.3743 155.748 84.3743 157.8C84.3743 159.852 83.7263 162.12 81.5543 162.12C79.3823 162.12 78.7463 159.852 78.7463 157.8ZM79.7423 157.8C79.7423 159.228 80.0783 161.268 81.5543 161.268C83.0423 161.268 83.3663 159.228 83.3663 157.8C83.3663 156.36 82.9943 154.332 81.5543 154.332C80.1143 154.332 79.7423 156.36 79.7423 157.8ZM85.4142 157.8C85.4142 155.748 86.0502 153.48 88.2222 153.48C90.3942 153.48 91.0422 155.748 91.0422 157.8C91.0422 159.852 90.3942 162.12 88.2222 162.12C86.0502 162.12 85.4142 159.852 85.4142 157.8ZM86.4102 157.8C86.4102 159.228 86.7462 161.268 88.2222 161.268C89.7102 161.268 90.0342 159.228 90.0342 157.8C90.0342 156.36 89.6622 154.332 88.2222 154.332C86.7822 154.332 86.4102 156.36 86.4102 157.8ZM94.4942 158.592L97.9382 162H96.6182L93.5342 158.772V162H92.6222V153H93.5342V158.436L96.1982 156H97.4582L94.4942 158.592Z" fill="white"/>
<path d="M80.7903 195.804C82.4223 195.804 83.5023 196.872 83.5023 198.432C83.5023 200.208 82.0863 201.12 80.4303 201.12C79.8783 201.12 79.1103 201.012 78.4023 200.76V199.8C79.0383 200.052 79.7823 200.232 80.3943 200.232C81.6903 200.232 82.5063 199.56 82.5063 198.432C82.5063 197.304 81.7023 196.68 80.4303 196.68C79.7463 196.68 79.1823 196.884 78.6543 197.148V192.6H83.0223V193.452H79.6143L79.5903 195.96C79.9863 195.864 80.3943 195.804 80.7903 195.804ZM84.7463 196.8C84.7463 194.748 85.3823 192.48 87.5543 192.48C89.7263 192.48 90.3743 194.748 90.3743 196.8C90.3743 198.852 89.7263 201.12 87.5543 201.12C85.3823 201.12 84.7463 198.852 84.7463 196.8ZM85.7423 196.8C85.7423 198.228 86.0783 200.268 87.5543 200.268C89.0423 200.268 89.3663 198.228 89.3663 196.8C89.3663 195.36 88.9943 193.332 87.5543 193.332C86.1143 193.332 85.7423 195.36 85.7423 196.8ZM93.8262 197.592L97.2702 201H95.9502L92.8662 197.772V201H91.9542V192H92.8662V197.436L95.5302 195H96.7902L93.8262 197.592Z" fill="white"/>
<path d="M92.0783 235.8C92.0783 233.748 92.7143 231.48 94.8863 231.48C97.0583 231.48 97.7063 233.748 97.7063 235.8C97.7063 237.852 97.0583 240.12 94.8863 240.12C92.7143 240.12 92.0783 237.852 92.0783 235.8ZM93.0743 235.8C93.0743 237.228 93.4103 239.268 94.8863 239.268C96.3743 239.268 96.6983 237.228 96.6983 235.8C96.6983 234.36 96.3263 232.332 94.8863 232.332C93.4463 232.332 93.0743 234.36 93.0743 235.8Z" fill="white"/>
<line x1="103.55" y1="78.5" x2="338.55" y2="78.5" stroke="white" stroke-dasharray="2"/>
<line x1="103.55" y1="118" x2="338.55" y2="118" stroke="white" stroke-dasharray="2"/>
<line x1="103.55" y1="157.5" x2="338.55" y2="157.5" stroke="white" stroke-dasharray="2"/>
<line x1="103.55" y1="197" x2="338.55" y2="197" stroke="white" stroke-dasharray="2"/>
<line x1="103.55" y1="236.5" x2="338.55" y2="236.5" stroke="#DADCE2"/>
<line x1="103.05" y1="237" x2="103.05" y2="79" stroke="white" stroke-dasharray="2"/>
<line x1="338.05" y1="237" x2="338.05" y2="79" stroke="white" stroke-dasharray="2"/>
<g opacity="0.2">
<rect opacity="0.8" x="132.55" y="79" width="67" height="157" fill="#83BD01"/>
</g>
<rect opacity="0.8" x="132.55" y="116.68" width="67" height="119.2" fill="#83BD01"/>
<path d="M151.31 103.784C151.31 105.464 150.334 106.536 148.878 106.968V108.664H147.102V107.192C146.254 107.176 145.486 107 144.782 106.696V105.032C145.502 105.368 146.302 105.56 147.054 105.56C148.302 105.56 149.358 105.064 149.358 103.928C149.358 101.544 144.654 102.168 144.654 98.776C144.654 97.208 145.662 96.168 147.102 95.784V94.104H148.878V95.672C149.502 95.72 150.158 95.864 150.766 96.072V97.704C149.982 97.432 149.134 97.256 148.478 97.256C147.47 97.256 146.638 97.672 146.638 98.696C146.638 101.016 151.31 100.104 151.31 103.784ZM156.585 107V98.024L155.097 99.304L154.121 98.088L156.921 95.8H158.505V107H156.585ZM168.82 95.992V97.736C168.084 97.432 167.252 97.272 166.628 97.272C164.724 97.272 164.004 98.936 163.988 100.696H164.036C164.388 100.36 164.98 99.896 166.148 99.896C168.356 99.896 169.588 101.304 169.588 103.464C169.588 105.768 168.164 107.16 165.924 107.16C162.74 107.16 162.084 104.376 162.084 101.832C162.084 98.728 162.964 95.624 166.5 95.624C167.38 95.624 168.18 95.8 168.82 95.992ZM167.62 103.528C167.62 102.328 166.996 101.544 165.924 101.544C164.836 101.544 164.148 102.328 164.148 103.528C164.148 104.712 164.836 105.496 165.876 105.496C166.9 105.496 167.62 104.776 167.62 103.528ZM173.742 107.16C172.686 107.16 171.742 106.968 170.894 106.68V104.872C171.742 105.24 172.59 105.464 173.486 105.464C175.07 105.464 176.11 104.776 176.11 103.736C176.11 102.68 175.086 101.976 173.502 101.976H172.494V100.408H173.422C174.99 100.408 175.998 99.816 175.998 98.76C175.998 97.864 175.262 97.24 173.806 97.24C172.91 97.24 172.158 97.48 171.422 97.832V96.168C172.126 95.864 172.942 95.624 174.014 95.624C176.494 95.624 177.982 96.84 177.982 98.536C177.982 99.816 177.118 100.888 175.758 101.16V101.192C177.166 101.432 178.078 102.568 178.078 103.992C178.078 105.96 176.35 107.16 173.742 107.16ZM183.897 102.44L187.785 107H185.401L182.057 102.792V107H180.249V95H182.057V102.184L184.825 99H187.145L183.897 102.44Z" fill="white"/>
<g opacity="0.2">
<rect opacity="0.8" x="242.55" y="79" width="67" height="157" fill="#00A3E0"/>
</g>
<rect opacity="0.8" x="242.55" y="157.5" width="67" height="79" fill="#FFC846"/>
<path d="M261.209 146.864C261.209 148.544 260.233 149.616 258.777 150.048V151.744H257.001V150.272C256.153 150.256 255.385 150.08 254.681 149.776V148.112C255.401 148.448 256.201 148.64 256.953 148.64C258.201 148.64 259.257 148.144 259.257 147.008C259.257 144.624 254.553 145.248 254.553 141.856C254.553 140.288 255.561 139.248 257.001 138.864V137.184H258.777V138.752C259.401 138.8 260.057 138.944 260.665 139.152V140.784C259.881 140.512 259.033 140.336 258.377 140.336C257.369 140.336 256.537 140.752 256.537 141.776C256.537 144.096 261.209 143.184 261.209 146.864ZM266.483 150.08V141.104L264.995 142.384L264.019 141.168L266.819 138.88H268.403V150.08H266.483ZM275.374 150.08V141.104L273.886 142.384L272.91 141.168L275.71 138.88H277.294V150.08H275.374ZM286.345 144.176C287.833 144.896 288.489 145.776 288.489 147.024C288.489 148.944 286.905 150.24 284.537 150.24C282.201 150.24 280.649 148.976 280.649 147.104C280.649 145.888 281.305 144.944 282.841 144.192C281.417 143.376 281.097 142.416 281.097 141.632C281.097 140.032 282.377 138.704 284.601 138.704C286.729 138.704 287.993 139.968 287.993 141.6C287.993 142.496 287.593 143.376 286.345 144.176ZM284.505 140.24C283.529 140.24 282.985 140.832 282.985 141.664C282.985 142.528 283.593 143.024 284.681 143.488C285.609 142.96 286.025 142.336 286.025 141.632C286.025 140.784 285.433 140.24 284.505 140.24ZM284.649 148.576C285.817 148.576 286.521 148.032 286.537 147.088C286.537 146.08 285.785 145.52 284.457 144.928C283.305 145.504 282.601 146.096 282.601 146.976C282.601 147.968 283.433 148.576 284.649 148.576ZM293.795 145.52L297.683 150.08H295.299L291.955 145.872V150.08H290.147V138.08H291.955V145.264L294.723 142.08H297.043L293.795 145.52Z" fill="white"/>
<path d="M154.682 255V254.233L157.563 251.08C157.901 250.71 158.179 250.389 158.398 250.116C158.617 249.841 158.779 249.582 158.884 249.341C158.992 249.097 159.046 248.841 159.046 248.574C159.046 248.267 158.972 248.001 158.824 247.777C158.679 247.553 158.481 247.379 158.228 247.257C157.975 247.135 157.691 247.074 157.375 247.074C157.04 247.074 156.748 247.143 156.498 247.283C156.25 247.419 156.059 247.611 155.922 247.858C155.789 248.105 155.722 248.395 155.722 248.727H154.716C154.716 248.216 154.834 247.767 155.07 247.381C155.306 246.994 155.627 246.693 156.033 246.477C156.442 246.261 156.901 246.153 157.409 246.153C157.921 246.153 158.374 246.261 158.769 246.477C159.164 246.693 159.473 246.984 159.698 247.351C159.922 247.717 160.034 248.125 160.034 248.574C160.034 248.895 159.976 249.209 159.86 249.516C159.746 249.82 159.547 250.159 159.263 250.534C158.982 250.906 158.591 251.361 158.091 251.898L156.131 253.994V254.062H160.188V255H154.682ZM164.794 255.119C164.152 255.119 163.606 254.945 163.154 254.595C162.702 254.243 162.357 253.733 162.118 253.065C161.88 252.395 161.76 251.585 161.76 250.636C161.76 249.693 161.88 248.888 162.118 248.22C162.36 247.55 162.706 247.038 163.158 246.686C163.613 246.331 164.158 246.153 164.794 246.153C165.431 246.153 165.975 246.331 166.427 246.686C166.881 247.038 167.228 247.55 167.466 248.22C167.708 248.888 167.829 249.693 167.829 250.636C167.829 251.585 167.709 252.395 167.471 253.065C167.232 253.733 166.887 254.243 166.435 254.595C165.983 254.945 165.436 255.119 164.794 255.119ZM164.794 254.182C165.431 254.182 165.925 253.875 166.277 253.261C166.63 252.648 166.806 251.773 166.806 250.636C166.806 249.881 166.725 249.237 166.563 248.706C166.404 248.175 166.174 247.77 165.873 247.491C165.574 247.213 165.215 247.074 164.794 247.074C164.164 247.074 163.671 247.385 163.316 248.007C162.961 248.626 162.783 249.503 162.783 250.636C162.783 251.392 162.863 252.034 163.022 252.562C163.181 253.091 163.409 253.493 163.708 253.768C164.009 254.044 164.371 254.182 164.794 254.182ZM169.448 255V254.233L172.329 251.08C172.667 250.71 172.945 250.389 173.164 250.116C173.383 249.841 173.544 249.582 173.65 249.341C173.758 249.097 173.811 248.841 173.811 248.574C173.811 248.267 173.738 248.001 173.59 247.777C173.445 247.553 173.246 247.379 172.993 247.257C172.74 247.135 172.456 247.074 172.141 247.074C171.806 247.074 171.513 247.143 171.263 247.283C171.016 247.419 170.824 247.611 170.688 247.858C170.554 248.105 170.488 248.395 170.488 248.727H169.482C169.482 248.216 169.6 247.767 169.836 247.381C170.071 246.994 170.392 246.693 170.799 246.477C171.208 246.261 171.667 246.153 172.175 246.153C172.686 246.153 173.14 246.261 173.534 246.477C173.929 246.693 174.239 246.984 174.463 247.351C174.688 247.717 174.8 248.125 174.8 248.574C174.8 248.895 174.742 249.209 174.625 249.516C174.512 249.82 174.313 250.159 174.029 250.534C173.748 250.906 173.357 251.361 172.857 251.898L170.897 253.994V254.062H174.954V255H169.448ZM176.321 253.21V252.341L180.157 246.273H180.787V247.619H180.361L177.463 252.205V252.273H182.628V253.21H176.321ZM180.429 255V252.946V252.541V246.273H181.435V255H180.429Z" fill="white"/>
<path d="M254.788 255V254.233L257.668 251.08C258.006 250.71 258.285 250.389 258.504 250.116C258.722 249.841 258.884 249.582 258.989 249.341C259.097 249.097 259.151 248.841 259.151 248.574C259.151 248.267 259.077 248.001 258.93 247.777C258.785 247.553 258.586 247.379 258.333 247.257C258.08 247.135 257.796 247.074 257.481 247.074C257.146 247.074 256.853 247.143 256.603 247.283C256.356 247.419 256.164 247.611 256.028 247.858C255.894 248.105 255.827 248.395 255.827 248.727H254.822C254.822 248.216 254.94 247.767 255.175 247.381C255.411 246.994 255.732 246.693 256.139 246.477C256.548 246.261 257.006 246.153 257.515 246.153C258.026 246.153 258.479 246.261 258.874 246.477C259.269 246.693 259.579 246.984 259.803 247.351C260.028 247.717 260.14 248.125 260.14 248.574C260.14 248.895 260.082 249.209 259.965 249.516C259.852 249.82 259.653 250.159 259.369 250.534C259.087 250.906 258.697 251.361 258.197 251.898L256.237 253.994V254.062H260.293V255H254.788ZM264.9 255.119C264.258 255.119 263.711 254.945 263.259 254.595C262.808 254.243 262.462 253.733 262.224 253.065C261.985 252.395 261.866 251.585 261.866 250.636C261.866 249.693 261.985 248.888 262.224 248.22C262.465 247.55 262.812 247.038 263.264 246.686C263.718 246.331 264.264 246.153 264.9 246.153C265.536 246.153 266.08 246.331 266.532 246.686C266.987 247.038 267.333 247.55 267.572 248.22C267.813 248.888 267.934 249.693 267.934 250.636C267.934 251.585 267.815 252.395 267.576 253.065C267.337 253.733 266.992 254.243 266.541 254.595C266.089 254.945 265.542 255.119 264.9 255.119ZM264.9 254.182C265.536 254.182 266.031 253.875 266.383 253.261C266.735 252.648 266.911 251.773 266.911 250.636C266.911 249.881 266.83 249.237 266.668 248.706C266.509 248.175 266.279 247.77 265.978 247.491C265.68 247.213 265.32 247.074 264.9 247.074C264.269 247.074 263.776 247.385 263.421 248.007C263.066 248.626 262.889 249.503 262.889 250.636C262.889 251.392 262.968 252.034 263.127 252.562C263.286 253.091 263.515 253.493 263.813 253.768C264.114 254.044 264.477 254.182 264.9 254.182ZM269.553 255V254.233L272.434 251.08C272.772 250.71 273.05 250.389 273.269 250.116C273.488 249.841 273.65 249.582 273.755 249.341C273.863 249.097 273.917 248.841 273.917 248.574C273.917 248.267 273.843 248.001 273.695 247.777C273.55 247.553 273.352 247.379 273.099 247.257C272.846 247.135 272.562 247.074 272.246 247.074C271.911 247.074 271.619 247.143 271.369 247.283C271.121 247.419 270.93 247.611 270.793 247.858C270.66 248.105 270.593 248.395 270.593 248.727H269.587C269.587 248.216 269.705 247.767 269.941 247.381C270.177 246.994 270.498 246.693 270.904 246.477C271.313 246.261 271.772 246.153 272.281 246.153C272.792 246.153 273.245 246.261 273.64 246.477C274.035 246.693 274.345 246.984 274.569 247.351C274.793 247.717 274.906 248.125 274.906 248.574C274.906 248.895 274.847 249.209 274.731 249.516C274.617 249.82 274.418 250.159 274.134 250.534C273.853 250.906 273.462 251.361 272.962 251.898L271.002 253.994V254.062H275.059V255H269.553ZM279.546 255.119C279.046 255.119 278.596 255.02 278.195 254.821C277.795 254.622 277.474 254.349 277.232 254.003C276.991 253.656 276.859 253.261 276.836 252.818H277.859C277.898 253.213 278.077 253.54 278.396 253.798C278.717 254.054 279.1 254.182 279.546 254.182C279.904 254.182 280.222 254.098 280.501 253.93C280.782 253.763 281.002 253.533 281.161 253.24C281.323 252.945 281.404 252.611 281.404 252.239C281.404 251.858 281.32 251.518 281.153 251.22C280.988 250.919 280.761 250.682 280.471 250.509C280.181 250.335 279.85 250.247 279.478 250.244C279.211 250.241 278.937 250.283 278.656 250.368C278.374 250.45 278.143 250.557 277.961 250.688L276.972 250.568L277.501 246.273H282.035V247.21H278.387L278.08 249.784H278.131C278.31 249.642 278.535 249.524 278.805 249.43C279.075 249.337 279.356 249.29 279.648 249.29C280.183 249.29 280.658 249.418 281.076 249.673C281.496 249.926 281.826 250.273 282.065 250.713C282.306 251.153 282.427 251.656 282.427 252.222C282.427 252.778 282.302 253.276 282.052 253.713C281.805 254.148 281.464 254.491 281.029 254.744C280.595 254.994 280.1 255.119 279.546 255.119Z" fill="white"/>
</g>
<defs>
<filter id="filter0_d_4364_28352" x="0.0800781" y="0" width="412.94" height="310" filterUnits="userSpaceOnUse" color-interpolation-filters="sRGB">
<feFlood flood-opacity="0" result="BackgroundImageFix"/>
<feColorMatrix in="SourceAlpha" type="matrix" values="0 0 0 0 0 0 0 0 0 0 0 0 0 0 0 0 0 0 127 0" result="hardAlpha"/>
<feMorphology radius="1" operator="dilate" in="SourceAlpha" result="effect1_dropShadow_4364_28352"/>
<feOffset dx="3" dy="8"/>
<feGaussianBlur stdDeviation="15"/>
<feComposite in2="hardAlpha" operator="out"/>
<feColorMatrix type="matrix" values="0 0 0 0 0.658824 0 0 0 0 0.686275 0 0 0 0 0.721569 0 0 0 0.3 0"/>
<feBlend mode="normal" in2="BackgroundImageFix" result="effect1_dropShadow_4364_28352"/>
<feBlend mode="normal" in="SourceGraphic" in2="effect1_dropShadow_4364_28352" result="shape"/>
</filter>
<linearGradient id="paint0_linear_4364_28352" x1="203.55" y1="23" x2="203.55" y2="271" gradientUnits="userSpaceOnUse">
<stop offset="0.25" stop-color="#1E3A71"/>
<stop offset="1" stop-color="#0080BD"/>
</linearGradient>
</defs>
</svg>
