<svg width="237" height="179" viewBox="0 0 237 179" fill="none" xmlns="http://www.w3.org/2000/svg">
<g filter="url(#filter0_d_4364_28014)">
<rect x="25" y="23" width="177.523" height="117" rx="12" fill="#0D366F" shape-rendering="crispEdges"/>
<rect x="25" y="23" width="177.523" height="117" rx="12" fill="url(#paint0_linear_4364_28014)" shape-rendering="crispEdges"/>
<rect x="25.5" y="23.5" width="176.523" height="116" rx="11.5" stroke="#00A3E0" shape-rendering="crispEdges"/>
<path d="M105.653 79L105.653 73.96H94.6281V70.6L104.428 54.5L110.553 54.5V69.795L113.283 69.795V73.96L110.553 73.96L110.553 79H105.653ZM105.653 69.795V59.89H105.548L99.5631 69.795H105.653ZM123.281 63.215C128.391 63.215 131.541 66.4 131.541 71.16C131.541 76.375 127.586 79.35 122.161 79.35C120.306 79.35 117.856 79 115.791 78.265L115.791 74.065C117.961 74.87 120.166 75.29 121.671 75.29C124.681 75.29 126.536 73.505 126.536 71.16C126.536 68.745 124.611 67.24 121.531 67.24C119.921 67.24 118.136 67.695 116.526 68.57V54.5L130.141 54.5V58.665L121.286 58.665L121.181 63.355C121.916 63.285 122.616 63.215 123.281 63.215Z" fill="white"/>
<path d="M59.6667 101.8H61.3467L66.0667 113L64.3227 113L63.2027 110.184H57.6987L56.5787 113H54.8987L59.6667 101.8ZM58.2267 108.872H62.6747L60.4507 103.32L58.2267 108.872ZM78.4616 105V106.312H76.4616V110.792C76.4616 111.48 76.5896 111.784 77.2936 111.816C77.6136 111.832 77.9496 111.784 78.2216 111.736V112.952C77.8856 113.048 77.5016 113.096 77.1016 113.096C75.5656 113.096 74.9576 112.296 74.9576 110.776V106.312H74.5896C73.4056 106.312 74.0776 106.92 72.6216 106.408C72.0776 106.232 71.4536 106.136 70.9096 106.184C69.4856 106.328 68.4616 107.384 68.4616 109C68.4616 110.616 69.5016 111.688 70.9416 111.8C71.5656 111.848 72.3176 111.72 73.1016 111.4V112.744C72.3976 113.032 71.6936 113.16 71.0216 113.16C68.5736 113.16 66.8616 111.448 66.8616 109C66.8616 106.552 68.5736 104.84 71.0216 104.84C71.5656 104.84 72.0776 104.952 72.5576 105.096C74.1576 105.592 73.6136 105 74.5896 105H74.9576V103.16L76.4616 102.632V105H78.4616ZM81.9171 101.8V103.496H80.3171V101.8H81.9171ZM81.8691 105V113H80.3651V105H81.8691ZM91.0924 105L88.2284 113H86.3404L83.4764 105H85.0124L87.2684 111.336V111.384H87.3004V111.336L89.5564 105H91.0924ZM96.0852 113.16C93.2852 113.16 91.9892 111.208 91.9892 108.872C91.9892 106.504 93.2692 104.856 95.6852 104.856C98.2452 104.856 99.2372 106.76 99.2052 109.336H93.5892C93.5892 110.92 94.6612 111.88 96.1492 111.88C96.8852 111.88 97.7812 111.64 98.7732 111.16V112.504C97.9252 112.952 96.9972 113.16 96.0852 113.16ZM93.5892 108.152H97.6052C97.5572 106.92 96.8052 106.12 95.6372 106.12C94.4692 106.12 93.7652 106.92 93.5892 108.152ZM110.97 113.16C107.482 113.16 105.242 110.856 105.242 107.416C105.242 103.944 107.498 101.64 110.986 101.64C111.978 101.64 112.874 101.832 113.626 102.12V103.56C112.89 103.272 111.946 103.048 111.018 103.048C108.49 103.048 106.89 104.792 106.89 107.416C106.89 110.024 108.538 111.736 111.05 111.736C111.69 111.736 112.698 111.624 113.674 111.288V112.744C112.81 113.016 111.85 113.16 110.97 113.16ZM118.863 113.16C116.543 113.16 114.911 111.448 114.911 109C114.911 106.552 116.543 104.84 118.863 104.84C121.183 104.84 122.799 106.552 122.799 109C122.799 111.448 121.183 113.16 118.863 113.16ZM118.863 111.896C120.271 111.896 121.199 110.744 121.199 109C121.199 107.256 120.271 106.104 118.863 106.104C117.455 106.104 116.511 107.256 116.511 109C116.511 110.744 117.455 111.896 118.863 111.896ZM128.911 104.84C130.911 104.84 132.031 106.168 132.031 108.68V113H130.527V108.552C130.527 106.92 129.839 106.104 128.607 106.104C127.343 106.104 126.399 106.984 126.319 108.84V113H124.815V105H126.271V106.168H126.319C126.863 105.288 127.759 104.84 128.911 104.84ZM136.26 105H138.26V106.312H136.26V110.792C136.26 111.48 136.388 111.784 137.092 111.816C137.412 111.832 137.748 111.784 138.02 111.736V112.952C137.684 113.048 137.3 113.096 136.9 113.096C135.364 113.096 134.756 112.296 134.756 110.776V106.312H133.428V105H134.756V103.16L136.26 102.632V105ZM141.474 106.248H141.522C142.13 105.16 143.138 104.68 144.562 104.872V106.136C142.578 105.864 141.602 106.792 141.522 109.064V113H140.018V105H141.474V106.248ZM149.165 104.84C151.661 104.84 152.477 106.2 152.477 108.232V113H151.133V111.944H151.101C150.749 112.44 150.221 113.16 148.685 113.16C147.181 113.16 145.693 112.472 145.693 110.648C145.693 108.472 147.805 108.04 149.373 108.008C149.821 107.992 150.381 108.008 151.005 108.04C151.005 106.664 150.461 106.104 148.925 106.104C147.821 106.104 147.133 106.456 146.541 106.792V105.528C147.197 105.16 147.933 104.84 149.165 104.84ZM148.813 111.944C150.029 111.944 150.957 111.208 151.005 109.832V109.16C150.637 109.144 150.221 109.128 149.853 109.128C148.221 109.128 147.293 109.672 147.293 110.648C147.293 111.544 147.917 111.944 148.813 111.944ZM165.883 105V106.312H163.883V110.792C163.883 111.48 164.011 111.784 164.715 111.816C165.035 111.832 165.371 111.784 165.643 111.736V112.952C165.307 113.048 164.923 113.096 164.523 113.096C162.987 113.096 162.379 112.296 162.379 110.776V106.312H162.011C160.827 106.312 161.499 106.92 160.043 106.408C159.499 106.232 158.875 106.136 158.331 106.184C156.907 106.328 155.883 107.384 155.883 109C155.883 110.616 156.923 111.688 158.363 111.8C158.987 111.848 159.739 111.72 160.523 111.4V112.744C159.819 113.032 159.115 113.16 158.443 113.16C155.995 113.16 154.283 111.448 154.283 109C154.283 106.552 155.995 104.84 158.443 104.84C158.987 104.84 159.499 104.952 159.979 105.096C161.579 105.592 161.035 105 162.011 105H162.379V103.16L163.883 102.632V105H165.883ZM169.291 113.16C168.683 113.16 167.675 113.032 166.955 112.728V111.48C167.643 111.8 168.395 111.944 168.987 111.944C169.739 111.944 170.827 111.704 170.827 110.84C170.827 109.128 166.907 109.64 166.907 107.144C166.907 105.48 168.219 104.856 169.899 104.856C170.619 104.856 171.227 104.968 171.851 105.16V106.408C171.355 106.2 170.635 106.024 170.043 106.024C169.243 106.024 168.379 106.344 168.379 107C168.379 108.648 172.267 108.136 172.267 110.68C172.267 112.376 170.811 113.16 169.291 113.16Z" fill="white"/>
</g>
<defs>
<filter id="filter0_d_4364_28014" x="-3" y="0" width="239.523" height="179" filterUnits="userSpaceOnUse" color-interpolation-filters="sRGB">
<feFlood flood-opacity="0" result="BackgroundImageFix"/>
<feColorMatrix in="SourceAlpha" type="matrix" values="0 0 0 0 0 0 0 0 0 0 0 0 0 0 0 0 0 0 127 0" result="hardAlpha"/>
<feMorphology radius="1" operator="dilate" in="SourceAlpha" result="effect1_dropShadow_4364_28014"/>
<feOffset dx="3" dy="8"/>
<feGaussianBlur stdDeviation="15"/>
<feComposite in2="hardAlpha" operator="out"/>
<feColorMatrix type="matrix" values="0 0 0 0 0.658824 0 0 0 0 0.686275 0 0 0 0 0.721569 0 0 0 0.3 0"/>
<feBlend mode="normal" in2="BackgroundImageFix" result="effect1_dropShadow_4364_28014"/>
<feBlend mode="normal" in="SourceGraphic" in2="effect1_dropShadow_4364_28014" result="shape"/>
</filter>
<linearGradient id="paint0_linear_4364_28014" x1="113.761" y1="23" x2="113.761" y2="140" gradientUnits="userSpaceOnUse">
<stop offset="0.25" stop-color="#1E3A71"/>
<stop offset="1" stop-color="#0080BD"/>
</linearGradient>
</defs>
</svg>
