<svg width="774" height="316" viewBox="0 0 774 316" fill="none" xmlns="http://www.w3.org/2000/svg">
<g filter="url(#filter0_d_5618_36597)">
<rect x="28.5" y="23" width="710.58" height="254" rx="12" fill="#0D366F" shape-rendering="crispEdges"/>
<rect x="28.5" y="23" width="710.58" height="254" rx="12" fill="url(#paint0_linear_5618_36597)" shape-rendering="crispEdges"/>
<rect x="29" y="23.5" width="709.58" height="253" rx="11.5" stroke="#00A3E0" shape-rendering="crispEdges"/>
<path d="M45.508 39.8V49.56H50.18V51H43.908L43.908 39.8H45.508ZM54.708 42.84C57.204 42.84 58.02 44.2 58.02 46.232V51H56.676V49.944H56.644C56.292 50.44 55.764 51.16 54.228 51.16C52.724 51.16 51.236 50.472 51.236 48.648C51.236 46.472 53.348 46.04 54.916 46.008C55.364 45.992 55.924 46.008 56.548 46.04C56.548 44.664 56.004 44.104 54.468 44.104C53.364 44.104 52.676 44.456 52.084 44.792V43.528C52.74 43.16 53.476 42.84 54.708 42.84ZM54.356 49.944C55.572 49.944 56.5 49.208 56.548 47.832V47.16C56.18 47.144 55.764 47.128 55.396 47.128C53.764 47.128 52.836 47.672 52.836 48.648C52.836 49.544 53.46 49.944 54.356 49.944ZM62.1468 51.16C61.5388 51.16 60.5308 51.032 59.8108 50.728V49.48C60.4988 49.8 61.2508 49.944 61.8428 49.944C62.5948 49.944 63.6828 49.704 63.6828 48.84C63.6828 47.128 59.7628 47.64 59.7628 45.144C59.7628 43.48 61.0748 42.856 62.7548 42.856C63.4748 42.856 64.0828 42.968 64.7068 43.16V44.408C64.2108 44.2 63.4908 44.024 62.8988 44.024C62.0988 44.024 61.2348 44.344 61.2348 45C61.2348 46.648 65.1228 46.136 65.1228 48.68C65.1228 50.376 63.6668 51.16 62.1468 51.16ZM68.6159 43H70.6159V44.312H68.6159V48.792C68.6159 49.48 68.7439 49.784 69.4479 49.816C69.7679 49.832 70.1039 49.784 70.3759 49.736V50.952C70.0399 51.048 69.6559 51.096 69.2559 51.096C67.7199 51.096 67.1119 50.296 67.1119 48.776V44.312H65.7839V43H67.1119V41.16L68.6159 40.632V43ZM79.7884 51V41.608L78.0764 43.08L77.2284 42.04L79.9644 39.8H81.3884V51H79.7884ZM92.247 51H85.175V49.56C88.087 46.68 90.423 44.632 90.423 42.824C90.423 41.56 89.287 41.032 88.167 41.032C87.159 41.032 86.215 41.448 85.527 41.896V40.376C86.423 39.928 87.511 39.624 88.551 39.624C90.471 39.624 92.087 40.712 92.087 42.808C92.087 44.952 90.375 46.584 87.415 49.496H92.247V51ZM105.224 49.288L108.6 39.8H111.32V51H109.72V41.336H109.688L106.232 51H104.184L100.728 41.336H100.696V51H99.0963V39.8H101.816L105.224 49.288ZM117.454 51.16C115.134 51.16 113.502 49.448 113.502 47C113.502 44.552 115.134 42.84 117.454 42.84C119.774 42.84 121.39 44.552 121.39 47C121.39 49.448 119.774 51.16 117.454 51.16ZM117.454 49.896C118.862 49.896 119.79 48.744 119.79 47C119.79 45.256 118.862 44.104 117.454 44.104C116.046 44.104 115.102 45.256 115.102 47C115.102 48.744 116.046 49.896 117.454 49.896ZM127.501 42.84C129.501 42.84 130.621 44.168 130.621 46.68V51H129.117V46.552C129.117 44.92 128.429 44.104 127.197 44.104C125.933 44.104 124.989 44.984 124.909 46.84V51H123.405V43H124.861V44.168H124.909C125.453 43.288 126.349 42.84 127.501 42.84ZM134.85 43H136.85V44.312H134.85V48.792C134.85 49.48 134.978 49.784 135.682 49.816C136.002 49.832 136.338 49.784 136.61 49.736V50.952C136.274 51.048 135.89 51.096 135.49 51.096C133.954 51.096 133.346 50.296 133.346 48.776V44.312H132.018V43H133.346V41.16L134.85 40.632V43ZM142.704 42.84C144.704 42.84 145.824 44.168 145.824 46.68V51H144.32V46.552C144.32 44.92 143.632 44.104 142.4 44.104C141.136 44.104 140.192 44.984 140.112 46.84V51H138.608V39H140.112V44.152C140.672 43.288 141.552 42.84 142.704 42.84ZM150.037 51.16C149.429 51.16 148.421 51.032 147.701 50.728V49.48C148.389 49.8 149.141 49.944 149.733 49.944C150.485 49.944 151.573 49.704 151.573 48.84C151.573 47.128 147.653 47.64 147.653 45.144C147.653 43.48 148.965 42.856 150.645 42.856C151.365 42.856 151.973 42.968 152.597 43.16V44.408C152.101 44.2 151.381 44.024 150.789 44.024C149.989 44.024 149.125 44.344 149.125 45C149.125 46.648 153.013 46.136 153.013 48.68C153.013 50.376 151.557 51.16 150.037 51.16ZM164.177 51.192C160.945 51.192 158.801 48.888 158.801 45.416C158.801 41.944 160.945 39.64 164.177 39.64C167.409 39.64 169.553 41.944 169.553 45.416C169.553 48.888 167.409 51.192 164.177 51.192ZM164.177 49.784C166.513 49.784 167.905 48.168 167.905 45.416C167.905 42.648 166.513 41.032 164.177 41.048C161.841 41.064 160.449 42.68 160.449 45.416C160.449 48.168 161.841 49.784 164.177 49.784ZM173.142 44.248H173.19C173.798 43.16 174.806 42.68 176.23 42.872V44.136C174.246 43.864 173.27 44.792 173.19 47.064V51H171.686V43H173.142V44.248ZM183.192 44.056V39H184.696V51H183.256V49.848H183.208C182.616 50.68 181.704 51.16 180.616 51.16C178.568 51.16 177.08 49.48 177.08 46.968C177.08 44.488 178.568 42.84 180.6 42.84C181.656 42.84 182.536 43.288 183.144 44.056H183.192ZM181 49.88C182.392 49.88 183.32 48.712 183.32 46.968C183.32 45.256 182.392 44.12 180.984 44.12C179.576 44.12 178.648 45.256 178.648 46.968C178.648 48.712 179.592 49.88 181 49.88ZM190.785 51.16C187.985 51.16 186.689 49.208 186.689 46.872C186.689 44.504 187.969 42.856 190.385 42.856C192.945 42.856 193.937 44.76 193.905 47.336H188.289C188.289 48.92 189.361 49.88 190.849 49.88C191.585 49.88 192.481 49.64 193.473 49.16V50.504C192.625 50.952 191.697 51.16 190.785 51.16ZM188.289 46.152H192.305C192.257 44.92 191.505 44.12 190.337 44.12C189.169 44.12 188.465 44.92 188.289 46.152ZM197.439 44.248H197.487C198.095 43.16 199.103 42.68 200.527 42.872V44.136C198.543 43.864 197.567 44.792 197.487 47.064V51H195.983V43H197.439V44.248ZM203.85 51.16C203.242 51.16 202.234 51.032 201.514 50.728V49.48C202.202 49.8 202.954 49.944 203.546 49.944C204.298 49.944 205.386 49.704 205.386 48.84C205.386 47.128 201.466 47.64 201.466 45.144C201.466 43.48 202.778 42.856 204.458 42.856C205.178 42.856 205.786 42.968 206.41 43.16V44.408C205.914 44.2 205.194 44.024 204.602 44.024C203.802 44.024 202.938 44.344 202.938 45C202.938 46.648 206.826 46.136 206.826 48.68C206.826 50.376 205.37 51.16 203.85 51.16Z" fill="white"/>
<path d="M630.7 54.98C630.7 57.08 629.48 58.42 627.66 58.96V61.08H625.44V59.24C624.38 59.22 623.42 59 622.54 58.62V56.54C623.44 56.96 624.44 57.2 625.38 57.2C626.94 57.2 628.26 56.58 628.26 55.16C628.26 52.18 622.38 52.96 622.38 48.72C622.38 46.76 623.64 45.46 625.44 44.98V42.88H627.66V44.84C628.44 44.9 629.26 45.08 630.02 45.34V47.38C629.04 47.04 627.98 46.82 627.16 46.82C625.9 46.82 624.86 47.34 624.86 48.62C624.86 51.52 630.7 50.38 630.7 54.98ZM642.053 59H633.013V57.06C636.673 53.52 639.373 51.06 639.373 48.92C639.373 47.58 638.253 46.84 636.733 46.84C635.513 46.84 634.373 47.32 633.473 47.92V45.74C634.533 45.2 635.893 44.78 637.333 44.78C639.793 44.78 641.853 46.1 641.853 48.76C641.853 51.28 639.973 53.42 636.433 56.84H642.053V59ZM647.627 59.2C646.307 59.2 645.127 58.96 644.067 58.6V56.34C645.127 56.8 646.187 57.08 647.307 57.08C649.287 57.08 650.587 56.22 650.587 54.92C650.587 53.6 649.307 52.72 647.327 52.72H646.067V50.76H647.227C649.187 50.76 650.447 50.02 650.447 48.7C650.447 47.58 649.527 46.8 647.707 46.8C646.587 46.8 645.647 47.1 644.727 47.54V45.46C645.607 45.08 646.627 44.78 647.967 44.78C651.067 44.78 652.927 46.3 652.927 48.42C652.927 50.02 651.847 51.36 650.147 51.7V51.74C651.907 52.04 653.047 53.46 653.047 55.24C653.047 57.7 650.887 59.2 647.627 59.2ZM659.78 50.08C662.58 50.08 664.4 51.94 664.4 54.58C664.4 57.6 662 59.2 659.14 59.2C658.16 59.2 656.82 59.02 655.6 58.58V56.4C656.76 56.84 658.02 57.12 658.96 57.12C660.78 57.12 661.94 56.1 661.94 54.58C661.94 53.04 660.74 52.14 658.88 52.14C657.84 52.14 656.9 52.46 656.02 52.94V45L663.6 45V47.06L658.38 47.06L658.32 50.22C658.82 50.14 659.32 50.08 659.78 50.08ZM674.913 56.62L678.553 45H682.633V59H680.233V47.2H680.193L676.433 59H673.373L669.593 47.2H669.553V59H667.153V45H671.233L674.913 56.62ZM693.8 56.62L697.44 45H701.52V59L699.12 59V47.2H699.08L695.32 59H692.26L688.48 47.2H688.44V59H686.04V45H690.12L693.8 56.62Z" fill="white"/>
<path d="M605.696 73.194V72.2H613.102V73.194H609.952V82H608.832V73.194H605.696ZM616.342 82.14C614.312 82.14 612.926 80.656 612.926 78.5C612.926 76.344 614.312 74.86 616.342 74.86C618.372 74.86 619.758 76.344 619.758 78.5C619.758 80.656 618.372 82.14 616.342 82.14ZM616.342 81.244C617.728 81.244 618.624 80.152 618.624 78.5C618.624 76.848 617.728 75.756 616.342 75.756C614.956 75.756 614.046 76.848 614.046 78.5C614.046 80.152 614.956 81.244 616.342 81.244ZM622.88 75H624.728V75.924H622.88V80.138C622.88 80.852 623.062 81.146 623.692 81.174C623.93 81.188 624.252 81.146 624.518 81.104V81.972C624.224 82.042 623.888 82.084 623.566 82.084C622.348 82.084 621.816 81.44 621.816 80.124V75.924H620.57V75H621.816V73.348L622.88 72.97V75ZM628.856 74.86C630.998 74.86 631.726 75.98 631.726 77.884V82H630.774V81.02H630.746C630.368 81.566 629.752 82.14 628.436 82.14C627.05 82.14 625.86 81.524 625.86 79.97C625.86 78.164 627.512 77.744 629.038 77.716C629.556 77.702 630.102 77.716 630.676 77.744C630.676 76.344 630.158 75.756 628.702 75.756C627.778 75.756 627.162 76.022 626.602 76.344V75.448C627.204 75.112 627.848 74.86 628.856 74.86ZM628.52 81.272C629.752 81.272 630.648 80.572 630.69 79.368L630.676 78.556C630.27 78.528 629.822 78.514 629.36 78.514C627.834 78.528 626.98 78.99 626.98 79.97C626.98 80.866 627.582 81.272 628.52 81.272ZM635.883 82.07C634.847 82.07 634.217 81.482 634.217 80.012V71.5H635.281V80.082C635.281 80.88 635.491 81.09 635.981 81.132C636.163 81.146 636.331 81.132 636.485 81.118V81.986C636.233 82.056 636.009 82.07 635.883 82.07ZM646.178 82.168C643.364 82.168 641.516 80.152 641.516 77.114C641.516 74.062 643.364 72.06 646.178 72.06C648.992 72.06 650.854 74.062 650.854 77.114C650.854 80.152 648.992 82.168 646.178 82.168ZM646.178 81.16C648.362 81.16 649.692 79.648 649.692 77.114C649.692 74.566 648.362 73.04 646.178 73.054C643.994 73.054 642.664 74.58 642.664 77.114C642.664 79.648 643.994 81.16 646.178 81.16ZM653.897 76.4C654.415 75.238 655.339 74.706 656.697 74.888V75.784C654.891 75.532 653.981 76.54 653.939 78.738V82H652.875V75H653.897V76.4ZM662.942 76.12V71.5H664.006V82H662.984V80.796C662.466 81.65 661.626 82.14 660.562 82.14C658.756 82.14 657.51 80.698 657.51 78.472C657.51 76.274 658.756 74.86 660.562 74.86C661.584 74.86 662.424 75.322 662.942 76.12ZM660.814 81.23C662.158 81.23 663.04 80.152 663.04 78.472C663.04 76.82 662.158 75.77 660.814 75.77C659.456 75.77 658.602 76.82 658.602 78.472C658.602 80.152 659.47 81.23 660.814 81.23ZM669.46 82.14C667.094 82.14 665.918 80.488 665.918 78.388C665.918 76.302 667.038 74.874 669.11 74.874C671.266 74.874 672.176 76.442 672.162 78.696H667.038C667.038 80.222 667.99 81.23 669.502 81.23C670.16 81.23 670.958 81.034 671.784 80.628V81.58C671.056 81.958 670.244 82.14 669.46 82.14ZM667.038 77.842H671.042C671 76.596 670.286 75.77 669.082 75.77C667.892 75.77 667.178 76.568 667.038 77.842ZM675.143 76.4C675.661 75.238 676.585 74.706 677.943 74.888V75.784C676.137 75.532 675.227 76.54 675.185 78.738V82H674.121V75H675.143V76.4ZM686.078 82L682.284 72.2H683.432L686.792 80.908H686.834L690.208 72.2H691.37L687.534 82H686.078ZM694.481 74.86C696.623 74.86 697.351 75.98 697.351 77.884V82H696.399V81.02H696.371C695.993 81.566 695.377 82.14 694.061 82.14C692.675 82.14 691.485 81.524 691.485 79.97C691.485 78.164 693.137 77.744 694.663 77.716C695.181 77.702 695.727 77.716 696.301 77.744C696.301 76.344 695.783 75.756 694.327 75.756C693.403 75.756 692.787 76.022 692.227 76.344V75.448C692.829 75.112 693.473 74.86 694.481 74.86ZM694.145 81.272C695.377 81.272 696.273 80.572 696.315 79.368L696.301 78.556C695.895 78.528 695.447 78.514 694.985 78.514C693.459 78.528 692.605 78.99 692.605 79.97C692.605 80.866 693.207 81.272 694.145 81.272ZM701.508 82.07C700.472 82.07 699.842 81.482 699.842 80.012V71.5H700.906V80.082C700.906 80.88 701.116 81.09 701.606 81.132C701.788 81.146 701.956 81.132 702.11 81.118V81.986C701.858 82.056 701.634 82.07 701.508 82.07ZM706.366 82.14C704.644 82.14 703.678 80.964 703.678 78.78V75H704.728V78.864C704.728 80.418 705.386 81.244 706.576 81.244C707.78 81.244 708.69 80.39 708.76 78.668V75H709.824V82H708.802V80.74C708.312 81.664 707.472 82.14 706.366 82.14ZM715.288 82.14C712.922 82.14 711.746 80.488 711.746 78.388C711.746 76.302 712.866 74.874 714.938 74.874C717.094 74.874 718.004 76.442 717.99 78.696H712.866C712.866 80.222 713.818 81.23 715.33 81.23C715.988 81.23 716.786 81.034 717.612 80.628V81.58C716.884 81.958 716.072 82.14 715.288 82.14ZM712.866 77.842H716.87C716.828 76.596 716.114 75.77 714.91 75.77C713.72 75.77 713.006 76.568 712.866 77.842Z" fill="white"/>
<path d="M60.944 109V101.692L59.42 102.988L58.904 102.352L61.04 100.6H61.904V109H60.944ZM69.7 100.732V101.656C69.148 101.428 68.512 101.32 68.056 101.32C66.268 101.332 65.752 103.072 65.728 104.596V104.716C66.028 104.164 66.664 103.672 67.732 103.672C69.352 103.672 70.276 104.752 70.276 106.384C70.276 108.088 69.244 109.12 67.6 109.12C65.368 109.12 64.84 107.164 64.828 105.328C64.792 102.736 65.5 100.468 68.044 100.468C68.668 100.468 69.256 100.6 69.7 100.732ZM69.28 106.396C69.28 105.268 68.656 104.512 67.6 104.512C66.556 104.512 65.86 105.316 65.872 106.36C65.884 107.44 66.52 108.268 67.576 108.268C68.584 108.268 69.28 107.56 69.28 106.396ZM74.0759 103.804C75.7079 103.804 76.7879 104.872 76.7879 106.432C76.7879 108.208 75.3719 109.12 73.7159 109.12C73.1639 109.12 72.3959 109.012 71.6879 108.76V107.8C72.3239 108.052 73.0679 108.232 73.6799 108.232C74.9759 108.232 75.7919 107.56 75.7919 106.432C75.7919 105.304 74.9879 104.68 73.7159 104.68C73.0319 104.68 72.4679 104.884 71.9399 105.148V100.6H76.3079V101.452H72.8999L72.8759 103.96C73.2719 103.864 73.6799 103.804 74.0759 103.804ZM78.0319 104.8C78.0319 102.748 78.6679 100.48 80.8399 100.48C83.0119 100.48 83.6599 102.748 83.6599 104.8C83.6599 106.852 83.0119 109.12 80.8399 109.12C78.6679 109.12 78.0319 106.852 78.0319 104.8ZM79.0279 104.8C79.0279 106.228 79.3639 108.268 80.8399 108.268C82.3279 108.268 82.6519 106.228 82.6519 104.8C82.6519 103.36 82.2799 101.332 80.8399 101.332C79.3999 101.332 79.0279 103.36 79.0279 104.8ZM84.6999 104.8C84.6999 102.748 85.3359 100.48 87.5079 100.48C89.6799 100.48 90.3279 102.748 90.3279 104.8C90.3279 106.852 89.6799 109.12 87.5079 109.12C85.3359 109.12 84.6999 106.852 84.6999 104.8ZM85.6959 104.8C85.6959 106.228 86.0319 108.268 87.5079 108.268C88.9959 108.268 89.3199 106.228 89.3199 104.8C89.3199 103.36 88.9479 101.332 87.5079 101.332C86.0679 101.332 85.6959 103.36 85.6959 104.8ZM91.3678 104.8C91.3678 102.748 92.0038 100.48 94.1758 100.48C96.3478 100.48 96.9958 102.748 96.9958 104.8C96.9958 106.852 96.3478 109.12 94.1758 109.12C92.0038 109.12 91.3678 106.852 91.3678 104.8ZM92.3638 104.8C92.3638 106.228 92.6998 108.268 94.1758 108.268C95.6638 108.268 95.9878 106.228 95.9878 104.8C95.9878 103.36 95.6158 101.332 94.1758 101.332C92.7358 101.332 92.3638 103.36 92.3638 104.8ZM98.0358 104.8C98.0358 102.748 98.6718 100.48 100.844 100.48C103.016 100.48 103.664 102.748 103.664 104.8C103.664 106.852 103.016 109.12 100.844 109.12C98.6718 109.12 98.0358 106.852 98.0358 104.8ZM99.0318 104.8C99.0318 106.228 99.3678 108.268 100.844 108.268C102.332 108.268 102.656 106.228 102.656 104.8C102.656 103.36 102.284 101.332 100.844 101.332C99.4038 101.332 99.0318 103.36 99.0318 104.8Z" fill="white"/>
<path d="M60.944 137.199V129.891L59.42 131.187L58.904 130.551L61.04 128.799H61.904V137.199H60.944ZM66.82 137.319C66.088 137.319 65.356 137.175 64.768 136.983V136.035C65.392 136.275 66.04 136.443 66.724 136.443C68.104 136.443 68.98 135.819 68.98 134.859C68.98 133.863 68.044 133.263 66.64 133.263H65.944V132.411H66.58C67.972 132.411 68.908 131.907 68.908 130.935C68.908 130.083 68.212 129.519 66.952 129.519C66.244 129.519 65.668 129.699 65.152 129.939V129.063C65.656 128.835 66.268 128.667 67.024 128.667C68.824 128.667 69.904 129.615 69.904 130.839C69.904 131.835 69.208 132.627 68.092 132.819V132.843C69.256 132.999 69.976 133.851 69.976 134.943C69.976 136.371 68.74 137.319 66.82 137.319ZM71.3639 132.999C71.3639 130.947 71.9999 128.679 74.1719 128.679C76.3439 128.679 76.9919 130.947 76.9919 132.999C76.9919 135.051 76.3439 137.319 74.1719 137.319C71.9999 137.319 71.3639 135.051 71.3639 132.999ZM72.3599 132.999C72.3599 134.427 72.6959 136.467 74.1719 136.467C75.6599 136.467 75.9839 134.427 75.9839 132.999C75.9839 131.559 75.6119 129.531 74.1719 129.531C72.7319 129.531 72.3599 131.559 72.3599 132.999ZM78.0319 132.999C78.0319 130.947 78.6679 128.679 80.8399 128.679C83.0119 128.679 83.6599 130.947 83.6599 132.999C83.6599 135.051 83.0119 137.319 80.8399 137.319C78.6679 137.319 78.0319 135.051 78.0319 132.999ZM79.0279 132.999C79.0279 134.427 79.3639 136.467 80.8399 136.467C82.3279 136.467 82.6519 134.427 82.6519 132.999C82.6519 131.559 82.2799 129.531 80.8399 129.531C79.3999 129.531 79.0279 131.559 79.0279 132.999ZM84.6999 132.999C84.6999 130.947 85.3359 128.679 87.5079 128.679C89.6799 128.679 90.3279 130.947 90.3279 132.999C90.3279 135.051 89.6799 137.319 87.5079 137.319C85.3359 137.319 84.6999 135.051 84.6999 132.999ZM85.6959 132.999C85.6959 134.427 86.0319 136.467 87.5079 136.467C88.9959 136.467 89.3199 134.427 89.3199 132.999C89.3199 131.559 88.9479 129.531 87.5079 129.531C86.0679 129.531 85.6959 131.559 85.6959 132.999ZM91.3678 132.999C91.3678 130.947 92.0038 128.679 94.1758 128.679C96.3478 128.679 96.9958 130.947 96.9958 132.999C96.9958 135.051 96.3478 137.319 94.1758 137.319C92.0038 137.319 91.3678 135.051 91.3678 132.999ZM92.3638 132.999C92.3638 134.427 92.6998 136.467 94.1758 136.467C95.6638 136.467 95.9878 134.427 95.9878 132.999C95.9878 131.559 95.6158 129.531 94.1758 129.531C92.7358 129.531 92.3638 131.559 92.3638 132.999ZM98.0358 132.999C98.0358 130.947 98.6718 128.679 100.844 128.679C103.016 128.679 103.664 130.947 103.664 132.999C103.664 135.051 103.016 137.319 100.844 137.319C98.6718 137.319 98.0358 135.051 98.0358 132.999ZM99.0318 132.999C99.0318 134.427 99.3678 136.467 100.844 136.467C102.332 136.467 102.656 134.427 102.656 132.999C102.656 131.559 102.284 129.531 100.844 129.531C99.4038 129.531 99.0318 131.559 99.0318 132.999Z" fill="white"/>
<path d="M64.664 165.268V164.344C65.216 164.572 65.852 164.68 66.296 164.68C68.096 164.668 68.6 162.928 68.624 161.404V161.272C68.336 161.836 67.688 162.328 66.62 162.328C65 162.328 64.088 161.248 64.088 159.616C64.088 157.912 65.108 156.88 66.752 156.88C68.984 156.88 69.512 158.824 69.536 160.66C69.56 163.264 68.864 165.532 66.308 165.532C65.684 165.532 65.108 165.4 64.664 165.268ZM65.072 159.604C65.072 160.732 65.696 161.488 66.752 161.488C67.796 161.488 68.492 160.672 68.48 159.628C68.468 158.56 67.832 157.732 66.776 157.732C65.768 157.732 65.072 158.44 65.072 159.604ZM76.036 157V157.816L72.94 165.4H71.968L75.052 157.852H70.792V157H76.036ZM80.0759 160.204C81.7079 160.204 82.7879 161.272 82.7879 162.832C82.7879 164.608 81.3719 165.52 79.7159 165.52C79.1639 165.52 78.3959 165.412 77.6879 165.16V164.2C78.3239 164.452 79.0679 164.632 79.6799 164.632C80.9759 164.632 81.7919 163.96 81.7919 162.832C81.7919 161.704 80.9879 161.08 79.7159 161.08C79.0319 161.08 78.4679 161.284 77.9399 161.548V157H82.3079V157.852H78.8999L78.8759 160.36C79.2719 160.264 79.6799 160.204 80.0759 160.204ZM84.0319 161.2C84.0319 159.148 84.6679 156.88 86.8399 156.88C89.0119 156.88 89.6599 159.148 89.6599 161.2C89.6599 163.252 89.0119 165.52 86.8399 165.52C84.6679 165.52 84.0319 163.252 84.0319 161.2ZM85.0279 161.2C85.0279 162.628 85.3639 164.668 86.8399 164.668C88.3279 164.668 88.6519 162.628 88.6519 161.2C88.6519 159.76 88.2799 157.732 86.8399 157.732C85.3999 157.732 85.0279 159.76 85.0279 161.2ZM90.6999 161.2C90.6999 159.148 91.3359 156.88 93.5079 156.88C95.6799 156.88 96.3279 159.148 96.3279 161.2C96.3279 163.252 95.6799 165.52 93.5079 165.52C91.3359 165.52 90.6999 163.252 90.6999 161.2ZM91.6959 161.2C91.6959 162.628 92.0319 164.668 93.5079 164.668C94.9959 164.668 95.3199 162.628 95.3199 161.2C95.3199 159.76 94.9479 157.732 93.5079 157.732C92.0679 157.732 91.6959 159.76 91.6959 161.2ZM97.3678 161.2C97.3678 159.148 98.0038 156.88 100.176 156.88C102.348 156.88 102.996 159.148 102.996 161.2C102.996 163.252 102.348 165.52 100.176 165.52C98.0038 165.52 97.3678 163.252 97.3678 161.2ZM98.3638 161.2C98.3638 162.628 98.6998 164.668 100.176 164.668C101.664 164.668 101.988 162.628 101.988 161.2C101.988 159.76 101.616 157.732 100.176 157.732C98.7358 157.732 98.3638 159.76 98.3638 161.2Z" fill="white"/>
<path d="M69.032 185.332V186.256C68.48 186.028 67.844 185.92 67.388 185.92C65.6 185.932 65.084 187.672 65.06 189.196V189.316C65.36 188.764 65.996 188.272 67.064 188.272C68.684 188.272 69.608 189.352 69.608 190.984C69.608 192.688 68.576 193.72 66.932 193.72C64.7 193.72 64.172 191.764 64.16 189.928C64.124 187.336 64.832 185.068 67.376 185.068C68 185.068 68.588 185.2 69.032 185.332ZM68.612 190.996C68.612 189.868 67.988 189.112 66.932 189.112C65.888 189.112 65.192 189.916 65.204 190.96C65.216 192.04 65.852 192.868 66.908 192.868C67.916 192.868 68.612 192.16 68.612 190.996ZM73.408 188.404C75.04 188.404 76.12 189.472 76.12 191.032C76.12 192.808 74.704 193.72 73.048 193.72C72.496 193.72 71.728 193.612 71.02 193.36V192.4C71.656 192.652 72.4 192.832 73.012 192.832C74.308 192.832 75.124 192.16 75.124 191.032C75.124 189.904 74.32 189.28 73.048 189.28C72.364 189.28 71.8 189.484 71.272 189.748V185.2H75.64V186.052H72.232L72.208 188.56C72.604 188.464 73.012 188.404 73.408 188.404ZM77.3639 189.4C77.3639 187.348 77.9999 185.08 80.1719 185.08C82.3439 185.08 82.9919 187.348 82.9919 189.4C82.9919 191.452 82.3439 193.72 80.1719 193.72C77.9999 193.72 77.3639 191.452 77.3639 189.4ZM78.3599 189.4C78.3599 190.828 78.6959 192.868 80.1719 192.868C81.6599 192.868 81.9839 190.828 81.9839 189.4C81.9839 187.96 81.6119 185.932 80.1719 185.932C78.7319 185.932 78.3599 187.96 78.3599 189.4ZM84.0319 189.4C84.0319 187.348 84.6679 185.08 86.8399 185.08C89.0119 185.08 89.6599 187.348 89.6599 189.4C89.6599 191.452 89.0119 193.72 86.8399 193.72C84.6679 193.72 84.0319 191.452 84.0319 189.4ZM85.0279 189.4C85.0279 190.828 85.3639 192.868 86.8399 192.868C88.3279 192.868 88.6519 190.828 88.6519 189.4C88.6519 187.96 88.2799 185.932 86.8399 185.932C85.3999 185.932 85.0279 187.96 85.0279 189.4ZM90.6999 189.4C90.6999 187.348 91.3359 185.08 93.5079 185.08C95.6799 185.08 96.3279 187.348 96.3279 189.4C96.3279 191.452 95.6799 193.72 93.5079 193.72C91.3359 193.72 90.6999 191.452 90.6999 189.4ZM91.6959 189.4C91.6959 190.828 92.0319 192.868 93.5079 192.868C94.9959 192.868 95.3199 190.828 95.3199 189.4C95.3199 187.96 94.9479 185.932 93.5079 185.932C92.0679 185.932 91.6959 187.96 91.6959 189.4ZM97.3678 189.4C97.3678 187.348 98.0038 185.08 100.176 185.08C102.348 185.08 102.996 187.348 102.996 189.4C102.996 191.452 102.348 193.72 100.176 193.72C98.0038 193.72 97.3678 191.452 97.3678 189.4ZM98.3638 189.4C98.3638 190.828 98.6998 192.868 100.176 192.868C101.664 192.868 101.988 190.828 101.988 189.4C101.988 187.96 101.616 185.932 100.176 185.932C98.7358 185.932 98.3638 187.96 98.3638 189.4Z" fill="white"/>
<path d="M66.152 221.921C65.42 221.921 64.688 221.777 64.1 221.585V220.637C64.724 220.877 65.372 221.045 66.056 221.045C67.436 221.045 68.312 220.421 68.312 219.461C68.312 218.465 67.376 217.865 65.972 217.865H65.276V217.013H65.912C67.304 217.013 68.24 216.509 68.24 215.537C68.24 214.685 67.544 214.121 66.284 214.121C65.576 214.121 65 214.301 64.484 214.541V213.665C64.988 213.437 65.6 213.269 66.356 213.269C68.156 213.269 69.236 214.217 69.236 215.441C69.236 216.437 68.54 217.229 67.424 217.421V217.445C68.588 217.601 69.308 218.453 69.308 219.545C69.308 220.973 68.072 221.921 66.152 221.921ZM76.048 221.801H70.804V220.925C73.192 218.561 74.932 217.097 74.932 215.693C74.932 214.637 74.08 214.121 73.084 214.121C72.328 214.121 71.584 214.409 71.068 214.733V213.821C71.704 213.497 72.52 213.269 73.3 213.269C74.788 213.269 75.928 214.121 75.928 215.681C75.928 217.289 74.548 218.525 72.148 220.889H76.048V221.801ZM80.0759 216.605C81.7079 216.605 82.7879 217.673 82.7879 219.233C82.7879 221.009 81.3719 221.921 79.7159 221.921C79.1639 221.921 78.3959 221.813 77.6879 221.561V220.601C78.3239 220.853 79.0679 221.033 79.6799 221.033C80.9759 221.033 81.7919 220.361 81.7919 219.233C81.7919 218.105 80.9879 217.481 79.7159 217.481C79.0319 217.481 78.4679 217.685 77.9399 217.949V213.401H82.3079V214.253H78.8999L78.8759 216.761C79.2719 216.665 79.6799 216.605 80.0759 216.605ZM84.0319 217.601C84.0319 215.549 84.6679 213.281 86.8399 213.281C89.0119 213.281 89.6599 215.549 89.6599 217.601C89.6599 219.653 89.0119 221.921 86.8399 221.921C84.6679 221.921 84.0319 219.653 84.0319 217.601ZM85.0279 217.601C85.0279 219.029 85.3639 221.069 86.8399 221.069C88.3279 221.069 88.6519 219.029 88.6519 217.601C88.6519 216.161 88.2799 214.133 86.8399 214.133C85.3999 214.133 85.0279 216.161 85.0279 217.601ZM90.6999 217.601C90.6999 215.549 91.3359 213.281 93.5079 213.281C95.6799 213.281 96.3279 215.549 96.3279 217.601C96.3279 219.653 95.6799 221.921 93.5079 221.921C91.3359 221.921 90.6999 219.653 90.6999 217.601ZM91.6959 217.601C91.6959 219.029 92.0319 221.069 93.5079 221.069C94.9959 221.069 95.3199 219.029 95.3199 217.601C95.3199 216.161 94.9479 214.133 93.5079 214.133C92.0679 214.133 91.6959 216.161 91.6959 217.601ZM97.3678 217.601C97.3678 215.549 98.0038 213.281 100.176 213.281C102.348 213.281 102.996 215.549 102.996 217.601C102.996 219.653 102.348 221.921 100.176 221.921C98.0038 221.921 97.3678 219.653 97.3678 217.601ZM98.3638 217.601C98.3638 219.029 98.6998 221.069 100.176 221.069C101.664 221.069 101.988 219.029 101.988 217.601C101.988 216.161 101.616 214.133 100.176 214.133C98.7358 214.133 98.3638 216.161 98.3638 217.601Z" fill="white"/>
<path d="M98.028 245.8C98.028 243.748 98.664 241.48 100.836 241.48C103.008 241.48 103.656 243.748 103.656 245.8C103.656 247.852 103.008 250.12 100.836 250.12C98.664 250.12 98.028 247.852 98.028 245.8ZM99.024 245.8C99.024 247.228 99.36 249.268 100.836 249.268C102.324 249.268 102.648 247.228 102.648 245.8C102.648 244.36 102.276 242.332 100.836 242.332C99.396 242.332 99.024 244.36 99.024 245.8Z" fill="white"/>
<line x1="109.5" y1="103.5" x2="719.5" y2="103.5" stroke="#A5A5A5" stroke-dasharray="2"/>
<line x1="109.5" y1="132.1" x2="719.5" y2="132.1" stroke="#A5A5A5" stroke-dasharray="2"/>
<line x1="109.5" y1="160.699" x2="719.5" y2="160.699" stroke="#A5A5A5" stroke-dasharray="2"/>
<line x1="109.5" y1="189.301" x2="719.5" y2="189.301" stroke="#A5A5A5" stroke-dasharray="2"/>
<line x1="109.5" y1="217.9" x2="719.5" y2="217.9" stroke="#A5A5A5" stroke-dasharray="2"/>
<line x1="109.5" y1="246.5" x2="719.5" y2="246.5" stroke="white"/>
<line x1="109" y1="247" x2="109" y2="104" stroke="#A5A5A5" stroke-dasharray="2"/>
<line x1="159.833" y1="247" x2="159.833" y2="104" stroke="#A5A5A5" stroke-dasharray="2"/>
<line x1="210.667" y1="247" x2="210.667" y2="104" stroke="#A5A5A5" stroke-dasharray="2"/>
<line x1="261.5" y1="247" x2="261.5" y2="104" stroke="#A5A5A5" stroke-dasharray="2"/>
<line x1="312.333" y1="247" x2="312.333" y2="104" stroke="#A5A5A5" stroke-dasharray="2"/>
<line x1="363.167" y1="247" x2="363.167" y2="104" stroke="#A5A5A5" stroke-dasharray="2"/>
<line x1="414" y1="247" x2="414" y2="104" stroke="#A5A5A5" stroke-dasharray="2"/>
<line x1="464.833" y1="247" x2="464.833" y2="104" stroke="#A5A5A5" stroke-dasharray="2"/>
<line x1="515.667" y1="247" x2="515.667" y2="104" stroke="#A5A5A5" stroke-dasharray="2"/>
<line x1="566.5" y1="247" x2="566.5" y2="104" stroke="#A5A5A5" stroke-dasharray="2"/>
<line x1="617.333" y1="247" x2="617.333" y2="104" stroke="#A5A5A5" stroke-dasharray="2"/>
<line x1="668.167" y1="247" x2="668.167" y2="104" stroke="#A5A5A5" stroke-dasharray="2"/>
<line x1="719" y1="247" x2="719" y2="104" stroke="#A5A5A5" stroke-dasharray="2"/>
<path d="M134 163.355C159.5 163.355 159.5 184.43 185 184.43C210.5 184.43 210.5 223.642 236 223.642C261.5 223.642 261.5 129.174 287 129.174C312.5 129.174 312.5 199.11 338 199.11C363.5 199.11 363.5 172.381 389 172.381C414.5 172.381 414.5 157.628 440 157.628C465.5 157.628 465.5 173.609 491 173.609C516.5 173.609 516.5 143.839 542 143.839C567.5 143.839 567.5 166.193 593 166.193C618.5 166.193 618.5 190.162 644 190.162C669.5 190.162 669.5 181.119 695 181.119M695 181.119V181.119Z" stroke="#5899DA" stroke-width="2"/>
<circle opacity="0.25" cx="134" cy="163.355" r="8" fill="#5899DA"/>
<circle cx="134" cy="163.355" r="3.5" fill="#5899DA" stroke="white"/>
<circle opacity="0.25" cx="185" cy="184.43" r="8" fill="#5899DA"/>
<circle cx="185" cy="184.43" r="3.5" fill="#5899DA" stroke="white"/>
<circle opacity="0.25" cx="236" cy="223.643" r="8" fill="#5899DA"/>
<circle cx="236" cy="223.643" r="3.5" fill="#5899DA" stroke="white"/>
<circle opacity="0.25" cx="287" cy="129.174" r="8" fill="#5899DA"/>
<circle cx="287" cy="129.174" r="3.5" fill="#5899DA" stroke="white"/>
<circle opacity="0.25" cx="338" cy="199.109" r="8" fill="#5899DA"/>
<circle cx="338" cy="199.109" r="3.5" fill="#5899DA" stroke="white"/>
<circle opacity="0.25" cx="389" cy="172.381" r="8" fill="#5899DA"/>
<circle cx="389" cy="172.381" r="3.5" fill="#5899DA" stroke="white"/>
<circle opacity="0.25" cx="440" cy="157.627" r="8" fill="#5899DA"/>
<circle cx="440" cy="157.627" r="3.5" fill="#5899DA" stroke="white"/>
<circle opacity="0.25" cx="491" cy="173.609" r="8" fill="#5899DA"/>
<circle cx="491" cy="173.609" r="3.5" fill="#5899DA" stroke="white"/>
<circle opacity="0.25" cx="542" cy="143.838" r="8" fill="#5899DA"/>
<circle cx="542" cy="143.838" r="3.5" fill="#5899DA" stroke="white"/>
<circle opacity="0.25" cx="593" cy="166.193" r="8" fill="#5899DA"/>
<circle cx="593" cy="166.193" r="3.5" fill="#5899DA" stroke="white"/>
<circle opacity="0.25" cx="644" cy="190.162" r="8" fill="#5899DA"/>
<circle cx="644" cy="190.162" r="3.5" fill="#5899DA" stroke="white"/>
<circle opacity="0.25" cx="695" cy="181.119" r="8" fill="#5899DA"/>
<circle cx="695" cy="181.119" r="3.5" fill="#5899DA" stroke="white"/>
<path d="M128.957 262.036V261.22C129.305 261.268 129.617 261.304 129.905 261.268C130.709 261.184 131.033 260.62 131.033 259.612V253.6H131.993V259.684C131.993 261.412 131.057 262.06 130.037 262.132C129.713 262.156 129.365 262.12 128.957 262.036ZM136.278 255.88C138.114 255.88 138.738 256.84 138.738 258.472V262H137.922V261.16H137.898C137.574 261.628 137.046 262.12 135.918 262.12C134.73 262.12 133.71 261.592 133.71 260.26C133.71 258.712 135.126 258.352 136.434 258.328C136.878 258.316 137.346 258.328 137.838 258.352C137.838 257.152 137.394 256.648 136.146 256.648C135.354 256.648 134.826 256.876 134.346 257.152V256.384C134.862 256.096 135.414 255.88 136.278 255.88ZM135.99 261.376C137.046 261.376 137.814 260.776 137.85 259.744L137.838 259.048C137.49 259.024 137.106 259.012 136.71 259.012C135.402 259.024 134.67 259.42 134.67 260.26C134.67 261.028 135.186 261.376 135.99 261.376ZM143.693 255.88C145.169 255.88 146.009 256.888 146.009 258.76V262H145.097V258.688C145.097 257.344 144.533 256.648 143.513 256.648C142.481 256.648 141.701 257.38 141.641 258.856V262H140.729V256H141.617V257.08C142.025 256.288 142.745 255.88 143.693 255.88Z" fill="white"/>
<path d="M184.168 253.6V254.452H180.496V257.224H183.856V258.076H180.496V262H179.536V253.6H184.168ZM188.35 262.12C186.322 262.12 185.314 260.704 185.314 258.904C185.314 257.116 186.274 255.892 188.05 255.892C189.898 255.892 190.678 257.236 190.666 259.168H186.274C186.274 260.476 187.09 261.34 188.386 261.34C188.95 261.34 189.634 261.172 190.342 260.824V261.64C189.718 261.964 189.022 262.12 188.35 262.12ZM186.274 258.436H189.706C189.67 257.368 189.058 256.66 188.026 256.66C187.006 256.66 186.394 257.344 186.274 258.436ZM195.309 255.88C196.845 255.88 197.925 257.092 197.925 258.976C197.925 260.884 196.845 262.12 195.297 262.12C194.397 262.12 193.665 261.7 193.221 260.968V262H192.345V253H193.257V256.96C193.701 256.276 194.421 255.88 195.309 255.88ZM195.081 261.34C196.233 261.34 196.977 260.416 196.977 258.976C196.977 257.56 196.245 256.66 195.093 256.66C193.929 256.66 193.185 257.56 193.185 258.976C193.185 260.416 193.929 261.34 195.081 261.34Z" fill="white"/>
<path d="M233.575 261.004L236.527 253.6H238.123V262H237.163V254.596H237.139L234.175 262H232.963L229.999 254.596H229.975V262H229.015V253.6H230.611L233.575 261.004ZM242.387 255.88C244.223 255.88 244.847 256.84 244.847 258.472V262H244.031V261.16H244.007C243.683 261.628 243.155 262.12 242.027 262.12C240.839 262.12 239.819 261.592 239.819 260.26C239.819 258.712 241.235 258.352 242.543 258.328C242.987 258.316 243.455 258.328 243.947 258.352C243.947 257.152 243.503 256.648 242.255 256.648C241.463 256.648 240.935 256.876 240.455 257.152V256.384C240.971 256.096 241.523 255.88 242.387 255.88ZM242.099 261.376C243.155 261.376 243.923 260.776 243.959 259.744L243.947 259.048C243.599 259.024 243.215 259.012 242.819 259.012C241.511 259.024 240.779 259.42 240.779 260.26C240.779 261.028 241.295 261.376 242.099 261.376ZM247.714 257.2C248.158 256.204 248.95 255.748 250.114 255.904V256.672C248.566 256.456 247.786 257.32 247.75 259.204V262H246.838V256H247.714V257.2Z" fill="white"/>
<path d="M279.73 262L283.39 253.6H284.398L288.046 262H286.99L286.078 259.792H281.65L280.738 262H279.73ZM283.87 254.512L281.986 259H285.742L283.87 254.512ZM292.23 255.88C293.778 255.88 294.846 257.092 294.846 258.976C294.846 260.884 293.778 262.12 292.218 262.12C291.318 262.12 290.598 261.7 290.154 260.98V264.4H289.278V256H290.19V256.948C290.646 256.264 291.354 255.88 292.23 255.88ZM292.002 261.34C293.166 261.34 293.898 260.416 293.898 258.976C293.898 257.56 293.166 256.66 292.014 256.66C290.862 256.66 290.106 257.56 290.106 258.976C290.106 260.416 290.862 261.34 292.002 261.34ZM297.396 257.2C297.84 256.204 298.632 255.748 299.796 255.904V256.672C298.248 256.456 297.468 257.32 297.432 259.204V262H296.52V256H297.396V257.2Z" fill="white"/>
<path d="M334.153 261.004L337.105 253.6H338.701V262H337.741V254.596H337.717L334.753 262H333.541L330.577 254.596H330.553V262H329.593V253.6H331.189L334.153 261.004ZM342.965 255.88C344.801 255.88 345.425 256.84 345.425 258.472V262H344.609V261.16H344.585C344.261 261.628 343.733 262.12 342.605 262.12C341.417 262.12 340.397 261.592 340.397 260.26C340.397 258.712 341.813 258.352 343.121 258.328C343.565 258.316 344.033 258.328 344.525 258.352C344.525 257.152 344.081 256.648 342.833 256.648C342.041 256.648 341.513 256.876 341.033 257.152V256.384C341.549 256.096 342.101 255.88 342.965 255.88ZM342.677 261.376C343.733 261.376 344.501 260.776 344.537 259.744L344.525 259.048C344.177 259.024 343.793 259.012 343.397 259.012C342.089 259.024 341.357 259.42 341.357 260.26C341.357 261.028 341.873 261.376 342.677 261.376ZM349.336 261.34L351.364 256H352.288L349.744 262.696C349.36 263.716 348.88 264.604 347.836 264.616C347.608 264.616 347.272 264.58 346.972 264.52V263.74C347.224 263.788 347.56 263.836 347.8 263.824C348.484 263.74 348.76 262.888 349.048 262.108L349.084 262.012H348.688L346.444 256H347.368L349.336 261.34Z" fill="white"/>
<path d="M381.892 262.036V261.22C382.24 261.268 382.552 261.304 382.84 261.268C383.644 261.184 383.968 260.62 383.968 259.612V253.6H384.928V259.684C384.928 261.412 383.992 262.06 382.972 262.132C382.648 262.156 382.3 262.12 381.892 262.036ZM389.357 262.12C387.881 262.12 387.053 261.112 387.053 259.24V256H387.953V259.312C387.953 260.644 388.517 261.352 389.537 261.352C390.569 261.352 391.349 260.62 391.409 259.144V256H392.321V262H391.445V260.92C391.025 261.712 390.305 262.12 389.357 262.12ZM397.425 255.88C398.901 255.88 399.741 256.888 399.741 258.76V262H398.829V258.688C398.829 257.344 398.265 256.648 397.245 256.648C396.213 256.648 395.433 257.38 395.373 258.856V262H394.461V256H395.349V257.08C395.757 256.288 396.477 255.88 397.425 255.88Z" fill="white"/>
<path d="M434.475 262.036V261.22C434.823 261.268 435.135 261.304 435.423 261.268C436.227 261.184 436.551 260.62 436.551 259.612V253.6H437.511V259.684C437.511 261.412 436.575 262.06 435.555 262.132C435.231 262.156 434.883 262.12 434.475 262.036ZM441.94 262.12C440.464 262.12 439.636 261.112 439.636 259.24V256H440.536V259.312C440.536 260.644 441.1 261.352 442.12 261.352C443.152 261.352 443.932 260.62 443.992 259.144V256H444.904V262H444.028V260.92C443.608 261.712 442.888 262.12 441.94 262.12ZM448.616 262.06C447.728 262.06 447.188 261.556 447.188 260.296V253H448.1V260.356C448.1 261.04 448.28 261.22 448.7 261.256C448.856 261.268 449 261.256 449.132 261.244V261.988C448.916 262.048 448.724 262.06 448.616 262.06Z" fill="white"/>
<path d="M481.078 262L484.738 253.6H485.746L489.394 262H488.338L487.426 259.792H482.998L482.086 262H481.078ZM485.218 254.512L483.334 259H487.09L485.218 254.512ZM492.859 262.12C491.383 262.12 490.555 261.112 490.555 259.24V256H491.455V259.312C491.455 260.644 492.019 261.352 493.039 261.352C494.071 261.352 494.851 260.62 494.911 259.144V256H495.823V262H494.947V260.92C494.527 261.712 493.807 262.12 492.859 262.12ZM502.138 256.96V256H503.038V261.52C503.038 263.416 502.042 264.664 500.026 264.664C499.318 264.664 498.562 264.508 497.914 264.22V263.368C498.454 263.596 499.174 263.8 499.906 263.8C501.07 263.8 502.138 263.26 502.138 261.712V261.028C501.694 261.724 500.986 262.12 500.098 262.12C498.55 262.12 497.482 260.884 497.482 258.976C497.482 257.092 498.55 255.88 500.098 255.88C500.974 255.88 501.694 256.276 502.138 256.96ZM500.314 261.34C501.466 261.34 502.222 260.416 502.222 258.976C502.222 257.56 501.466 256.66 500.314 256.66C499.15 256.66 498.418 257.56 498.418 258.976C498.418 260.416 499.162 261.34 500.314 261.34Z" fill="white"/>
<path d="M535.76 262.144C535.064 262.144 534.488 262 533.972 261.772V260.884C534.452 261.124 535.04 261.28 535.664 261.28C536.828 261.28 537.704 260.752 537.704 259.732C537.704 257.608 533.876 258.34 533.876 255.748C533.876 254.332 534.98 253.48 536.528 253.48C537.092 253.48 537.704 253.588 538.292 253.792V254.656C537.704 254.464 537.08 254.332 536.564 254.332C535.64 254.332 534.872 254.752 534.872 255.664C534.872 257.596 538.688 256.84 538.688 259.684C538.688 261.28 537.476 262.144 535.76 262.144ZM542.888 262.12C540.86 262.12 539.852 260.704 539.852 258.904C539.852 257.116 540.812 255.892 542.588 255.892C544.436 255.892 545.216 257.236 545.204 259.168H540.812C540.812 260.476 541.628 261.34 542.924 261.34C543.488 261.34 544.172 261.172 544.88 260.824V261.64C544.256 261.964 543.56 262.12 542.888 262.12ZM540.812 258.436H544.244C544.208 257.368 543.596 256.66 542.564 256.66C541.544 256.66 540.932 257.344 540.812 258.436ZM549.835 255.88C551.383 255.88 552.451 257.092 552.451 258.976C552.451 260.884 551.383 262.12 549.823 262.12C548.923 262.12 548.203 261.7 547.759 260.98V264.4H546.883V256H547.795V256.948C548.251 256.264 548.959 255.88 549.835 255.88ZM549.607 261.34C550.771 261.34 551.503 260.416 551.503 258.976C551.503 257.56 550.771 256.66 549.619 256.66C548.467 256.66 547.711 257.56 547.711 258.976C547.711 260.416 548.467 261.34 549.607 261.34Z" fill="white"/>
<path d="M589.074 262.144C586.662 262.144 585.078 260.416 585.078 257.812C585.078 255.196 586.662 253.48 589.074 253.48C591.486 253.48 593.082 255.196 593.082 257.812C593.082 260.416 591.486 262.144 589.074 262.144ZM589.074 261.28C590.946 261.28 592.086 259.984 592.086 257.812C592.086 255.628 590.946 254.32 589.074 254.332C587.202 254.332 586.062 255.64 586.062 257.812C586.062 259.984 587.202 261.28 589.074 261.28ZM602.877 256V256.792H601.293V260.404C601.293 261.016 601.449 261.268 601.989 261.292C602.193 261.304 602.469 261.268 602.697 261.232V261.976C602.445 262.036 602.157 262.072 601.881 262.072C600.837 262.072 600.381 261.52 600.381 260.392V256.792H600.117C599.241 256.792 599.553 257.236 598.605 256.9C598.185 256.756 597.705 256.672 597.261 256.696C596.037 256.78 595.161 257.668 595.161 259C595.161 260.332 596.037 261.232 597.273 261.292C597.777 261.316 598.329 261.22 598.881 260.992V261.808C598.377 262.024 597.837 262.12 597.321 262.12C595.485 262.12 594.201 260.836 594.201 259C594.201 257.164 595.485 255.88 597.321 255.88C597.777 255.88 598.197 255.988 598.569 256.108C599.601 256.432 599.361 256 600.117 256H600.381V254.584L601.293 254.26V256H602.877Z" fill="white"/>
<path d="M634.764 262V253.6H636.156L640.272 260.644H640.296V253.6H641.256V262H639.936L635.748 254.764H635.724V262H634.764ZM645.848 262.12C644.108 262.12 642.92 260.848 642.92 259C642.92 257.152 644.108 255.88 645.848 255.88C647.588 255.88 648.776 257.152 648.776 259C648.776 260.848 647.588 262.12 645.848 262.12ZM645.848 261.352C647.036 261.352 647.804 260.416 647.804 259C647.804 257.584 647.036 256.648 645.848 256.648C644.66 256.648 643.88 257.584 643.88 259C643.88 260.416 644.66 261.352 645.848 261.352ZM655.172 256L652.904 262H651.776L649.52 256H650.444L652.328 260.98V261.016H652.352V260.98L654.236 256H655.172Z" fill="white"/>
<path d="M685.869 253.6H688.305C691.137 253.6 692.745 255.136 692.745 257.74C692.745 260.44 691.161 262 688.305 262H685.869V253.6ZM686.829 261.148H688.293C690.501 261.148 691.737 259.948 691.737 257.776C691.737 255.688 690.477 254.452 688.353 254.452H686.829V261.148ZM697.109 262.12C695.081 262.12 694.073 260.704 694.073 258.904C694.073 257.116 695.033 255.892 696.809 255.892C698.657 255.892 699.437 257.236 699.425 259.168H695.033C695.033 260.476 695.849 261.34 697.145 261.34C697.709 261.34 698.393 261.172 699.101 260.824V261.64C698.477 261.964 697.781 262.12 697.109 262.12ZM695.033 258.436H698.465C698.429 257.368 697.817 256.66 696.785 256.66C695.765 256.66 695.153 257.344 695.033 258.436ZM705.148 256.204V256.972C704.596 256.732 704.056 256.612 703.552 256.648C702.328 256.732 701.452 257.668 701.452 259C701.452 260.332 702.328 261.28 703.564 261.352C704.068 261.376 704.62 261.268 705.172 261.04V261.808C704.668 262.024 704.128 262.12 703.612 262.12C701.776 262.12 700.492 260.836 700.492 259C700.492 257.164 701.776 255.88 703.612 255.88C704.188 255.88 704.692 256 705.148 256.204Z" fill="white"/>
</g>
<defs>
<filter id="filter0_d_5618_36597" x="0.5" y="0" width="772.58" height="316" filterUnits="userSpaceOnUse" color-interpolation-filters="sRGB">
<feFlood flood-opacity="0" result="BackgroundImageFix"/>
<feColorMatrix in="SourceAlpha" type="matrix" values="0 0 0 0 0 0 0 0 0 0 0 0 0 0 0 0 0 0 127 0" result="hardAlpha"/>
<feMorphology radius="1" operator="dilate" in="SourceAlpha" result="effect1_dropShadow_5618_36597"/>
<feOffset dx="3" dy="8"/>
<feGaussianBlur stdDeviation="15"/>
<feComposite in2="hardAlpha" operator="out"/>
<feColorMatrix type="matrix" values="0 0 0 0 0.658824 0 0 0 0 0.686275 0 0 0 0 0.721569 0 0 0 0.3 0"/>
<feBlend mode="normal" in2="BackgroundImageFix" result="effect1_dropShadow_5618_36597"/>
<feBlend mode="normal" in="SourceGraphic" in2="effect1_dropShadow_5618_36597" result="shape"/>
</filter>
<linearGradient id="paint0_linear_5618_36597" x1="383.79" y1="23" x2="383.79" y2="277" gradientUnits="userSpaceOnUse">
<stop offset="0.25" stop-color="#1E3A71"/>
<stop offset="1" stop-color="#0080BD"/>
</linearGradient>
</defs>
</svg>
