<svg width="414" height="316" viewBox="0 0 414 316" fill="none" xmlns="http://www.w3.org/2000/svg">
<g filter="url(#filter0_d_5618_36724)">
<rect x="28.0801" y="23" width="351" height="254" rx="12" fill="#0D366F" shape-rendering="crispEdges"/>
<rect x="28.0801" y="23" width="351" height="254" rx="12" fill="url(#paint0_linear_5618_36724)" shape-rendering="crispEdges"/>
<rect x="28.5801" y="23.5" width="350" height="253" rx="11.5" stroke="#00A3E0" shape-rendering="crispEdges"/>
<path d="M45.9334 54L42.5574 42.8H44.1734L46.9734 52.16H47.0054L49.4214 42.8H51.6454L54.0614 52.16H54.0934L56.8934 42.8L58.5094 42.8L55.1334 54H52.9894L50.5574 44.608V44.576H50.5254V44.608L48.0774 54H45.9334ZM61.7358 42.8V44.496H60.1358V42.8H61.7358ZM61.6878 46V54L60.1838 54V46H61.6878ZM66.0631 46H68.0631V47.312H66.0631V51.792C66.0631 52.48 66.1911 52.784 66.8951 52.816C67.2151 52.832 67.5511 52.784 67.8231 52.736V53.952C67.4871 54.048 67.1031 54.096 66.7031 54.096C65.1671 54.096 64.5591 53.296 64.5591 51.776V47.312H63.2311V46H64.5591V44.16L66.0631 43.632V46ZM73.917 45.84C75.917 45.84 77.037 47.168 77.037 49.68V54H75.533V49.552C75.533 47.92 74.845 47.104 73.613 47.104C72.349 47.104 71.405 47.984 71.325 49.84V54H69.821V42H71.325V47.152C71.885 46.288 72.765 45.84 73.917 45.84ZM84.0409 42.8L86.7449 42.8C89.1929 42.8 91.1609 43.632 91.1609 46.176C91.1609 48.656 89.2249 49.536 87.2089 49.536H85.6409V54H84.0409V42.8ZM85.6409 48.128H87.3529C88.5209 48.128 89.5289 47.632 89.5289 46.16C89.5289 44.688 88.2649 44.208 86.8569 44.208H85.6409V48.128ZM100.884 51.872L102.804 53.984H101.028L100.052 52.944C99.2515 53.728 98.1635 54.192 96.7395 54.192C94.7555 54.192 92.8515 53.184 92.8515 50.96C92.8515 49.2 93.9875 48.368 95.2195 47.76C94.4035 46.816 93.9715 46.144 93.9715 45.216C93.9715 43.664 95.1715 42.64 96.9795 42.64C98.7875 42.64 99.9875 43.632 99.9875 45.12C99.9875 46.672 98.6755 47.344 97.3315 47.968L99.8755 50.768C100.244 49.984 100.42 49.04 100.436 48.064H101.812C101.78 49.488 101.492 50.816 100.884 51.872ZM95.6355 45.312C95.6355 45.936 95.9395 46.416 96.5635 47.136C97.5395 46.672 98.3235 46.176 98.3235 45.248C98.3235 44.464 97.7795 43.936 96.9795 43.936C96.1795 43.936 95.6355 44.48 95.6355 45.312ZM96.8675 52.784C97.7955 52.784 98.5315 52.448 99.0915 51.904L96.2755 48.896C96.1955 48.8 96.0995 48.704 96.0195 48.624C95.1555 49.104 94.4995 49.712 94.4995 50.736C94.4995 51.824 95.2995 52.784 96.8675 52.784ZM106.462 54.192C105.566 54.192 104.766 54.016 104.03 53.696V52.208C104.702 52.56 105.502 52.768 106.286 52.768C107.614 52.768 108.766 52.192 108.766 50.928C108.766 48.32 103.902 49.216 103.902 45.744C103.902 43.76 105.47 42.64 107.486 42.64C108.254 42.64 109.102 42.8 109.87 43.072V44.512C109.086 44.24 108.238 44.048 107.55 44.048C106.574 44.048 105.566 44.432 105.566 45.6C105.566 48 110.398 47.056 110.398 50.832C110.398 53.072 108.702 54.192 106.462 54.192ZM117.726 54.16C114.238 54.16 111.998 51.856 111.998 48.416C111.998 44.944 114.254 42.64 117.742 42.64C118.734 42.64 119.63 42.832 120.382 43.12V44.56C119.646 44.272 118.702 44.048 117.774 44.048C115.246 44.048 113.646 45.792 113.646 48.416C113.646 51.024 115.294 52.736 117.806 52.736C118.446 52.736 119.454 52.624 120.43 52.288V53.744C119.566 54.016 118.606 54.16 117.726 54.16ZM128.5 52.288L131.876 42.8H134.596V54H132.996V44.336H132.964L129.508 54H127.46L124.004 44.336H123.972V54H122.372V42.8H125.092L128.5 52.288ZM146.848 48.272V48.304C147.904 48.576 148.992 49.456 148.992 51.024C148.992 53.424 147.008 54 144.736 54H141.76V42.8L144.56 42.8C147.104 42.8 148.704 43.584 148.704 45.648C148.704 47.184 147.648 48.064 146.848 48.272ZM144.88 44.176H143.36V47.584H144.24C145.728 47.584 147.104 47.328 147.104 45.808C147.104 44.48 145.968 44.176 144.88 44.176ZM143.36 52.624H144.56C146 52.624 147.296 52.24 147.296 50.88C147.296 49.28 145.712 48.928 144.4 48.928H143.36V52.624ZM157.205 46H158.709V54H157.253V52.832H157.205C156.661 53.712 155.765 54.16 154.613 54.16C152.613 54.16 151.493 52.832 151.493 50.32V46H152.997V50.448C152.997 52.08 153.685 52.896 154.917 52.896C156.181 52.896 157.125 52.016 157.205 50.16V46ZM164.01 52.912L166.442 46H167.978L164.938 54.496C164.394 56.032 163.626 57.472 162.074 57.488C161.786 57.488 161.258 57.44 160.81 57.344V56.064C161.178 56.128 161.706 56.208 162.01 56.176C162.842 56.064 163.274 55.024 163.626 54.016H162.922L160.106 46H161.642L164.01 52.912ZM173.045 54.16C170.245 54.16 168.949 52.208 168.949 49.872C168.949 47.504 170.229 45.856 172.645 45.856C175.205 45.856 176.197 47.76 176.165 50.336H170.549C170.549 51.92 171.621 52.88 173.109 52.88C173.845 52.88 174.741 52.64 175.733 52.16V53.504C174.885 53.952 173.957 54.16 173.045 54.16ZM170.549 49.152H174.565C174.517 47.92 173.765 47.12 172.597 47.12C171.429 47.12 170.725 47.92 170.549 49.152ZM179.699 47.248H179.747C180.355 46.16 181.363 45.68 182.787 45.872V47.136C180.803 46.864 179.827 47.792 179.747 50.064V54H178.243V46H179.699V47.248ZM186.11 54.16C185.502 54.16 184.494 54.032 183.774 53.728V52.48C184.462 52.8 185.214 52.944 185.806 52.944C186.558 52.944 187.646 52.704 187.646 51.84C187.646 50.128 183.726 50.64 183.726 48.144C183.726 46.48 185.038 45.856 186.718 45.856C187.438 45.856 188.046 45.968 188.67 46.16V47.408C188.174 47.2 187.454 47.024 186.862 47.024C186.062 47.024 185.198 47.344 185.198 48C185.198 49.648 189.086 49.136 189.086 51.68C189.086 53.376 187.63 54.16 186.11 54.16Z" fill="white"/>
<path fill-rule="evenodd" clip-rule="evenodd" d="M208.535 46.1078L214.08 44.5L212.7 50.1061L210.978 48.4532L208.201 51.3463C208.106 51.4445 207.976 51.5 207.84 51.5C207.704 51.5 207.574 51.4445 207.479 51.3463L205.44 49.222L202.441 52.3463C202.25 52.5455 201.933 52.5519 201.734 52.3607C201.535 52.1695 201.528 51.8529 201.719 51.6537L205.079 48.1537C205.174 48.0555 205.304 48 205.44 48C205.576 48 205.706 48.0555 205.801 48.1537L207.84 50.278L210.257 47.7607L208.535 46.1078Z" fill="white"/>
<path d="M216.738 50.616V49.384H219.622V46.5H220.938V49.384H223.822V50.616H220.938V53.5H219.622V50.616H216.738ZM228.563 47.34C230.439 47.34 231.727 48.642 231.727 50.448C231.727 52.59 229.949 53.64 228.115 53.64C227.485 53.64 226.575 53.514 225.707 53.206V51.82C226.463 52.128 227.345 52.352 228.059 52.352C229.389 52.352 230.271 51.624 230.271 50.448C230.271 49.258 229.361 48.6 228.003 48.6C227.191 48.6 226.589 48.866 226.001 49.188V43.7H231.167V44.932H227.401L227.373 47.48C227.765 47.396 228.171 47.34 228.563 47.34ZM235.544 53.5H233.976V51.932H235.544V53.5ZM241.806 53.5V51.274H237.256V50.126L241.176 43.7H243.206V50.042H244.438V51.274H243.206V53.5H241.806ZM241.806 50.042V44.876H241.778L238.67 50.042H241.806ZM245.624 48.6C245.624 46.458 246.24 43.56 248.942 43.56C251.644 43.56 252.26 46.458 252.26 48.6C252.26 50.742 251.644 53.64 248.942 53.64C246.24 53.64 245.624 50.742 245.624 48.6ZM247.08 48.6C247.08 49.818 247.262 52.408 248.942 52.408C250.622 52.408 250.804 49.818 250.804 48.6C250.804 47.368 250.552 44.792 248.942 44.792C247.332 44.792 247.08 47.368 247.08 48.6ZM254.621 46.36C254.621 44.568 255.377 43.56 256.735 43.56C258.093 43.56 258.863 44.568 258.863 46.36C258.863 48.152 258.093 49.16 256.735 49.16C255.377 49.16 254.621 48.152 254.621 46.36ZM262.195 43.7H263.749L258.023 53.5H256.469L262.195 43.7ZM255.853 46.36C255.853 47.704 256.133 48.334 256.735 48.334C257.351 48.334 257.631 47.704 257.631 46.36C257.631 45.03 257.351 44.4 256.735 44.4C256.133 44.4 255.853 45.03 255.853 46.36ZM261.355 50.84C261.355 49.048 262.111 48.04 263.469 48.04C264.827 48.04 265.597 49.048 265.597 50.84C265.597 52.632 264.827 53.64 263.469 53.64C262.111 53.64 261.355 52.632 261.355 50.84ZM262.587 50.84C262.587 52.184 262.867 52.814 263.469 52.814C264.085 52.814 264.365 52.184 264.365 50.84C264.365 49.51 264.085 48.88 263.469 48.88C262.867 48.88 262.587 49.51 262.587 50.84Z" fill="white"/>
<path d="M175.28 209.98C175.28 212.08 174.06 213.42 172.24 213.96V216.08H170.02V214.24C168.96 214.22 168 214 167.12 213.62V211.54C168.02 211.96 169.02 212.2 169.96 212.2C171.52 212.2 172.84 211.58 172.84 210.16C172.84 207.18 166.96 207.96 166.96 203.72C166.96 201.76 168.22 200.46 170.02 199.98V197.88H172.24V199.84C173.02 199.9 173.84 200.08 174.6 200.34V202.38C173.62 202.04 172.56 201.82 171.74 201.82C170.48 201.82 169.44 202.34 169.44 203.62C169.44 206.52 175.28 205.38 175.28 209.98ZM180.343 214.2C179.023 214.2 177.843 213.96 176.783 213.6V211.34C177.843 211.8 178.903 212.08 180.023 212.08C182.003 212.08 183.303 211.22 183.303 209.92C183.303 208.6 182.023 207.72 180.043 207.72H178.783V205.76H179.943C181.903 205.76 183.163 205.02 183.163 203.7C183.163 202.58 182.243 201.8 180.423 201.8C179.303 201.8 178.363 202.1 177.443 202.54V200.46C178.323 200.08 179.343 199.78 180.683 199.78C183.783 199.78 185.643 201.3 185.643 203.42C185.643 205.02 184.563 206.36 182.863 206.7V206.74C184.623 207.04 185.763 208.46 185.763 210.24C185.763 212.7 183.603 214.2 180.343 214.2ZM189.707 214.72L188.207 216.66H186.747L187.647 214.52C187.827 214.1 187.887 213.82 187.887 213.32V211.66H190.307V213.12C190.307 213.86 190.107 214.24 189.707 214.72ZM196.303 214V202.78L194.443 204.38L193.223 202.86L196.723 200H198.703V214H196.303ZM211.426 214H202.386V212.06C206.046 208.52 208.746 206.06 208.746 203.92C208.746 202.58 207.626 201.84 206.106 201.84C204.886 201.84 203.746 202.32 202.846 202.92V200.74C203.906 200.2 205.266 199.78 206.706 199.78C209.166 199.78 211.226 201.1 211.226 203.76C211.226 206.28 209.346 208.42 205.806 211.84H211.426V214ZM219.63 206.62C221.49 207.52 222.31 208.62 222.31 210.18C222.31 212.58 220.33 214.2 217.37 214.2C214.45 214.2 212.51 212.62 212.51 210.28C212.51 208.76 213.33 207.58 215.25 206.64C213.47 205.62 213.07 204.42 213.07 203.44C213.07 201.44 214.67 199.78 217.45 199.78C220.11 199.78 221.69 201.36 221.69 203.4C221.69 204.52 221.19 205.62 219.63 206.62ZM217.33 201.7C216.11 201.7 215.43 202.44 215.43 203.48C215.43 204.56 216.19 205.18 217.55 205.76C218.71 205.1 219.23 204.32 219.23 203.44C219.23 202.38 218.49 201.7 217.33 201.7ZM217.51 212.12C218.97 212.12 219.85 211.44 219.87 210.26C219.87 209 218.93 208.3 217.27 207.56C215.83 208.28 214.95 209.02 214.95 210.12C214.95 211.36 215.99 212.12 217.51 212.12ZM235.071 206.84V206.88C236.491 207.22 237.751 208.4 237.751 210.28C237.751 213.12 235.391 214 232.391 214H228.511V200H232.171C235.411 200 237.391 201.06 237.391 203.56C237.391 205.38 236.191 206.54 235.071 206.84ZM232.491 201.98H230.851V205.86H231.951C233.531 205.86 235.011 205.48 235.011 203.86C235.011 202.42 233.811 201.98 232.491 201.98ZM230.851 212.02H232.291C233.851 212.02 235.251 211.48 235.251 209.98C235.251 208.3 233.631 207.78 232.071 207.78H230.851V212.02Z" fill="white"/>
<path d="M139.708 247.436C139.708 249.398 138.556 250.604 136.846 251.036V252.872H135.262V251.216C134.254 251.216 133.372 251.018 132.544 250.658V248.984C133.3 249.38 134.2 249.614 135.082 249.614C136.576 249.614 137.872 248.966 137.872 247.544C137.872 244.61 132.4 245.618 132.4 241.712C132.4 239.876 133.588 238.706 135.262 238.346V236.492H136.846V238.238C137.602 238.274 138.394 238.454 139.114 238.706V240.326C138.232 240.02 137.278 239.804 136.504 239.804C135.406 239.804 134.272 240.236 134.272 241.55C134.272 244.25 139.708 243.188 139.708 247.436ZM145.048 251.18C143.932 251.18 142.816 250.964 141.916 250.658V248.894C142.87 249.29 143.842 249.542 144.85 249.542C146.704 249.542 147.946 248.732 147.946 247.454C147.946 246.158 146.686 245.258 144.778 245.258H143.68V243.674H144.688C146.578 243.674 147.838 242.99 147.838 241.658C147.838 240.542 146.956 239.786 145.21 239.786C144.148 239.786 143.302 240.074 142.492 240.452V238.814C143.266 238.472 144.184 238.202 145.354 238.202C148.108 238.202 149.71 239.66 149.71 241.478C149.71 242.918 148.72 244.124 147.226 244.43V244.466C148.774 244.736 149.818 246.032 149.818 247.616C149.818 249.758 147.91 251.18 145.048 251.18ZM155.05 251.18C153.934 251.18 152.818 250.964 151.918 250.658V248.894C152.872 249.29 153.844 249.542 154.852 249.542C156.706 249.542 157.948 248.732 157.948 247.454C157.948 246.158 156.688 245.258 154.78 245.258H153.682V243.674H154.69C156.58 243.674 157.84 242.99 157.84 241.658C157.84 240.542 156.958 239.786 155.212 239.786C154.15 239.786 153.304 240.074 152.494 240.452V238.814C153.268 238.472 154.186 238.202 155.356 238.202C158.11 238.202 159.712 239.66 159.712 241.478C159.712 242.918 158.722 244.124 157.228 244.43V244.466C158.776 244.736 159.82 246.032 159.82 247.616C159.82 249.758 157.912 251.18 155.05 251.18ZM162.766 250.784V249.074C163.594 249.434 164.584 249.614 165.268 249.614C167.608 249.614 168.436 247.364 168.472 245.258H168.418C168.004 245.708 167.266 246.392 165.682 246.392C163.252 246.392 161.902 244.772 161.902 242.342C161.902 239.75 163.468 238.22 165.934 238.22C169.444 238.22 170.164 241.352 170.164 244.214C170.164 247.616 169.264 251.198 165.286 251.198C164.296 251.198 163.414 250.982 162.766 250.784ZM163.756 242.306C163.756 243.818 164.566 244.826 165.934 244.826C167.302 244.826 168.202 243.818 168.202 242.306C168.202 240.812 167.32 239.804 165.988 239.804C164.71 239.804 163.756 240.722 163.756 242.306ZM174.586 251H172.57V248.984H174.586V251ZM180.928 251V240.434L179.002 242.09L178.048 240.92L181.126 238.4H182.728V251H180.928ZM193.306 244.556V244.592C194.494 244.898 195.718 245.888 195.718 247.652C195.718 250.352 193.486 251 190.93 251H187.582V238.4H190.732C193.594 238.4 195.394 239.282 195.394 241.604C195.394 243.332 194.206 244.322 193.306 244.556ZM191.092 239.948H189.382V243.782H190.372C192.046 243.782 193.594 243.494 193.594 241.784C193.594 240.29 192.316 239.948 191.092 239.948ZM189.382 249.452H190.732C192.352 249.452 193.81 249.02 193.81 247.49C193.81 245.69 192.028 245.294 190.552 245.294H189.382V249.452Z" fill="white"/>
<path d="M211.057 247.466V241.841H212.012V247.466H211.057ZM208.722 245.131V244.176H214.347V245.131H208.722ZM215.983 249V248.233L218.864 245.08C219.202 244.71 219.481 244.389 219.699 244.116C219.918 243.841 220.08 243.582 220.185 243.341C220.293 243.097 220.347 242.841 220.347 242.574C220.347 242.267 220.273 242.001 220.126 241.777C219.981 241.553 219.782 241.379 219.529 241.257C219.276 241.135 218.992 241.074 218.677 241.074C218.341 241.074 218.049 241.143 217.799 241.283C217.552 241.419 217.36 241.611 217.224 241.858C217.09 242.105 217.023 242.395 217.023 242.727H216.018C216.018 242.216 216.135 241.767 216.371 241.381C216.607 240.994 216.928 240.693 217.334 240.477C217.743 240.261 218.202 240.153 218.711 240.153C219.222 240.153 219.675 240.261 220.07 240.477C220.465 240.693 220.775 240.984 220.999 241.351C221.224 241.717 221.336 242.125 221.336 242.574C221.336 242.895 221.278 243.209 221.161 243.516C221.047 243.82 220.849 244.159 220.564 244.534C220.283 244.906 219.893 245.361 219.393 245.898L217.432 247.994V248.062H221.489V249H215.983ZM223.113 246.818H224.187C224.218 247.114 224.319 247.364 224.489 247.568C224.662 247.77 224.887 247.923 225.162 248.028C225.438 248.131 225.743 248.182 226.079 248.182C226.442 248.182 226.769 248.121 227.059 247.999C227.349 247.876 227.579 247.695 227.749 247.453C227.92 247.209 228.005 246.906 228.005 246.545C228.005 246.23 227.931 245.937 227.783 245.668C227.635 245.395 227.398 245.175 227.072 245.007C226.745 244.839 226.312 244.756 225.772 244.756H225.073V243.903L227.255 241.278V241.21H223.539V240.273H228.704V241.04L226.368 243.869V243.938C226.743 243.955 227.093 244.031 227.417 244.168C227.743 244.304 228.028 244.489 228.269 244.722C228.513 244.955 228.704 245.226 228.84 245.536C228.976 245.845 229.045 246.182 229.045 246.545C229.045 247.043 228.917 247.486 228.661 247.875C228.408 248.261 228.057 248.565 227.608 248.787C227.162 249.009 226.647 249.119 226.062 249.119C225.545 249.119 225.069 249.028 224.634 248.847C224.199 248.665 223.846 248.402 223.573 248.058C223.3 247.714 223.147 247.301 223.113 246.818ZM231.265 249.068C231.055 249.068 230.874 248.993 230.724 248.842C230.573 248.692 230.498 248.511 230.498 248.301C230.498 248.091 230.573 247.911 230.724 247.76C230.874 247.609 231.055 247.534 231.265 247.534C231.475 247.534 231.655 247.609 231.806 247.76C231.956 247.911 232.032 248.091 232.032 248.301C232.032 248.44 231.996 248.568 231.925 248.685C231.857 248.801 231.765 248.895 231.648 248.966C231.535 249.034 231.407 249.068 231.265 249.068ZM233.006 242.949C233.006 242.409 233.123 241.929 233.359 241.509C233.598 241.088 233.923 240.757 234.335 240.516C234.75 240.274 235.221 240.153 235.75 240.153C236.284 240.153 236.758 240.278 237.173 240.528C237.588 240.776 237.913 241.116 238.149 241.551C238.385 241.983 238.5 242.477 238.494 243.034C238.488 243.307 238.447 243.589 238.371 243.882C238.294 244.175 238.165 244.5 237.983 244.858C237.801 245.216 237.551 245.631 237.233 246.102L235.273 249H234.113L236.415 245.642C236.312 245.676 236.206 245.705 236.095 245.727C235.987 245.75 235.878 245.761 235.767 245.761C235.238 245.761 234.765 245.639 234.348 245.395C233.933 245.151 233.605 244.817 233.363 244.393C233.125 243.97 233.006 243.489 233.006 242.949ZM234.011 242.949C234.011 243.318 234.085 243.643 234.233 243.925C234.381 244.206 234.585 244.426 234.846 244.585C235.108 244.744 235.409 244.824 235.75 244.824C236.091 244.824 236.392 244.746 236.653 244.589C236.915 244.43 237.119 244.212 237.267 243.933C237.415 243.652 237.488 243.33 237.488 242.966C237.488 242.597 237.415 242.27 237.267 241.986C237.119 241.702 236.915 241.479 236.653 241.317C236.392 241.155 236.091 241.074 235.75 241.074C235.409 241.074 235.108 241.155 234.846 241.317C234.585 241.476 234.381 241.697 234.233 241.982C234.085 242.263 234.011 242.585 234.011 242.949ZM242.896 249.119C242.311 249.119 241.794 249.016 241.345 248.808C240.899 248.598 240.551 248.31 240.301 247.943C240.051 247.574 239.927 247.153 239.93 246.682C239.927 246.312 240 245.972 240.148 245.659C240.295 245.344 240.497 245.081 240.753 244.871C241.011 244.658 241.3 244.523 241.618 244.466V244.415C241.2 244.307 240.868 244.072 240.621 243.712C240.373 243.348 240.251 242.935 240.254 242.472C240.251 242.028 240.363 241.632 240.591 241.283C240.818 240.933 241.131 240.658 241.528 240.456C241.929 240.254 242.385 240.153 242.896 240.153C243.402 240.153 243.854 240.254 244.251 240.456C244.649 240.658 244.961 240.933 245.189 241.283C245.419 241.632 245.535 242.028 245.538 242.472C245.535 242.935 245.409 243.348 245.159 243.712C244.912 244.072 244.584 244.307 244.175 244.415V244.466C244.49 244.523 244.774 244.658 245.027 244.871C245.28 245.081 245.481 245.344 245.632 245.659C245.782 245.972 245.859 246.312 245.862 246.682C245.859 247.153 245.731 247.574 245.479 247.943C245.229 248.31 244.881 248.598 244.434 248.808C243.991 249.016 243.479 249.119 242.896 249.119ZM242.896 248.182C243.291 248.182 243.632 248.118 243.919 247.99C244.206 247.862 244.427 247.682 244.584 247.449C244.74 247.216 244.819 246.943 244.822 246.631C244.819 246.301 244.734 246.01 244.567 245.757C244.399 245.504 244.17 245.305 243.881 245.161C243.594 245.016 243.265 244.943 242.896 244.943C242.524 244.943 242.192 245.016 241.899 245.161C241.609 245.305 241.381 245.504 241.213 245.757C241.048 246.01 240.967 246.301 240.97 246.631C240.967 246.943 241.042 247.216 241.196 247.449C241.352 247.682 241.575 247.862 241.865 247.99C242.155 248.118 242.498 248.182 242.896 248.182ZM242.896 244.04C243.209 244.04 243.486 243.977 243.727 243.852C243.971 243.727 244.163 243.553 244.302 243.328C244.442 243.104 244.513 242.841 244.515 242.54C244.513 242.244 244.443 241.987 244.307 241.768C244.17 241.547 243.981 241.376 243.74 241.257C243.498 241.135 243.217 241.074 242.896 241.074C242.569 241.074 242.284 241.135 242.04 241.257C241.795 241.376 241.606 241.547 241.473 241.768C241.339 241.987 241.274 242.244 241.277 242.54C241.274 242.841 241.341 243.104 241.477 243.328C241.616 243.553 241.808 243.727 242.052 243.852C242.297 243.977 242.578 244.04 242.896 244.04ZM251.944 247.364V246.903C251.944 246.585 252.009 246.294 252.14 246.03C252.274 245.763 252.467 245.55 252.72 245.391C252.975 245.229 253.285 245.148 253.649 245.148C254.018 245.148 254.328 245.229 254.578 245.391C254.828 245.55 255.017 245.763 255.144 246.03C255.272 246.294 255.336 246.585 255.336 246.903V247.364C255.336 247.682 255.271 247.974 255.14 248.241C255.012 248.506 254.822 248.719 254.569 248.881C254.319 249.04 254.012 249.119 253.649 249.119C253.279 249.119 252.968 249.04 252.715 248.881C252.463 248.719 252.271 248.506 252.14 248.241C252.009 247.974 251.944 247.682 251.944 247.364ZM252.813 246.903V247.364C252.813 247.628 252.876 247.865 253.001 248.075C253.126 248.283 253.342 248.386 253.649 248.386C253.947 248.386 254.157 248.283 254.279 248.075C254.404 247.865 254.467 247.628 254.467 247.364V246.903C254.467 246.639 254.407 246.403 254.288 246.196C254.169 245.986 253.955 245.881 253.649 245.881C253.35 245.881 253.136 245.986 253.005 246.196C252.877 246.403 252.813 246.639 252.813 246.903ZM247.597 242.369V241.909C247.597 241.591 247.663 241.3 247.794 241.036C247.927 240.768 248.12 240.555 248.373 240.396C248.629 240.234 248.938 240.153 249.302 240.153C249.671 240.153 249.981 240.234 250.231 240.396C250.481 240.555 250.67 240.768 250.798 241.036C250.926 241.3 250.99 241.591 250.99 241.909V242.369C250.99 242.687 250.924 242.98 250.794 243.247C250.666 243.511 250.475 243.724 250.222 243.886C249.972 244.045 249.666 244.125 249.302 244.125C248.933 244.125 248.622 244.045 248.369 243.886C248.116 243.724 247.924 243.511 247.794 243.247C247.663 242.98 247.597 242.687 247.597 242.369ZM248.467 241.909V242.369C248.467 242.634 248.529 242.871 248.654 243.081C248.779 243.288 248.995 243.392 249.302 243.392C249.6 243.392 249.811 243.288 249.933 243.081C250.058 242.871 250.12 242.634 250.12 242.369V241.909C250.12 241.645 250.061 241.409 249.941 241.202C249.822 240.991 249.609 240.886 249.302 240.886C249.004 240.886 248.789 240.991 248.659 241.202C248.531 241.409 248.467 241.645 248.467 241.909ZM247.921 249L253.921 240.273H254.893L248.893 249H247.921Z" fill="white"/>
<path fill-rule="evenodd" clip-rule="evenodd" d="M269.035 242.608L274.58 241L273.2 246.606L271.478 244.953L268.701 247.846C268.606 247.944 268.476 248 268.34 248C268.204 248 268.074 247.944 267.979 247.846L265.94 245.722L262.941 248.846C262.75 249.045 262.433 249.052 262.234 248.861C262.035 248.669 262.028 248.353 262.219 248.154L265.579 244.654C265.674 244.556 265.804 244.5 265.94 244.5C266.076 244.5 266.206 244.556 266.301 244.654L268.34 246.778L270.757 244.261L269.035 242.608Z" fill="white"/>
<path d="M216.584 136.136C218.073 132.59 218.415 128.667 217.564 124.916C216.712 121.165 214.709 117.776 211.836 115.226C208.963 112.675 205.365 111.091 201.547 110.696C197.729 110.301 193.884 111.115 190.552 113.024L188.276 109.03C191.758 107.035 195.701 105.99 199.712 106C203.723 106.01 207.661 107.073 211.134 109.085C221.437 115.046 225.383 127.809 220.581 138.452L223.66 140.232L214.103 145.323L213.725 134.482L216.584 136.136ZM182.739 121.864C181.25 125.41 180.907 129.333 181.759 133.084C182.611 136.835 184.614 140.224 187.487 142.774C190.359 145.325 193.958 146.909 197.776 147.304C201.593 147.699 205.439 146.885 208.771 144.976L211.047 148.97C207.565 150.965 203.621 152.01 199.61 152C195.599 151.99 191.661 150.927 188.188 148.915C177.886 142.954 173.939 130.191 178.742 119.548L175.66 117.771L185.217 112.679L185.596 123.52L182.737 121.866L182.739 121.864ZM191.63 133.599H204.25C204.555 133.599 204.847 133.478 205.062 133.263C205.277 133.047 205.398 132.754 205.398 132.449C205.398 132.145 205.277 131.852 205.062 131.636C204.847 131.421 204.555 131.3 204.25 131.3H195.072C193.551 131.3 192.092 130.694 191.016 129.616C189.94 128.538 189.336 127.075 189.336 125.551C189.336 124.026 189.94 122.563 191.016 121.485C192.092 120.407 193.551 119.801 195.072 119.801H197.367V117.502H201.956V119.801H207.692V124.401H195.072C194.768 124.401 194.476 124.522 194.261 124.737C194.046 124.953 193.925 125.246 193.925 125.551C193.925 125.855 194.046 126.148 194.261 126.364C194.476 126.579 194.768 126.7 195.072 126.7H204.25C205.772 126.7 207.231 127.306 208.307 128.384C209.382 129.462 209.987 130.925 209.987 132.449C209.987 133.974 209.382 135.437 208.307 136.515C207.231 137.593 205.772 138.199 204.25 138.199H201.956V140.498H197.367V138.199H191.63V133.599Z" fill="#83BD01"/>
<path d="M199.16 79C210.497 79 221.517 82.5956 230.511 89.229C239.506 95.8625 245.971 105.163 248.905 115.688C251.84 126.214 251.078 137.376 246.74 147.443C242.402 157.51 234.728 165.92 224.91 171.368L218.11 160.048C225.336 156.038 230.983 149.849 234.175 142.44C237.368 135.032 237.928 126.818 235.769 119.072C233.609 111.326 228.851 104.481 222.232 99.5995C215.613 94.7178 207.503 92.0718 199.16 92.0718L199.16 79Z" fill="white"/>
<path d="M226.41 173.966C219.171 177.993 211.066 180.361 202.725 180.888C194.383 181.414 186.027 180.085 178.304 177.004C170.581 173.922 163.697 169.17 158.185 163.116C152.673 157.061 148.681 149.866 146.517 142.088C144.354 134.31 144.076 126.156 145.707 118.258C147.338 110.36 150.833 102.929 155.922 96.54C161.011 90.1513 167.558 84.9759 175.055 81.4142C182.553 77.8525 190.801 76 199.16 76V91.0232C193.193 91.0232 187.305 92.3456 181.953 94.8881C176.601 97.4306 171.928 101.125 168.295 105.686C164.662 110.246 162.167 115.551 161.003 121.189C159.839 126.827 160.037 132.647 161.581 138.2C163.126 143.752 165.976 148.888 169.91 153.21C173.845 157.532 178.759 160.924 184.272 163.124C189.785 165.324 195.75 166.273 201.705 165.897C207.659 165.521 213.444 163.83 218.612 160.956L226.41 173.966Z" fill="#83BD01"/>
</g>
<defs>
<filter id="filter0_d_5618_36724" x="0.0800781" y="0" width="413" height="316" filterUnits="userSpaceOnUse" color-interpolation-filters="sRGB">
<feFlood flood-opacity="0" result="BackgroundImageFix"/>
<feColorMatrix in="SourceAlpha" type="matrix" values="0 0 0 0 0 0 0 0 0 0 0 0 0 0 0 0 0 0 127 0" result="hardAlpha"/>
<feMorphology radius="1" operator="dilate" in="SourceAlpha" result="effect1_dropShadow_5618_36724"/>
<feOffset dx="3" dy="8"/>
<feGaussianBlur stdDeviation="15"/>
<feComposite in2="hardAlpha" operator="out"/>
<feColorMatrix type="matrix" values="0 0 0 0 0.658824 0 0 0 0 0.686275 0 0 0 0 0.721569 0 0 0 0.3 0"/>
<feBlend mode="normal" in2="BackgroundImageFix" result="effect1_dropShadow_5618_36724"/>
<feBlend mode="normal" in="SourceGraphic" in2="effect1_dropShadow_5618_36724" result="shape"/>
</filter>
<linearGradient id="paint0_linear_5618_36724" x1="203.58" y1="23" x2="203.58" y2="277" gradientUnits="userSpaceOnUse">
<stop offset="0.25" stop-color="#1E3A71"/>
<stop offset="1" stop-color="#0080BD"/>
</linearGradient>
</defs>
</svg>
