<svg width="593" height="316" viewBox="0 0 593 316" fill="none" xmlns="http://www.w3.org/2000/svg">
<g filter="url(#filter0_d_5618_36747)">
<rect x="28.02" y="23" width="530.52" height="254" rx="12" fill="#0D366F" shape-rendering="crispEdges"/>
<rect x="28.02" y="23" width="530.52" height="254" rx="12" fill="url(#paint0_linear_5618_36747)" shape-rendering="crispEdges"/>
<rect x="28.52" y="23.5" width="529.52" height="253" rx="11.5" stroke="#00A3E0" shape-rendering="crispEdges"/>
<path d="M339.121 80L335.534 68.1H337.251L340.226 78.045H340.26L342.827 68.1H345.19L347.757 78.045H347.791L350.766 68.1H352.483L348.896 80H346.618L344.034 70.021V69.987H344V70.021L341.399 80H339.121ZM355.911 68.1V69.902H354.211V68.1H355.911ZM355.86 71.5V80H354.262V71.5H355.86ZM360.509 71.5H362.634V72.894H360.509V77.654C360.509 78.385 360.645 78.708 361.393 78.742C361.733 78.759 362.09 78.708 362.379 78.657V79.949C362.022 80.051 361.614 80.102 361.189 80.102C359.557 80.102 358.911 79.252 358.911 77.637V72.894H357.5V71.5H358.911V69.545L360.509 68.984V71.5ZM368.854 71.33C370.979 71.33 372.169 72.741 372.169 75.41V80L370.571 80V75.274C370.571 73.54 369.84 72.673 368.531 72.673C367.188 72.673 366.185 73.608 366.1 75.58V80H364.502V67.25L366.1 67.25V72.724C366.695 71.806 367.63 71.33 368.854 71.33ZM381.718 80.204C380.766 80.204 379.916 80.017 379.134 79.677V78.096C379.848 78.47 380.698 78.691 381.531 78.691C382.942 78.691 384.166 78.079 384.166 76.736C384.166 73.965 378.998 74.917 378.998 71.228C378.998 69.12 380.664 67.93 382.806 67.93C383.622 67.93 384.523 68.1 385.339 68.389V69.919C384.506 69.63 383.605 69.426 382.874 69.426C381.837 69.426 380.766 69.834 380.766 71.075C380.766 73.625 385.9 72.622 385.9 76.634C385.9 79.014 384.098 80.204 381.718 80.204ZM394.128 71.5H395.726V80H394.179V78.759H394.128C393.55 79.694 392.598 80.17 391.374 80.17C389.249 80.17 388.059 78.759 388.059 76.09V71.5H389.657V76.226C389.657 77.96 390.388 78.827 391.697 78.827C393.04 78.827 394.043 77.892 394.128 75.92V71.5ZM402.787 71.33C404.946 71.33 406.527 73.081 406.527 75.716C406.527 78.385 404.946 80.17 402.77 80.17C401.614 80.17 400.645 79.66 400.016 78.776H399.982V83.4H398.452V71.5H400.05V72.622H400.084C400.73 71.806 401.665 71.33 402.787 71.33ZM402.362 78.81C403.858 78.81 404.861 77.569 404.861 75.716C404.861 73.897 403.875 72.69 402.379 72.69C400.883 72.69 399.897 73.897 399.897 75.716C399.897 77.569 400.883 78.81 402.362 78.81ZM413.013 71.33C415.172 71.33 416.753 73.081 416.753 75.716C416.753 78.385 415.172 80.17 412.996 80.17C411.84 80.17 410.871 79.66 410.242 78.776H410.208V83.4H408.678V71.5H410.276V72.622H410.31C410.956 71.806 411.891 71.33 413.013 71.33ZM412.588 78.81C414.084 78.81 415.087 77.569 415.087 75.716C415.087 73.897 414.101 72.69 412.605 72.69C411.109 72.69 410.123 73.897 410.123 75.716C410.123 77.569 411.109 78.81 412.588 78.81ZM421.166 80.085C419.857 80.085 419.109 79.337 419.109 77.518V67.25H420.707V77.637C420.707 78.436 420.843 78.606 421.336 78.674C421.608 78.708 421.846 78.691 422.05 78.657V79.966C421.676 80.068 421.353 80.085 421.166 80.085ZM425.671 68.1V69.902H423.971V68.1H425.671ZM425.62 71.5V80H424.022V71.5H425.62ZM432.258 80.17C429.283 80.17 427.906 78.096 427.906 75.614C427.906 73.098 429.266 71.347 431.833 71.347C434.553 71.347 435.607 73.37 435.573 76.107H429.606C429.606 77.79 430.745 78.81 432.326 78.81C433.108 78.81 434.06 78.555 435.114 78.045V79.473C434.213 79.949 433.227 80.17 432.258 80.17ZM429.606 74.849H433.873C433.822 73.54 433.023 72.69 431.782 72.69C430.541 72.69 429.793 73.54 429.606 74.849ZM439.328 72.826H439.379C440.025 71.67 441.096 71.16 442.609 71.364V72.707C440.501 72.418 439.464 73.404 439.379 75.818V80H437.781V71.5H439.328V72.826Z" fill="white"/>
<path d="M342.752 126V110.292L340.148 112.532L338.44 110.404L343.34 106.4H346.112V126H342.752ZM361.951 115.668C364.555 116.928 365.703 118.468 365.703 120.652C365.703 124.012 362.931 126.28 358.787 126.28C354.699 126.28 351.983 124.068 351.983 120.792C351.983 118.664 353.131 117.012 355.819 115.696C353.327 114.268 352.767 112.588 352.767 111.216C352.767 108.416 355.007 106.092 358.899 106.092C362.623 106.092 364.835 108.304 364.835 111.16C364.835 112.728 364.135 114.268 361.951 115.668ZM358.731 108.78C357.023 108.78 356.071 109.816 356.071 111.272C356.071 112.784 357.135 113.652 359.039 114.464C360.663 113.54 361.391 112.448 361.391 111.216C361.391 109.732 360.355 108.78 358.731 108.78ZM358.983 123.368C361.027 123.368 362.259 122.416 362.287 120.764C362.287 119 360.971 118.02 358.647 116.984C356.631 117.992 355.399 119.028 355.399 120.568C355.399 122.304 356.855 123.368 358.983 123.368Z" fill="#83BD01"/>
<path d="M87.713 68.1V80H86.013V68.1H87.713ZM94.9434 71.33C97.0684 71.33 98.2584 72.741 98.2584 75.41V80H96.6604V75.274C96.6604 73.54 95.9294 72.673 94.6204 72.673C93.2774 72.673 92.2744 73.608 92.1894 75.58V80H90.5914V71.5H92.1384V72.741H92.1894C92.7674 71.806 93.7194 71.33 94.9434 71.33ZM105.7 68.1H108.573C111.174 68.1 113.265 68.984 113.265 71.687C113.265 74.322 111.208 75.257 109.066 75.257H107.4V80H105.7V68.1ZM107.4 73.761H109.219C110.46 73.761 111.531 73.234 111.531 71.67C111.531 70.106 110.188 69.596 108.692 69.596H107.4V73.761ZM116.642 72.826H116.693C117.339 71.67 118.41 71.16 119.923 71.364V72.707C117.815 72.418 116.778 73.404 116.693 75.818V80H115.095V71.5L116.642 71.5V72.826ZM125.025 80.17C122.56 80.17 120.826 78.351 120.826 75.75C120.826 73.149 122.56 71.33 125.025 71.33C127.49 71.33 129.207 73.149 129.207 75.75C129.207 78.351 127.49 80.17 125.025 80.17ZM125.025 78.827C126.521 78.827 127.507 77.603 127.507 75.75C127.507 73.897 126.521 72.673 125.025 72.673C123.529 72.673 122.526 73.897 122.526 75.75C122.526 77.603 123.529 78.827 125.025 78.827ZM137.23 71.789V73.132C136.397 72.758 135.632 72.605 134.935 72.673C133.422 72.826 132.334 74.033 132.334 75.75C132.334 77.467 133.439 78.708 134.969 78.827C135.632 78.878 136.431 78.725 137.264 78.385V79.728C136.516 80.034 135.768 80.17 135.054 80.17C132.453 80.17 130.634 78.351 130.634 75.75C130.634 73.149 132.453 71.33 135.054 71.33C135.853 71.33 136.567 71.5 137.23 71.789ZM142.825 80.17C139.85 80.17 138.473 78.096 138.473 75.614C138.473 73.098 139.833 71.347 142.4 71.347C145.12 71.347 146.174 73.37 146.14 76.107H140.173C140.173 77.79 141.312 78.81 142.893 78.81C143.675 78.81 144.627 78.555 145.681 78.045V79.473C144.78 79.949 143.794 80.17 142.825 80.17ZM140.173 74.849H144.44C144.389 73.54 143.59 72.69 142.349 72.69C141.108 72.69 140.36 73.54 140.173 74.849ZM150.099 80.17C149.453 80.17 148.382 80.034 147.617 79.711V78.385C148.348 78.725 149.147 78.878 149.776 78.878C150.575 78.878 151.731 78.623 151.731 77.705C151.731 75.886 147.566 76.43 147.566 73.778C147.566 72.01 148.96 71.347 150.745 71.347C151.51 71.347 152.156 71.466 152.819 71.67V72.996C152.292 72.775 151.527 72.588 150.898 72.588C150.048 72.588 149.13 72.928 149.13 73.625C149.13 75.376 153.261 74.832 153.261 77.535C153.261 79.337 151.714 80.17 150.099 80.17ZM156.956 80.17C156.31 80.17 155.239 80.034 154.474 79.711V78.385C155.205 78.725 156.004 78.878 156.633 78.878C157.432 78.878 158.588 78.623 158.588 77.705C158.588 75.886 154.423 76.43 154.423 73.778C154.423 72.01 155.817 71.347 157.602 71.347C158.367 71.347 159.013 71.466 159.676 71.67V72.996C159.149 72.775 158.384 72.588 157.755 72.588C156.905 72.588 155.987 72.928 155.987 73.625C155.987 75.376 160.118 74.832 160.118 77.535C160.118 79.337 158.571 80.17 156.956 80.17ZM172.064 74.951L174.852 80H173.016L170.33 75.257H170.143H168.477V80H166.777V68.1H169.65C172.251 68.1 174.342 68.984 174.342 71.687C174.342 73.506 173.373 74.509 172.064 74.951ZM168.477 69.596V73.761H170.296C171.537 73.761 172.608 73.234 172.608 71.67C172.608 70.106 171.265 69.596 169.769 69.596L168.477 69.596ZM180.477 80.17C177.502 80.17 176.125 78.096 176.125 75.614C176.125 73.098 177.485 71.347 180.052 71.347C182.772 71.347 183.826 73.37 183.792 76.107H177.825C177.825 77.79 178.964 78.81 180.545 78.81C181.327 78.81 182.279 78.555 183.333 78.045V79.473C182.432 79.949 181.446 80.17 180.477 80.17ZM177.825 74.849H182.092C182.041 73.54 181.242 72.69 180.001 72.69C178.76 72.69 178.012 73.54 177.825 74.849ZM191.917 72.622V71.5H193.515V83.4H191.985V78.776H191.951C191.322 79.66 190.353 80.17 189.197 80.17C187.021 80.17 185.44 78.385 185.44 75.716C185.44 73.081 187.021 71.33 189.18 71.33C190.302 71.33 191.237 71.806 191.883 72.622H191.917ZM189.605 78.81C191.084 78.81 192.07 77.569 192.07 75.716C192.07 73.897 191.084 72.69 189.588 72.69C188.092 72.69 187.106 73.897 187.106 75.716C187.106 77.569 188.109 78.81 189.605 78.81ZM202.296 71.5H203.894V80H202.347V78.759H202.296C201.718 79.694 200.766 80.17 199.542 80.17C197.417 80.17 196.227 78.759 196.227 76.09V71.5H197.825V76.226C197.825 77.96 198.556 78.827 199.865 78.827C201.208 78.827 202.211 77.892 202.296 75.92V71.5ZM210.377 80.17C207.402 80.17 206.025 78.096 206.025 75.614C206.025 73.098 207.385 71.347 209.952 71.347C212.672 71.347 213.726 73.37 213.692 76.107H207.725C207.725 77.79 208.864 78.81 210.445 78.81C211.227 78.81 212.179 78.555 213.233 78.045V79.473C212.332 79.949 211.346 80.17 210.377 80.17ZM207.725 74.849H211.992C211.941 73.54 211.142 72.69 209.901 72.69C208.66 72.69 207.912 73.54 207.725 74.849ZM217.651 80.17C217.005 80.17 215.934 80.034 215.169 79.711V78.385C215.9 78.725 216.699 78.878 217.328 78.878C218.127 78.878 219.283 78.623 219.283 77.705C219.283 75.886 215.118 76.43 215.118 73.778C215.118 72.01 216.512 71.347 218.297 71.347C219.062 71.347 219.708 71.466 220.371 71.67V72.996C219.844 72.775 219.079 72.588 218.45 72.588C217.6 72.588 216.682 72.928 216.682 73.625C216.682 75.376 220.813 74.832 220.813 77.535C220.813 79.337 219.266 80.17 217.651 80.17ZM228.621 69.902V68.1H230.321V69.902H228.621ZM230.27 71.5V80H228.672V72.894H224.524V77.654C224.524 78.385 224.66 78.708 225.408 78.742C225.748 78.759 226.105 78.708 226.394 78.657V79.949C226.037 80.051 225.629 80.102 225.204 80.102C223.572 80.102 222.926 79.252 222.926 77.637V72.894H221.515V71.5H222.926V69.545L224.524 68.984V71.5H230.27ZM236.77 80.17C234.305 80.17 232.571 78.351 232.571 75.75C232.571 73.149 234.305 71.33 236.77 71.33C239.235 71.33 240.952 73.149 240.952 75.75C240.952 78.351 239.235 80.17 236.77 80.17ZM236.77 78.827C238.266 78.827 239.252 77.603 239.252 75.75C239.252 73.897 238.266 72.673 236.77 72.673C235.274 72.673 234.271 73.897 234.271 75.75C234.271 77.603 235.274 78.827 236.77 78.827ZM247.445 71.33C249.57 71.33 250.76 72.741 250.76 75.41V80H249.162V75.274C249.162 73.54 248.431 72.673 247.122 72.673C245.779 72.673 244.776 73.608 244.691 75.58V80H243.093V71.5H244.64V72.741H244.691C245.269 71.806 246.221 71.33 247.445 71.33ZM255.237 80.17C254.591 80.17 253.52 80.034 252.755 79.711V78.385C253.486 78.725 254.285 78.878 254.914 78.878C255.713 78.878 256.869 78.623 256.869 77.705C256.869 75.886 252.704 76.43 252.704 73.778C252.704 72.01 254.098 71.347 255.883 71.347C256.648 71.347 257.294 71.466 257.957 71.67V72.996C257.43 72.775 256.665 72.588 256.036 72.588C255.186 72.588 254.268 72.928 254.268 73.625C254.268 75.376 258.399 74.832 258.399 77.535C258.399 79.337 256.852 80.17 255.237 80.17Z" fill="white"/>
<path d="M92.116 113.512C96.036 113.512 98.584 116.116 98.584 119.812C98.584 124.04 95.224 126.28 91.22 126.28C89.848 126.28 87.972 126.028 86.264 125.412V122.36C87.888 122.976 89.652 123.368 90.968 123.368C93.516 123.368 95.14 121.94 95.14 119.812C95.14 117.656 93.46 116.396 90.856 116.396C89.4 116.396 88.084 116.844 86.852 117.516V106.4H97.464V109.284H90.156L90.072 113.708C90.772 113.596 91.472 113.512 92.116 113.512ZM106.219 126.28C104.371 126.28 102.719 125.944 101.235 125.44V122.276C102.719 122.92 104.203 123.312 105.771 123.312C108.543 123.312 110.363 122.108 110.363 120.288C110.363 118.44 108.571 117.208 105.799 117.208H104.035V114.464H105.659C108.403 114.464 110.167 113.428 110.167 111.58C110.167 110.012 108.879 108.92 106.331 108.92C104.763 108.92 103.447 109.34 102.159 109.956V107.044C103.391 106.512 104.819 106.092 106.695 106.092C111.035 106.092 113.639 108.22 113.639 111.188C113.639 113.428 112.127 115.304 109.747 115.78V115.836C112.211 116.256 113.807 118.244 113.807 120.736C113.807 124.18 110.783 126.28 106.219 126.28Z" fill="#83BD01"/>
<path d="M342.487 183.17C338.781 183.17 336.401 180.722 336.401 177.067C336.401 173.378 338.798 170.93 342.504 170.93C343.558 170.93 344.51 171.134 345.309 171.44V172.97C344.527 172.664 343.524 172.426 342.538 172.426C339.852 172.426 338.152 174.279 338.152 177.067C338.152 179.838 339.903 181.657 342.572 181.657C343.252 181.657 344.323 181.538 345.36 181.181V182.728C344.442 183.017 343.422 183.17 342.487 183.17ZM350.874 183.17C348.409 183.17 346.675 181.351 346.675 178.75C346.675 176.149 348.409 174.33 350.874 174.33C353.339 174.33 355.056 176.149 355.056 178.75C355.056 181.351 353.339 183.17 350.874 183.17ZM350.874 181.827C352.37 181.827 353.356 180.603 353.356 178.75C353.356 176.897 352.37 175.673 350.874 175.673C349.378 175.673 348.375 176.897 348.375 178.75C348.375 180.603 349.378 181.827 350.874 181.827ZM366.581 174.33C368.502 174.33 369.59 175.673 369.59 178.223V183H367.992V178.189C367.992 176.523 367.431 175.673 366.275 175.673C364.932 175.673 364.133 176.795 364.133 178.937V183H362.637V178.189C362.637 176.523 362.008 175.673 360.852 175.673C359.577 175.673 358.863 176.676 358.778 178.597V183H357.18V174.5H358.727V175.741H358.778C359.237 174.806 360.019 174.33 361.158 174.33C362.416 174.33 363.3 174.908 363.776 176.03C364.337 174.908 365.323 174.33 366.581 174.33ZM376.606 174.33C378.765 174.33 380.346 176.081 380.346 178.716C380.346 181.385 378.765 183.17 376.589 183.17C375.433 183.17 374.464 182.66 373.835 181.776H373.801V186.4H372.271V174.5H373.869V175.622H373.903C374.549 174.806 375.484 174.33 376.606 174.33ZM376.181 181.81C377.677 181.81 378.68 180.569 378.68 178.716C378.68 176.897 377.694 175.69 376.198 175.69C374.702 175.69 373.716 176.897 373.716 178.716C373.716 180.569 374.702 181.81 376.181 181.81ZM384.759 183.085C383.45 183.085 382.702 182.337 382.702 180.518V170.25H384.3V180.637C384.3 181.436 384.436 181.606 384.929 181.674C385.201 181.708 385.439 181.691 385.643 181.657V182.966C385.269 183.068 384.946 183.085 384.759 183.085ZM391.219 183.17C388.244 183.17 386.867 181.096 386.867 178.614C386.867 176.098 388.227 174.347 390.794 174.347C393.514 174.347 394.568 176.37 394.534 179.107H388.567C388.567 180.79 389.706 181.81 391.287 181.81C392.069 181.81 393.021 181.555 394.075 181.045V182.473C393.174 182.949 392.188 183.17 391.219 183.17ZM388.567 177.849H392.834C392.783 176.54 391.984 175.69 390.743 175.69C389.502 175.69 388.754 176.54 388.567 177.849ZM398.51 174.5H400.635V175.894H398.51V180.654C398.51 181.385 398.646 181.708 399.394 181.742C399.734 181.759 400.091 181.708 400.38 181.657V182.949C400.023 183.051 399.615 183.102 399.19 183.102C397.558 183.102 396.912 182.252 396.912 180.637V175.894H395.501V174.5H396.912V172.545L398.51 171.984V174.5ZM406.26 183.17C403.285 183.17 401.908 181.096 401.908 178.614C401.908 176.098 403.268 174.347 405.835 174.347C408.555 174.347 409.609 176.37 409.575 179.107H403.608C403.608 180.79 404.747 181.81 406.328 181.81C407.11 181.81 408.062 181.555 409.116 181.045V182.473C408.215 182.949 407.229 183.17 406.26 183.17ZM403.608 177.849H407.875C407.824 176.54 407.025 175.69 405.784 175.69C404.543 175.69 403.795 176.54 403.608 177.849ZM417.699 175.622V170.25H419.297V183H417.767V181.776H417.716C417.087 182.66 416.118 183.17 414.962 183.17C412.786 183.17 411.205 181.385 411.205 178.716C411.205 176.081 412.786 174.33 414.945 174.33C416.067 174.33 417.002 174.806 417.648 175.622H417.699ZM415.37 181.81C416.849 181.81 417.835 180.569 417.835 178.716C417.835 176.897 416.849 175.69 415.353 175.69C413.857 175.69 412.871 176.897 412.871 178.716C412.871 180.569 413.874 181.81 415.37 181.81ZM431.927 183.204C428.493 183.204 426.215 180.756 426.215 177.067C426.215 173.378 428.493 170.93 431.927 170.93C435.361 170.93 437.639 173.378 437.639 177.067C437.639 180.756 435.361 183.204 431.927 183.204ZM431.927 181.708C434.409 181.708 435.888 179.991 435.888 177.067C435.888 174.126 434.409 172.409 431.927 172.426C429.445 172.443 427.966 174.16 427.966 177.067C427.966 179.991 429.445 181.708 431.927 181.708ZM441.453 175.826H441.504C442.15 174.67 443.221 174.16 444.734 174.364V175.707C442.626 175.418 441.589 176.404 441.504 178.818V183H439.906V174.5H441.453V175.826ZM452.13 175.622V170.25H453.728V183H452.198V181.776H452.147C451.518 182.66 450.549 183.17 449.393 183.17C447.217 183.17 445.636 181.385 445.636 178.716C445.636 176.081 447.217 174.33 449.376 174.33C450.498 174.33 451.433 174.806 452.079 175.622H452.13ZM449.801 181.81C451.28 181.81 452.266 180.569 452.266 178.716C452.266 176.897 451.28 175.69 449.784 175.69C448.288 175.69 447.302 176.897 447.302 178.716C447.302 180.569 448.305 181.81 449.801 181.81ZM460.198 183.17C457.223 183.17 455.846 181.096 455.846 178.614C455.846 176.098 457.206 174.347 459.773 174.347C462.493 174.347 463.547 176.37 463.513 179.107H457.546C457.546 180.79 458.685 181.81 460.266 181.81C461.048 181.81 462 181.555 463.054 181.045V182.473C462.153 182.949 461.167 183.17 460.198 183.17ZM457.546 177.849H461.813C461.762 176.54 460.963 175.69 459.722 175.69C458.481 175.69 457.733 176.54 457.546 177.849ZM467.268 175.826H467.319C467.965 174.67 469.036 174.16 470.549 174.364V175.707C468.441 175.418 467.404 176.404 467.319 178.818V183H465.721V174.5H467.268V175.826Z" fill="white"/>
<path d="M342.752 232V216.292L340.148 218.532L338.44 216.404L343.34 212.4H346.112V232H342.752ZM355.819 233.008L353.719 235.724H351.675L352.935 232.728C353.187 232.14 353.271 231.748 353.271 231.048V228.724H356.659V230.768C356.659 231.804 356.379 232.336 355.819 233.008ZM372.768 232H360.112V229.284C365.236 224.328 369.016 220.884 369.016 217.888C369.016 216.012 367.448 214.976 365.32 214.976C363.612 214.976 362.016 215.648 360.756 216.488V213.436C362.24 212.68 364.144 212.092 366.16 212.092C369.604 212.092 372.488 213.94 372.488 217.664C372.488 221.192 369.856 224.188 364.9 228.976H372.768V232ZM383.762 232V227.772H374.802V225.28L382.642 212.4H387.122V224.86H389.446V227.772H387.122V232H383.762ZM383.762 224.86V215.732H383.706L378.19 224.86H383.762ZM403.857 212.4V215.088L396.773 232H393.413L400.413 215.284H391.201V212.4H403.857Z" fill="#83BD01"/>
<path d="M91.317 176.914V176.948C92.439 177.237 93.595 178.172 93.595 179.838C93.595 182.388 91.487 183 89.073 183H85.911V171.1H88.886C91.589 171.1 93.289 171.933 93.289 174.126C93.289 175.758 92.167 176.693 91.317 176.914ZM89.226 172.562H87.611V176.183H88.546C90.127 176.183 91.589 175.911 91.589 174.296C91.589 172.885 90.382 172.562 89.226 172.562ZM87.611 181.538H88.886C90.416 181.538 91.793 181.13 91.793 179.685C91.793 177.985 90.11 177.611 88.716 177.611H87.611V181.538ZM103.257 183H95.7426V181.47C98.8366 178.41 101.319 176.234 101.319 174.313C101.319 172.97 100.112 172.409 98.9216 172.409C97.8506 172.409 96.8476 172.851 96.1166 173.327V171.712C97.0686 171.236 98.2246 170.913 99.3296 170.913C101.37 170.913 103.087 172.069 103.087 174.296C103.087 176.574 101.268 178.308 98.1226 181.402H103.257V183ZM111.156 176.914V176.948C112.278 177.237 113.434 178.172 113.434 179.838C113.434 182.388 111.326 183 108.912 183H105.75V171.1H108.725C111.428 171.1 113.128 171.933 113.128 174.126C113.128 175.758 112.006 176.693 111.156 176.914ZM109.065 172.562H107.45V176.183H108.385C109.966 176.183 111.428 175.911 111.428 174.296C111.428 172.885 110.221 172.562 109.065 172.562ZM107.45 181.538H108.725C110.255 181.538 111.632 181.13 111.632 179.685C111.632 177.985 109.949 177.611 108.555 177.611H107.45V181.538ZM126.009 183.204C122.575 183.204 120.297 180.756 120.297 177.067C120.297 173.378 122.575 170.93 126.009 170.93C129.443 170.93 131.721 173.378 131.721 177.067C131.721 180.756 129.443 183.204 126.009 183.204ZM126.009 181.708C128.491 181.708 129.97 179.991 129.97 177.067C129.97 174.126 128.491 172.409 126.009 172.426C123.527 172.443 122.048 174.16 122.048 177.067C122.048 179.991 123.527 181.708 126.009 181.708ZM135.535 175.826H135.586C136.232 174.67 137.303 174.16 138.816 174.364V175.707C136.708 175.418 135.671 176.404 135.586 178.818V183H133.988V174.5H135.535V175.826ZM146.213 175.622V170.25H147.811V183H146.281V181.776H146.23C145.601 182.66 144.632 183.17 143.476 183.17C141.3 183.17 139.719 181.385 139.719 178.716C139.719 176.081 141.3 174.33 143.459 174.33C144.581 174.33 145.516 174.806 146.162 175.622H146.213ZM143.884 181.81C145.363 181.81 146.349 180.569 146.349 178.716C146.349 176.897 145.363 175.69 143.867 175.69C142.371 175.69 141.385 176.897 141.385 178.716C141.385 180.569 142.388 181.81 143.884 181.81ZM154.28 183.17C151.305 183.17 149.928 181.096 149.928 178.614C149.928 176.098 151.288 174.347 153.855 174.347C156.575 174.347 157.629 176.37 157.595 179.107H151.628C151.628 180.79 152.767 181.81 154.348 181.81C155.13 181.81 156.082 181.555 157.136 181.045V182.473C156.235 182.949 155.249 183.17 154.28 183.17ZM151.628 177.849H155.895C155.844 176.54 155.045 175.69 153.804 175.69C152.563 175.69 151.815 176.54 151.628 177.849ZM161.35 175.826H161.401C162.047 174.67 163.118 174.16 164.631 174.364V175.707C162.523 175.418 161.486 176.404 161.401 178.818V183H159.803V174.5H161.35V175.826Z" fill="white"/>
<path d="M91.752 232V216.292L89.148 218.532L87.44 216.404L92.34 212.4H95.112V232H91.752ZM104.819 233.008L102.719 235.724H100.675L101.935 232.728C102.187 232.14 102.271 231.748 102.271 231.048V228.724H105.659V230.768C105.659 231.804 105.379 232.336 104.819 233.008ZM114.012 232.28C112.164 232.28 110.512 231.944 109.028 231.44V228.276C110.512 228.92 111.996 229.312 113.564 229.312C116.336 229.312 118.156 228.108 118.156 226.288C118.156 224.44 116.364 223.208 113.592 223.208H111.828V220.464H113.452C116.196 220.464 117.96 219.428 117.96 217.58C117.96 216.012 116.672 214.92 114.124 214.92C112.556 214.92 111.24 215.34 109.952 215.956V213.044C111.184 212.512 112.612 212.092 114.488 212.092C118.828 212.092 121.432 214.22 121.432 217.188C121.432 219.428 119.92 221.304 117.54 221.78V221.836C120.004 222.256 121.6 224.244 121.6 226.736C121.6 230.18 118.576 232.28 114.012 232.28ZM129.57 232.28C127.722 232.28 126.07 231.944 124.586 231.44V228.276C126.07 228.92 127.554 229.312 129.122 229.312C131.894 229.312 133.714 228.108 133.714 226.288C133.714 224.44 131.922 223.208 129.15 223.208H127.386V220.464H129.01C131.754 220.464 133.518 219.428 133.518 217.58C133.518 216.012 132.23 214.92 129.682 214.92C128.114 214.92 126.798 215.34 125.51 215.956V213.044C126.742 212.512 128.17 212.092 130.046 212.092C134.386 212.092 136.99 214.22 136.99 217.188C136.99 219.428 135.478 221.304 133.098 221.78V221.836C135.562 222.256 137.158 224.244 137.158 226.736C137.158 230.18 134.134 232.28 129.57 232.28ZM146.585 219.512C150.505 219.512 153.053 222.116 153.053 225.812C153.053 230.04 149.693 232.28 145.689 232.28C144.317 232.28 142.441 232.028 140.733 231.412V228.36C142.357 228.976 144.121 229.368 145.437 229.368C147.985 229.368 149.609 227.94 149.609 225.812C149.609 223.656 147.929 222.396 145.325 222.396C143.869 222.396 142.553 222.844 141.321 223.516V212.4H151.933V215.284H144.625L144.541 219.708C145.241 219.596 145.941 219.512 146.585 219.512Z" fill="#83BD01"/>
<path d="M294.5 48L294.5 256" stroke="white" stroke-linecap="round" stroke-dasharray="4 4"/>
<path d="M516.5 152L72.5 152" stroke="white" stroke-linecap="round" stroke-dasharray="4 4"/>
<g clip-path="url(#clip0_5618_36747)">
<g filter="url(#filter1_dd_5618_36747)">
<rect x="276.561" y="132" width="35" height="35" rx="17.5" fill="white"/>
<rect x="277.061" y="132.5" width="34" height="34" rx="17" stroke="#E0E0E0"/>
</g>
</g>
</g>
<defs>
<filter id="filter0_d_5618_36747" x="0.0200195" y="0" width="592.52" height="316" filterUnits="userSpaceOnUse" color-interpolation-filters="sRGB">
<feFlood flood-opacity="0" result="BackgroundImageFix"/>
<feColorMatrix in="SourceAlpha" type="matrix" values="0 0 0 0 0 0 0 0 0 0 0 0 0 0 0 0 0 0 127 0" result="hardAlpha"/>
<feMorphology radius="1" operator="dilate" in="SourceAlpha" result="effect1_dropShadow_5618_36747"/>
<feOffset dx="3" dy="8"/>
<feGaussianBlur stdDeviation="15"/>
<feComposite in2="hardAlpha" operator="out"/>
<feColorMatrix type="matrix" values="0 0 0 0 0.658824 0 0 0 0 0.686275 0 0 0 0 0.721569 0 0 0 0.3 0"/>
<feBlend mode="normal" in2="BackgroundImageFix" result="effect1_dropShadow_5618_36747"/>
<feBlend mode="normal" in="SourceGraphic" in2="effect1_dropShadow_5618_36747" result="shape"/>
</filter>
<filter id="filter1_dd_5618_36747" x="117.561" y="57" width="353" height="353" filterUnits="userSpaceOnUse" color-interpolation-filters="sRGB">
<feFlood flood-opacity="0" result="BackgroundImageFix"/>
<feColorMatrix in="SourceAlpha" type="matrix" values="0 0 0 0 0 0 0 0 0 0 0 0 0 0 0 0 0 0 127 0" result="hardAlpha"/>
<feOffset dy="35.0932"/>
<feGaussianBlur stdDeviation="33.2132"/>
<feColorMatrix type="matrix" values="0 0 0 0 0 0 0 0 0 0 0 0 0 0 0 0 0 0 0.0503198 0"/>
<feBlend mode="normal" in2="BackgroundImageFix" result="effect1_dropShadow_5618_36747"/>
<feColorMatrix in="SourceAlpha" type="matrix" values="0 0 0 0 0 0 0 0 0 0 0 0 0 0 0 0 0 0 127 0" result="hardAlpha"/>
<feOffset dy="84"/>
<feGaussianBlur stdDeviation="79.5"/>
<feColorMatrix type="matrix" values="0 0 0 0 0 0 0 0 0 0 0 0 0 0 0 0 0 0 0.07 0"/>
<feBlend mode="normal" in2="effect1_dropShadow_5618_36747" result="effect2_dropShadow_5618_36747"/>
<feBlend mode="normal" in="SourceGraphic" in2="effect2_dropShadow_5618_36747" result="shape"/>
</filter>
<linearGradient id="paint0_linear_5618_36747" x1="293.28" y1="23" x2="293.28" y2="277" gradientUnits="userSpaceOnUse">
<stop offset="0.25" stop-color="#1E3A71"/>
<stop offset="1" stop-color="#0080BD"/>
</linearGradient>
<clipPath id="clip0_5618_36747">
<rect width="44" height="44" fill="white" transform="translate(272.5 127)"/>
</clipPath>
</defs>
</svg>
