<svg width="504" height="385" viewBox="0 0 504 385" fill="none" xmlns="http://www.w3.org/2000/svg">
<g filter="url(#filter0_d_4364_27990)">
<rect x="27.5605" y="51" width="350.941" height="117" rx="12" fill="#0D366F"/>
<rect x="27.5605" y="51" width="350.941" height="117" rx="12" fill="url(#paint0_linear_4364_27990)"/>
<rect x="28.0605" y="51.5" width="349.941" height="116" rx="11.5" stroke="#00A3E0"/>
<path d="M49.1365 128.16C45.6485 128.16 43.4085 125.856 43.4085 122.416C43.4085 118.944 45.6645 116.64 49.1525 116.64C50.1445 116.64 51.0405 116.832 51.7925 117.12V118.56C51.0565 118.272 50.1125 118.048 49.1845 118.048C46.6565 118.048 45.0565 119.792 45.0565 122.416C45.0565 125.024 46.7045 126.736 49.2165 126.736C49.8565 126.736 50.8645 126.624 51.8405 126.288V127.744C50.9765 128.016 50.0165 128.16 49.1365 128.16ZM57.0298 128.16C54.7098 128.16 53.0778 126.448 53.0778 124C53.0778 121.552 54.7098 119.84 57.0298 119.84C59.3498 119.84 60.9658 121.552 60.9658 124C60.9658 126.448 59.3498 128.16 57.0298 128.16ZM57.0298 126.896C58.4378 126.896 59.3658 125.744 59.3658 124C59.3658 122.256 58.4378 121.104 57.0298 121.104C55.6218 121.104 54.6778 122.256 54.6778 124C54.6778 125.744 55.6218 126.896 57.0298 126.896ZM67.0772 119.84C69.0772 119.84 70.1972 121.168 70.1972 123.68V128H68.6932V123.552C68.6932 121.92 68.0052 121.104 66.7732 121.104C65.5092 121.104 64.5652 121.984 64.4852 123.84V128H62.9812V120H64.4372V121.168H64.4852C65.0292 120.288 65.9252 119.84 67.0772 119.84ZM74.4264 120H76.4264V121.312L74.4264 121.312V125.792C74.4264 126.48 74.5544 126.784 75.2584 126.816C75.5784 126.832 75.9144 126.784 76.1864 126.736V127.952C75.8504 128.048 75.4664 128.096 75.0664 128.096C73.5304 128.096 72.9224 127.296 72.9224 125.776V121.312H71.5944V120H72.9224V118.16L74.4264 117.632V120ZM79.6403 121.248H79.6883C80.2963 120.16 81.3043 119.68 82.7283 119.872V121.136C80.7443 120.864 79.7683 121.792 79.6883 124.064V128H78.1843V120H79.6403V121.248ZM87.331 119.84C89.827 119.84 90.643 121.2 90.643 123.232V128H89.299V126.944H89.267C88.915 127.44 88.387 128.16 86.851 128.16C85.347 128.16 83.859 127.472 83.859 125.648C83.859 123.472 85.971 123.04 87.539 123.008C87.987 122.992 88.547 123.008 89.171 123.04C89.171 121.664 88.627 121.104 87.091 121.104C85.987 121.104 85.299 121.456 84.707 121.792V120.528C85.363 120.16 86.099 119.84 87.331 119.84ZM86.979 126.944C88.195 126.944 89.123 126.208 89.171 124.832V124.16C88.803 124.144 88.387 124.128 88.019 124.128C86.387 124.128 85.459 124.672 85.459 125.648C85.459 126.544 86.083 126.944 86.979 126.944ZM104.05 120V121.312H102.05V125.792C102.05 126.48 102.178 126.784 102.882 126.816C103.202 126.832 103.538 126.784 103.81 126.736V127.952C103.474 128.048 103.09 128.096 102.69 128.096C101.154 128.096 100.546 127.296 100.546 125.776V121.312H100.178C98.9938 121.312 99.6658 121.92 98.2098 121.408C97.6658 121.232 97.0418 121.136 96.4978 121.184C95.0738 121.328 94.0498 122.384 94.0498 124C94.0498 125.616 95.0898 126.688 96.5298 126.8C97.1538 126.848 97.9058 126.72 98.6898 126.4V127.744C97.9858 128.032 97.2818 128.16 96.6098 128.16C94.1618 128.16 92.4498 126.448 92.4498 124C92.4498 121.552 94.1618 119.84 96.6098 119.84C97.1538 119.84 97.6658 119.952 98.1458 120.096C99.7458 120.592 99.2018 120 100.178 120H100.546V118.16L102.05 117.632V120H104.05ZM109.217 128.16C106.897 128.16 105.265 126.448 105.265 124C105.265 121.552 106.897 119.84 109.217 119.84C111.537 119.84 113.153 121.552 113.153 124C113.153 126.448 111.537 128.16 109.217 128.16ZM109.217 126.896C110.625 126.896 111.553 125.744 111.553 124C111.553 122.256 110.625 121.104 109.217 121.104C107.809 121.104 106.865 122.256 106.865 124C106.865 125.744 107.809 126.896 109.217 126.896ZM116.625 121.248H116.673C117.281 120.16 118.289 119.68 119.713 119.872V121.136C117.729 120.864 116.753 121.792 116.673 124.064V128H115.169V120H116.625V121.248ZM123.035 128.16C122.427 128.16 121.419 128.032 120.699 127.728V126.48C121.387 126.8 122.139 126.944 122.731 126.944C123.483 126.944 124.571 126.704 124.571 125.84C124.571 124.128 120.651 124.64 120.651 122.144C120.651 120.48 121.963 119.856 123.643 119.856C124.363 119.856 124.971 119.968 125.595 120.16V121.408C125.099 121.2 124.379 121.024 123.787 121.024C122.987 121.024 122.123 121.344 122.123 122C122.123 123.648 126.011 123.136 126.011 125.68C126.011 127.376 124.555 128.16 123.035 128.16ZM139.463 123.472V116.8H141.063V123.296C141.063 126.416 139.495 128.16 136.727 128.16C133.959 128.16 132.391 126.416 132.391 123.296V116.8H133.991V123.472C133.991 125.568 134.983 126.752 136.727 126.752C138.471 126.752 139.463 125.568 139.463 123.472ZM147.874 119.84C149.874 119.84 150.994 121.168 150.994 123.68V128H149.49V123.552C149.49 121.92 148.802 121.104 147.57 121.104C146.306 121.104 145.362 121.984 145.282 123.84V128H143.778V120H145.234V121.168H145.282C145.826 120.288 146.722 119.84 147.874 119.84ZM159.127 121.056V116H160.631V128H159.191V126.848H159.143C158.551 127.68 157.639 128.16 156.551 128.16C154.503 128.16 153.015 126.48 153.015 123.968C153.015 121.488 154.503 119.84 156.535 119.84C157.591 119.84 158.471 120.288 159.079 121.056H159.127ZM156.935 126.88C158.327 126.88 159.255 125.712 159.255 123.968C159.255 122.256 158.327 121.12 156.919 121.12C155.511 121.12 154.583 122.256 154.583 123.968C154.583 125.712 155.527 126.88 156.935 126.88ZM166.72 128.16C163.92 128.16 162.624 126.208 162.624 123.872C162.624 121.504 163.904 119.856 166.32 119.856C168.88 119.856 169.872 121.76 169.84 124.336H164.224C164.224 125.92 165.296 126.88 166.784 126.88C167.52 126.88 168.416 126.64 169.408 126.16V127.504C168.56 127.952 167.632 128.16 166.72 128.16ZM164.224 123.152H168.24C168.192 121.92 167.44 121.12 166.272 121.12C165.104 121.12 164.4 121.92 164.224 123.152ZM173.375 121.248H173.423C174.031 120.16 175.039 119.68 176.463 119.872V121.136C174.479 120.864 173.503 121.792 173.423 124.064V128H171.919V120H173.375V121.248ZM43.8885 135.8H47.1845C50.9765 135.8 53.1365 137.88 53.1365 141.32C53.1365 144.904 51.0245 147 47.1845 147H43.8885V135.8ZM45.4885 145.592H47.1685C49.9205 145.592 51.4725 144.104 51.4725 141.384C51.4725 138.776 49.8885 137.208 47.2645 137.208H45.4885V145.592ZM58.9234 147.16C56.1234 147.16 54.8274 145.208 54.8274 142.872C54.8274 140.504 56.1074 138.856 58.5234 138.856C61.0834 138.856 62.0754 140.76 62.0434 143.336H56.4274C56.4274 144.92 57.4994 145.88 58.9874 145.88C59.7234 145.88 60.6194 145.64 61.6114 145.16V146.504C60.7634 146.952 59.8354 147.16 58.9234 147.16ZM56.4274 142.152H60.4434C60.3954 140.92 59.6434 140.12 58.4754 140.12C57.3074 140.12 56.6034 140.92 56.4274 142.152ZM70.6338 139L67.7698 147H65.8818L63.0178 139H64.5538L66.8098 145.336V145.384H66.8418V145.336L69.0978 139H70.6338ZM75.6265 147.16C72.8265 147.16 71.5305 145.208 71.5305 142.872C71.5305 140.504 72.8105 138.856 75.2265 138.856C77.7865 138.856 78.7785 140.76 78.7465 143.336H73.1305C73.1305 144.92 74.2025 145.88 75.6905 145.88C76.4265 145.88 77.3225 145.64 78.3145 145.16V146.504C77.4665 146.952 76.5385 147.16 75.6265 147.16ZM73.1305 142.152H77.1465C77.0985 140.92 76.3465 140.12 75.1785 140.12C74.0105 140.12 73.3065 140.92 73.1305 142.152ZM82.9529 147.08C81.7209 147.08 81.0169 146.376 81.0169 144.664V135H82.5209V144.776C82.5209 145.528 82.6489 145.688 83.1129 145.752C83.3689 145.784 83.5929 145.768 83.7849 145.736V146.968C83.4329 147.064 83.1289 147.08 82.9529 147.08ZM88.9048 147.16C86.5848 147.16 84.9528 145.448 84.9528 143C84.9528 140.552 86.5848 138.84 88.9048 138.84C91.2248 138.84 92.8408 140.552 92.8408 143C92.8408 145.448 91.2248 147.16 88.9048 147.16ZM88.9048 145.896C90.3128 145.896 91.2408 144.744 91.2408 143C91.2408 141.256 90.3128 140.104 88.9048 140.104C87.4968 140.104 86.5528 141.256 86.5528 143C86.5528 144.744 87.4968 145.896 88.9048 145.896ZM98.9362 138.84C100.968 138.84 102.456 140.488 102.456 142.968C102.456 145.48 100.968 147.16 98.9202 147.16C97.8322 147.16 96.9202 146.68 96.3282 145.848H96.2962V150.2H94.8562V139H96.3602V140.056H96.3922C97.0002 139.288 97.8802 138.84 98.9362 138.84ZM98.5362 145.88C99.9442 145.88 100.888 144.712 100.888 142.968C100.888 141.256 99.9602 140.12 98.5522 140.12C97.1442 140.12 96.2162 141.256 96.2162 142.968C96.2162 144.712 97.1442 145.88 98.5362 145.88ZM113.313 138.84C115.121 138.84 116.145 140.104 116.145 142.504V147L114.641 147V142.472C114.641 140.904 114.113 140.104 113.025 140.104C111.761 140.104 111.009 141.16 111.009 143.176V147H109.601V142.472C109.601 140.904 109.009 140.104 107.921 140.104C106.721 140.104 106.049 141.048 105.969 142.856V147H104.465V139H105.921V140.168H105.969C106.401 139.288 107.137 138.84 108.209 138.84C109.393 138.84 110.225 139.384 110.673 140.44C111.201 139.384 112.129 138.84 113.313 138.84ZM122.205 147.16C119.405 147.16 118.109 145.208 118.109 142.872C118.109 140.504 119.389 138.856 121.805 138.856C124.365 138.856 125.357 140.76 125.325 143.336H119.709C119.709 144.92 120.781 145.88 122.269 145.88C123.005 145.88 123.901 145.64 124.893 145.16V146.504C124.045 146.952 123.117 147.16 122.205 147.16ZM119.709 142.152H123.725C123.677 140.92 122.925 140.12 121.757 140.12C120.589 140.12 119.885 140.92 119.709 142.152ZM131.499 138.84C133.499 138.84 134.619 140.168 134.619 142.68V147H133.115V142.552C133.115 140.92 132.427 140.104 131.195 140.104C129.931 140.104 128.987 140.984 128.907 142.84V147H127.403L127.403 139H128.859V140.168H128.907C129.451 139.288 130.347 138.84 131.499 138.84ZM138.848 139H140.848V140.312H138.848V144.792C138.848 145.48 138.976 145.784 139.68 145.816C140 145.832 140.336 145.784 140.608 145.736V146.952C140.272 147.048 139.888 147.096 139.488 147.096C137.952 147.096 137.344 146.296 137.344 144.776V140.312H136.016V139H137.344V137.16L138.848 136.632V139Z" fill="white"/>
<path d="M55.7455 84.779C55.7455 86.984 54.4645 88.391 52.5535 88.958V91.184H50.2225V89.252C49.1095 89.231 48.1015 89 47.1775 88.601V86.417C48.1225 86.858 49.1725 87.11 50.1595 87.11C51.7975 87.11 53.1835 86.459 53.1835 84.968C53.1835 81.839 47.0095 82.658 47.0095 78.206C47.0095 76.148 48.3325 74.783 50.2225 74.279V72.074H52.5535V74.132C53.3725 74.195 54.2335 74.384 55.0315 74.657V76.799C54.0025 76.442 52.8895 76.211 52.0285 76.211C50.7055 76.211 49.6135 76.757 49.6135 78.101C49.6135 81.146 55.7455 79.949 55.7455 84.779ZM67.6665 89H58.1745V86.963C62.0175 83.246 64.8525 80.663 64.8525 78.416C64.8525 77.009 63.6765 76.232 62.0805 76.232C60.7995 76.232 59.6025 76.736 58.6575 77.366V75.077C59.7705 74.51 61.1985 74.069 62.7105 74.069C65.2935 74.069 67.4565 75.455 67.4565 78.248C67.4565 80.894 65.4825 83.141 61.7655 86.732H67.6665V89ZM73.5184 89.21C72.1324 89.21 70.8934 88.958 69.7804 88.58V86.207C70.8934 86.69 72.0064 86.984 73.1824 86.984C75.2614 86.984 76.6264 86.081 76.6264 84.716C76.6264 83.33 75.2824 82.406 73.2034 82.406H71.8804V80.348H73.0984C75.1564 80.348 76.4794 79.571 76.4794 78.185C76.4794 77.009 75.5134 76.19 73.6024 76.19C72.4264 76.19 71.4394 76.505 70.4734 76.967V74.783C71.3974 74.384 72.4684 74.069 73.8754 74.069C77.1304 74.069 79.0834 75.665 79.0834 77.891C79.0834 79.571 77.9494 80.978 76.1644 81.335V81.377C78.0124 81.692 79.2094 83.183 79.2094 85.052C79.2094 87.635 76.9414 89.21 73.5184 89.21ZM87.5814 89V85.829H80.8614V83.96L86.7414 74.3H90.1014V83.645H91.8444V85.829H90.1014V89H87.5814ZM87.5814 83.645V76.799H87.5394L83.4024 83.645H87.5814ZM98.5153 83.015L103.618 89H100.489L96.1003 83.477V89H93.7273V73.25H96.1003V82.679L99.7333 78.5H102.778L98.5153 83.015Z" fill="#83BD01"/>
<path fill-rule="evenodd" clip-rule="evenodd" d="M126.907 77.6393C127.106 77.8305 127.112 78.1471 126.921 78.3463L123.561 81.8463C123.467 81.9445 123.337 82 123.201 82C123.064 82 122.934 81.9445 122.84 81.8463L120.801 79.722L118.384 82.2393L120.106 83.8922L114.561 85.5L115.941 79.8939L117.663 81.5468L120.44 78.6537C120.534 78.5555 120.664 78.5 120.801 78.5C120.937 78.5 121.067 78.5555 121.161 78.6537L123.201 80.778L126.2 77.6537C126.391 77.4545 126.708 77.4481 126.907 77.6393Z" fill="white"/>
<path d="M129.373 83.85V82.618H132.971V83.85H129.373ZM134.637 82.1C134.637 79.958 135.253 77.06 137.955 77.06C140.657 77.06 141.273 79.958 141.273 82.1C141.273 84.242 140.657 87.14 137.955 87.14C135.253 87.14 134.637 84.242 134.637 82.1ZM136.093 82.1C136.093 83.318 136.275 85.908 137.955 85.908C139.635 85.908 139.817 83.318 139.817 82.1C139.817 80.868 139.565 78.292 137.955 78.292C136.345 78.292 136.093 80.868 136.093 82.1ZM144.853 87H143.285V85.432H144.853V87ZM149.393 87.14C148.525 87.14 147.657 86.972 146.957 86.734V85.362C147.699 85.67 148.455 85.866 149.239 85.866C150.681 85.866 151.647 85.236 151.647 84.242C151.647 83.234 150.667 82.534 149.183 82.534H148.329V81.302H149.113C150.583 81.302 151.563 80.77 151.563 79.734C151.563 78.866 150.877 78.278 149.519 78.278C148.693 78.278 148.035 78.502 147.405 78.796V77.522C148.007 77.256 148.721 77.046 149.631 77.046C151.773 77.046 153.019 78.18 153.019 79.594C153.019 80.714 152.249 81.652 151.087 81.89V81.918C152.291 82.128 153.103 83.136 153.103 84.368C153.103 86.034 151.619 87.14 149.393 87.14ZM158.124 87V78.782L156.626 80.07L155.884 79.16L158.278 77.2H159.524V87H158.124ZM163.93 79.86C163.93 78.068 164.686 77.06 166.044 77.06C167.402 77.06 168.172 78.068 168.172 79.86C168.172 81.652 167.402 82.66 166.044 82.66C164.686 82.66 163.93 81.652 163.93 79.86ZM171.504 77.2H173.058L167.332 87H165.778L171.504 77.2ZM165.162 79.86C165.162 81.204 165.442 81.834 166.044 81.834C166.66 81.834 166.94 81.204 166.94 79.86C166.94 78.53 166.66 77.9 166.044 77.9C165.442 77.9 165.162 78.53 165.162 79.86ZM170.664 84.34C170.664 82.548 171.42 81.54 172.778 81.54C174.136 81.54 174.906 82.548 174.906 84.34C174.906 86.132 174.136 87.14 172.778 87.14C171.42 87.14 170.664 86.132 170.664 84.34ZM171.896 84.34C171.896 85.684 172.176 86.314 172.778 86.314C173.394 86.314 173.674 85.684 173.674 84.34C173.674 83.01 173.394 82.38 172.778 82.38C172.176 82.38 171.896 83.01 171.896 84.34Z" fill="white"/>
<path d="M329.561 110C329.561 134.853 309.413 155 284.561 155C259.708 155 239.561 134.853 239.561 110C239.561 85.1472 259.708 65 284.561 65C309.413 65 329.561 85.1472 329.561 110ZM261.005 110C261.005 123.009 271.551 133.555 284.561 133.555C297.57 133.555 308.116 123.009 308.116 110C308.116 96.9907 297.57 86.4447 284.561 86.4447C271.551 86.4447 261.005 96.9907 261.005 110Z" fill="#8979FF"/>
<path d="M284.561 67.2982C284.561 66.029 285.59 64.9939 286.858 65.0587C294.355 65.4419 301.651 67.6959 308.073 71.6312C315.149 75.9674 320.888 82.176 324.656 89.5704C328.424 96.9649 330.073 105.257 329.422 113.531C328.771 121.804 325.844 129.736 320.966 136.45C316.088 143.164 309.449 148.399 301.781 151.575C294.114 154.75 285.718 155.744 277.521 154.446C269.324 153.148 261.646 149.608 255.335 144.218C249.608 139.327 245.21 133.085 242.529 126.072C242.075 124.887 242.742 123.588 243.949 123.196L259.841 118.032C261.049 117.639 262.335 118.306 262.842 119.47C264.274 122.752 266.435 125.678 269.173 128.016C272.496 130.854 276.538 132.718 280.854 133.401C285.17 134.085 289.591 133.562 293.627 131.889C297.664 130.217 301.16 127.461 303.729 123.926C306.297 120.391 307.838 116.215 308.18 111.859C308.523 107.503 307.655 103.137 305.671 99.2436C303.687 95.3504 300.666 92.0815 296.94 89.7984C293.87 87.9169 290.42 86.7653 286.855 86.4184C285.592 86.2955 284.561 85.2781 284.561 84.0088V67.2982Z" fill="#83BD01"/>
<g filter="url(#filter1_dddddd_4364_27990)">
<rect x="216.561" y="75" width="35" height="35" rx="17.5" fill="white"/>
<rect x="217.061" y="75.5" width="34" height="34" rx="17" stroke="#E0E0E0"/>
<path d="M222.795 97.64C221.927 97.64 221.059 97.472 220.359 97.234V95.862C221.101 96.17 221.857 96.366 222.641 96.366C224.083 96.366 225.049 95.736 225.049 94.742C225.049 93.734 224.069 93.034 222.585 93.034H221.731V91.802H222.515C223.985 91.802 224.965 91.27 224.965 90.234C224.965 89.366 224.279 88.778 222.921 88.778C222.095 88.778 221.437 89.002 220.807 89.296V88.022C221.409 87.756 222.123 87.546 223.033 87.546C225.175 87.546 226.421 88.68 226.421 90.094C226.421 91.214 225.651 92.152 224.489 92.39V92.418C225.693 92.628 226.505 93.636 226.505 94.868C226.505 96.534 225.021 97.64 222.795 97.64ZM227.635 92.6C227.635 90.458 228.251 87.56 230.953 87.56C233.655 87.56 234.271 90.458 234.271 92.6C234.271 94.742 233.655 97.64 230.953 97.64C228.251 97.64 227.635 94.742 227.635 92.6ZM229.091 92.6C229.091 93.818 229.273 96.408 230.953 96.408C232.633 96.408 232.815 93.818 232.815 92.6C232.815 91.368 232.563 88.792 230.953 88.792C229.343 88.792 229.091 91.368 229.091 92.6ZM235.932 90.36C235.932 88.568 236.688 87.56 238.046 87.56C239.404 87.56 240.174 88.568 240.174 90.36C240.174 92.152 239.404 93.16 238.046 93.16C236.688 93.16 235.932 92.152 235.932 90.36ZM243.506 87.7H245.06L239.334 97.5H237.78L243.506 87.7ZM237.164 90.36C237.164 91.704 237.444 92.334 238.046 92.334C238.662 92.334 238.942 91.704 238.942 90.36C238.942 89.03 238.662 88.4 238.046 88.4C237.444 88.4 237.164 89.03 237.164 90.36ZM242.666 94.84C242.666 93.048 243.422 92.04 244.78 92.04C246.138 92.04 246.908 93.048 246.908 94.84C246.908 96.632 246.138 97.64 244.78 97.64C243.422 97.64 242.666 96.632 242.666 94.84ZM243.898 94.84C243.898 96.184 244.178 96.814 244.78 96.814C245.396 96.814 245.676 96.184 245.676 94.84C245.676 93.51 245.396 92.88 244.78 92.88C244.178 92.88 243.898 93.51 243.898 94.84Z" fill="#080808"/>
</g>
<g filter="url(#filter2_dddddd_4364_27990)">
<rect x="309.561" y="107" width="35" height="35" rx="17.5" fill="white"/>
<rect x="310.061" y="107.5" width="34" height="34" rx="17" stroke="#E0E0E0"/>
<path d="M319.575 119.7V120.876L315.963 129.5H314.563L318.147 120.932H313.387V119.7H319.575ZM320.635 124.6C320.635 122.458 321.251 119.56 323.953 119.56C326.655 119.56 327.271 122.458 327.271 124.6C327.271 126.742 326.655 129.64 323.953 129.64C321.251 129.64 320.635 126.742 320.635 124.6ZM322.091 124.6C322.091 125.818 322.273 128.408 323.953 128.408C325.633 128.408 325.815 125.818 325.815 124.6C325.815 123.368 325.563 120.792 323.953 120.792C322.343 120.792 322.091 123.368 322.091 124.6ZM328.932 122.36C328.932 120.568 329.688 119.56 331.046 119.56C332.404 119.56 333.174 120.568 333.174 122.36C333.174 124.152 332.404 125.16 331.046 125.16C329.688 125.16 328.932 124.152 328.932 122.36ZM336.506 119.7H338.06L332.334 129.5H330.78L336.506 119.7ZM330.164 122.36C330.164 123.704 330.444 124.334 331.046 124.334C331.662 124.334 331.942 123.704 331.942 122.36C331.942 121.03 331.662 120.4 331.046 120.4C330.444 120.4 330.164 121.03 330.164 122.36ZM335.666 126.84C335.666 125.048 336.422 124.04 337.78 124.04C339.138 124.04 339.908 125.048 339.908 126.84C339.908 128.632 339.138 129.64 337.78 129.64C336.422 129.64 335.666 128.632 335.666 126.84ZM336.898 126.84C336.898 128.184 337.178 128.814 337.78 128.814C338.396 128.814 338.676 128.184 338.676 126.84C338.676 125.51 338.396 124.88 337.78 124.88C337.178 124.88 336.898 125.51 336.898 126.84Z" fill="#080808"/>
</g>
</g>
<defs>
<filter id="filter0_d_4364_27990" x="0.560547" y="29" width="410.941" height="177" filterUnits="userSpaceOnUse" color-interpolation-filters="sRGB">
<feFlood flood-opacity="0" result="BackgroundImageFix"/>
<feColorMatrix in="SourceAlpha" type="matrix" values="0 0 0 0 0 0 0 0 0 0 0 0 0 0 0 0 0 0 127 0" result="hardAlpha"/>
<feOffset dx="3" dy="8"/>
<feGaussianBlur stdDeviation="15"/>
<feColorMatrix type="matrix" values="0 0 0 0 0.658824 0 0 0 0 0.686275 0 0 0 0 0.721569 0 0 0 0.3 0"/>
<feBlend mode="normal" in2="BackgroundImageFix" result="effect1_dropShadow_4364_27990"/>
<feBlend mode="normal" in="SourceGraphic" in2="effect1_dropShadow_4364_27990" result="shape"/>
</filter>
<filter id="filter1_dddddd_4364_27990" x="57.5605" y="0" width="353" height="353" filterUnits="userSpaceOnUse" color-interpolation-filters="sRGB">
<feFlood flood-opacity="0" result="BackgroundImageFix"/>
<feColorMatrix in="SourceAlpha" type="matrix" values="0 0 0 0 0 0 0 0 0 0 0 0 0 0 0 0 0 0 127 0" result="hardAlpha"/>
<feOffset dy="2.3245"/>
<feGaussianBlur stdDeviation="2.19997"/>
<feColorMatrix type="matrix" values="0 0 0 0 0 0 0 0 0 0 0 0 0 0 0 0 0 0 0.0196802 0"/>
<feBlend mode="normal" in2="BackgroundImageFix" result="effect1_dropShadow_4364_27990"/>
<feColorMatrix in="SourceAlpha" type="matrix" values="0 0 0 0 0 0 0 0 0 0 0 0 0 0 0 0 0 0 127 0" result="hardAlpha"/>
<feOffset dy="5.58609"/>
<feGaussianBlur stdDeviation="5.28683"/>
<feColorMatrix type="matrix" values="0 0 0 0 0 0 0 0 0 0 0 0 0 0 0 0 0 0 0.0282725 0"/>
<feBlend mode="normal" in2="effect1_dropShadow_4364_27990" result="effect2_dropShadow_4364_27990"/>
<feColorMatrix in="SourceAlpha" type="matrix" values="0 0 0 0 0 0 0 0 0 0 0 0 0 0 0 0 0 0 127 0" result="hardAlpha"/>
<feOffset dy="10.5181"/>
<feGaussianBlur stdDeviation="9.95463"/>
<feColorMatrix type="matrix" values="0 0 0 0 0 0 0 0 0 0 0 0 0 0 0 0 0 0 0.035 0"/>
<feBlend mode="normal" in2="effect2_dropShadow_4364_27990" result="effect3_dropShadow_4364_27990"/>
<feColorMatrix in="SourceAlpha" type="matrix" values="0 0 0 0 0 0 0 0 0 0 0 0 0 0 0 0 0 0 127 0" result="hardAlpha"/>
<feOffset dy="18.7625"/>
<feGaussianBlur stdDeviation="17.7574"/>
<feColorMatrix type="matrix" values="0 0 0 0 0 0 0 0 0 0 0 0 0 0 0 0 0 0 0.0417275 0"/>
<feBlend mode="normal" in2="effect3_dropShadow_4364_27990" result="effect4_dropShadow_4364_27990"/>
<feColorMatrix in="SourceAlpha" type="matrix" values="0 0 0 0 0 0 0 0 0 0 0 0 0 0 0 0 0 0 127 0" result="hardAlpha"/>
<feOffset dy="35.0932"/>
<feGaussianBlur stdDeviation="33.2132"/>
<feColorMatrix type="matrix" values="0 0 0 0 0 0 0 0 0 0 0 0 0 0 0 0 0 0 0.0503198 0"/>
<feBlend mode="normal" in2="effect4_dropShadow_4364_27990" result="effect5_dropShadow_4364_27990"/>
<feColorMatrix in="SourceAlpha" type="matrix" values="0 0 0 0 0 0 0 0 0 0 0 0 0 0 0 0 0 0 127 0" result="hardAlpha"/>
<feOffset dy="84"/>
<feGaussianBlur stdDeviation="79.5"/>
<feColorMatrix type="matrix" values="0 0 0 0 0 0 0 0 0 0 0 0 0 0 0 0 0 0 0.07 0"/>
<feBlend mode="normal" in2="effect5_dropShadow_4364_27990" result="effect6_dropShadow_4364_27990"/>
<feBlend mode="normal" in="SourceGraphic" in2="effect6_dropShadow_4364_27990" result="shape"/>
</filter>
<filter id="filter2_dddddd_4364_27990" x="150.561" y="32" width="353" height="353" filterUnits="userSpaceOnUse" color-interpolation-filters="sRGB">
<feFlood flood-opacity="0" result="BackgroundImageFix"/>
<feColorMatrix in="SourceAlpha" type="matrix" values="0 0 0 0 0 0 0 0 0 0 0 0 0 0 0 0 0 0 127 0" result="hardAlpha"/>
<feOffset dy="2.3245"/>
<feGaussianBlur stdDeviation="2.19997"/>
<feColorMatrix type="matrix" values="0 0 0 0 0 0 0 0 0 0 0 0 0 0 0 0 0 0 0.0196802 0"/>
<feBlend mode="normal" in2="BackgroundImageFix" result="effect1_dropShadow_4364_27990"/>
<feColorMatrix in="SourceAlpha" type="matrix" values="0 0 0 0 0 0 0 0 0 0 0 0 0 0 0 0 0 0 127 0" result="hardAlpha"/>
<feOffset dy="5.58609"/>
<feGaussianBlur stdDeviation="5.28683"/>
<feColorMatrix type="matrix" values="0 0 0 0 0 0 0 0 0 0 0 0 0 0 0 0 0 0 0.0282725 0"/>
<feBlend mode="normal" in2="effect1_dropShadow_4364_27990" result="effect2_dropShadow_4364_27990"/>
<feColorMatrix in="SourceAlpha" type="matrix" values="0 0 0 0 0 0 0 0 0 0 0 0 0 0 0 0 0 0 127 0" result="hardAlpha"/>
<feOffset dy="10.5181"/>
<feGaussianBlur stdDeviation="9.95463"/>
<feColorMatrix type="matrix" values="0 0 0 0 0 0 0 0 0 0 0 0 0 0 0 0 0 0 0.035 0"/>
<feBlend mode="normal" in2="effect2_dropShadow_4364_27990" result="effect3_dropShadow_4364_27990"/>
<feColorMatrix in="SourceAlpha" type="matrix" values="0 0 0 0 0 0 0 0 0 0 0 0 0 0 0 0 0 0 127 0" result="hardAlpha"/>
<feOffset dy="18.7625"/>
<feGaussianBlur stdDeviation="17.7574"/>
<feColorMatrix type="matrix" values="0 0 0 0 0 0 0 0 0 0 0 0 0 0 0 0 0 0 0.0417275 0"/>
<feBlend mode="normal" in2="effect3_dropShadow_4364_27990" result="effect4_dropShadow_4364_27990"/>
<feColorMatrix in="SourceAlpha" type="matrix" values="0 0 0 0 0 0 0 0 0 0 0 0 0 0 0 0 0 0 127 0" result="hardAlpha"/>
<feOffset dy="35.0932"/>
<feGaussianBlur stdDeviation="33.2132"/>
<feColorMatrix type="matrix" values="0 0 0 0 0 0 0 0 0 0 0 0 0 0 0 0 0 0 0.0503198 0"/>
<feBlend mode="normal" in2="effect4_dropShadow_4364_27990" result="effect5_dropShadow_4364_27990"/>
<feColorMatrix in="SourceAlpha" type="matrix" values="0 0 0 0 0 0 0 0 0 0 0 0 0 0 0 0 0 0 127 0" result="hardAlpha"/>
<feOffset dy="84"/>
<feGaussianBlur stdDeviation="79.5"/>
<feColorMatrix type="matrix" values="0 0 0 0 0 0 0 0 0 0 0 0 0 0 0 0 0 0 0.07 0"/>
<feBlend mode="normal" in2="effect5_dropShadow_4364_27990" result="effect6_dropShadow_4364_27990"/>
<feBlend mode="normal" in="SourceGraphic" in2="effect6_dropShadow_4364_27990" result="shape"/>
</filter>
<linearGradient id="paint0_linear_4364_27990" x1="203.031" y1="51" x2="203.031" y2="168" gradientUnits="userSpaceOnUse">
<stop offset="0.25" stop-color="#1E3A71"/>
<stop offset="1" stop-color="#0080BD"/>
</linearGradient>
</defs>
</svg>
