<svg width="414" height="179" viewBox="0 0 414 179" fill="none" xmlns="http://www.w3.org/2000/svg">
<g filter="url(#filter0_d_4364_27981)">
<rect x="28.5605" y="23" width="350.941" height="117" rx="12" fill="#0D366F" shape-rendering="crispEdges"/>
<rect x="28.5605" y="23" width="350.941" height="117" rx="12" fill="url(#paint0_linear_4364_27981)" shape-rendering="crispEdges"/>
<rect x="29.0605" y="23.5" width="349.941" height="116" rx="11.5" stroke="#00A3E0" shape-rendering="crispEdges"/>
<path d="M93.2523 66.085C96.3323 67.695 97.5923 69.655 97.5923 72.28C97.5923 76.48 94.0573 79.35 88.7723 79.35C83.5573 79.35 80.0923 76.55 80.0923 72.455C80.0923 69.97 81.3523 67.765 84.6423 66.05C81.6673 64.23 81.1073 62.095 81.1073 60.555C81.1073 57.055 83.9423 54.115 88.8773 54.115C93.6373 54.115 96.5073 56.915 96.5073 60.485C96.5073 62.235 95.8073 64.23 93.2523 66.085ZM88.7373 58C86.9173 58 85.8673 59.19 85.8673 60.73C85.8673 62.375 87.0573 63.39 89.0173 64.3C90.8023 63.215 91.6073 61.99 91.6073 60.66C91.6073 59.085 90.5223 58 88.7373 58ZM92.5873 72.21C92.6223 70.355 91.2223 69.165 88.7023 67.975C86.6723 69.06 85.0973 70.25 85.0973 72.07C85.0973 73.925 86.6023 75.185 88.9473 75.185C91.1873 75.185 92.5873 74.065 92.5873 72.21ZM108.081 63.215C113.191 63.215 116.341 66.4 116.341 71.16C116.341 76.375 112.386 79.35 106.961 79.35C105.106 79.35 102.656 79 100.591 78.265V74.065C102.761 74.87 104.966 75.29 106.471 75.29C109.481 75.29 111.336 73.505 111.336 71.16C111.336 68.745 109.411 67.24 106.331 67.24C104.721 67.24 102.936 67.695 101.326 68.57V54.5H114.941V58.665H106.086L105.981 63.355C106.716 63.285 107.416 63.215 108.081 63.215Z" fill="white"/>
<path d="M61.9592 101.8V111.56H66.6312V113H60.3592V101.8H61.9592ZM71.6392 113.16C69.3192 113.16 67.6872 111.448 67.6872 109C67.6872 106.552 69.3192 104.84 71.6392 104.84C73.9592 104.84 75.5752 106.552 75.5752 109C75.5752 111.448 73.9592 113.16 71.6392 113.16ZM71.6392 111.896C73.0472 111.896 73.9752 110.744 73.9752 109C73.9752 107.256 73.0472 106.104 71.6392 106.104C70.2312 106.104 69.2872 107.256 69.2872 109C69.2872 110.744 70.2312 111.896 71.6392 111.896ZM81.6865 104.84C83.6865 104.84 84.8065 106.168 84.8065 108.68V113H83.3025V108.552C83.3025 106.92 82.6145 106.104 81.3825 106.104C80.1185 106.104 79.1745 106.984 79.0945 108.84V113H77.5905V105H79.0465V106.168H79.0945C79.6385 105.288 80.5345 104.84 81.6865 104.84ZM92.9238 106.056V105H94.4278V112.328C94.4278 114.808 93.1158 116.552 90.2998 116.552C89.3398 116.552 88.2998 116.344 87.4518 115.96V114.552C88.0918 114.824 89.0838 115.128 90.0918 115.128C91.4518 115.128 92.9238 114.584 92.9238 112.648V111.96H92.8758C92.2678 112.728 91.4038 113.16 90.3638 113.16C88.3158 113.16 86.8278 111.48 86.8278 108.968C86.8278 106.488 88.3158 104.84 90.3478 104.84C91.4038 104.84 92.2838 105.288 92.8918 106.056H92.9238ZM90.7478 111.88C92.1398 111.88 93.0678 110.712 93.0678 108.968C93.0678 107.256 92.1398 106.12 90.7318 106.12C89.3238 106.12 88.3958 107.256 88.3958 108.968C88.3958 110.712 89.3398 111.88 90.7478 111.88ZM107.676 101.8V103.208H103.02V106.504H107.26V107.912H103.02V113H101.42V101.8H107.676ZM113.092 113.16C110.772 113.16 109.14 111.448 109.14 109C109.14 106.552 110.772 104.84 113.092 104.84C115.412 104.84 117.028 106.552 117.028 109C117.028 111.448 115.412 113.16 113.092 113.16ZM113.092 111.896C114.5 111.896 115.428 110.744 115.428 109C115.428 107.256 114.5 106.104 113.092 106.104C111.684 106.104 110.74 107.256 110.74 109C110.74 110.744 111.684 111.896 113.092 111.896ZM120.5 106.248H120.548C121.156 105.16 122.164 104.68 123.588 104.872V106.136C121.604 105.864 120.628 106.792 120.548 109.064V113H119.044V105H120.5V106.248ZM134.094 104.84C135.902 104.84 136.926 106.104 136.926 108.504V113H135.422V108.472C135.422 106.904 134.894 106.104 133.806 106.104C132.542 106.104 131.79 107.16 131.79 109.176V113H130.382V108.472C130.382 106.904 129.79 106.104 128.702 106.104C127.502 106.104 126.83 107.048 126.75 108.856V113H125.246V105H126.702V106.168H126.75C127.182 105.288 127.918 104.84 128.99 104.84C130.174 104.84 131.006 105.384 131.454 106.44C131.982 105.384 132.91 104.84 134.094 104.84Z" fill="white"/>
<path d="M167.561 45.5L167.561 117.5" stroke="white" stroke-linecap="round" stroke-dasharray="4 4"/>
<path d="M254.827 79V60.275L252.062 62.62L249.612 59.645L255.912 54.5L259.727 54.5V79H254.827ZM275.081 63.215C280.191 63.215 283.341 66.4 283.341 71.16C283.341 76.375 279.386 79.35 273.961 79.35C272.106 79.35 269.656 79 267.591 78.265V74.065C269.761 74.87 271.966 75.29 273.471 75.29C276.481 75.29 278.336 73.505 278.336 71.16C278.336 68.745 276.411 67.24 273.331 67.24C271.721 67.24 269.936 67.695 268.326 68.57V54.5L281.941 54.5V58.665L273.086 58.665L272.981 63.355C273.716 63.285 274.416 63.215 275.081 63.215Z" fill="white"/>
<path d="M203.857 113.192C202.961 113.192 202.161 113.016 201.425 112.696V111.208C202.097 111.56 202.897 111.768 203.681 111.768C205.009 111.768 206.161 111.192 206.161 109.928C206.161 107.32 201.297 108.216 201.297 104.744C201.297 102.76 202.865 101.64 204.881 101.64C205.649 101.64 206.497 101.8 207.265 102.072V103.512C206.481 103.24 205.633 103.048 204.945 103.048C203.969 103.048 202.961 103.432 202.961 104.6C202.961 107 207.793 106.056 207.793 109.832C207.793 112.072 206.097 113.192 203.857 113.192ZM213.921 104.84C215.921 104.84 217.041 106.168 217.041 108.68V113H215.537V108.552C215.537 106.92 214.849 106.104 213.617 106.104C212.353 106.104 211.409 106.984 211.329 108.84V113H209.825V101H211.329V106.152C211.889 105.288 212.769 104.84 213.921 104.84ZM223.014 113.16C220.694 113.16 219.062 111.448 219.062 109C219.062 106.552 220.694 104.84 223.014 104.84C225.334 104.84 226.95 106.552 226.95 109C226.95 111.448 225.334 113.16 223.014 113.16ZM223.014 111.896C224.422 111.896 225.35 110.744 225.35 109C225.35 107.256 224.422 106.104 223.014 106.104C221.606 106.104 220.662 107.256 220.662 109C220.662 110.744 221.606 111.896 223.014 111.896ZM233.062 105H233.51V106.312H232.742C231.174 106.312 230.534 107.08 230.47 108.728V113H228.966V105H230.422V105.976H230.486C231.046 105.32 231.878 105 233.062 105ZM237.176 105H239.176V106.312H237.176V110.792C237.176 111.48 237.304 111.784 238.008 111.816C238.328 111.832 238.664 111.784 238.936 111.736V112.952C238.6 113.048 238.216 113.096 237.816 113.096C236.28 113.096 235.672 112.296 235.672 110.776V106.312H234.344V105H235.672V103.16L237.176 102.632V105ZM253.325 110.872L255.245 112.984H253.469L252.493 111.944C251.693 112.728 250.605 113.192 249.181 113.192C247.197 113.192 245.293 112.184 245.293 109.96C245.293 108.2 246.429 107.368 247.661 106.76C246.845 105.816 246.413 105.144 246.413 104.216C246.413 102.664 247.613 101.64 249.421 101.64C251.229 101.64 252.429 102.632 252.429 104.12C252.429 105.672 251.117 106.344 249.773 106.968L252.317 109.768C252.685 108.984 252.861 108.04 252.877 107.064H254.253C254.221 108.488 253.933 109.816 253.325 110.872ZM248.077 104.312C248.077 104.936 248.381 105.416 249.005 106.136C249.981 105.672 250.765 105.176 250.765 104.248C250.765 103.464 250.221 102.936 249.421 102.936C248.621 102.936 248.077 103.48 248.077 104.312ZM249.309 111.784C250.237 111.784 250.973 111.448 251.533 110.904L248.717 107.896C248.637 107.8 248.541 107.704 248.461 107.624C247.597 108.104 246.941 108.712 246.941 109.736C246.941 110.824 247.741 111.784 249.309 111.784ZM267.55 111.288L270.926 101.8H273.646V113H272.046V103.336H272.014L268.558 113H266.51L263.054 103.336H263.022V113H261.422V101.8H264.142L267.55 111.288ZM278.068 101.8V103.496H276.468V101.8H278.068ZM278.02 105V113H276.516V105H278.02ZM286.299 106.056V101H287.803V113H286.363V111.848H286.315C285.723 112.68 284.811 113.16 283.723 113.16C281.675 113.16 280.187 111.48 280.187 108.968C280.187 106.488 281.675 104.84 283.707 104.84C284.763 104.84 285.643 105.288 286.251 106.056H286.299ZM284.107 111.88C285.499 111.88 286.427 110.712 286.427 108.968C286.427 107.256 285.499 106.12 284.091 106.12C282.683 106.12 281.755 107.256 281.755 108.968C281.755 110.712 282.699 111.88 284.107 111.88ZM290.004 109.4V107.992H294.116V109.4H290.004ZM299.461 102.216C298.677 102.264 298.325 102.568 298.325 103.864V105H300.357V106.312H298.325V113H296.821V106.312H295.381V105H296.821V104.056C296.821 101.624 297.909 100.84 299.141 100.792C299.493 100.776 300.069 100.808 300.581 100.92V102.296C300.117 102.216 299.749 102.2 299.461 102.216ZM305.499 113.16C303.179 113.16 301.547 111.448 301.547 109C301.547 106.552 303.179 104.84 305.499 104.84C307.819 104.84 309.435 106.552 309.435 109C309.435 111.448 307.819 113.16 305.499 113.16ZM305.499 111.896C306.907 111.896 307.835 110.744 307.835 109C307.835 107.256 306.907 106.104 305.499 106.104C304.091 106.104 303.147 107.256 303.147 109C303.147 110.744 304.091 111.896 305.499 111.896ZM312.906 106.248H312.954C313.562 105.16 314.57 104.68 315.994 104.872V106.136C314.01 105.864 313.034 106.792 312.954 109.064V113H311.45V105H312.906V106.248ZM326.501 104.84C328.309 104.84 329.333 106.104 329.333 108.504V113H327.829V108.472C327.829 106.904 327.301 106.104 326.213 106.104C324.949 106.104 324.197 107.16 324.197 109.176V113H322.789V108.472C322.789 106.904 322.197 106.104 321.109 106.104C319.909 106.104 319.237 107.048 319.157 108.856V113H317.653V105H319.109V106.168H319.157C319.589 105.288 320.325 104.84 321.397 104.84C322.581 104.84 323.413 105.384 323.861 106.44C324.389 105.384 325.317 104.84 326.501 104.84Z" fill="white"/>
</g>
<defs>
<filter id="filter0_d_4364_27981" x="0.560547" y="0" width="412.941" height="179" filterUnits="userSpaceOnUse" color-interpolation-filters="sRGB">
<feFlood flood-opacity="0" result="BackgroundImageFix"/>
<feColorMatrix in="SourceAlpha" type="matrix" values="0 0 0 0 0 0 0 0 0 0 0 0 0 0 0 0 0 0 127 0" result="hardAlpha"/>
<feMorphology radius="1" operator="dilate" in="SourceAlpha" result="effect1_dropShadow_4364_27981"/>
<feOffset dx="3" dy="8"/>
<feGaussianBlur stdDeviation="15"/>
<feComposite in2="hardAlpha" operator="out"/>
<feColorMatrix type="matrix" values="0 0 0 0 0.658824 0 0 0 0 0.686275 0 0 0 0 0.721569 0 0 0 0.3 0"/>
<feBlend mode="normal" in2="BackgroundImageFix" result="effect1_dropShadow_4364_27981"/>
<feBlend mode="normal" in="SourceGraphic" in2="effect1_dropShadow_4364_27981" result="shape"/>
</filter>
<linearGradient id="paint0_linear_4364_27981" x1="204.031" y1="23" x2="204.031" y2="140" gradientUnits="userSpaceOnUse">
<stop offset="0.25" stop-color="#1E3A71"/>
<stop offset="1" stop-color="#0080BD"/>
</linearGradient>
</defs>
</svg>
