<svg width="576" height="337" viewBox="0 0 576 337" fill="none" xmlns="http://www.w3.org/2000/svg">
<g filter="url(#filter0_d_4364_28018)">
<rect x="28.5059" y="23" width="513.071" height="254" rx="12" fill="#0D366F" shape-rendering="crispEdges"/>
<rect x="28.5059" y="23" width="513.071" height="254" rx="12" fill="url(#paint0_linear_4364_28018)" shape-rendering="crispEdges"/>
<rect x="29.0059" y="23.5" width="512.071" height="253" rx="11.5" stroke="#00A3E0" shape-rendering="crispEdges"/>
<path d="M46.7695 43.3684C47.0522 43.3684 47.3233 43.4793 47.5232 43.6767C47.7231 43.8741 47.8354 44.1419 47.8354 44.4211C49.5101 44.4186 51.1365 44.975 52.4508 46H54.7638C56.1847 46 57.4606 46.6105 58.3389 47.5789H61.6922C62.6998 47.5787 63.6868 47.8605 64.5388 48.3916C65.3907 48.9228 66.0728 49.6816 66.5059 50.58C63.985 53.8653 59.9036 56 55.2968 56C52.3229 56 49.8073 55.3653 47.7714 54.2547C47.6969 54.458 47.5607 54.6335 47.3813 54.7575C47.202 54.8814 46.9884 54.9477 46.7695 54.9474H43.5718C43.2891 54.9474 43.018 54.8365 42.8181 54.6391C42.6182 54.4417 42.5059 54.1739 42.5059 53.8947V44.4211C42.5059 44.1419 42.6182 43.8741 42.8181 43.6767C43.018 43.4793 43.2891 43.3684 43.5718 43.3684H46.7695ZM47.8365 46.5263L47.8354 51.8126L47.8834 51.8463C49.7967 53.1726 52.2888 53.8947 55.2968 53.8947C58.4988 53.8947 61.478 52.6779 63.6482 50.6L63.7899 50.46L63.662 50.3547C63.1587 49.9654 62.5486 49.7344 61.9107 49.6916L61.6922 49.6842H59.4421C59.5188 50.0232 59.5604 50.3747 59.5604 50.7368V51.7895H49.9672V49.6842L57.2047 49.6832L57.1685 49.6011C56.9642 49.1795 56.65 48.8193 56.2581 48.5573C55.8662 48.2954 55.4108 48.1412 54.9386 48.1105L54.7638 48.1053H51.6407C51.1454 47.605 50.5538 47.2076 49.9006 46.9364C49.2475 46.6652 48.546 46.5258 47.8375 46.5263H47.8365ZM45.7036 45.4737H44.6377V52.8421H45.7036V45.4737ZM60.6263 39.1579C61.4744 39.1579 62.2878 39.4906 62.8874 40.0828C63.4871 40.675 63.824 41.4783 63.824 42.3158C63.824 43.1533 63.4871 43.9565 62.8874 44.5488C62.2878 45.141 61.4744 45.4737 60.6263 45.4737C59.7782 45.4737 58.9649 45.141 58.3652 44.5488C57.7655 43.9565 57.4286 43.1533 57.4286 42.3158C57.4286 41.4783 57.7655 40.675 58.3652 40.0828C58.9649 39.4906 59.7782 39.1579 60.6263 39.1579ZM60.6263 41.2632C60.3436 41.2632 60.0725 41.3741 59.8726 41.5715C59.6727 41.7689 59.5604 42.0366 59.5604 42.3158C59.5604 42.595 59.6727 42.8627 59.8726 43.0601C60.0725 43.2575 60.3436 43.3684 60.6263 43.3684C60.909 43.3684 61.1801 43.2575 61.38 43.0601C61.5799 42.8627 61.6922 42.595 61.6922 42.3158C61.6922 42.0366 61.5799 41.7689 61.38 41.5715C61.1801 41.3741 60.909 41.2632 60.6263 41.2632ZM53.1649 36C54.013 36 54.8264 36.3327 55.4261 36.9249C56.0258 37.5171 56.3627 38.3204 56.3627 39.1579C56.3627 39.9954 56.0258 40.7986 55.4261 41.3909C54.8264 41.9831 54.013 42.3158 53.1649 42.3158C52.3169 42.3158 51.5035 41.9831 50.9038 41.3909C50.3041 40.7986 49.9672 39.9954 49.9672 39.1579C49.9672 38.3204 50.3041 37.5171 50.9038 36.9249C51.5035 36.3327 52.3169 36 53.1649 36ZM53.1649 38.1053C52.8822 38.1053 52.6111 38.2162 52.4112 38.4136C52.2113 38.611 52.099 38.8787 52.099 39.1579C52.099 39.4371 52.2113 39.7048 52.4112 39.9022C52.6111 40.0996 52.8822 40.2105 53.1649 40.2105C53.4476 40.2105 53.7188 40.0996 53.9187 39.9022C54.1186 39.7048 54.2309 39.4371 54.2309 39.1579C54.2309 38.8787 54.1186 38.611 53.9187 38.4136C53.7188 38.2162 53.4476 38.1053 53.1649 38.1053Z" fill="white"/>
<path d="M74.8179 51.192C73.9219 51.192 73.1219 51.016 72.3859 50.696V49.208C73.0579 49.56 73.8579 49.768 74.6419 49.768C75.9699 49.768 77.1219 49.192 77.1219 47.928C77.1219 45.32 72.2579 46.216 72.2579 42.744C72.2579 40.76 73.8259 39.64 75.8419 39.64C76.6099 39.64 77.4579 39.8 78.2259 40.072V41.512C77.4419 41.24 76.5939 41.048 75.9059 41.048C74.9299 41.048 73.9219 41.432 73.9219 42.6C73.9219 45 78.7539 44.056 78.7539 47.832C78.7539 50.072 77.0579 51.192 74.8179 51.192ZM86.4979 43L88.0019 43V51H86.5459V49.832H86.4979C85.9539 50.712 85.0579 51.16 83.9059 51.16C81.9059 51.16 80.7859 49.832 80.7859 47.32V43H82.2899V47.448C82.2899 49.08 82.9779 49.896 84.2099 49.896C85.4739 49.896 86.4179 49.016 86.4979 47.16V43ZM96.1031 43.272V44.536C95.3191 44.184 94.5991 44.04 93.9431 44.104C92.5191 44.248 91.4951 45.384 91.4951 47C91.4951 48.616 92.5351 49.784 93.9751 49.896C94.5991 49.944 95.3511 49.8 96.1351 49.48V50.744C95.4311 51.032 94.7271 51.16 94.0551 51.16C91.6071 51.16 89.8951 49.448 89.8951 47C89.8951 44.552 91.6071 42.84 94.0551 42.84C94.8071 42.84 95.4791 43 96.1031 43.272ZM103.369 43.272V44.536C102.585 44.184 101.865 44.04 101.209 44.104C99.7847 44.248 98.7607 45.384 98.7607 47C98.7607 48.616 99.8007 49.784 101.241 49.896C101.865 49.944 102.617 49.8 103.401 49.48V50.744C102.697 51.032 101.993 51.16 101.321 51.16C98.8727 51.16 97.1607 49.448 97.1607 47C97.1607 44.552 98.8727 42.84 101.321 42.84C102.073 42.84 102.745 43 103.369 43.272ZM108.634 51.16C105.834 51.16 104.538 49.208 104.538 46.872C104.538 44.504 105.818 42.856 108.234 42.856C110.794 42.856 111.786 44.76 111.754 47.336L106.138 47.336C106.138 48.92 107.21 49.88 108.698 49.88C109.434 49.88 110.33 49.64 111.322 49.16V50.504C110.474 50.952 109.546 51.16 108.634 51.16ZM106.138 46.152H110.154C110.106 44.92 109.354 44.12 108.186 44.12C107.018 44.12 106.314 44.92 106.138 46.152ZM115.481 51.16C114.873 51.16 113.865 51.032 113.145 50.728V49.48C113.833 49.8 114.585 49.944 115.177 49.944C115.929 49.944 117.017 49.704 117.017 48.84C117.017 47.128 113.097 47.64 113.097 45.144C113.097 43.48 114.409 42.856 116.089 42.856C116.809 42.856 117.417 42.968 118.041 43.16V44.408C117.545 44.2 116.825 44.024 116.233 44.024C115.433 44.024 114.569 44.344 114.569 45C114.569 46.648 118.457 46.136 118.457 48.68C118.457 50.376 117.001 51.16 115.481 51.16ZM121.934 51.16C121.326 51.16 120.318 51.032 119.598 50.728V49.48C120.286 49.8 121.038 49.944 121.63 49.944C122.382 49.944 123.47 49.704 123.47 48.84C123.47 47.128 119.55 47.64 119.55 45.144C119.55 43.48 120.862 42.856 122.542 42.856C123.262 42.856 123.87 42.968 124.494 43.16V44.408C123.998 44.2 123.278 44.024 122.686 44.024C121.886 44.024 121.022 44.344 121.022 45C121.022 46.648 124.91 46.136 124.91 48.68C124.91 50.376 123.454 51.16 121.934 51.16ZM129.875 40.216C129.091 40.264 128.739 40.568 128.739 41.864V43H130.771V44.312H128.739V51H127.235V44.312H125.795V43H127.235V42.056C127.235 39.624 128.323 38.84 129.555 38.792C129.907 38.776 130.483 38.808 130.995 38.92V40.296C130.531 40.216 130.163 40.2 129.875 40.216ZM138.217 43H139.721V51H138.265V49.832H138.217C137.673 50.712 136.777 51.16 135.625 51.16C133.625 51.16 132.505 49.832 132.505 47.32V43H134.009V47.448C134.009 49.08 134.697 49.896 135.929 49.896C137.193 49.896 138.137 49.016 138.217 47.16V43ZM144.414 51.08C143.182 51.08 142.478 50.376 142.478 48.664V39H143.982V48.776C143.982 49.528 144.11 49.688 144.574 49.752C144.83 49.784 145.054 49.768 145.246 49.736V50.968C144.894 51.064 144.59 51.08 144.414 51.08ZM151.396 39.8H154.1C156.548 39.8 158.516 40.632 158.516 43.176C158.516 45.656 156.58 46.536 154.564 46.536H152.996V51H151.396V39.8ZM152.996 45.128H154.708C155.876 45.128 156.884 44.632 156.884 43.16C156.884 41.688 155.62 41.208 154.212 41.208H152.996V45.128ZM163.167 42.84C165.663 42.84 166.479 44.2 166.479 46.232V51H165.135V49.944H165.103C164.751 50.44 164.223 51.16 162.687 51.16C161.183 51.16 159.695 50.472 159.695 48.648C159.695 46.472 161.807 46.04 163.375 46.008C163.823 45.992 164.383 46.008 165.007 46.04C165.007 44.664 164.463 44.104 162.927 44.104C161.823 44.104 161.135 44.456 160.543 44.792V43.528C161.199 43.16 161.935 42.84 163.167 42.84ZM162.815 49.944C164.031 49.944 164.959 49.208 165.007 47.832V47.16C164.639 47.144 164.223 47.128 163.855 47.128C162.223 47.128 161.295 47.672 161.295 48.648C161.295 49.544 161.919 49.944 162.815 49.944ZM171.694 49.912L174.126 43H175.662L172.622 51.496C172.078 53.032 171.31 54.472 169.758 54.488C169.47 54.488 168.942 54.44 168.494 54.344V53.064C168.862 53.128 169.39 53.208 169.694 53.176C170.526 53.064 170.958 52.024 171.31 51.016H170.606L167.79 43H169.326L171.694 49.912ZM186.024 42.84C187.832 42.84 188.856 44.104 188.856 46.504V51H187.352V46.472C187.352 44.904 186.824 44.104 185.736 44.104C184.472 44.104 183.72 45.16 183.72 47.176V51H182.312V46.472C182.312 44.904 181.72 44.104 180.632 44.104C179.432 44.104 178.76 45.048 178.68 46.856V51H177.176V43H178.632V44.168H178.68C179.112 43.288 179.848 42.84 180.92 42.84C182.104 42.84 182.936 43.384 183.384 44.44C183.912 43.384 184.84 42.84 186.024 42.84ZM194.916 51.16C192.116 51.16 190.82 49.208 190.82 46.872C190.82 44.504 192.1 42.856 194.516 42.856C197.076 42.856 198.068 44.76 198.036 47.336H192.42C192.42 48.92 193.492 49.88 194.98 49.88C195.716 49.88 196.612 49.64 197.604 49.16V50.504C196.756 50.952 195.828 51.16 194.916 51.16ZM192.42 46.152H196.436C196.388 44.92 195.636 44.12 194.468 44.12C193.3 44.12 192.596 44.92 192.42 46.152ZM204.21 42.84C206.21 42.84 207.33 44.168 207.33 46.68V51H205.826V46.552C205.826 44.92 205.138 44.104 203.906 44.104C202.642 44.104 201.698 44.984 201.618 46.84V51H200.114V43H201.57V44.168H201.618C202.162 43.288 203.058 42.84 204.21 42.84ZM211.559 43H213.559V44.312H211.559V48.792C211.559 49.48 211.687 49.784 212.391 49.816C212.711 49.832 213.047 49.784 213.319 49.736V50.952C212.983 51.048 212.599 51.096 212.199 51.096C210.663 51.096 210.055 50.296 210.055 48.776V44.312H208.727V43H210.055V41.16L211.559 40.632V43ZM216.965 51.16C216.357 51.16 215.349 51.032 214.629 50.728V49.48C215.317 49.8 216.069 49.944 216.661 49.944C217.413 49.944 218.501 49.704 218.501 48.84C218.501 47.128 214.581 47.64 214.581 45.144C214.581 43.48 215.893 42.856 217.573 42.856C218.293 42.856 218.901 42.968 219.525 43.16V44.408C219.029 44.2 218.309 44.024 217.717 44.024C216.917 44.024 216.053 44.344 216.053 45C216.053 46.648 219.941 46.136 219.941 48.68C219.941 50.376 218.485 51.16 216.965 51.16Z" fill="white"/>
<path d="M489.57 135.684C489.57 136.968 488.79 137.772 487.59 138.048V139.248H486.738V138.144H486.642C485.946 138.144 485.37 138 484.854 137.772V136.884C485.334 137.124 485.922 137.28 486.546 137.28H486.738V133.944C485.754 133.524 484.758 133.068 484.758 131.748C484.758 130.548 485.55 129.756 486.738 129.54V128.328H487.59V129.48C488.106 129.504 488.646 129.612 489.174 129.792V130.656C488.634 130.476 488.07 130.356 487.59 130.332V133.296C488.562 133.716 489.57 134.232 489.57 135.684ZM485.754 131.664C485.754 132.3 486.174 132.648 486.738 132.936V130.428C486.162 130.596 485.754 131.004 485.754 131.664ZM487.59 134.328V137.112C488.19 136.872 488.586 136.416 488.586 135.732C488.586 135.024 488.154 134.628 487.59 134.328ZM494.846 138V135.996H490.766V135.204L494.438 129.6H495.806V135.144H496.862V135.996H495.806V138H494.846ZM494.846 135.144V130.452H494.822L491.75 135.144H494.846ZM497.698 133.8C497.698 131.748 498.334 129.48 500.506 129.48C502.678 129.48 503.326 131.748 503.326 133.8C503.326 135.852 502.678 138.12 500.506 138.12C498.334 138.12 497.698 135.852 497.698 133.8ZM498.694 133.8C498.694 135.228 499.03 137.268 500.506 137.268C501.994 137.268 502.318 135.228 502.318 133.8C502.318 132.36 501.946 130.332 500.506 130.332C499.066 130.332 498.694 132.36 498.694 133.8ZM504.366 133.8C504.366 131.748 505.002 129.48 507.174 129.48C509.346 129.48 509.994 131.748 509.994 133.8C509.994 135.852 509.346 138.12 507.174 138.12C505.002 138.12 504.366 135.852 504.366 133.8ZM505.362 133.8C505.362 135.228 505.698 137.268 507.174 137.268C508.662 137.268 508.986 135.228 508.986 133.8C508.986 132.36 508.614 130.332 507.174 130.332C505.734 130.332 505.362 132.36 505.362 133.8Z" fill="white"/>
<path d="M489.57 166.684C489.57 167.968 488.79 168.772 487.59 169.048V170.248H486.738V169.144H486.642C485.946 169.144 485.37 169 484.854 168.772V167.884C485.334 168.124 485.922 168.28 486.546 168.28H486.738V164.944C485.754 164.524 484.758 164.068 484.758 162.748C484.758 161.548 485.55 160.756 486.738 160.54V159.328H487.59V160.48C488.106 160.504 488.646 160.612 489.174 160.792V161.656C488.634 161.476 488.07 161.356 487.59 161.332V164.296C488.562 164.716 489.57 165.232 489.57 166.684ZM485.754 162.664C485.754 163.3 486.174 163.648 486.738 163.936V161.428C486.162 161.596 485.754 162.004 485.754 162.664ZM487.59 165.328V168.112C488.19 167.872 488.586 167.416 488.586 166.732C488.586 166.024 488.154 165.628 487.59 165.328ZM496.382 169H491.138V168.124C493.526 165.76 495.266 164.296 495.266 162.892C495.266 161.836 494.414 161.32 493.418 161.32C492.662 161.32 491.918 161.608 491.402 161.932V161.02C492.038 160.696 492.854 160.468 493.634 160.468C495.122 160.468 496.262 161.32 496.262 162.88C496.262 164.488 494.882 165.724 492.482 168.088H496.382V169ZM497.698 164.8C497.698 162.748 498.334 160.48 500.506 160.48C502.678 160.48 503.326 162.748 503.326 164.8C503.326 166.852 502.678 169.12 500.506 169.12C498.334 169.12 497.698 166.852 497.698 164.8ZM498.694 164.8C498.694 166.228 499.03 168.268 500.506 168.268C501.994 168.268 502.318 166.228 502.318 164.8C502.318 163.36 501.946 161.332 500.506 161.332C499.066 161.332 498.694 163.36 498.694 164.8ZM504.366 164.8C504.366 162.748 505.002 160.48 507.174 160.48C509.346 160.48 509.994 162.748 509.994 164.8C509.994 166.852 509.346 169.12 507.174 169.12C505.002 169.12 504.366 166.852 504.366 164.8ZM505.362 164.8C505.362 166.228 505.698 168.268 507.174 168.268C508.662 168.268 508.986 166.228 508.986 164.8C508.986 163.36 508.614 161.332 507.174 161.332C505.734 161.332 505.362 163.36 505.362 164.8Z" fill="white"/>
<path d="M489.57 197.684C489.57 198.968 488.79 199.772 487.59 200.048V201.248H486.738V200.144H486.642C485.946 200.144 485.37 200 484.854 199.772V198.884C485.334 199.124 485.922 199.28 486.546 199.28H486.738V195.944C485.754 195.524 484.758 195.068 484.758 193.748C484.758 192.548 485.55 191.756 486.738 191.54V190.328H487.59V191.48C488.106 191.504 488.646 191.612 489.174 191.792V192.656C488.634 192.476 488.07 192.356 487.59 192.332V195.296C488.562 195.716 489.57 196.232 489.57 197.684ZM485.754 193.664C485.754 194.3 486.174 194.648 486.738 194.936V192.428C486.162 192.596 485.754 193.004 485.754 193.664ZM487.59 196.328V199.112C488.19 198.872 488.586 198.416 488.586 197.732C488.586 197.024 488.154 196.628 487.59 196.328ZM493.946 200V192.692L492.422 193.988L491.906 193.352L494.042 191.6H494.906V200H493.946ZM497.698 195.8C497.698 193.748 498.334 191.48 500.506 191.48C502.678 191.48 503.326 193.748 503.326 195.8C503.326 197.852 502.678 200.12 500.506 200.12C498.334 200.12 497.698 197.852 497.698 195.8ZM498.694 195.8C498.694 197.228 499.03 199.268 500.506 199.268C501.994 199.268 502.318 197.228 502.318 195.8C502.318 194.36 501.946 192.332 500.506 192.332C499.066 192.332 498.694 194.36 498.694 195.8ZM504.366 195.8C504.366 193.748 505.002 191.48 507.174 191.48C509.346 191.48 509.994 193.748 509.994 195.8C509.994 197.852 509.346 200.12 507.174 200.12C505.002 200.12 504.366 197.852 504.366 195.8ZM505.362 195.8C505.362 197.228 505.698 199.268 507.174 199.268C508.662 199.268 508.986 197.228 508.986 195.8C508.986 194.36 508.614 192.332 507.174 192.332C505.734 192.332 505.362 194.36 505.362 195.8Z" fill="white"/>
<path d="M504.366 226.8C504.366 224.748 505.002 222.48 507.174 222.48C509.346 222.48 509.994 224.748 509.994 226.8C509.994 228.852 509.346 231.12 507.174 231.12C505.002 231.12 504.366 228.852 504.366 226.8ZM505.362 226.8C505.362 228.228 505.698 230.268 507.174 230.268C508.662 230.268 508.986 228.228 508.986 226.8C508.986 225.36 508.614 223.332 507.174 223.332C505.734 223.332 505.362 225.36 505.362 226.8Z" fill="white"/>
<path d="M66.393 254.036V253.22C66.741 253.268 67.053 253.304 67.341 253.268C68.145 253.184 68.469 252.62 68.469 251.612V245.6H69.429V251.684C69.429 253.412 68.493 254.06 67.473 254.132C67.149 254.156 66.801 254.12 66.393 254.036ZM73.7141 247.88C75.5501 247.88 76.1741 248.84 76.1741 250.472V254H75.3581V253.16H75.3341C75.0101 253.628 74.4821 254.12 73.3541 254.12C72.1661 254.12 71.1461 253.592 71.1461 252.26C71.1461 250.712 72.5621 250.352 73.8701 250.328C74.3141 250.316 74.7821 250.328 75.2741 250.352C75.2741 249.152 74.8301 248.648 73.5821 248.648C72.7901 248.648 72.2621 248.876 71.7821 249.152V248.384C72.2981 248.096 72.8501 247.88 73.7141 247.88ZM73.4261 253.376C74.4821 253.376 75.2501 252.776 75.2861 251.744L75.2741 251.048C74.9261 251.024 74.5421 251.012 74.1461 251.012C72.8381 251.024 72.1061 251.42 72.1061 252.26C72.1061 253.028 72.6221 253.376 73.4261 253.376ZM81.1292 247.88C82.6052 247.88 83.4452 248.888 83.4452 250.76V254H82.5332V250.688C82.5332 249.344 81.9692 248.648 80.9492 248.648C79.9172 248.648 79.1372 249.38 79.0772 250.856V254H78.1652V248H79.0532V249.08C79.4612 248.288 80.1812 247.88 81.1292 247.88ZM93.6061 254H88.3621V253.124C90.7501 250.76 92.4901 249.296 92.4901 247.892C92.4901 246.836 91.6381 246.32 90.6421 246.32C89.8861 246.32 89.1421 246.608 88.6261 246.932V246.02C89.2621 245.696 90.0781 245.468 90.8581 245.468C92.3461 245.468 93.4861 246.32 93.4861 247.88C93.4861 249.488 92.1061 250.724 89.7061 253.088H93.6061V254ZM98.738 254V251.996H94.658V251.204L98.33 245.6H99.698V251.144H100.754V251.996H99.698V254H98.738ZM98.738 251.144V246.452H98.714L95.642 251.144H98.738Z" fill="white"/>
<path d="M142.103 245.6V246.452H138.431V249.224H141.791V250.076H138.431V254H137.471V245.6H142.103ZM146.286 254.12C144.258 254.12 143.25 252.704 143.25 250.904C143.25 249.116 144.21 247.892 145.986 247.892C147.834 247.892 148.614 249.236 148.602 251.168H144.21C144.21 252.476 145.026 253.34 146.322 253.34C146.886 253.34 147.57 253.172 148.278 252.824V253.64C147.654 253.964 146.958 254.12 146.286 254.12ZM144.21 250.436H147.642C147.606 249.368 146.994 248.66 145.962 248.66C144.942 248.66 144.33 249.344 144.21 250.436ZM153.245 247.88C154.781 247.88 155.861 249.092 155.861 250.976C155.861 252.884 154.781 254.12 153.233 254.12C152.333 254.12 151.601 253.7 151.157 252.968V254H150.281V245H151.193V248.96C151.637 248.276 152.357 247.88 153.245 247.88ZM153.017 253.34C154.169 253.34 154.913 252.416 154.913 250.976C154.913 249.56 154.181 248.66 153.029 248.66C151.865 248.66 151.121 249.56 151.121 250.976C151.121 252.416 151.865 253.34 153.017 253.34ZM165.605 254H160.361V253.124C162.749 250.76 164.489 249.296 164.489 247.892C164.489 246.836 163.637 246.32 162.641 246.32C161.885 246.32 161.141 246.608 160.625 246.932V246.02C161.261 245.696 162.077 245.468 162.857 245.468C164.345 245.468 165.485 246.32 165.485 247.88C165.485 249.488 164.105 250.724 161.705 253.088H165.605V254ZM170.737 254V251.996H166.657V251.204L170.329 245.6H171.697V251.144H172.753V251.996H171.697V254H170.737ZM170.737 251.144V246.452H170.713L167.641 251.144H170.737Z" fill="white"/>
<path d="M212.011 253.004L214.963 245.6H216.559V254H215.599V246.596H215.575L212.611 254H211.399L208.435 246.596H208.411V254H207.451V245.6H209.047L212.011 253.004ZM220.823 247.88C222.659 247.88 223.283 248.84 223.283 250.472V254H222.467V253.16H222.443C222.119 253.628 221.591 254.12 220.463 254.12C219.275 254.12 218.255 253.592 218.255 252.26C218.255 250.712 219.671 250.352 220.979 250.328C221.423 250.316 221.891 250.328 222.383 250.352C222.383 249.152 221.939 248.648 220.691 248.648C219.899 248.648 219.371 248.876 218.891 249.152V248.384C219.407 248.096 219.959 247.88 220.823 247.88ZM220.535 253.376C221.591 253.376 222.359 252.776 222.395 251.744L222.383 251.048C222.035 251.024 221.651 251.012 221.255 251.012C219.947 251.024 219.215 251.42 219.215 252.26C219.215 253.028 219.731 253.376 220.535 253.376ZM226.15 249.2C226.594 248.204 227.386 247.748 228.55 247.904V248.672C227.002 248.456 226.222 249.32 226.186 251.204V254H225.274V248H226.15V249.2ZM238.043 254H232.799V253.124C235.187 250.76 236.927 249.296 236.927 247.892C236.927 246.836 236.075 246.32 235.079 246.32C234.323 246.32 233.579 246.608 233.063 246.932V246.02C233.699 245.696 234.515 245.468 235.295 245.468C236.783 245.468 237.923 246.32 237.923 247.88C237.923 249.488 236.543 250.724 234.143 253.088H238.043V254ZM243.175 254V251.996H239.095V251.204L242.767 245.6H244.135V251.144H245.191V251.996H244.135V254H243.175ZM243.175 251.144V246.452H243.151L240.079 251.144H243.175Z" fill="white"/>
<path d="M278.666 254L282.326 245.6H283.334L286.982 254H285.926L285.014 251.792H280.586L279.674 254H278.666ZM282.806 246.512L280.922 251H284.678L282.806 246.512ZM291.166 247.88C292.714 247.88 293.782 249.092 293.782 250.976C293.782 252.884 292.714 254.12 291.154 254.12C290.254 254.12 289.534 253.7 289.09 252.98V256.4H288.214V248H289.126V248.948C289.582 248.264 290.29 247.88 291.166 247.88ZM290.938 253.34C292.102 253.34 292.834 252.416 292.834 250.976C292.834 249.56 292.102 248.66 290.95 248.66C289.798 248.66 289.042 249.56 289.042 250.976C289.042 252.416 289.798 253.34 290.938 253.34ZM296.332 249.2C296.776 248.204 297.568 247.748 298.732 247.904V248.672C297.184 248.456 296.404 249.32 296.368 251.204V254H295.456V248H296.332V249.2ZM308.225 254H302.981V253.124C305.369 250.76 307.109 249.296 307.109 247.892C307.109 246.836 306.257 246.32 305.261 246.32C304.505 246.32 303.761 246.608 303.245 246.932V246.02C303.881 245.696 304.697 245.468 305.477 245.468C306.965 245.468 308.105 246.32 308.105 247.88C308.105 249.488 306.725 250.724 304.325 253.088H308.225V254ZM313.357 254V251.996H309.277V251.204L312.949 245.6H314.317V251.144H315.373V251.996H314.317V254H313.357ZM313.357 251.144V246.452H313.333L310.261 251.144H313.357Z" fill="white"/>
<path d="M353.588 253.004L356.54 245.6H358.136V254H357.176V246.596H357.152L354.188 254H352.976L350.012 246.596H349.988V254H349.028V245.6H350.624L353.588 253.004ZM362.4 247.88C364.236 247.88 364.86 248.84 364.86 250.472V254H364.044V253.16H364.02C363.696 253.628 363.168 254.12 362.04 254.12C360.852 254.12 359.832 253.592 359.832 252.26C359.832 250.712 361.248 250.352 362.556 250.328C363 250.316 363.468 250.328 363.96 250.352C363.96 249.152 363.516 248.648 362.268 248.648C361.476 248.648 360.948 248.876 360.468 249.152V248.384C360.984 248.096 361.536 247.88 362.4 247.88ZM362.112 253.376C363.168 253.376 363.936 252.776 363.972 251.744L363.96 251.048C363.612 251.024 363.228 251.012 362.832 251.012C361.524 251.024 360.792 251.42 360.792 252.26C360.792 253.028 361.308 253.376 362.112 253.376ZM368.771 253.34L370.799 248H371.723L369.179 254.696C368.795 255.716 368.315 256.604 367.271 256.616C367.043 256.616 366.707 256.58 366.407 256.52V255.74C366.659 255.788 366.995 255.836 367.235 255.824C367.919 255.74 368.195 254.888 368.483 254.108L368.519 254.012H368.123L365.879 248H366.803L368.771 253.34ZM381.132 254H375.888V253.124C378.276 250.76 380.016 249.296 380.016 247.892C380.016 246.836 379.164 246.32 378.168 246.32C377.412 246.32 376.668 246.608 376.152 246.932V246.02C376.788 245.696 377.604 245.468 378.384 245.468C379.872 245.468 381.012 246.32 381.012 247.88C381.012 249.488 379.632 250.724 377.232 253.088H381.132V254ZM386.264 254V251.996H382.184V251.204L385.856 245.6H387.224V251.144H388.28V251.996H387.224V254H386.264ZM386.264 251.144V246.452H386.24L383.168 251.144H386.264Z" fill="white"/>
<path d="M421.828 254.036V253.22C422.176 253.268 422.488 253.304 422.776 253.268C423.58 253.184 423.904 252.62 423.904 251.612V245.6H424.864V251.684C424.864 253.412 423.928 254.06 422.908 254.132C422.584 254.156 422.236 254.12 421.828 254.036ZM429.293 254.12C427.817 254.12 426.989 253.112 426.989 251.24V248H427.889V251.312C427.889 252.644 428.453 253.352 429.473 253.352C430.505 253.352 431.285 252.62 431.345 251.144V248H432.257V254H431.381V252.92C430.961 253.712 430.241 254.12 429.293 254.12ZM437.361 247.88C438.837 247.88 439.677 248.888 439.677 250.76V254H438.765V250.688C438.765 249.344 438.201 248.648 437.181 248.648C436.149 248.648 435.369 249.38 435.309 250.856V254H434.397V248H435.285V249.08C435.693 248.288 436.413 247.88 437.361 247.88ZM449.838 254H444.594V253.124C446.982 250.76 448.722 249.296 448.722 247.892C448.722 246.836 447.87 246.32 446.874 246.32C446.118 246.32 445.374 246.608 444.858 246.932V246.02C445.494 245.696 446.31 245.468 447.09 245.468C448.578 245.468 449.718 246.32 449.718 247.88C449.718 249.488 448.338 250.724 445.938 253.088H449.838V254ZM454.97 254V251.996H450.89V251.204L454.562 245.6H455.93V251.144H456.986V251.996H455.93V254H454.97ZM454.97 251.144V246.452H454.946L451.874 251.144H454.97Z" fill="white"/>
<line x1="48.5" y1="235.5" x2="473.5" y2="235.5" stroke="#B4C1CA"/>
<rect opacity="0.2" x="406" y="128" width="48" height="104" rx="8" fill="url(#paint1_linear_4364_28018)"/>
<path d="M430.506 128L430.506 232" stroke="#0DA3DE" stroke-dasharray="8 8"/>
<path d="M48 224H82.5L150 193L225 205L292 173L359.5 192.5L430.5 150L467 131" stroke="#83BD01" stroke-width="3" stroke-linecap="round"/>
<circle cx="83.0059" cy="223.5" r="6" fill="#0DA3DE" stroke="white" stroke-width="3"/>
<circle cx="152.006" cy="194.5" r="6" fill="#0DA3DE" stroke="white" stroke-width="3"/>
<circle cx="224.006" cy="203.5" r="6" fill="#0DA3DE" stroke="white" stroke-width="3"/>
<circle cx="295.5" cy="174.5" r="6" fill="#0DA3DE" stroke="white" stroke-width="3"/>
<circle cx="363.5" cy="189.5" r="6" fill="#0DA3DE" stroke="white" stroke-width="3"/>
<circle cx="430.006" cy="149.5" r="6" fill="#0DA3DE" stroke="white" stroke-width="3"/>
<path d="M388.185 51.779C388.185 53.984 386.904 55.391 384.993 55.958V58.184H382.662V56.252C381.549 56.231 380.541 56 379.617 55.601V53.417C380.562 53.858 381.612 54.11 382.599 54.11C384.237 54.11 385.623 53.459 385.623 51.968C385.623 48.839 379.449 49.658 379.449 45.206C379.449 43.148 380.772 41.783 382.662 41.279V39.074H384.993V41.132C385.812 41.195 386.673 41.384 387.471 41.657V43.799C386.442 43.442 385.329 43.211 384.468 43.211C383.145 43.211 382.053 43.757 382.053 45.101C382.053 48.146 388.185 46.949 388.185 51.779ZM395.108 56V44.219L393.155 45.899L391.874 44.303L395.549 41.3H397.628V56H395.108ZM408.352 56V52.829H401.632V50.96L407.512 41.3H410.872V50.645H412.615V52.829H410.872V56H408.352ZM408.352 50.645V43.799H408.31L404.173 50.645H408.352ZM423.444 56H413.952V53.963C417.795 50.246 420.63 47.663 420.63 45.416C420.63 44.009 419.454 43.232 417.858 43.232C416.577 43.232 415.38 43.736 414.435 44.366V42.077C415.548 41.51 416.976 41.069 418.488 41.069C421.071 41.069 423.234 42.455 423.234 45.248C423.234 47.894 421.26 50.141 417.543 53.732H423.444V56Z" fill="#83BD01"/>
<path fill-rule="evenodd" clip-rule="evenodd" d="M441.455 46.6078L447 45L445.62 50.6061L443.898 48.9532L441.121 51.8463C441.026 51.9445 440.896 52 440.76 52C440.624 52 440.494 51.9445 440.399 51.8463L438.36 49.722L435.361 52.8463C435.169 53.0455 434.853 53.0519 434.654 52.8607C434.455 52.6695 434.448 52.3529 434.639 52.1537L437.999 48.6537C438.094 48.5555 438.224 48.5 438.36 48.5C438.496 48.5 438.626 48.5555 438.721 48.6537L440.76 50.778L443.177 48.2607L441.455 46.6078Z" fill="white"/>
<path d="M449.658 51.116V49.884H452.542V47H453.858V49.884H456.742V51.116H453.858V54H452.542V51.116H449.658ZM461.483 47.84C463.359 47.84 464.647 49.142 464.647 50.948C464.647 53.09 462.869 54.14 461.035 54.14C460.405 54.14 459.495 54.014 458.627 53.706V52.32C459.383 52.628 460.265 52.852 460.979 52.852C462.309 52.852 463.191 52.124 463.191 50.948C463.191 49.758 462.281 49.1 460.923 49.1C460.111 49.1 459.509 49.366 458.921 49.688V44.2H464.087V45.432H460.321L460.293 47.98C460.685 47.896 461.091 47.84 461.483 47.84ZM468.464 54H466.896V52.432H468.464V54ZM474.726 54V51.774H470.176V50.626L474.096 44.2H476.126V50.542H477.358V51.774H476.126V54H474.726ZM474.726 50.542V45.376H474.698L471.59 50.542H474.726ZM478.544 49.1C478.544 46.958 479.16 44.06 481.862 44.06C484.564 44.06 485.18 46.958 485.18 49.1C485.18 51.242 484.564 54.14 481.862 54.14C479.16 54.14 478.544 51.242 478.544 49.1ZM480 49.1C480 50.318 480.182 52.908 481.862 52.908C483.542 52.908 483.724 50.318 483.724 49.1C483.724 47.868 483.472 45.292 481.862 45.292C480.252 45.292 480 47.868 480 49.1ZM487.541 46.86C487.541 45.068 488.297 44.06 489.655 44.06C491.013 44.06 491.783 45.068 491.783 46.86C491.783 48.652 491.013 49.66 489.655 49.66C488.297 49.66 487.541 48.652 487.541 46.86ZM495.115 44.2H496.669L490.943 54H489.389L495.115 44.2ZM488.773 46.86C488.773 48.204 489.053 48.834 489.655 48.834C490.271 48.834 490.551 48.204 490.551 46.86C490.551 45.53 490.271 44.9 489.655 44.9C489.053 44.9 488.773 45.53 488.773 46.86ZM494.275 51.34C494.275 49.548 495.031 48.54 496.389 48.54C497.747 48.54 498.517 49.548 498.517 51.34C498.517 53.132 497.747 54.14 496.389 54.14C495.031 54.14 494.275 53.132 494.275 51.34ZM495.507 51.34C495.507 52.684 495.787 53.314 496.389 53.314C497.005 53.314 497.285 52.684 497.285 51.34C497.285 50.01 497.005 49.38 496.389 49.38C495.787 49.38 495.507 50.01 495.507 51.34Z" fill="white"/>
<path d="M383.516 74.842L385.812 79H384.3L382.088 75.094H381.934H380.562V79H379.162V69.2H381.528C383.67 69.2 385.392 69.928 385.392 72.154C385.392 73.652 384.594 74.478 383.516 74.842ZM380.562 70.432V73.862H382.06C383.082 73.862 383.964 73.428 383.964 72.14C383.964 70.852 382.858 70.432 381.626 70.432H380.562ZM390.304 79.14C387.854 79.14 386.72 77.432 386.72 75.388C386.72 73.316 387.84 71.874 389.954 71.874C392.194 71.874 393.062 73.54 393.034 75.794H388.12C388.12 77.18 389.058 78.02 390.36 78.02C391.004 78.02 391.788 77.81 392.656 77.39V78.566C391.914 78.958 391.102 79.14 390.304 79.14ZM388.12 74.758H391.634C391.592 73.68 390.934 72.98 389.912 72.98C388.89 72.98 388.274 73.68 388.12 74.758ZM399.557 72.238V73.344C398.871 73.036 398.241 72.91 397.667 72.966C396.421 73.092 395.525 74.086 395.525 75.5C395.525 76.914 396.435 77.936 397.695 78.034C398.241 78.076 398.899 77.95 399.585 77.67V78.776C398.969 79.028 398.353 79.14 397.765 79.14C395.623 79.14 394.125 77.642 394.125 75.5C394.125 73.358 395.623 71.86 397.765 71.86C398.423 71.86 399.011 72 399.557 72.238ZM404.024 79.14C401.574 79.14 400.44 77.432 400.44 75.388C400.44 73.316 401.56 71.874 403.674 71.874C405.914 71.874 406.782 73.54 406.754 75.794H401.84C401.84 77.18 402.778 78.02 404.08 78.02C404.724 78.02 405.508 77.81 406.376 77.39V78.566C405.634 78.958 404.822 79.14 404.024 79.14ZM401.84 74.758H405.354C405.312 73.68 404.654 72.98 403.632 72.98C402.61 72.98 401.994 73.68 401.84 74.758ZM409.917 69.2V70.684H408.517V69.2H409.917ZM409.875 72V79H408.559V72H409.875ZM417.805 72L415.299 79H413.647L411.141 72H412.485L414.459 77.544V77.586H414.487V77.544L416.461 72H417.805ZM422.034 79.14C419.584 79.14 418.45 77.432 418.45 75.388C418.45 73.316 419.57 71.874 421.684 71.874C423.924 71.874 424.792 73.54 424.764 75.794H419.85C419.85 77.18 420.788 78.02 422.09 78.02C422.734 78.02 423.518 77.81 424.386 77.39V78.566C423.644 78.958 422.832 79.14 422.034 79.14ZM419.85 74.758H423.364C423.322 73.68 422.664 72.98 421.642 72.98C420.62 72.98 420.004 73.68 419.85 74.758ZM431.315 72.924V68.5H432.631V79H431.371V77.992H431.329C430.811 78.72 430.013 79.14 429.061 79.14C427.269 79.14 425.967 77.67 425.967 75.472C425.967 73.302 427.269 71.86 429.047 71.86C429.971 71.86 430.741 72.252 431.273 72.924H431.315ZM429.397 78.02C430.615 78.02 431.427 76.998 431.427 75.472C431.427 73.974 430.615 72.98 429.383 72.98C428.151 72.98 427.339 73.974 427.339 75.472C427.339 76.998 428.165 78.02 429.397 78.02ZM438.468 69.2H440.834C442.976 69.2 444.698 69.928 444.698 72.154C444.698 74.324 443.004 75.094 441.24 75.094H439.868V79H438.468V69.2ZM439.868 73.862H441.366C442.388 73.862 443.27 73.428 443.27 72.14C443.27 70.852 442.164 70.432 440.932 70.432H439.868V73.862ZM448.628 71.86C450.812 71.86 451.526 73.05 451.526 74.828V79H450.35V78.076H450.322C450.014 78.51 449.552 79.14 448.208 79.14C446.892 79.14 445.59 78.538 445.59 76.942C445.59 75.038 447.438 74.66 448.81 74.632C449.202 74.618 449.692 74.632 450.238 74.66C450.238 73.456 449.762 72.966 448.418 72.966C447.452 72.966 446.85 73.274 446.332 73.568V72.462C446.906 72.14 447.55 71.86 448.628 71.86ZM448.32 78.076C449.384 78.076 450.196 77.432 450.238 76.228V75.64C449.916 75.626 449.552 75.612 449.23 75.612C447.802 75.612 446.99 76.088 446.99 76.942C446.99 77.726 447.536 78.076 448.32 78.076ZM455.949 78.048L458.077 72H459.421L456.761 79.434C456.285 80.778 455.613 82.038 454.255 82.052C454.003 82.052 453.541 82.01 453.149 81.926V80.806C453.471 80.862 453.933 80.932 454.199 80.904C454.927 80.806 455.305 79.896 455.613 79.014H454.997L452.533 72H453.877L455.949 78.048ZM468.348 71.86C469.93 71.86 470.826 72.966 470.826 75.066V79H469.51V75.038C469.51 73.666 469.048 72.966 468.096 72.966C466.99 72.966 466.332 73.89 466.332 75.654V79H465.1V75.038C465.1 73.666 464.582 72.966 463.63 72.966C462.58 72.966 461.992 73.792 461.922 75.374V79H460.606V72H461.88V73.022H461.922C462.3 72.252 462.944 71.86 463.882 71.86C464.918 71.86 465.646 72.336 466.038 73.26C466.5 72.336 467.312 71.86 468.348 71.86ZM475.988 79.14C473.538 79.14 472.404 77.432 472.404 75.388C472.404 73.316 473.524 71.874 475.638 71.874C477.878 71.874 478.746 73.54 478.718 75.794H473.804C473.804 77.18 474.742 78.02 476.044 78.02C476.688 78.02 477.472 77.81 478.34 77.39V78.566C477.598 78.958 476.786 79.14 475.988 79.14ZM473.804 74.758H477.318C477.276 73.68 476.618 72.98 475.596 72.98C474.574 72.98 473.958 73.68 473.804 74.758ZM483.98 71.86C485.73 71.86 486.71 73.022 486.71 75.22V79H485.394V75.108C485.394 73.68 484.792 72.966 483.714 72.966C482.608 72.966 481.782 73.736 481.712 75.36V79H480.396V72H481.67V73.022H481.712C482.188 72.252 482.972 71.86 483.98 71.86ZM490.271 72H492.021V73.148H490.271V77.068C490.271 77.67 490.383 77.936 490.999 77.964C491.279 77.978 491.573 77.936 491.811 77.894V78.958C491.517 79.042 491.181 79.084 490.831 79.084C489.487 79.084 488.955 78.384 488.955 77.054V73.148H487.793V72H488.955V70.39L490.271 69.928V72ZM494.861 79.14C494.329 79.14 493.447 79.028 492.817 78.762V77.67C493.419 77.95 494.077 78.076 494.595 78.076C495.253 78.076 496.205 77.866 496.205 77.11C496.205 75.612 492.775 76.06 492.775 73.876C492.775 72.42 493.923 71.874 495.393 71.874C496.023 71.874 496.555 71.972 497.101 72.14V73.232C496.667 73.05 496.037 72.896 495.519 72.896C494.819 72.896 494.063 73.176 494.063 73.75C494.063 75.192 497.465 74.744 497.465 76.97C497.465 78.454 496.191 79.14 494.861 79.14Z" fill="white"/>
</g>
<defs>
<filter id="filter0_d_4364_28018" x="0.505859" y="0" width="575.071" height="337" filterUnits="userSpaceOnUse" color-interpolation-filters="sRGB">
<feFlood flood-opacity="0" result="BackgroundImageFix"/>
<feColorMatrix in="SourceAlpha" type="matrix" values="0 0 0 0 0 0 0 0 0 0 0 0 0 0 0 0 0 0 127 0" result="hardAlpha"/>
<feMorphology radius="1" operator="dilate" in="SourceAlpha" result="effect1_dropShadow_4364_28018"/>
<feOffset dx="3" dy="8"/>
<feGaussianBlur stdDeviation="15"/>
<feComposite in2="hardAlpha" operator="out"/>
<feColorMatrix type="matrix" values="0 0 0 0 0.658824 0 0 0 0 0.686275 0 0 0 0 0.721569 0 0 0 0.3 0"/>
<feBlend mode="normal" in2="BackgroundImageFix" result="effect1_dropShadow_4364_28018"/>
<feBlend mode="normal" in="SourceGraphic" in2="effect1_dropShadow_4364_28018" result="shape"/>
</filter>
<linearGradient id="paint0_linear_4364_28018" x1="285.042" y1="23" x2="285.042" y2="277" gradientUnits="userSpaceOnUse">
<stop offset="0.25" stop-color="#1E3A71"/>
<stop offset="1" stop-color="#0080BD"/>
</linearGradient>
<linearGradient id="paint1_linear_4364_28018" x1="430" y1="128" x2="430" y2="232" gradientUnits="userSpaceOnUse">
<stop offset="0.575" stop-color="#0DA3DE"/>
<stop offset="1" stop-color="white" stop-opacity="0"/>
</linearGradient>
</defs>
</svg>
