<svg width="24" height="23" viewBox="0 0 24 23" fill="none" xmlns="http://www.w3.org/2000/svg">
<path d="M9.0119 20.8001H4.63095V23H2.44048V20.8001H1.34524C1.05476 20.8001 0.776185 20.6842 0.570788 20.4779C0.365391 20.2716 0.25 19.9918 0.25 19.7001V3.20064C0.25 2.90891 0.365391 2.62913 0.570788 2.42285C0.776185 2.21657 1.05476 2.10068 1.34524 2.10068H9.0119V0.549729C9.01194 0.469894 9.02928 0.391024 9.06273 0.318598C9.09617 0.246172 9.14491 0.181927 9.20557 0.130325C9.26622 0.0787232 9.33734 0.0410023 9.41397 0.0197827C9.4906 -0.00143688 9.57092 -0.00564635 9.64933 0.00744662L21.2391 1.94778C21.4949 1.99048 21.7272 2.12291 21.8949 2.3215C22.0626 2.5201 22.1546 2.77198 22.1548 3.03235V5.40057H23.25V7.6005H22.1548V15.3003H23.25V17.5002H22.1548V19.8684C22.1546 20.1288 22.0626 20.3807 21.8949 20.5792C21.7272 20.7778 21.4949 20.9103 21.2391 20.953L19.9643 21.1664V23H17.7738V21.5337L9.64933 22.8933C9.57092 22.9064 9.4906 22.9022 9.41397 22.881C9.33734 22.8597 9.26622 22.822 9.20557 22.7704C9.14491 22.7188 9.09617 22.6546 9.06273 22.5822C9.02928 22.5097 9.01194 22.4309 9.0119 22.351V20.8001ZM11.2024 20.4041L19.9643 18.9367V3.96402L11.2024 2.49777V20.403V20.4041ZM16.131 14.2003C15.2241 14.2003 14.4881 12.9683 14.4881 11.4504C14.4881 9.93243 15.2241 8.70047 16.131 8.70047C17.0378 8.70047 17.7738 9.93243 17.7738 11.4504C17.7738 12.9683 17.0378 14.2003 16.131 14.2003Z" fill="white"/>
</svg>
