<svg width="22" height="22" viewBox="0 0 22 22" fill="none" xmlns="http://www.w3.org/2000/svg">
<path d="M11 -0.000667184C17.0753 -0.000666653 22 4.92404 22 10.9993C22 17.0746 17.0753 21.9993 11 21.9993C4.92469 21.9993 -1.31263e-05 17.0746 -1.25952e-05 10.9993C-1.20641e-05 4.92404 4.92469 -0.000667715 11 -0.000667184ZM11 2.19933C8.66609 2.19933 6.42777 3.12647 4.77745 4.77679C3.12713 6.42712 2.19999 8.66543 2.19999 10.9993C2.19999 13.3332 3.12713 15.5716 4.77745 17.2219C6.42777 18.8722 8.66609 19.7993 11 19.7993C13.3339 19.7993 15.5722 18.8722 17.2225 17.2219C18.8729 15.5716 19.8 13.3332 19.8 10.9993C19.8 8.66543 18.8729 6.42712 17.2225 4.7768C15.5722 3.12648 13.3339 2.19933 11 2.19933ZM12.1 16.4993L9.89999 16.4993L9.89999 14.2993L12.1 14.2993L12.1 16.4993ZM12.1 12.0993L9.89999 12.0993L9.89999 5.49934L12.1 5.49934L12.1 12.0993Z" fill="#449CA4"/>
</svg>
